#N canvas 602 75 660 558 10;
#X declare -stdpath moonlib;
#X declare -stdpath hcs;
#X declare -stdpath ggee;
#X declare -stdpath zexy;
#X declare -lib zexy;
#X declare -stdpath Fraise;
#X obj 19 141 fruit/fruit 1 fruit1 10 example1;
#X obj 21 38 pied/pied 0 41424;
#X obj 22 8 declare -stdpath Fraise;
#X obj 44 208 vsl 15 128 0 1 0 0 empty empty 0 0 -9 0 10 -262144 -1
-1 2700 1;
#X msg 44 344 0 \$1;
#X obj 60 392 unpack f f;
#X obj 60 460 pack f f;
#X obj 117 435 i;
#X obj 82 208 vsl 15 128 0 1 0 0 empty empty 1 0 -9 0 10 -262144 -1
-1 3500 1;
#X obj 120 208 vsl 15 128 0 1 0 0 empty empty 2 0 -9 0 10 -262144 -1
-1 6600 1;
#X obj 158 208 vsl 15 128 0 1 0 0 empty empty 3 0 -9 0 10 -262144 -1
-1 3839 1;
#X obj 195 209 vsl 15 128 0 1 0 0 empty empty 4 0 -9 0 10 -262144 -1
-1 3877 1;
#X obj 233 209 vsl 15 128 0 1 0 0 empty empty 5 0 -9 0 10 -262144 -1
-1 4136 1;
#X obj 271 209 vsl 15 128 0 1 0 0 empty empty 6 0 -9 0 10 -262144 -1
-1 3794 1;
#X obj 309 209 vsl 15 128 0 1 0 0 empty empty 7 0 -9 0 10 -262144 -1
-1 7300 1;
#X msg 82 344 1 \$1;
#X msg 120 344 2 \$1;
#X msg 158 344 3 \$1;
#X msg 195 345 4 \$1;
#X msg 233 345 5 \$1;
#X msg 271 345 6 \$1;
#X msg 309 345 7 \$1;
#X msg 60 485 c 40 c \$1 i \$2;
#X obj 14 222 bng 15 250 50 0 empty empty empty 17 7 0 10 -262144 -1
-1;
#X obj 117 413 * 65535;
#X obj 408 177 vsl 15 128 0 1 0 0 empty empty 7 0 -9 0 10 -262144 -1
-1 2047 1;
#X obj 408 314 t b f;
#X obj 408 362 pack f f;
#X text 204 30 AC dimmer example for Versa1.0;
#X text 205 65 Here main dimmer channel is set to 40 in firmware (see
example1/main.c).;
#X obj 498 112 vsl 15 128 0 1 0 0 empty empty 7 0 -9 0 10 -262144 -1
-1 5080 1;
#X obj 490 283 line;
#X obj 545 128 tgl 15 0 empty empty empty 17 7 0 10 -262144 -1 -1 1
1;
#X obj 538 182 tgl 15 0 empty empty empty 17 7 0 10 -262144 -1 -1 1
1;
#X obj 538 204 * 0.3;
#N canvas 64 158 466 443 DEBUG 1;
#X obj 47 47 fruit/receive fruit1;
#X floatatom 47 120 5 0 0 0 - - -, f 5;
#X floatatom 82 120 5 0 0 0 - - -, f 5;
#X floatatom 117 120 5 0 0 0 - - -, f 5;
#X floatatom 152 120 5 0 0 0 - - -, f 5;
#X floatatom 187 120 5 0 0 0 - - -, f 5;
#X floatatom 222 120 5 0 0 0 - - -, f 5;
#X floatatom 257 120 5 0 0 0 - - -, f 5;
#X floatatom 292 120 5 0 0 0 - - -, f 5;
#X obj 47 91 unpack f f f f f f f f;
#X obj 47 68 list split 8;
#X floatatom 46 193 5 0 0 0 - - -, f 5;
#X floatatom 81 193 5 0 0 0 - - -, f 5;
#X floatatom 116 193 5 0 0 0 - - -, f 5;
#X floatatom 151 193 5 0 0 0 - - -, f 5;
#X floatatom 186 193 5 0 0 0 - - -, f 5;
#X floatatom 221 193 5 0 0 0 - - -, f 5;
#X floatatom 256 193 5 0 0 0 - - -, f 5;
#X floatatom 291 193 5 0 0 0 - - -, f 5;
#X obj 46 164 unpack f f f f f f f f;
#X obj 46 141 list split 8;
#X floatatom 46 266 5 0 0 0 - - -, f 5;
#X floatatom 81 266 5 0 0 0 - - -, f 5;
#X floatatom 116 266 5 0 0 0 - - -, f 5;
#X floatatom 151 266 5 0 0 0 - - -, f 5;
#X floatatom 186 266 5 0 0 0 - - -, f 5;
#X floatatom 221 266 5 0 0 0 - - -, f 5;
#X floatatom 256 266 5 0 0 0 - - -, f 5;
#X floatatom 291 266 5 0 0 0 - - -, f 5;
#X obj 46 237 unpack f f f f f f f f;
#X obj 46 214 list split 8;
#X floatatom 75 300 5 0 0 0 - - -, f 5;
#X obj 75 398 tgl 15 0 empty empty page -5 19 0 10 -262144 -1 -1 1
1;
#X obj 114 397 tgl 15 0 empty empty pageInt -5 19 0 10 -262144 -1 -1
1 1;
#X text 15 408 status:;
#X text 328 194 follower_page0;
#X text 326 264 follower_page1;
#X text 329 120 sorted;
#X obj 114 348 & 2;
#X obj 75 348 & 1;
#X obj 75 370 != 0;
#X obj 114 370 != 0;
#X obj 168 398 tgl 15 0 empty empty changed -5 19 0 10 -262144 -1 -1
0 1;
#X obj 216 398 tgl 15 0 empty empty is60Hz -5 19 0 10 -262144 -1 -1
0 1;
#X obj 168 370 != 0;
#X obj 216 371 != 0;
#X obj 75 326 t f f f f;
#X obj 168 348 & 4;
#X obj 216 349 & 8;
#X connect 0 0 10 0;
#X connect 9 0 1 0;
#X connect 9 1 2 0;
#X connect 9 2 3 0;
#X connect 9 3 4 0;
#X connect 9 4 5 0;
#X connect 9 5 6 0;
#X connect 9 6 7 0;
#X connect 9 7 8 0;
#X connect 10 0 9 0;
#X connect 10 1 20 0;
#X connect 19 0 11 0;
#X connect 19 1 12 0;
#X connect 19 2 13 0;
#X connect 19 3 14 0;
#X connect 19 4 15 0;
#X connect 19 5 16 0;
#X connect 19 6 17 0;
#X connect 19 7 18 0;
#X connect 20 0 19 0;
#X connect 20 1 30 0;
#X connect 29 0 21 0;
#X connect 29 1 22 0;
#X connect 29 2 23 0;
#X connect 29 3 24 0;
#X connect 29 4 25 0;
#X connect 29 5 26 0;
#X connect 29 6 27 0;
#X connect 29 7 28 0;
#X connect 30 0 29 0;
#X connect 30 1 31 0;
#X connect 31 0 46 0;
#X connect 38 0 41 0;
#X connect 39 0 40 0;
#X connect 40 0 32 0;
#X connect 41 0 33 0;
#X connect 44 0 42 0;
#X connect 45 0 43 0;
#X connect 46 0 39 0;
#X connect 46 1 38 0;
#X connect 46 2 47 0;
#X connect 46 3 48 0;
#X connect 47 0 44 0;
#X connect 48 0 45 0;
#X restore 414 414 pd DEBUG;
#X obj 539 228 + 0.1;
#X msg 492 259 \$1 20000;
#X obj 539 155 metro 20000;
#X msg 408 337 0 \, 1 \, 2 \, 3 \, 4 \, 5 \, 6 \, 7;
#X msg 561 282;
#X obj 60 508 fruit/send fruit1;
#X connect 3 0 4 0;
#X connect 4 0 5 0;
#X connect 5 0 6 0;
#X connect 5 1 24 0;
#X connect 6 0 22 0;
#X connect 7 0 6 1;
#X connect 8 0 15 0;
#X connect 9 0 16 0;
#X connect 10 0 17 0;
#X connect 11 0 18 0;
#X connect 12 0 19 0;
#X connect 13 0 20 0;
#X connect 14 0 21 0;
#X connect 15 0 5 0;
#X connect 16 0 5 0;
#X connect 17 0 5 0;
#X connect 18 0 5 0;
#X connect 19 0 5 0;
#X connect 20 0 5 0;
#X connect 21 0 5 0;
#X connect 22 0 41 0;
#X connect 23 0 3 0;
#X connect 24 0 7 0;
#X connect 25 0 26 0;
#X connect 26 0 39 0;
#X connect 26 1 27 1;
#X connect 27 0 5 0;
#X connect 30 0 37 0;
#X connect 31 0 25 0;
#X connect 32 0 38 0;
#X connect 33 0 34 0;
#X connect 34 0 36 0;
#X connect 36 0 30 0;
#X connect 37 0 31 0;
#X connect 38 0 33 0;
#X connect 39 0 27 0;
