#N canvas 922 84 562 646 10;
#X declare -path Fraise -path Fraise/pic;
#X obj 22 237 analog/parse;
#X obj 22 207 fruit/receive fruit1;
#X msg 348 240 L\$1;
#X obj 348 217 tgl 15 0 empty empty set_LED 18 7 0 10 #00fc04 #000000 #000000 0 1;
#X obj 249 262 fruit/send fruit1;
#X obj 19 141 fruit/fruit 1 fruit1 10 example1-Versa2-VNH1;
#X obj 22 297 FSLP/compute 0 1 2;
#X floatatom 22 320 5 0 0 1 pressure - - 0;
#X floatatom 127 320 5 0 0 1 position - - 0;
#X obj 22 268 analog/normalize 3;
#X obj 116 239 print;
#X msg 379 241 EHello\ world!;
#X obj 127 343 * 80;
#X obj 127 444 mtof;
#X obj 127 465 phasor~;
#X obj 128 495 bob~, f 19;
#X obj 183 400 * 80;
#X obj 183 461 mtof;
#X obj 183 442 +, f 6;
#X obj 239 473 sig~ 3;
#X obj 128 548 *~ 0.1;
#X obj 129 583 dac~;
#X obj 127 363 + 10;
#X obj 216 421 t b f;
#X obj 128 521 lop~, f 7;
#X obj 216 400 - 30;
#X obj 21 38 pied/pied 1;
#X obj 21 16 declare -path Fraise -path Fraise/pic;
#X connect 0 0 9 0;
#X connect 0 1 10 0;
#X connect 1 0 0 0;
#X connect 2 0 4 1;
#X connect 3 0 2 0;
#X connect 6 0 7 0;
#X connect 6 1 8 0;
#X connect 7 0 16 0;
#X connect 8 0 12 0;
#X connect 9 0 6 0;
#X connect 11 0 4 1;
#X connect 12 0 22 0;
#X connect 13 0 14 0;
#X connect 14 0 15 0;
#X connect 15 0 24 0;
#X connect 16 0 18 0;
#X connect 17 0 15 1;
#X connect 17 0 24 1;
#X connect 18 0 17 0;
#X connect 19 0 15 2;
#X connect 20 0 21 0;
#X connect 20 0 21 1;
#X connect 22 0 13 0;
#X connect 22 0 25 0;
#X connect 23 0 18 0;
#X connect 23 1 18 1;
#X connect 24 0 20 0;
#X connect 25 0 23 0;
