#N canvas 407 129 940 724 10;
#X declare -path Fraise -stdpath Fraise;
#X obj 22 207 fruit/receive fruit1;
#X obj 19 141 fruit/fruit 1 fruit1 10 example1;
#X msg 374 159 L\$1;
#X obj 374 136 tgl 15 0 empty empty set_LED 18 7 0 10 -4034 -1 -1 0
1;
#X obj 21 38 pied/pied 0 41424;
#X obj 21 16 declare -path Fraise -stdpath Fraise;
#X obj 43 280 * 256;
#X obj 22 302 +;
#X obj 85 276 * 256;
#X obj 65 302 +;
#X obj 127 276 * 256;
#X obj 106 301 +;
#X obj 22 326 change;
#X obj 65 328 change;
#X obj 106 328 change;
#X msg 396 218 I0;
#X obj 364 82 metro 150;
#X obj 364 55 tgl 15 0 empty empty empty 17 7 0 10 -262144 -1 -1 0
1;
#X obj 269 185 fruit/send2 fruit1;
#X floatatom 80 434 5 0 0 0 - - -, f 5;
#X obj 25 512 hsl 128 15 -1 1 0 0 empty empty empty -2 -8 0 10 -262144
-1 -1 0 1;
#X obj 22 394 + 32768;
#X obj 22 416 mod 65536;
#X obj 22 438 - 32768;
#X obj 22 460 / 32768;
#X obj 169 514 hsl 128 15 -1 1 0 0 empty empty empty -2 -8 0 10 -262144
-1 -1 0 1;
#X obj 166 396 + 32768;
#X obj 166 418 mod 65536;
#X obj 166 440 - 32768;
#X obj 166 462 / 32768;
#X obj 315 511 hsl 128 15 -1 1 0 0 empty empty empty -2 -8 0 10 -262144
-1 -1 0 1;
#X obj 312 393 + 32768;
#X obj 312 415 mod 65536;
#X obj 312 437 - 32768;
#X obj 312 459 / 32768;
#X floatatom 228 496 5 0 0 0 - - -, f 5;
#X floatatom 375 485 5 0 0 0 - - -, f 5;
#X floatatom 380 450 5 0 0 0 - - -, f 5;
#X obj 312 481 * 130;
#X floatatom 249 453 5 0 0 0 - - -, f 5;
#X obj 166 484 * 116;
#X obj 22 482 * 116;
#X obj 22 255 unpack f f f f f f;
#X obj 478 278 * 256;
#X obj 457 300 +;
#X obj 520 274 * 256;
#X obj 500 300 +;
#X obj 562 274 * 256;
#X obj 541 299 +;
#X obj 500 326 change;
#X obj 541 326 change;
#X floatatom 515 432 5 0 0 0 - - -, f 5;
#X obj 460 510 hsl 128 15 -1 1 0 0 empty empty empty -2 -8 0 10 -262144
-1 -1 0 1;
#X obj 457 392 + 32768;
#X obj 457 414 mod 65536;
#X obj 457 436 - 32768;
#X obj 457 458 / 32768;
#X obj 604 512 hsl 128 15 -1 1 0 0 empty empty empty -2 -8 0 10 -262144
-1 -1 0 1;
#X obj 601 394 + 32768;
#X obj 601 416 mod 65536;
#X obj 601 438 - 32768;
#X obj 601 460 / 32768;
#X obj 750 509 hsl 128 15 -1 1 0 0 empty empty empty -2 -8 0 10 -262144
-1 -1 0 1;
#X obj 747 391 + 32768;
#X obj 747 413 mod 65536;
#X obj 747 435 - 32768;
#X obj 747 457 / 32768;
#X floatatom 663 494 5 0 0 0 - - -, f 5;
#X floatatom 810 483 5 0 0 0 - - -, f 5;
#X obj 747 479 * 130;
#X floatatom 684 451 5 0 0 0 - - -, f 5;
#X obj 601 482 * 116;
#X obj 457 480 * 116;
#X obj 457 253 unpack f f f f f f;
#X obj 22 229 route 1 2;
#X floatatom 633 297 5 0 0 0 - - -, f 5;
#X obj 457 324 change;
#N canvas 245 129 455 238 schematic 1;
#X text 124 142 +5V---150--;
#X text 124 162 GND---330--;
#X text 186 147 |;
#X text 186 157 |;
#X text 142 170 |;
#X text 199 96 |;
#X text 249 119 |;
#X text 249 129 |;
#X text 199 136 |;
#X text 199 146 |;
#X text 199 117 |;
#X text 199 127 |;
#X text 249 70 |;
#X text 249 99 |;
#X text 249 109 |;
#X text 249 80 |;
#X text 249 89 |;
#X text 249 49 |;
#X text 188 151 ---------------3.43V;
#X text 143 175 -----------------------GND;
#X text 249 137 |;
#X text 249 147 |;
#X text 28 111 5V side;
#X text 330 99 ADXL345;
#X text 330 115 3.3V side;
#X text 103 44 K5(SCL)---220---------------SCL;
#X text 102 90 K7(SDA)---220-------SDA;
#X text 28 95 Versa;
#X text 243 60 2.2K;
#X text 192 108 2.2K;
#X restore 520 92 pd schematic;
#X obj 776 276 t b b;
#X obj 776 298 timer;
#X floatatom 776 320 5 0 0 0 - - -, f 5;
#X floatatom 831 319 5 0 0 0 - - -, f 5;
#X obj 831 297 mavg 30;
#X connect 0 0 74 0;
#X connect 2 0 18 1;
#X connect 3 0 2 0;
#X connect 6 0 7 1;
#X connect 7 0 12 0;
#X connect 8 0 9 1;
#X connect 9 0 13 0;
#X connect 10 0 11 1;
#X connect 11 0 14 0;
#X connect 12 0 21 0;
#X connect 13 0 26 0;
#X connect 14 0 31 0;
#X connect 15 0 18 1;
#X connect 16 0 3 0;
#X connect 17 0 16 0;
#X connect 21 0 22 0;
#X connect 22 0 23 0;
#X connect 23 0 24 0;
#X connect 24 0 41 0;
#X connect 26 0 27 0;
#X connect 27 0 28 0;
#X connect 28 0 29 0;
#X connect 29 0 40 0;
#X connect 31 0 32 0;
#X connect 32 0 33 0;
#X connect 33 0 34 0;
#X connect 34 0 38 0;
#X connect 37 0 38 1;
#X connect 38 0 30 0;
#X connect 38 0 36 0;
#X connect 39 0 40 1;
#X connect 40 0 25 0;
#X connect 40 0 35 0;
#X connect 41 0 20 0;
#X connect 42 0 7 0;
#X connect 42 1 6 0;
#X connect 42 2 9 0;
#X connect 42 3 8 0;
#X connect 42 4 11 0;
#X connect 42 5 10 0;
#X connect 43 0 44 1;
#X connect 44 0 76 0;
#X connect 45 0 46 1;
#X connect 46 0 49 0;
#X connect 47 0 48 1;
#X connect 48 0 50 0;
#X connect 49 0 58 0;
#X connect 50 0 63 0;
#X connect 53 0 54 0;
#X connect 54 0 55 0;
#X connect 55 0 56 0;
#X connect 56 0 72 0;
#X connect 58 0 59 0;
#X connect 59 0 60 0;
#X connect 60 0 61 0;
#X connect 61 0 71 0;
#X connect 63 0 64 0;
#X connect 64 0 65 0;
#X connect 65 0 66 0;
#X connect 66 0 69 0;
#X connect 69 0 62 0;
#X connect 69 0 68 0;
#X connect 70 0 71 1;
#X connect 71 0 57 0;
#X connect 71 0 67 0;
#X connect 72 0 52 0;
#X connect 73 0 44 0;
#X connect 73 1 43 0;
#X connect 73 2 46 0;
#X connect 73 3 45 0;
#X connect 73 4 48 0;
#X connect 73 5 47 0;
#X connect 73 5 75 0;
#X connect 73 5 78 0;
#X connect 74 0 42 0;
#X connect 74 1 73 0;
#X connect 76 0 53 0;
#X connect 78 0 79 0;
#X connect 78 1 79 1;
#X connect 79 0 80 0;
#X connect 80 0 82 0;
#X connect 82 0 81 0;
