#N canvas 524 77 651 517 10;
#X obj 213 194 list prepend;
#X obj 282 172 t l;
#X obj 192 236 list;
#X obj 180 163 t b b;
#X msg 180 185 list;
#X obj 180 138 sel 10 13;
#X msg 127 46 65;
#X obj 192 258 list tosymbol;
#X obj 246 437 print, f 6;
#X msg 184 53 print bonjour \, 10;
#X obj 366 182 list fromsymbol;
#X obj 366 204 list append 10;
#X floatatom 314 25 5 0 0 0 - - -, f 5;
#X obj 372 134 i;
#X obj 400 135 + 1;
#X obj 377 17 tgl 15 0 empty empty empty 17 7 0 10 -262144 -1 -1 1
1;
#N canvas 435 186 475 393 outrate 0;
#X obj 136 130 t b b;
#X obj 150 159 i;
#X obj 179 161 + 1;
#X obj 36 44 inlet;
#X obj 208 198 i;
#X obj 214 59 metro 200;
#X obj 214 81 t b b;
#X msg 214 105 0;
#X obj 216 31 loadbang;
#X obj 208 248 * 5;
#X obj 181 41 bng 15 250 50 0 empty empty empty 17 7 0 10 -262144 -1
-1;
#X obj 208 274 s \$0-outrate;
#X obj 23 96 list split 1;
#X obj 57 116 t a;
#X obj 23 139 list fromsymbol;
#X obj 36 194 list split 1;
#X obj 70 214 t a;
#X obj 208 221 m_mavg 10;
#X connect 0 0 1 0;
#X connect 1 0 2 0;
#X connect 1 0 4 1;
#X connect 2 0 1 1;
#X connect 3 0 15 0;
#X connect 4 0 17 0;
#X connect 5 0 6 0;
#X connect 6 0 7 0;
#X connect 6 1 4 0;
#X connect 7 0 1 0;
#X connect 8 0 5 0;
#X connect 9 0 11 0;
#X connect 10 0 5 0;
#X connect 12 0 14 0;
#X connect 12 1 13 0;
#X connect 13 0 12 0;
#X connect 15 0 0 0;
#X connect 15 1 16 0;
#X connect 16 0 15 0;
#X connect 17 0 9 0;
#X restore 451 248 pd outrate;
#N canvas 27 424 450 300 inrate 0;
#X obj 136 130 t b b;
#X obj 150 159 i;
#X obj 179 161 + 1;
#X obj 136 73 inlet;
#X obj 208 198 i;
#X obj 214 59 metro 200;
#X obj 214 81 t b b;
#X msg 214 105 0;
#X obj 214 31 loadbang;
#X obj 211 249 * 5;
#X floatatom 211 275 5 0 0 0 - - -, f 5;
#X obj 181 41 bng 15 250 50 0 empty empty empty 17 7 0 10 -262144 -1
-1;
#X obj 260 273 s \$0-inrate;
#X obj 211 222 m_mavg 10;
#X connect 0 0 1 0;
#X connect 1 0 2 0;
#X connect 1 0 4 1;
#X connect 2 0 1 1;
#X connect 3 0 0 0;
#X connect 4 0 13 0;
#X connect 5 0 6 0;
#X connect 6 0 7 0;
#X connect 6 1 4 0;
#X connect 7 0 1 0;
#X connect 8 0 5 0;
#X connect 9 0 10 0;
#X connect 9 0 12 0;
#X connect 11 0 5 0;
#X connect 13 0 9 0;
#X restore 87 158 pd inrate;
#X obj 49 263 nbx 5 14 -1e+37 1e+37 0 0 empty \$0-outrate out -18 6
0 8 -262144 -1 -1 48000 256;
#X obj 120 263 nbx 5 14 -1e+37 1e+37 0 0 empty \$0-inrate in -18 6
0 8 -262144 -1 -1 48018 256;
#X obj 180 89 comport;
#X obj 372 91 until;
#X floatatom 176 436 10 0 0 0 - - -, f 10;
#X symbolatom 214 291 15 0 0 0 - - -, f 15;
#X obj 266 382 bng 15 250 50 0 empty empty empty 17 7 0 10 -262144
-1 -1;
#X obj 174 320 i;
#X obj 213 318 + 1;
#X obj 175 353 div 1000;
#X obj 175 375 * 1000;
#X obj 174 293 b;
#X obj 175 397 change;
#X obj 372 47 metro 10;
#X obj 120 282 * 8;
#X floatatom 120 304 8 0 0 0 - - -, f 8;
#X msg 441 126 symbol count:\$1;
#X text 46 220 13000 both max;
#X floatatom 367 331 15 0 0 0 - - -, f 15;
#X msg 431 83 0;
#X msg 75 49 close;
#X msg 370 69 40;
#X msg 366 160 symbol count:12345;
#X text 46 235 48000 both max;
#X connect 0 0 1 0;
#X connect 0 0 2 1;
#X connect 1 0 0 1;
#X connect 2 0 7 0;
#X connect 3 0 4 0;
#X connect 3 1 2 0;
#X connect 4 0 1 0;
#X connect 5 0 3 0;
#X connect 5 2 0 0;
#X connect 6 0 20 0;
#X connect 7 0 23 0;
#X connect 7 0 29 0;
#X connect 9 0 20 0;
#X connect 10 0 11 0;
#X connect 11 0 16 0;
#X connect 11 0 20 0;
#X connect 12 0 40 0;
#X connect 13 0 14 0;
#X connect 13 0 40 0;
#X connect 13 0 36 0;
#X connect 14 0 13 1;
#X connect 15 0 31 0;
#X connect 19 0 32 0;
#X connect 20 0 5 0;
#X connect 20 0 17 0;
#X connect 21 0 13 0;
#X connect 24 0 8 0;
#X connect 25 0 26 0;
#X connect 25 0 27 0;
#X connect 26 0 25 1;
#X connect 27 0 28 0;
#X connect 28 0 30 0;
#X connect 29 0 25 0;
#X connect 30 0 22 0;
#X connect 30 0 8 0;
#X connect 31 0 39 0;
#X connect 32 0 33 0;
#X connect 37 0 13 1;
#X connect 38 0 20 0;
#X connect 39 0 21 0;
#X connect 40 0 10 0;
