#N canvas 203 105 843 832 12;
#X declare -path Fraise;
#X obj 15 216 cnv 20 810 605 empty empty Control 20 12 1 18 #e0e0e0 #0f4710 0;
#X obj 18 235 cnv 20 805 20 empty empty empty 20 12 0 12 #c6ffc7 #404040 0;
#X obj 448 432 cnv 20 300 20 empty empty empty 20 12 0 12 #c6ffc7 #404040 0;
#X obj 325 8 cnv 20 500 200 empty empty Infos\ from\ firmware 20 12 1 18 #dfdfdf #0f4710 0;
#X obj 15 12 declare -path Fraise;
#X obj 15 42 pied/pied 1;
#X msg 148 771 Ehello;
#X obj 25 795 fruit/send2 fruit0;
#X obj 589 84 print from_fruit0;
#X obj 335 33 fruit/receive fruit0;
#X obj 25 335 tgl 20 0 empty empty play 0 -10 0 12 #fcfcfc #000000 #000000 0 1;
#X obj 59 334 tgl 20 0 empty empty random 0 -10 0 12 #fcfcfc #000000 #000000 0 1;
#X obj 126 272 vradio 20 1 0 4 empty empty empty 0 -10 0 12 #fcfcfc #000000 #000000 0;
#X text 151 271 snakes;
#X text 153 292 random;
#X text 152 312 sparkles;
#X text 153 333 greys;
#X obj 219 332 tgl 20 0 empty empty dir 0 -10 0 12 #fcfcfc #000000 #000000 0 1;
#X obj 25 388 pack f f f f, f 29;
#X obj 59 362 t b f;
#X obj 126 363 t b f;
#X obj 193 361 t b f;
#X obj 342 260 vsl 20 100 0 255 0 0 empty empty empty 0 -9 0 12 #ff0400 #000000 #000000 0 1;
#X obj 368 260 vsl 20 100 0 255 0 0 empty empty empty 0 -9 0 12 #00ff04 #000000 #000000 0 1;
#X obj 395 260 vsl 20 100 0 255 0 0 empty empty empty 0 -9 0 12 #0446ff #000000 #000000 0 1;
#X obj 267 393 pack f f f f, f 29;
#X obj 301 367 t b f;
#X obj 368 368 t b f;
#X obj 435 366 t b f;
#X floatatom 267 338 5 0 300 2 which - - 0;
#X obj 633 307 hsl 170 20 -65535 65535 0 0 empty empty empty -2 -10 0 12 #fcfcfc #000000 #000000 0 1;
#X msg 630 279 0;
#X msg 630 332 c 30 l \$1;
#X obj 496 340 until;
#X obj 496 365 i;
#X obj 531 365 + 1;
#X obj 496 314 t f f, f 12;
#X msg 539 339 0;
#X msg 496 391 \$1 0 0 0;
#X msg 630 363 31;
#X msg 268 295 0;
#X msg 496 288 350;
#X obj 15 123 fruit/fruit 1 fruit0 0 fw_ws2812par;
#X msg 639 744 100;
#X msg 491 559 101;
#X msg 460 629 102;
#X obj 459 483 tgl 20 0 empty empty empty 0 -10 0 12 #fcfcfc #000000 #000000 0 1;
#X obj 459 511 metro 1000;
#X msg 641 694 10 i \$1;
#X msg 663 523 20;
#X msg 663 546 60;
#X msg 663 569 100;
#X msg 663 592 200;
#X msg 663 616 250;
#X floatatom 641 669 5 0 65535 0 - - - 0;
#X msg 664 476 1;
#X msg 664 500 2;
#X msg 664 453 0;
#X msg 459 596 103;
#X text 690 451 stop;
#X text 707 640 fastest as possible..., f 11;
#X obj 335 58 route l, f 35;
#X obj 335 83 route load transfers, f 35;
#X obj 335 112 route pattern wsprocess dma;
#X listbox 335 186 20 0 0 1 pattern\ calculation\ cpu%\ and\ us/cycle - - 0;
#X listbox 397 162 20 0 0 1 serialize_bits\ cpu%\ and\ us/cycle - - 0;
#X listbox 459 137 20 0 0 1 dma_send\ cpu%\ and\ us/cycle - - 0;
#X floatatom 565 112 5 0 0 1 real\ fps - - 0;
#X msg 663 640 65535;
#X text 526 289 nb_leds;
#X text 492 263 clear all;
#X text 626 236 Rotate the framebuffer;
#X text 263 235 Set pixel;
#X text 17 234 Test patterns;
#X text 662 432 Set fps;
#X obj 459 534 t b b;
#X text 519 556 get cpuload;
#X text 488 594 get frames count;
#X obj 459 457 loadbang;
#X text 486 628 reset cpuload stats;
#X text 457 433 Query info;
#X floatatom 712 332 10 0 0 0 - - - 0;
#X text 636 724 send single frame;
#X text 668 284 rotate speed;
#X text 658 361 reset rotate position;
#X msg 25 413 21 \$1 \$2 \$3 \$4;
#X msg 267 418 20 i \$1 c \$2 \$3 \$4;
#X connect 6 0 7 1;
#X connect 9 0 61 0;
#X connect 10 0 18 0;
#X connect 11 0 19 0;
#X connect 12 0 20 0;
#X connect 17 0 21 0;
#X connect 18 0 85 0;
#X connect 19 0 18 0;
#X connect 19 1 18 1;
#X connect 20 0 18 0;
#X connect 20 1 18 2;
#X connect 21 0 18 0;
#X connect 21 1 18 3;
#X connect 22 0 26 0;
#X connect 23 0 27 0;
#X connect 24 0 28 0;
#X connect 25 0 86 0;
#X connect 26 0 25 0;
#X connect 26 1 25 1;
#X connect 27 0 25 0;
#X connect 27 1 25 2;
#X connect 28 0 25 0;
#X connect 28 1 25 3;
#X connect 29 0 25 0;
#X connect 30 0 32 0;
#X connect 30 0 81 0;
#X connect 31 0 30 0;
#X connect 32 0 7 0;
#X connect 33 0 34 0;
#X connect 34 0 35 0;
#X connect 34 0 38 0;
#X connect 35 0 34 1;
#X connect 36 0 33 0;
#X connect 36 1 37 0;
#X connect 37 0 34 1;
#X connect 38 0 86 0;
#X connect 39 0 7 0;
#X connect 40 0 29 0;
#X connect 41 0 36 0;
#X connect 43 0 7 0;
#X connect 44 0 7 0;
#X connect 45 0 7 0;
#X connect 46 0 47 0;
#X connect 47 0 75 0;
#X connect 48 0 7 0;
#X connect 49 0 54 0;
#X connect 50 0 54 0;
#X connect 51 0 54 0;
#X connect 52 0 54 0;
#X connect 53 0 54 0;
#X connect 54 0 48 0;
#X connect 55 0 54 0;
#X connect 56 0 54 0;
#X connect 57 0 54 0;
#X connect 58 0 7 0;
#X connect 61 0 62 0;
#X connect 61 1 8 0;
#X connect 62 0 63 0;
#X connect 62 1 67 0;
#X connect 62 2 8 0;
#X connect 63 0 64 0;
#X connect 63 1 65 0;
#X connect 63 2 66 0;
#X connect 68 0 54 0;
#X connect 75 0 58 0;
#X connect 75 1 44 0;
#X connect 78 0 46 0;
#X connect 85 0 7 0;
#X connect 86 0 7 0;
