#N canvas 370 104 883 736 10;
#X declare -stdpath Fraise;
#X obj 22 237 analog/parse;
#X obj 22 262 route 0 1 2 3;
#X floatatom 22 371 8 0 0 0 - - -, f 8;
#X floatatom 40 345 8 0 0 0 - - -, f 8;
#X floatatom 59 319 8 0 0 0 - - -, f 8;
#X floatatom 78 293 8 0 0 0 - - -, f 8;
#X obj 22 207 fruit/receive fruit1;
#X obj 19 141 fruit/fruit 1 fruit1 10 example1;
#X msg 236 514 L\$1;
#X obj 236 491 tgl 15 0 empty empty set_LED 18 7 0 10 -4034 -1 -1 0
1;
#X obj 327 455 tgl 15 0 empty empty empty 17 7 0 10 -262144 -1 -1 0
1;
#X msg 378 430 20;
#X floatatom 378 452 5 2 1000 0 - - -, f 5;
#X msg 408 429 100;
#X obj 327 474 metro 100;
#X obj 131 540 fruit/send2 fruit1;
#X obj 21 38 pied/pied 0 41424;
#X obj 22 399 spigot;
#X obj 80 384 tgl 15 0 empty empty empty 17 7 0 10 -257985 -1 -1 0
1;
#X text 102 382 <- switch this on \, then touch the pins of connector
K1 to drive the led on., f 30;
#X obj 22 474 > 500;
#X obj 267 23 dcmotor/motor fruit1 120 motorA;
#X obj 269 180 dcmotor/motor fruit1 121 motorB;
#X msg 337 576 c 120 c 4 i \$1;
#X obj 340 552 hsl 128 15 -1023 1023 0 0 empty empty empty -2 -8 0
10 -262144 -1 -1 0 1;
#X obj 340 614 hsl 128 15 -1023 1023 0 0 empty empty empty -2 -8 0
10 -262144 -1 -1 0 1;
#X msg 337 638 c 121 c 4 i \$1;
#X msg 309 525 0;
#X obj 146 260 route P;
#X floatatom 148 283 5 0 0 0 - - -, f 5;
#X obj 20 13 declare -stdpath Fraise;
#X connect 0 0 1 0;
#X connect 0 1 28 0;
#X connect 1 0 2 0;
#X connect 1 1 3 0;
#X connect 1 2 4 0;
#X connect 1 3 5 0;
#X connect 2 0 17 0;
#X connect 6 0 0 0;
#X connect 8 0 15 1;
#X connect 9 0 8 0;
#X connect 10 0 14 0;
#X connect 11 0 12 0;
#X connect 12 0 14 1;
#X connect 13 0 12 0;
#X connect 14 0 9 0;
#X connect 17 0 20 0;
#X connect 18 0 17 1;
#X connect 20 0 9 0;
#X connect 23 0 15 0;
#X connect 24 0 23 0;
#X connect 25 0 26 0;
#X connect 26 0 15 0;
#X connect 27 0 24 0;
#X connect 27 0 25 0;
#X connect 28 0 29 0;
