#N canvas 910 49 879 426 12;
#X declare -path Fraise;
#X obj 18 12 declare -path Fraise;
#X msg 387 370 Ehello;
#X obj 26 76 pied/pied 1;
#X msg 271 369 c 1 c \$1;
#X obj 274 343 hsl 170 20 3 40 0 0 empty empty led\ period -2 -10 0 12 #fcfcfc #000000 #000000 0 1;
#X obj 618 338 fruit/receive fruit1;
#X obj 22 220 fruit/fruit 1 fruit0 0 simpleFw;
#X obj 24 328 fruit/fruit 1 fruit1 10 simpleFw;
#X text 24 42 This is the "pied". It represents the USB-connected pico \, and acts as the master for the "fruits".;
#X text 18 170 This is the fruit number 0 It's actually a virtual fruit \, hosted by the pied., f 30;
#X msg 383 232 Ehello;
#X msg 267 231 c 1 c \$1;
#X obj 270 205 hsl 170 20 3 40 0 0 empty empty led\ period 5 10 0 12 #fcfcfc #000000 #000000 0 1;
#X obj 620 240 print from_fruit0;
#X obj 620 215 fruit/receive fruit0;
#X obj 267 258 fruit/send fruit0;
#X obj 271 395 fruit/send fruit1;
#X text 23 290 This is another fruit. It must be connected to the Fraise bus., f 31;
#X obj 618 363 print from_fruit1;
#X text 264 169 We can talk to the fruit with fruit/send:;
#X text 594 168 fruit/receive allows to listen to the messages emitted by the fruit:, f 37;
#X connect 1 0 16 1;
#X connect 3 0 16 0;
#X connect 4 0 3 0;
#X connect 5 0 18 0;
#X connect 10 0 15 1;
#X connect 11 0 15 0;
#X connect 12 0 11 0;
#X connect 14 0 13 0;
