#N canvas 1190 99 623 412 12;
#X declare -path Fraise;
#X obj 20 18 declare -path Fraise;
#X obj 54 242 print fromFruit;
#X msg 429 184 Ehello;
#X obj 25 62 pied/pied 1;
#X msg 276 139 c 1 c \$1;
#X obj 279 102 hsl 170 20 3 40 0 0 empty empty empty -2 -10 0 12 #fcfcfc #000000 #000000 0 1;
#X msg 357 142 c 100 c 2 c 3;
#X obj 54 217 fruit/receive myFruit;
#X obj 286 214 fruit/send myFruit;
#X obj 28 154 fruit/fruit 1 myFruit 0 simpleFw;
#X connect 2 0 8 1;
#X connect 4 0 8 0;
#X connect 5 0 4 0;
#X connect 6 0 8 0;
#X connect 7 0 1 0;
