#N canvas 631 114 614 516 10;
#X declare -path Fraise;
#X floatatom 295 295 5 0 255 0 - - - 0;
#X obj 58 271 bng 15 100 50 0 empty empty empty 17 7 0 10 #fcfcfc #000000 #000000;
#X obj 58 313 timer;
#X floatatom 58 337 5 0 0 0 - - - 0;
#X obj 58 290 t b b;
#X obj 478 326 tgl 15 0 empty empty set\ LED 18 7 0 10 #00fc04 #000000 #000000 0 1;
#X obj 478 276 tgl 15 0 empty empty empty 17 7 0 10 #fcfcfc #000000 #000000 0 1;
#X msg 529 251 20;
#X floatatom 529 273 5 2 1000 0 - - - 0;
#X msg 500 252 100;
#X obj 478 295 metro 100;
#X obj 23 244 fruit/receive fruit1;
#X obj 19 151 fruit/fruit 1 fruit1 10 exampleFruit;
#X obj 295 379 fruit/send2 fruit1, f 31;
#X obj 21 48 pied/pied 1;
#X obj 20 6 declare -path Fraise;
#X text 18 133 fruit/fruit piedid fruitname fruitid firmware_directory;
#X text 19 31 pied/pied piedid;
#X text 251 150 1: open fruit's "utils" patch;
#X text 251 161 2: rename your fruit;
#X text 251 172 3: program your fruit;
#X text 251 183 4: assign your fruit;
#X text 255 247 set print period;
#X obj 23 363 route count K1, f 21;
#X floatatom 23 389 5 0 0 3 count - - 0;
#X obj 84 389 tgl 16 0 empty empty K1\ input\ pin\ state 0 24 0 10 #fcfcfc #000000 #000000 0 1;
#X obj 146 384 print other;
#X msg 295 357 c 1 l \$1;
#X obj 295 326 * 1000;
#X text 336 328 convert to micros;
#X msg 239 267 5;
#X msg 268 266 20;
#X msg 295 266 50;
#X msg 325 265 100;
#X msg 354 265 500;
#X text 382 266 millis;
#X text 258 464 'c':char(8bit) 'i':int(16bit) 'l':long(32bit), f 16;
#X text 457 397 send "text" messages via the right inlet., f 23;
#X msg 478 349 L\$1;
#X text 19 224 receive messages from fruit1:;
#X text 250 226 send messages to fruit1:;
#X text 248 397 send "raw" messages via the left inlet. The message must be composed of [type value] pairs \, with "value" a number and "type" one of the following:, f 28;
#X connect 0 0 28 0;
#X connect 1 0 4 0;
#X connect 2 0 3 0;
#X connect 4 0 2 0;
#X connect 4 1 2 1;
#X connect 5 0 38 0;
#X connect 6 0 10 0;
#X connect 7 0 8 0;
#X connect 8 0 10 1;
#X connect 9 0 8 0;
#X connect 10 0 5 0;
#X connect 11 0 1 0;
#X connect 11 0 23 0;
#X connect 23 0 24 0;
#X connect 23 1 25 0;
#X connect 23 2 26 0;
#X connect 27 0 13 0;
#X connect 28 0 27 0;
#X connect 30 0 0 0;
#X connect 31 0 0 0;
#X connect 32 0 0 0;
#X connect 33 0 0 0;
#X connect 34 0 0 0;
#X connect 38 0 13 1;
