#N canvas 330 82 736 502 10;
#X declare -lib motex -lib hcs -lib maxlib -lib ggee -lib zexy -lib
list-abs;
#X declare -lib moonlib -lib iemlib;
#X declare -lib moonlib;
#X declare -lib moonlib;
#X text -1 16 Fr2Pied num_serial_device unique_network_port;
#X text -5 122 Fr2Fruit piedid fruitname fruitid firmware;
#X obj 269 141 l2s;
#X symbolatom 269 165 20 0 0 0 - - -;
#X msg 429 171 c 1 c \$1;
#X msg 429 119 0;
#X msg 459 120 128;
#X text 426 100 set count;
#X text 506 99 set period;
#X msg 531 118 4;
#X floatatom 510 152 5 0 255 0 - - -;
#X msg 558 118 10;
#X msg 588 117 20;
#X msg 510 172 c 2 c \$1;
#X obj 269 186 bng 15 100 50 0 empty empty empty 17 7 0 10 -262144
-1 -1;
#X obj 269 228 timer;
#X floatatom 269 252 5 0 0 0 - - -;
#X obj 269 205 t b b;
#X text 544 152 x 5ms;
#X msg 553 232 L\$1;
#X obj 553 209 tgl 15 0 empty empty set_led 0 -7 0 10 -4034 -1 -1 0
1;
#X obj 586 146 tgl 15 0 empty empty empty 17 7 0 10 -262144 -1 -1 0
1;
#X floatatom 429 150 5 0 255 0 - - -;
#X msg 637 121 20;
#X floatatom 637 143 5 2 1000 0 - - -;
#X msg 667 120 100;
#X obj 586 165 metro 100;
#X msg 502 119 1;
#X obj 268 328 l2s;
#X symbolatom 268 352 20 0 0 0 - - -;
#X msg 428 358 c 1 c \$1;
#X msg 428 306 0;
#X msg 458 307 128;
#X text 425 287 set count;
#X text 505 286 set period;
#X msg 530 305 4;
#X floatatom 509 339 5 0 255 0 - - -;
#X msg 557 305 10;
#X msg 587 304 20;
#X msg 509 359 c 2 c \$1;
#X obj 268 373 bng 15 100 50 0 empty empty empty 17 7 0 10 -262144
-1 -1;
#X obj 268 415 timer;
#X floatatom 268 439 5 0 0 0 - - -;
#X obj 268 392 t b b;
#X text 543 339 x 5ms;
#X msg 552 419 L\$1;
#X obj 552 396 tgl 15 0 empty empty set_led 0 -7 0 10 -4034 -1 -1 0
1;
#X obj 585 333 tgl 15 0 empty empty empty 17 7 0 10 -262144 -1 -1 0
1;
#X floatatom 428 337 5 0 255 0 - - -;
#X msg 636 308 20;
#X floatatom 636 330 5 2 1000 0 - - -;
#X msg 666 307 100;
#X obj 585 352 metro 100;
#X msg 501 306 1;
#X obj 21 38 pied/pied 0 41424;
#X obj 428 441 fruit/send2 TestFruit2;
#X obj 429 254 fruit/send2 TestFruit1;
#X obj 269 112 fruit/receive fruit1;
#X obj 268 299 fruit/receive fruit2;
#X obj 17 328 fruit/fruit 1 fruit2 11 exampleFruit;
#X obj 19 141 fruit/fruit 1 fruit1 10 exampleFruit;
#X connect 2 0 3 0;
#X connect 3 0 14 0;
#X connect 4 0 56 0;
#X connect 5 0 22 0;
#X connect 6 0 22 0;
#X connect 9 0 10 0;
#X connect 10 0 13 0;
#X connect 11 0 10 0;
#X connect 12 0 10 0;
#X connect 13 0 56 0;
#X connect 14 0 17 0;
#X connect 15 0 16 0;
#X connect 17 0 15 0;
#X connect 17 1 15 1;
#X connect 19 0 56 1;
#X connect 20 0 19 0;
#X connect 21 0 26 0;
#X connect 22 0 4 0;
#X connect 23 0 24 0;
#X connect 24 0 26 1;
#X connect 25 0 24 0;
#X connect 26 0 20 0;
#X connect 27 0 10 0;
#X connect 28 0 29 0;
#X connect 29 0 40 0;
#X connect 30 0 55 0;
#X connect 31 0 48 0;
#X connect 32 0 48 0;
#X connect 35 0 36 0;
#X connect 36 0 39 0;
#X connect 37 0 36 0;
#X connect 38 0 36 0;
#X connect 39 0 55 0;
#X connect 40 0 43 0;
#X connect 41 0 42 0;
#X connect 43 0 41 0;
#X connect 43 1 41 1;
#X connect 45 0 55 1;
#X connect 46 0 45 0;
#X connect 47 0 52 0;
#X connect 48 0 30 0;
#X connect 49 0 50 0;
#X connect 50 0 52 1;
#X connect 51 0 50 0;
#X connect 52 0 46 0;
#X connect 53 0 36 0;
#X connect 57 0 2 0;
#X connect 58 0 28 0;
