#N canvas 760 96 425 354 10;
#X obj 23 152 inlet;
#X obj 23 267 outlet;
#X obj 23 238 pack f f, f 10;
#X text 20 48 ANALOG_FILTER must the same values as the one configured in firmware's config.h.;
#X obj 23 174 unpack f f;
#X obj 80 205 / 1;
#X obj 95 98 loadbang;
#X obj 95 119 f \$1;
#X obj 95 181 <<;
#X obj 95 160 list prepend 1;
#X obj 95 139 + 10;
#X obj 70 99 bng 15 250 50 0 empty empty empty 17 7 0 10 #fcfcfc #000000 #000000;
#X text 20 13 analog/normalize ANALOG_FILTER : normalize values coming from analog/parse to [0:1] range.;
#X connect 0 0 4 0;
#X connect 2 0 1 0;
#X connect 4 0 2 0;
#X connect 4 1 5 0;
#X connect 5 0 2 1;
#X connect 6 0 7 0;
#X connect 7 0 10 0;
#X connect 8 0 5 1;
#X connect 9 0 8 0;
#X connect 10 0 9 0;
#X connect 11 0 7 0;
