#N canvas 6 75 519 465 10;
#X obj 86 44 inlet;
#X obj 148 342 outlet;
#X obj 86 92 unwonk f;
#X obj 175 211 l;
#X obj 86 143 moses 100;
#X obj 148 166 - 100;
#X obj 148 189 t f b;
#X obj 175 234 unwonk f f;
#X obj 175 257 * 256;
#X obj 175 280 +;
#X obj 148 313 pack f f;
#X obj 86 66 route list;
#X obj 148 143 moses 150;
#X text 174 38 parseAnalog : decode data from analog module.;
#X obj 394 335 outlet;
#X connect 0 0 11 0;
#X connect 2 0 4 0;
#X connect 2 1 3 1;
#X connect 3 0 7 0;
#X connect 4 1 12 0;
#X connect 5 0 6 0;
#X connect 6 0 10 0;
#X connect 6 1 3 0;
#X connect 7 0 8 0;
#X connect 7 1 9 1;
#X connect 7 2 2 0;
#X connect 8 0 9 0;
#X connect 9 0 10 1;
#X connect 10 0 1 0;
#X connect 11 0 2 0;
#X connect 11 1 14 0;
#X connect 12 0 5 0;
