#N canvas 518 725 626 259 10;
#X declare -path Fraise -stdpath Fraise;
#X obj 49 67 fruit/receive fruit1;
#X obj 49 142 route 0 1 2 3;
#X obj 49 102 analog/parse;
#X obj 364 193 print other_messages_from_fruit1;
#X floatatom 49 192 7 0 0 3 analogIn_0 - -, f 7;
#X floatatom 122 193 7 0 0 3 analogIn_1 - -, f 7;
#X floatatom 201 193 7 0 0 3 analogIn_2 - -, f 7;
#X floatatom 280 193 7 0 0 3 analogIn_3 - -, f 7;
#X text 154 24 analog/parse : decode data from analog module.;
#X obj 391 61 declare -path Fraise -stdpath Fraise;
#X connect 0 0 2 0;
#X connect 1 0 4 0;
#X connect 1 1 5 0;
#X connect 1 2 6 0;
#X connect 1 3 7 0;
#X connect 2 0 1 0;
#X connect 2 1 3 0;
