#N canvas 760 96 519 465 10;
#X obj 86 44 inlet;
#X obj 148 366 outlet;
#X obj 86 143 moses 100;
#X obj 148 166 - 100;
#X obj 148 189 t f b;
#X obj 175 304 +;
#X obj 148 337 pack f f;
#X obj 86 66 route list;
#X obj 148 143 moses 150;
#X obj 394 335 outlet;
#X obj 86 92 list split 1;
#X obj 175 234 list split 2;
#X obj 175 211 list;
#X obj 175 257 list split 1;
#X obj 175 280 * 256;
#X text 173 38 analog/parse : decode data from analog module.;
#X connect 0 0 7 0;
#X connect 2 1 8 0;
#X connect 3 0 4 0;
#X connect 4 0 6 0;
#X connect 4 1 12 0;
#X connect 5 0 6 1;
#X connect 6 0 1 0;
#X connect 7 0 10 0;
#X connect 7 1 9 0;
#X connect 8 0 3 0;
#X connect 10 0 2 0;
#X connect 10 1 12 1;
#X connect 11 0 13 0;
#X connect 11 1 10 0;
#X connect 12 0 11 0;
#X connect 13 0 14 0;
#X connect 13 1 5 1;
#X connect 14 0 5 0;
