#N canvas 71 30 739 896 12;
#X declare -path Fraise;
#X obj 20 18 declare -path Fraise;
#X msg 524 251 Ehello;
#X obj 222 170 hsl 170 20 -32768 32767 0 0 empty empty empty -2 -10 0 12 #fcfcfc #000000 #000000 0 1;
#X floatatom 219 203 9 0 0 0 - - - 0;
#X obj 25 62 pied/pied 1;
#X text 233 247 value;
#X obj 21 224 fruit/receive fruit1;
#X obj 219 277 fruit/send2 fruit1, f 44;
#X obj 67 276 print from_fruit1;
#X obj 21 169 fruit/fruit 1 fruit1 1 motorFw;
#X msg 219 124 0;
#X obj 259 38 tgl 20 0 empty empty empty 0 -10 0 12 #fcfcfc #000000 #000000 0 1;
#X obj 259 118 line;
#X obj 259 65 * -32700;
#X msg 219 227 10 i \$1;
#X obj 438 157 hsl 170 20 3 200 1 0 empty empty led\ period -2 -10 0 12 #fcfcfc #000000 #000000 0 1;
#X floatatom 435 190 9 0 0 0 - - - 0;
#X text 449 234 value;
#X msg 435 214 1 \$1;
#X msg 302 28 -32700;
#X msg 450 28 32700;
#X msg 354 28 -10000;
#X msg 405 29 10000;
#X floatatom 333 61 10 0 0 0 - - - 0;
#X msg 334 383 11;
#X obj 21 249 route c;
#X floatatom 21 339 6 0 0 1 mA - - 0;
#X obj 334 324 tgl 20 0 empty empty empty 0 -10 0 12 #fcfcfc #000000 #000000 0 1;
#X obj 21 486 / 1.24;
#X floatatom 21 511 5 0 0 1 adc\ val - - 0;
#X floatatom 20 447 5 0 0 0 - - - 0;
#X obj 334 349 metro 20;
#X obj 20 536 / 4096;
#X obj 21 560 * 3.3;
#X floatatom 21 585 5 0 0 1 Vsense(V) - - 0;
#X obj 20 422 pied/intern/m_mavg 30;
#X obj 214 681 table \$0-vu 5000;
#X obj 265 602 tabwrite \$0-vu;
#X obj 265 494 t f b;
#X obj 297 545 + 1;
#X obj 297 570 mod 5000;
#X obj 297 520 i;
#X obj 265 443 / 1000;
#X obj 265 468 - 1;
#X msg 406 316 2;
#X msg 437 317 20;
#X floatatom 406 341 5 0 0 0 - - - 0;
#X obj 412 612 s \$0-vu;
#X msg 412 583 resize \$1;
#X obj 412 547 f;
#X floatatom 460 537 5 0 0 0 - - - 0;
#X msg 419 496 500;
#X msg 469 493 5000;
#X floatatom 372 490 5 0 0 0 - - - 0;
#X floatatom 88 711 5 0 0 0 - - - 0;
#X obj 88 657 max;
#X obj 126 656 f;
#X msg 122 606 0;
#X obj 86 740 / 1.24;
#X floatatom 86 765 5 0 0 1 adc\ val - - 0;
#X obj 85 790 / 4096;
#X obj 86 814 * 3.3;
#X floatatom 86 839 5 0 0 1 Vsense(V) - - 0;
#X obj 88 685 change;
#X msg 259 93 \$1 500;
#X obj 530 68 hsl 170 20 -32768 32767 0 0 empty empty empty -2 -10 0 12 #fcfcfc #000000 #000000 0 1;
#X msg 527 22 0;
#X connect 1 0 7 1;
#X connect 2 0 3 0;
#X connect 3 0 14 0;
#X connect 6 0 25 0;
#X connect 10 0 2 0;
#X connect 11 0 13 0;
#X connect 12 0 2 0;
#X connect 13 0 64 0;
#X connect 14 0 7 0;
#X connect 15 0 16 0;
#X connect 16 0 18 0;
#X connect 18 0 7 0;
#X connect 19 0 23 0;
#X connect 20 0 23 0;
#X connect 21 0 23 0;
#X connect 22 0 23 0;
#X connect 23 0 13 1;
#X connect 24 0 7 0;
#X connect 25 0 26 0;
#X connect 25 0 42 0;
#X connect 25 1 8 0;
#X connect 26 0 35 0;
#X connect 26 0 55 0;
#X connect 27 0 31 0;
#X connect 28 0 29 0;
#X connect 29 0 32 0;
#X connect 30 0 28 0;
#X connect 31 0 24 0;
#X connect 32 0 33 0;
#X connect 33 0 34 0;
#X connect 35 0 30 0;
#X connect 38 0 37 0;
#X connect 38 1 41 0;
#X connect 39 0 40 0;
#X connect 40 0 41 1;
#X connect 40 0 37 1;
#X connect 41 0 39 0;
#X connect 42 0 43 0;
#X connect 43 0 38 0;
#X connect 44 0 46 0;
#X connect 45 0 46 0;
#X connect 46 0 31 1;
#X connect 48 0 47 0;
#X connect 49 0 50 0;
#X connect 49 0 48 0;
#X connect 49 0 40 1;
#X connect 51 0 49 0;
#X connect 52 0 49 0;
#X connect 53 0 49 0;
#X connect 54 0 58 0;
#X connect 55 0 56 0;
#X connect 55 0 63 0;
#X connect 56 0 55 1;
#X connect 57 0 56 0;
#X connect 58 0 59 0;
#X connect 59 0 60 0;
#X connect 60 0 61 0;
#X connect 61 0 62 0;
#X connect 63 0 54 0;
#X connect 64 0 12 0;
#X connect 65 0 64 0;
#X connect 66 0 65 0;
