#N canvas 1041 76 779 762 10;
#X obj 23 9 inlet;
#X listbox 228 34 87 0 0 0 - - - 0;
#X listbox 82 32 20 0 0 0 - - - 0;
#X obj 82 9 r \$1-make-boardname;
#X obj 228 9 r \$1-make-src;
#X listbox 226 313 87 0 0 0 - - - 0;
#X obj 226 289 r \$0-make-builddir;
#X msg 226 160 dir;
#X obj 226 256 s \$0-pico-dir;
#X obj 226 183 pdcontrol;
#X listbox 327 151 72 0 0 0 - - - 0;
#X obj 327 129 r \$0-pico-dir;
#X obj 226 231 file normalize;
#N canvas 1234 92 363 460 create_builddir 0;
#X obj 36 141 file isdirectory;
#X obj 69 47 r \$1-make-src;
#X msg 36 95 symbol \$1/build;
#X obj 36 73 symbol;
#X obj 36 189 sel 0 1, f 16;
#X obj 69 220 r \$1-make-src;
#X msg 36 268 symbol \$1/build;
#X obj 36 246 symbol;
#X obj 36 292 file mkdir;
#X obj 93 338 print MAKE;
#X msg 93 315 ERROR in mkdir src/build!;
#X obj 165 141 s \$0-make-builddir;
#X obj 36 117 t s s, f 22;
#X obj 36 21 inlet;
#X obj 36 44 b;
#X msg 129 163 0;
#X obj 36 369 outlet;
#X obj 36 340 b;
#X connect 0 0 4 0;
#X connect 0 1 15 0;
#X connect 1 0 3 1;
#X connect 2 0 12 0;
#X connect 3 0 2 0;
#X connect 4 0 7 0;
#X connect 4 1 17 0;
#X connect 5 0 7 1;
#X connect 6 0 8 0;
#X connect 7 0 6 0;
#X connect 8 0 17 0;
#X connect 8 1 10 0;
#X connect 10 0 9 0;
#X connect 12 0 0 0;
#X connect 12 1 11 0;
#X connect 13 0 14 0;
#X connect 14 0 3 0;
#X connect 15 0 4 0;
#X connect 17 0 16 0;
#X restore 23 136 pd create_builddir;
#N canvas 1316 500 468 502 cmake 1;
#X obj 20 16 inlet;
#X obj 53 52 r \$0-make-builddir;
#X obj 20 123 file isfile;
#X msg 83 146 0;
#X obj 20 176 sel 0 1, f 19;
#X obj 20 74 symbol;
#X msg 20 101 symbol \$1/Makefile;
#X obj 20 412 outlet;
#X obj 20 213 t b b;
#X obj 47 378 s \$1-make-tobatch;
#X text 144 156 only run cmake if Makefile doesn't exist yet, f 20;
#X obj 80 212 r \$1-fraisedir;
#X obj 47 237 symbol;
#X obj 47 311 list append;
#X obj 110 287 r \$1-make-is_pied_fruit;
#X msg 47 338 add cmake -S . -B . -Dfraise_path=\$1 -Dis_pied_fruit=\$2 2>> make.err, f 65;
#X connect 0 0 5 0;
#X connect 1 0 5 1;
#X connect 2 0 4 0;
#X connect 2 1 3 0;
#X connect 3 0 4 0;
#X connect 4 0 8 0;
#X connect 4 1 7 0;
#X connect 5 0 6 0;
#X connect 6 0 2 0;
#X connect 8 0 7 0;
#X connect 8 1 12 0;
#X connect 11 0 12 1;
#X connect 12 0 13 0;
#X connect 13 0 15 0;
#X connect 14 0 13 1;
#X connect 15 0 9 0;
#X restore 23 330 pd cmake;
#N canvas 1193 415 660 300 make 1;
#X obj 18 31 inlet;
#X obj 18 216 outlet;
#X obj 18 58 t b b;
#X obj 45 158 s \$1-make-tobatch;
#X obj 394 178 r \$0-make-src;
#X obj 394 200 file splitname;
#X msg 394 223 symbol \$2;
#X obj 244 40 r \$1-make-boardname;
#X obj 402 250 pack s s;
#X obj 299 164 r \$1-fraisedir;
#X obj 254 185 pack s s;
#X msg 195 102 add make -j8 FRAISE_BOARD=\$1 FRAISE_DIR=\$2 2>> make.err;
#X obj 60 59 r \$1-make-is_pied_fruit;
#X obj 45 85 f;
#X msg 45 136 add make -j8 is_pied_fruit=\$1 2>> make.err;
#X connect 0 0 2 0;
#X connect 2 0 1 0;
#X connect 2 1 13 0;
#X connect 4 0 5 0;
#X connect 5 0 6 0;
#X connect 9 0 10 1;
#X connect 12 0 13 1;
#X connect 13 0 14 0;
#X connect 14 0 3 0;
#X restore 23 354 pd make;
#N canvas 814 638 619 300 clear_batch_and_clean 0;
#X obj 24 13 inlet;
#X obj 24 88 outlet;
#X msg 76 65 clear;
#X obj 24 37 t b b b, f 18;
#X obj 76 86 s \$1-make-tobatch;
#X obj 228 44 r \$1-make-src;
#X obj 195 67 symbol;
#X obj 195 92 file splitname;
#X obj 195 138 file delete;
#X msg 195 115 symbol \$1/\$2/build/\$2.elf \, symbol \$1/\$2/build/make.err;
#X obj 210 11 bng 18 250 50 0 empty empty empty 0 -9 0 10 #fcfcfc #000000 #000000;
#X connect 0 0 3 0;
#X connect 2 0 4 0;
#X connect 3 0 1 0;
#X connect 3 1 2 0;
#X connect 3 2 6 0;
#X connect 5 0 6 1;
#X connect 6 0 7 0;
#X connect 7 0 9 0;
#X connect 9 0 8 0;
#X connect 10 0 6 0;
#X restore 23 205 pd clear_batch_and_clean;
#N canvas 194 649 450 300 cd_builddir 0;
#X obj 110 19 inlet;
#X obj 110 42 t b b;
#X obj 137 63 symbol;
#X obj 137 110 list prepend add;
#X obj 137 131 list trim;
#X msg 137 86 cd \$1;
#X obj 110 187 outlet;
#X obj 170 39 r \$0-make-builddir;
#X obj 137 153 s \$1-make-tobatch;
#X connect 0 0 1 0;
#X connect 1 0 6 0;
#X connect 1 1 2 0;
#X connect 2 0 5 0;
#X connect 3 0 4 0;
#X connect 4 0 8 0;
#X connect 5 0 3 0;
#X connect 7 0 2 1;
#X restore 23 276 pd cd_builddir;
#X obj 23 229 add_shebang \$1;
#N canvas 467 649 340 225 send_done_to_pd 0;
#X obj 33 15 inlet;
#X obj 60 105 list prepend add;
#X obj 60 126 list trim;
#X obj 33 178 outlet;
#X obj 33 39 t b b;
#X msg 60 82 echo pico make_done | to_pd \$1;
#X obj 60 61 v \$2-port;
#X obj 60 148 s \$1-make-tobatch;
#X connect 0 0 4 0;
#X connect 1 0 2 0;
#X connect 2 0 7 0;
#X connect 4 0 3 0;
#X connect 4 1 6 0;
#X connect 5 0 1 0;
#X connect 6 0 5 0;
#X restore 23 389 pd send_done_to_pd;
#X msg 318 590 list \$1.bat;
#X obj 318 569 symbol;
#X obj 227 568 symbol;
#X obj 314 432 select windows;
#X obj 314 408 r \$1-make-OS;
#X msg 314 454 1;
#X msg 395 454 0;
#X obj 227 478 list prepend, f 15;
#X obj 227 544 route 0 1, f 31;
#X obj 227 615 s \$1-make-launchbatch;
#X msg 227 589 list sh \$1.sh;
#X obj 227 402 pack s s;
#X msg 227 423 symbol \$2/\$1;
#X msg 446 582 symbol \$1.sh;
#X msg 531 583 symbol \$1.bat;
#X msg 446 605 write \$1 cr;
#X obj 446 562 symbol;
#X obj 531 563 symbol;
#X obj 227 500 t a a, f 37;
#X obj 446 542 route 0 1, f 29;
#X obj 446 627 s \$1-make-tobatch;
#X text 458 524 save batch...;
#X text 248 525 then run it.;
#X obj 272 381 r \$0-make-builddir;
#X obj 227 352 r \$0-run_batch_as;
#X obj 23 446 s \$0-run_batch_as;
#X msg 23 422 symbol make;
#N canvas 316 507 240 174 add_bin_sdcc_path 0;
#X obj 29 25 inlet;
#X obj 56 73 symbol;
#X obj 29 125 outlet;
#X obj 29 51 t b b;
#X obj 89 51 r \$1-make-sdccpath;
#X obj 56 97 s \$1-make-addpath;
#X connect 0 0 3 0;
#X connect 1 0 5 0;
#X connect 3 0 2 0;
#X connect 3 1 1 0;
#X connect 4 0 1 1;
#X restore 23 253 pd add_bin_sdcc_path;
#X obj 23 510 route make_done;
#X obj 23 606 bng 18 250 50 0 empty empty empty 0 -9 0 10 #fcfcfc #000000 #000000;
#X obj 23 487 r \$2-pico-from-network;
#N canvas 1009 240 427 591 count_used_memory 0;
#X obj 60 37 r \$1-make-src;
#X obj 27 63 symbol;
#X obj 232 102 file splitname;
#X msg 232 125 symbol \$1/\$2/build/\$2.bin;
#X obj 232 148 file size;
#X floatatom 232 171 7 0 0 0 - - - 0;
#X obj 27 10 inlet;
#X obj 27 252 pack f f;
#X obj 27 274 t a a;
#X obj 27 407 pack f f f;
#X obj 130 333 /;
#X obj 130 354 * 100;
#X obj 130 375 i;
#X obj 27 476 list prepend;
#X msg 27 230 \$1 2.03162e+06;
#X obj 27 502 s \$2-Bootloader-snd;
#X obj 34 37 bng 18 250 50 0 empty empty empty 0 -9 0 10 #fcfcfc #000000 #000000;
#X obj 113 476 r \$1-make-fruitname;
#X obj 27 311 unpack f f;
#X obj 27 353 / 1024;
#X obj 84 354 / 1024;
#X obj 27 380 i;
#X obj 84 376 i;
#X text 121 231 2M - 64k;
#X msg 27 430 ROM \$1k \$2k \$3;
#X msg 27 90 symbol \$1/build/size.txt;
#X obj 27 115 catfile 1;
#X obj 27 138 unpack f f f;
#X obj 61 165 +;
#X floatatom 61 188 7 0 0 0 - - - 0;
#X obj 27 167 +;
#X floatatom 27 189 5 0 0 0 - - - 0;
#X obj 226 252 pack f f;
#X obj 226 274 t a a;
#X obj 226 407 pack f f f;
#X obj 329 333 /;
#X obj 329 354 * 100;
#X obj 329 375 i;
#X obj 226 311 unpack f f;
#X obj 283 354 / 1024;
#X obj 226 360 i;
#X obj 283 376 i;
#X msg 226 430 RAM \$1k \$2k \$3;
#X msg 226 230 \$1 262144;
#X obj 226 384 / 10;
#X obj 226 336 / 102.4;
#X connect 0 0 1 1;
#X connect 1 0 25 0;
#X connect 2 0 3 0;
#X connect 3 0 4 0;
#X connect 4 0 5 0;
#X connect 6 0 1 0;
#X connect 7 0 8 0;
#X connect 8 0 18 0;
#X connect 8 1 10 0;
#X connect 9 0 24 0;
#X connect 10 0 11 0;
#X connect 11 0 12 0;
#X connect 12 0 9 2;
#X connect 13 0 15 0;
#X connect 14 0 7 0;
#X connect 16 0 1 0;
#X connect 17 0 13 1;
#X connect 18 0 19 0;
#X connect 18 1 20 0;
#X connect 19 0 21 0;
#X connect 20 0 22 0;
#X connect 21 0 9 0;
#X connect 22 0 9 1;
#X connect 24 0 13 0;
#X connect 25 0 26 0;
#X connect 26 0 27 0;
#X connect 27 0 30 0;
#X connect 27 1 28 0;
#X connect 27 1 30 1;
#X connect 27 2 28 1;
#X connect 28 0 29 0;
#X connect 28 0 43 0;
#X connect 30 0 31 0;
#X connect 31 0 14 0;
#X connect 32 0 33 0;
#X connect 33 0 38 0;
#X connect 33 1 35 0;
#X connect 34 0 42 0;
#X connect 35 0 36 0;
#X connect 36 0 37 0;
#X connect 37 0 34 2;
#X connect 38 0 45 0;
#X connect 38 1 39 0;
#X connect 39 0 41 0;
#X connect 40 0 44 0;
#X connect 41 0 34 1;
#X connect 42 0 13 0;
#X connect 43 0 32 0;
#X connect 44 0 34 0;
#X connect 45 0 40 0;
#X restore 23 637 pd count_used_memory;
#N canvas 1234 92 489 499 copy_CMakeLists_template 0;
#X obj 81 299 r \$0-pico-dir;
#X obj 36 322 pack s s;
#X obj 36 370 file copy;
#X obj 87 415 print MAKE;
#X msg 87 391 ERROR in copy CMakeLists src/build!;
#X obj 36 426 b;
#X obj 36 21 inlet;
#X obj 36 44 b;
#X obj 36 449 outlet;
#X obj 69 46 r \$0-make-builddir;
#X obj 36 70 symbol;
#X obj 36 93 t s s, f 12;
#X obj 36 277 symbol, f 12;
#X msg 36 116 symbol \$1/CMakeLists.txt;
#X obj 36 139 file isfile;
#X obj 36 162 sel 0 1;
#X obj 36 256 b;
#X obj 66 190 f 0;
#X obj 66 213 sel 1 0;
#X obj 96 191 r \$0-force_refresh_cmake;
#X msg 36 347 list \$2/sys/device_template_CMakeLists.txt \$1/CMakeLists.txt, f 71;
#X connect 0 0 1 1;
#X connect 1 0 20 0;
#X connect 2 0 5 0;
#X connect 2 1 4 0;
#X connect 4 0 3 0;
#X connect 5 0 8 0;
#X connect 6 0 7 0;
#X connect 7 0 10 0;
#X connect 9 0 10 1;
#X connect 10 0 11 0;
#X connect 11 0 13 0;
#X connect 11 1 12 1;
#X connect 12 0 1 0;
#X connect 13 0 14 0;
#X connect 14 0 15 0;
#X connect 14 1 16 0;
#X connect 15 0 16 0;
#X connect 15 1 17 0;
#X connect 16 0 12 0;
#X connect 17 0 18 0;
#X connect 18 0 16 0;
#X connect 18 1 5 0;
#X connect 19 0 17 1;
#X connect 20 0 2 0;
#X restore 23 159 pd copy_CMakeLists_template;
#X obj 474 378 tgl 18 0 force_refresh_cmake force_refresh_cmake force_refresh_cmake 0 -9 0 10 #faff00 #000000 #000000 0 1;
#X obj 474 425 s \$0-force_refresh_cmake;
#N canvas 462 528 281 257 test-if-worked 0;
#X obj 22 20 inlet;
#X obj 22 167 f;
#X obj 22 214 outlet ok;
#X obj 101 215 outlet failed;
#X obj 22 193 sel 1 0, f 27;
#X obj 22 101 symbol, f 7;
#X obj 22 123 file isfile;
#X floatatom 22 144 5 0 0 0 - - - 0;
#X msg 62 145 0;
#X obj 22 45 t b;
#X obj 61 57 file splitname;
#X msg 61 80 symbol \$1/\$2/build/\$2.elf;
#X obj 61 37 r \$1-make-src;
#X connect 0 0 9 0;
#X connect 1 0 4 0;
#X connect 4 0 2 0;
#X connect 4 1 3 0;
#X connect 5 0 6 0;
#X connect 6 0 7 0;
#X connect 6 1 8 0;
#X connect 7 0 1 0;
#X connect 8 0 7 0;
#X connect 9 0 5 0;
#X connect 10 0 11 0;
#X connect 11 0 5 1;
#X connect 12 0 10 0;
#X restore 23 556 pd test-if-worked;
#N canvas 597 631 277 237 print_errfile 0;
#X obj 35 31 inlet;
#X obj 62 90 symbol;
#X msg 95 69 symbol \$1/make.err;
#X obj 62 158 print MAKE;
#X obj 35 53 t b b;
#X obj 35 189 outlet;
#X obj 82 24 bng 15 250 50 0 empty empty empty 17 7 0 10 #fcfcfc #000000 #000000;
#X obj 62 137 list trim;
#X obj 62 115 catfile;
#X obj 95 46 r \$0-make-builddir;
#X connect 0 0 4 0;
#X connect 1 0 8 0;
#X connect 2 0 1 1;
#X connect 4 0 5 0;
#X connect 4 1 1 0;
#X connect 6 0 1 0;
#X connect 7 0 3 0;
#X connect 8 0 7 0;
#X connect 9 0 2 0;
#X restore 23 533 pd print_errfile;
#X obj 151 649 bng 15 250 50 0 empty empty empty 17 7 0 10 #fc0400 #000000 #000000;
#X obj 56 706 print MAKE;
#X msg 151 673 ERROR : compilation failed !;
#X msg 40 667 compilation done;
#X obj 474 402 r force_refresh_cmake;
#X msg 226 206 symbol \$1/..;
#X obj 226 136 r \$1-make-init;
#X obj 23 62 f;
#X obj 23 87 sel 0 1;
#N canvas 1123 402 313 202 rm_builddir 0;
#X obj 37 37 inlet;
#X obj 70 64 r \$1-make-src;
#X obj 37 90 symbol;
#X obj 37 61 b;
#X obj 37 135 file delete;
#X msg 37 112 recursive \$1/build;
#X connect 0 0 3 0;
#X connect 1 0 2 1;
#X connect 2 0 5 0;
#X connect 3 0 2 0;
#X connect 5 0 4 0;
#X restore 42 110 pd rm_builddir;
#X obj 49 62 r \$1-make-is-clean;
#X obj 160 111 bng 18 250 50 0 empty empty empty 0 -9 0 10 #fcfcfc #000000 #000000;
#X obj 23 35 t b a;
#X listbox 202 66 20 0 0 0 - - - 0;
#X connect 0 0 69 0;
#X connect 3 0 2 0;
#X connect 4 0 1 0;
#X connect 6 0 5 0;
#X connect 7 0 9 0;
#X connect 9 0 62 0;
#X connect 11 0 10 0;
#X connect 12 0 8 0;
#X connect 13 0 52 0;
#X connect 14 0 15 0;
#X connect 15 0 19 0;
#X connect 16 0 18 0;
#X connect 17 0 14 0;
#X connect 18 0 47 0;
#X connect 19 0 46 0;
#X connect 20 0 29 0;
#X connect 21 0 20 0;
#X connect 22 0 30 0;
#X connect 23 0 25 0;
#X connect 23 1 26 0;
#X connect 24 0 23 0;
#X connect 25 0 27 1;
#X connect 26 0 27 1;
#X connect 27 0 38 0;
#X connect 28 0 22 0;
#X connect 28 1 21 0;
#X connect 30 0 29 0;
#X connect 31 0 32 0;
#X connect 32 0 27 0;
#X connect 33 0 35 0;
#X connect 34 0 35 0;
#X connect 35 0 40 0;
#X connect 36 0 33 0;
#X connect 37 0 34 0;
#X connect 38 0 28 0;
#X connect 38 1 39 0;
#X connect 39 0 36 0;
#X connect 39 1 37 0;
#X connect 43 0 31 1;
#X connect 44 0 31 0;
#X connect 46 0 45 0;
#X connect 47 0 17 0;
#X connect 48 0 56 0;
#X connect 49 0 51 0;
#X connect 49 0 60 0;
#X connect 50 0 48 0;
#X connect 52 0 16 0;
#X connect 55 0 49 0;
#X connect 55 1 57 0;
#X connect 56 0 55 0;
#X connect 57 0 59 0;
#X connect 59 0 58 0;
#X connect 60 0 58 0;
#X connect 61 0 54 0;
#X connect 62 0 12 0;
#X connect 63 0 7 0;
#X connect 64 0 65 0;
#X connect 65 0 13 0;
#X connect 65 1 66 0;
#X connect 67 0 64 1;
#X connect 68 0 66 0;
#X connect 69 0 64 0;
#X connect 69 1 70 0;
