#N canvas 844 468 844 471 10;
#X obj 24 34 inlet;
#X obj 460 79 fudiformat -u;
#N canvas 559 388 530 571 bootload 0;
#X obj 72 355 text get \$0-hex;
#X obj 189 140 spigot;
#X msg 72 159 0;
#X obj 72 323 i;
#X obj 108 323 + 1;
#X obj 242 139 tgl 20 0 empty empty empty 0 -10 0 12 #fcfcfc #000000 #000000 0 1;
#X obj 72 385 route bang;
#X obj 38 447 timer;
#X obj 38 421 b;
#X obj 72 415 b;
#X floatatom 38 472 5 0 0 0 - - - 0;
#X obj 38 496 / 1000;
#X floatatom 38 521 5 0 0 0 - - - 0;
#X obj 139 409 list trim;
#X obj 382 309 text size \$0-hex;
#X floatatom 406 352 5 0 0 0 - - - 0;
#X obj 221 295 until;
#X obj 189 218 del 1;
#X obj 189 243 t b b;
#X msg 189 381 waitack;
#X obj 189 193 b;
#X obj 39 82 bng 20 250 50 0 empty empty empty 0 -10 0 12 #fcfcfc #000000 #000000;
#X msg 107 159 1;
#X msg 88 446 0;
#X text 146 523 41803;
#X msg 259 382 testerase;
#X obj 189 167 route ack;
#X msg 150 501 runapp;
#X obj 40 20 inlet;
#X msg 221 269 16;
#X obj 232 504 del 500;
#X msg 251 345 verbose;
#X obj 232 528 outlet;
#X obj 139 433 s \$0-topied-text;
#X obj 189 115 r \$0-frompied;
#X obj 39 110 t b b b;
#X obj 345 372 /;
#X obj 345 408 pack f s;
#X msg 345 431 \$2 prog_progress \$1;
#X obj 390 387 r \$0-fruit_name;
#X obj 345 453 s \$1-Bootloader-snd;
#X obj 308 479 outlet;
#X connect 0 0 6 0;
#X connect 1 0 26 0;
#X connect 2 0 3 0;
#X connect 2 0 8 0;
#X connect 3 0 4 0;
#X connect 3 0 0 0;
#X connect 3 0 36 0;
#X connect 4 0 3 1;
#X connect 5 0 1 1;
#X connect 6 0 9 0;
#X connect 6 1 13 0;
#X connect 7 0 10 0;
#X connect 8 0 7 0;
#X connect 9 0 7 1;
#X connect 9 0 23 0;
#X connect 9 0 30 0;
#X connect 10 0 11 0;
#X connect 11 0 12 0;
#X connect 13 0 33 0;
#X connect 14 0 15 0;
#X connect 14 0 36 1;
#X connect 16 0 3 0;
#X connect 17 0 18 0;
#X connect 18 0 19 0;
#X connect 18 1 29 0;
#X connect 19 0 33 0;
#X connect 20 0 17 0;
#X connect 21 0 35 0;
#X connect 22 0 5 0;
#X connect 23 0 5 0;
#X connect 25 0 33 0;
#X connect 26 0 20 0;
#X connect 27 0 33 0;
#X connect 28 0 21 0;
#X connect 29 0 16 0;
#X connect 30 0 32 0;
#X connect 31 0 33 0;
#X connect 34 0 1 0;
#X connect 35 0 19 0;
#X connect 35 1 2 0;
#X connect 35 1 22 0;
#X connect 35 2 14 0;
#X connect 36 0 37 0;
#X connect 36 0 41 0;
#X connect 37 0 38 0;
#X connect 38 0 40 0;
#X connect 39 0 37 1;
#X restore 24 307 pd bootload;
#X msg 328 282 runapp;
#X msg 388 280 getsizeof;
#X msg 272 283 reboot;
#X obj 433 133 route runapp reboot;
#X msg 383 365 waitack;
#X msg 310 413 verbose;
#X msg 371 412 noverbose;
#X msg 455 341 #V;
#X msg 456 313 #R;
#X msg 521 344 #Esben;
#X msg 481 278 testsend;
#X msg 511 318 printnexttx;
#X msg 552 277 sendbytes;
#X msg 276 319 getms;
#X obj 51 91 unpack s s;
#X msg 51 228 reboot;
#X obj 24 66 t b a;
#X obj 51 171 s \$0-fruit_name;
#X msg 108 115 read -c \$1;
#X obj 260 61 b;
#X obj 260 36 r \$0-pied-suspend;
#X obj 260 132 s \$1-comport-pause;
#X msg 260 109 1;
#X msg 303 109 0;
#X msg 24 352 runapp;
#X obj 433 32 r \$0-topied-text;
#X obj 433 168 s \$0-pied-suspend;
#X obj 460 105 s \$1-piedbytes-rcv;
#X obj 51 254 s \$0-topied-text;
#X obj 24 374 s \$0-topied-text;
#X obj 24 203 t b b;
#X obj 433 54 t a a;
#X obj 496 410 route ack;
#X obj 496 433 bng 18 250 50 0 empty empty empty 0 -9 0 10 #fcfcfc #000000 #000000;
#X obj 328 320 s \$0-topied-text;
#X obj 590 33 r \$1-piedraw-snd;
#X msg 411 258 whoami;
#X obj 591 150 fudiparse;
#X obj 591 124 list store;
#X msg 650 83 append \$1;
#X obj 590 81 t b b;
#X obj 590 56 sel 10 13;
#X obj 591 173 s \$0-frompied;
#X obj 496 382 r \$0-frompied;
#X obj 364 196 s \$1-updating_fw;
#X msg 364 173 0;
#X msg 393 173 1;
#X text 19 5 Program pied firmware;
#X obj 226 29 bng 18 250 50 0 empty empty empty 0 -9 0 10 #fcfcfc #000000 #000000;
#X obj 260 86 del 20;
#X obj 303 85 del 1200;
#X obj 24 282 del 1700;
#X obj 108 141 text define \$0-hex;
#N canvas 360 62 660 300 debug 0;
#X obj 88 141 outlet;
#X msg 88 105 list _none_ tests/debug_system/fraise_bootloader_debug/build/fraise_bootloader.hex, f 86;
#X connect 1 0 0 0;
#X restore 76 36 pd debug;
#X obj 90 329 hsl 153 18 0 1 0 0 empty empty empty -2 -9 0 10 #fcfcfc #000000 #000000 0 1;
#X obj 676 298 + 69632;
#X obj 675 271 * 16;
#X obj 668 236 hradio 18 1 0 8 empty empty empty 0 -9 0 10 #fcfcfc #000000 #000000 0;
#X msg 676 323 readflash \$1;
#X msg 716 194 19;
#X obj 75 58 r __pied_\$2_usb_bootload__;
#X obj 86 351 s __pied_\$2_usb_bootload__-progress;
#X obj 166 219 r __pied_\$2_out__;
#X connect 0 0 19 0;
#X connect 1 0 30 0;
#X connect 2 0 27 0;
#X connect 2 1 57 0;
#X connect 3 0 37 0;
#X connect 4 0 37 0;
#X connect 5 0 37 0;
#X connect 6 0 29 0;
#X connect 6 0 48 0;
#X connect 6 1 29 0;
#X connect 6 1 49 0;
#X connect 7 0 37 0;
#X connect 8 0 37 0;
#X connect 9 0 37 0;
#X connect 10 0 37 0;
#X connect 11 0 37 0;
#X connect 12 0 37 0;
#X connect 13 0 37 0;
#X connect 14 0 37 0;
#X connect 15 0 37 0;
#X connect 16 0 37 0;
#X connect 17 0 20 0;
#X connect 17 1 21 0;
#X connect 18 0 31 0;
#X connect 19 0 33 0;
#X connect 19 1 17 0;
#X connect 21 0 55 0;
#X connect 22 0 52 0;
#X connect 22 0 53 0;
#X connect 23 0 51 0;
#X connect 23 0 22 0;
#X connect 25 0 24 0;
#X connect 26 0 24 0;
#X connect 27 0 32 0;
#X connect 28 0 34 0;
#X connect 33 0 54 0;
#X connect 33 1 18 0;
#X connect 34 0 6 0;
#X connect 34 1 1 0;
#X connect 35 0 36 0;
#X connect 38 0 44 0;
#X connect 39 0 37 0;
#X connect 40 0 45 0;
#X connect 41 0 40 0;
#X connect 42 0 41 0;
#X connect 43 0 41 1;
#X connect 43 1 41 0;
#X connect 44 0 43 0;
#X connect 44 2 42 0;
#X connect 46 0 35 0;
#X connect 48 0 47 0;
#X connect 49 0 47 0;
#X connect 52 0 25 0;
#X connect 53 0 26 0;
#X connect 54 0 2 0;
#X connect 56 0 19 0;
#X connect 57 0 64 0;
#X connect 58 0 61 0;
#X connect 59 0 58 0;
#X connect 60 0 59 0;
#X connect 61 0 37 0;
#X connect 62 0 59 0;
#X connect 63 0 19 0;
#X connect 65 0 37 0;
