#N canvas 2001 510 732 482 12;
#X declare -path Fraise;
#X obj 20 18 declare -path Fraise;
#X msg 588 411 Ehello;
#X obj 467 332 hsl 170 20 0 65535 0 0 empty empty empty -2 -10 0 12 #fcfcfc #000000 #000000 0 1;
#X obj 286 330 hsl 170 20 0 65535 0 0 empty empty empty -2 -10 0 12 #fcfcfc #000000 #000000 0 1;
#X floatatom 464 362 9 0 0 0 - - - 0;
#X floatatom 283 363 9 0 0 0 - - - 0;
#X obj 25 62 pied/pied 1;
#X msg 283 387 c 10 i \$1;
#X msg 464 390 c 11 i \$1;
#X text 297 407 value;
#X text 537 389 smooth;
#X obj 26 383 fruit/receive fruit1;
#X obj 283 437 fruit/send2 fruit1, f 44;
#X msg 590 232 Ehello;
#X obj 469 153 hsl 170 20 0 65535 0 0 empty empty empty -2 -10 0 12 #fcfcfc #000000 #000000 0 1;
#X obj 288 151 hsl 170 20 0 65535 0 0 empty empty empty -2 -10 0 12 #fcfcfc #000000 #000000 0 1;
#X floatatom 466 183 9 0 0 0 - - - 0;
#X floatatom 285 184 9 0 0 0 - - - 0;
#X msg 285 208 c 10 i \$1;
#X msg 466 211 c 11 i \$1;
#X text 299 228 value;
#X text 539 210 smooth;
#X obj 285 258 fruit/send2 fruit0, f 44;
#X obj 26 408 print from_fruit1;
#X obj 27 235 print from_fruit0;
#X obj 27 210 fruit/receive fruit0;
#X obj 26 149 fruit/fruit 1 fruit0 0 fw_example_ws2811;
#X obj 26 328 fruit/fruit 1 fruit1 10 fw_example_ws2811;
#X connect 1 0 12 1;
#X connect 2 0 4 0;
#X connect 3 0 5 0;
#X connect 4 0 8 0;
#X connect 5 0 7 0;
#X connect 7 0 12 0;
#X connect 8 0 12 0;
#X connect 11 0 23 0;
#X connect 13 0 22 1;
#X connect 14 0 16 0;
#X connect 15 0 17 0;
#X connect 16 0 19 0;
#X connect 17 0 18 0;
#X connect 18 0 22 0;
#X connect 19 0 22 0;
#X connect 25 0 24 0;
