#N canvas 2001 510 1430 750 12;
#X declare -path Fraise;
#X obj 20 18 declare -path Fraise;
#X obj 25 62 pied/pied 1;
#X obj 31 456 fruit/receive fruit1;
#X msg 765 232 Ehello;
#X obj 285 258 fruit/send2 fruit0, f 69;
#X obj 31 481 print from_fruit1;
#X obj 27 235 print from_fruit0;
#X obj 27 210 fruit/receive fruit0;
#X obj 26 149 fruit/fruit 1 fruit0 0 fw_example_ws2811;
#X obj 31 401 fruit/fruit 1 fruit1 10 fw_example_ws2811;
#X obj 285 144 tgl 20 0 empty empty play 0 -10 0 12 #fcfcfc #000000 #000000 0 1;
#X obj 319 143 tgl 20 0 empty empty random 0 -10 0 12 #fcfcfc #000000 #000000 0 1;
#X obj 386 81 vradio 20 1 0 4 empty empty empty 0 -10 0 12 #fcfcfc #000000 #000000 0;
#X text 411 80 snakes;
#X text 413 101 random;
#X text 412 121 sparkles;
#X text 413 142 greys;
#X obj 484 128 tgl 20 0 empty empty dir 0 -10 0 12 #fcfcfc #000000 #000000 0 1;
#X obj 285 197 pack f f f f, f 29;
#X obj 319 171 t b f;
#X obj 386 172 t b f;
#X obj 453 170 t b f;
#X msg 285 222 c 21 c \$1 c \$2 c \$3 c \$4;
#X obj 651 47 vsl 20 100 0 255 0 0 empty empty empty 0 -9 0 12 #ff0400 #000000 #000000 0 1;
#X obj 677 47 vsl 20 100 0 255 0 0 empty empty empty 0 -9 0 12 #00ff04 #000000 #000000 0 1;
#X obj 704 47 vsl 20 100 0 255 0 0 empty empty empty 0 -9 0 12 #0446ff #000000 #000000 0 1;
#X obj 550 192 pack f f f f, f 29;
#X obj 584 166 t b f;
#X obj 651 167 t b f;
#X obj 718 165 t b f;
#X msg 550 217 c 20 c \$1 c \$2 c \$3 c \$4;
#X floatatom 550 137 5 0 149 2 which - - 0;
#X obj 836 36 tgl 20 0 empty empty empty 0 -10 0 12 #fcfcfc #000000 #000000 0 1;
#X obj 836 61 metro 40;
#X obj 836 86 tgl 20 0 empty empty empty 0 -10 0 12 #fcfcfc #000000 #000000 0 1;
#X obj 836 111 * 255;
#X floatatom 886 34 5 0 0 0 - - - 0;
#X msg 836 136 0 \$1 \$1 \$1 \, 1 \$1 \$1 \$1;
#X msg 773 479 Ehello;
#X obj 293 391 tgl 20 0 empty empty play 0 -10 0 12 #fcfcfc #000000 #000000 0 1;
#X obj 327 390 tgl 20 0 empty empty random 0 -10 0 12 #fcfcfc #000000 #000000 0 1;
#X obj 394 328 vradio 20 1 0 4 empty empty empty 0 -10 0 12 #fcfcfc #000000 #000000 0;
#X text 419 327 snakes;
#X text 421 348 random;
#X text 420 368 sparkles;
#X text 421 389 greys;
#X obj 492 375 tgl 20 0 empty empty dir 0 -10 0 12 #fcfcfc #000000 #000000 0 1;
#X obj 293 444 pack f f f f, f 29;
#X obj 327 418 t b f;
#X obj 394 419 t b f;
#X obj 461 417 t b f;
#X msg 293 469 c 21 c \$1 c \$2 c \$3 c \$4;
#X obj 659 294 vsl 20 100 0 255 0 0 empty empty empty 0 -9 0 12 #ff0400 #000000 #000000 0 1;
#X obj 685 294 vsl 20 100 0 255 0 0 empty empty empty 0 -9 0 12 #00ff04 #000000 #000000 0 1;
#X obj 712 294 vsl 20 100 0 255 0 0 empty empty empty 0 -9 0 12 #0446ff #000000 #000000 0 1;
#X obj 558 439 pack f f f f, f 29;
#X obj 592 413 t b f;
#X obj 659 414 t b f;
#X obj 726 412 t b f;
#X msg 558 464 c 20 c \$1 c \$2 c \$3 c \$4;
#X floatatom 558 384 5 0 149 2 which - - 0;
#X obj 860 323 tgl 20 0 empty empty empty 0 -10 0 12 #fcfcfc #000000 #000000 0 1;
#X obj 860 348 metro 40;
#X obj 860 373 tgl 20 0 empty empty empty 0 -10 0 12 #fcfcfc #000000 #000000 0 1;
#X obj 860 398 * 255;
#X floatatom 910 321 5 0 0 0 - - - 0;
#X msg 860 423 0 \$1 \$1 \$1 \, 1 \$1 \$1 \$1;
#X obj 293 505 fruit/send2 fruit1, f 69;
#X obj 864 197 hsl 170 20 -65535 65535 0 0 empty empty empty -2 -10 0 12 #fcfcfc #000000 #000000 0 1;
#X msg 861 169 0;
#X msg 861 223 c 30 l \$1;
#X floatatom 954 252 8 0 0 0 - - - 0;
#X obj 1085 103 until;
#X obj 1085 128 i;
#X obj 1120 128 + 1;
#X obj 1085 77 t f f, f 12;
#X msg 1128 102 0;
#X obj 1117 184 /, f 7;
#X obj 1117 209 * 3.145;
#X obj 1117 234 sin;
#X obj 1085 159 t f f;
#X obj 1085 306 pack f f;
#X obj 1127 283 * 255;
#X msg 1085 331 \$1 \$2 \$2 0;
#X obj 1258 105 until;
#X obj 1258 130 i;
#X obj 1293 130 + 1;
#X obj 1258 79 t f f, f 12;
#X msg 1301 104 0;
#X obj 1290 186 /, f 7;
#X obj 1290 211 * 3.145;
#X obj 1290 236 sin;
#X obj 1258 161 t f f;
#X obj 1258 308 pack f f;
#X obj 1300 285 * 255;
#X msg 1259 333 \$1 0 0 \$2;
#X obj 1240 236 + 80;
#X obj 1085 361 t a;
#X obj 1289 261 pow 8;
#X obj 1117 259 pow 16;
#X obj 1207 430 until;
#X obj 1207 455 i;
#X obj 1242 455 + 1;
#X obj 1207 404 t f f, f 12;
#X msg 1250 429 0;
#X obj 1239 511 /, f 7;
#X obj 1239 536 * 3.145;
#X obj 1239 561 sin;
#X obj 1207 486 t f f;
#X obj 1207 633 pack f f;
#X obj 1249 610 * 255;
#X obj 1238 586 pow 8;
#X msg 1207 378 150;
#X msg 1208 658 \$1 0 0 0;
#X obj 1191 561 + 0;
#X msg 1085 50 20;
#X msg 1259 53 60;
#X connect 2 0 5 0;
#X connect 3 0 4 1;
#X connect 7 0 6 0;
#X connect 10 0 18 0;
#X connect 11 0 19 0;
#X connect 12 0 20 0;
#X connect 17 0 21 0;
#X connect 18 0 22 0;
#X connect 19 0 18 0;
#X connect 19 1 18 1;
#X connect 20 0 18 0;
#X connect 20 1 18 2;
#X connect 21 0 18 0;
#X connect 21 1 18 3;
#X connect 22 0 4 0;
#X connect 23 0 27 0;
#X connect 24 0 28 0;
#X connect 25 0 29 0;
#X connect 26 0 30 0;
#X connect 27 0 26 0;
#X connect 27 1 26 1;
#X connect 28 0 26 0;
#X connect 28 1 26 2;
#X connect 29 0 26 0;
#X connect 29 1 26 3;
#X connect 30 0 4 0;
#X connect 31 0 26 0;
#X connect 32 0 33 0;
#X connect 33 0 34 0;
#X connect 34 0 35 0;
#X connect 35 0 37 0;
#X connect 36 0 33 1;
#X connect 37 0 30 0;
#X connect 38 0 67 1;
#X connect 39 0 47 0;
#X connect 40 0 48 0;
#X connect 41 0 49 0;
#X connect 46 0 50 0;
#X connect 47 0 51 0;
#X connect 48 0 47 0;
#X connect 48 1 47 1;
#X connect 49 0 47 0;
#X connect 49 1 47 2;
#X connect 50 0 47 0;
#X connect 50 1 47 3;
#X connect 51 0 67 0;
#X connect 52 0 56 0;
#X connect 53 0 57 0;
#X connect 54 0 58 0;
#X connect 55 0 59 0;
#X connect 56 0 55 0;
#X connect 56 1 55 1;
#X connect 57 0 55 0;
#X connect 57 1 55 2;
#X connect 58 0 55 0;
#X connect 58 1 55 3;
#X connect 59 0 67 0;
#X connect 60 0 55 0;
#X connect 61 0 62 0;
#X connect 62 0 63 0;
#X connect 63 0 64 0;
#X connect 64 0 66 0;
#X connect 65 0 62 1;
#X connect 66 0 59 0;
#X connect 68 0 70 0;
#X connect 68 0 71 0;
#X connect 69 0 68 0;
#X connect 70 0 4 0;
#X connect 72 0 73 0;
#X connect 73 0 74 0;
#X connect 73 0 80 0;
#X connect 74 0 73 1;
#X connect 75 0 72 0;
#X connect 75 1 76 0;
#X connect 75 1 77 1;
#X connect 76 0 73 1;
#X connect 77 0 78 0;
#X connect 78 0 79 0;
#X connect 79 0 99 0;
#X connect 80 0 81 0;
#X connect 80 1 77 0;
#X connect 81 0 83 0;
#X connect 82 0 81 1;
#X connect 83 0 97 0;
#X connect 84 0 85 0;
#X connect 85 0 86 0;
#X connect 85 0 92 0;
#X connect 86 0 85 1;
#X connect 87 0 84 0;
#X connect 87 1 88 0;
#X connect 87 1 89 1;
#X connect 88 0 85 1;
#X connect 89 0 90 0;
#X connect 90 0 91 0;
#X connect 91 0 98 0;
#X connect 92 0 96 0;
#X connect 92 1 89 0;
#X connect 93 0 95 0;
#X connect 94 0 93 1;
#X connect 95 0 97 0;
#X connect 96 0 93 0;
#X connect 97 0 30 0;
#X connect 98 0 94 0;
#X connect 99 0 82 0;
#X connect 100 0 101 0;
#X connect 101 0 102 0;
#X connect 101 0 108 0;
#X connect 102 0 101 1;
#X connect 103 0 100 0;
#X connect 103 1 104 0;
#X connect 103 1 105 1;
#X connect 104 0 101 1;
#X connect 105 0 106 0;
#X connect 106 0 107 0;
#X connect 107 0 111 0;
#X connect 108 0 114 0;
#X connect 108 1 105 0;
#X connect 109 0 113 0;
#X connect 110 0 109 1;
#X connect 111 0 110 0;
#X connect 112 0 103 0;
#X connect 113 0 97 0;
#X connect 114 0 109 0;
#X connect 115 0 75 0;
#X connect 116 0 87 0;
