#N canvas 145 80 985 823 12;
#X declare -path Fraise;
#X obj 14 10 declare -path Fraise;
#X obj 163 11 pied/pied 1;
#X obj 94 500 mtof;
#X floatatom 54 546 5 0 0 0 - - - 0;
#X obj 800 509 hsl 170 20 0 65535 0 0 empty empty mix -2 -10 0 12 #fcfcfc #000000 #000000 0 1;
#X floatatom 95 565 10 0 0 0 - - - 0;
#X msg 29 412 440;
#X obj 135 498 t b f;
#X floatatom 138 468 5 0 0 0 - - - 0;
#X floatatom 80 464 5 0 0 0 - - - 0;
#X obj 583 483 hsl 170 20 0 255 0 0 empty empty master -2 -10 0 12 #fcfcfc #000000 #000000 0 1;
#X obj 578 559 hradio 20 1 0 4 empty empty dither_mode 0 -10 0 12 #fcfcfc #000000 #000000 0;
#X obj 95 535 * 2333;
#X msg 580 508 c 4 c \$1;
#X msg 578 584 c 5 c \$1;
#X msg 542 651 c 3;
#X msg 470 650 c 6;
#X obj 106 308 t f f f;
#X obj 106 333 + 12;
#X msg 110 268 60;
#X msg 146 267 65;
#X msg 190 269 67;
#X floatatom 110 215 5 0 0 0 - - - 0;
#X obj 110 93 tgl 20 0 empty empty empty 0 -10 0 12 #fcfcfc #000000 #000000 0 1;
#X msg 225 268 70;
#X obj 110 241 sel 0 1 2 3 4, f 23;
#X msg 259 270 72;
#X obj 110 119 metro 75;
#X obj 110 143 tgl 20 0 empty empty empty 0 -10 0 12 #fcfcfc #000000 #000000 0 1;
#X obj 110 167 sel 0;
#X obj 331 310 t f f f;
#X obj 331 335 + 12;
#X msg 331 267 60;
#X msg 367 266 65;
#X msg 411 268 67;
#X floatatom 338 212 5 0 0 0 - - - 0;
#X msg 446 267 70;
#X msg 480 269 72;
#X obj 338 159 spigot;
#X obj 393 128 tgl 20 0 empty empty empty 0 -10 0 12 #fcfcfc #000000 #000000 0 1;
#X obj 332 369 + 17;
#X obj 106 367 - 12;
#X msg 441 336 12;
#X msg 536 336 24;
#X msg 474 336 17;
#X msg 503 337 19;
#X msg 511 270 77;
#X obj 338 236 sel 0 1 2 3 4 5, f 23;
#X obj 106 438 unpack f f;
#X obj 279 412 pack f 16;
#X obj 106 392 pack f 48;
#X floatatom 356 413 5 0 255 2 volume - - 0;
#X floatatom 188 391 5 0 255 2 volume - - 0;
#X msg 411 336 7;
#X obj 367 336 + 17;
#X floatatom 259 569 6 0 0 0 - - - 0;
#X floatatom 308 569 6 0 0 0 - - - 0;
#X obj 28 356 tgl 20 0 empty empty empty 0 -10 0 12 #fcfcfc #000000 #000000 0 1;
#X obj 95 603 pack f 32 65000 0 0, f 27;
#X obj 215 463 hsl 170 20 0 1 0 0 empty empty release -2 -10 0 12 #fcfcfc #000000 #000000 0 1;
#X obj 210 492 pow 0.2;
#X obj 213 543 i;
#X floatatom 212 569 5 0 0 0 - - - 0;
#X obj 212 518 * 65530;
#X obj 773 558 pack f f;
#X msg 773 583 c 9 i \$1 i \$2;
#X obj 797 535 t b f;
#X obj 776 466 hsl 170 20 0 65535 0 0 empty empty feedback -2 -10 0 12 #fcfcfc #000000 #000000 0 1;
#X msg 193 114 75;
#X msg 230 116 150;
#X obj 142 334 + 19;
#X msg 204 319 12;
#X msg 236 319 24;
#X msg 268 319 36;
#X obj 66 168 bng 20 250 50 0 empty empty empty 0 -10 0 12 #fcfcfc #000000 #000000;
#X obj 304 176 bng 20 250 50 0 empty empty empty 0 -10 0 12 #fcfcfc #000000 #000000;
#X obj 110 190 motex/shuffle 0 8 0.3;
#X obj 338 187 motex/shuffle 0 10 0.3;
#X obj 398 467 hsl 80 20 0 1 0 0 empty empty lfo_amp -2 -10 0 12 #fcfcfc #000000 #000000 0 1;
#X obj 395 492 pow 2;
#X obj 395 517 * 6000;
#X obj 488 473 hsl 80 20 0 1 0 0 empty empty lfo_freq -2 -10 0 12 #fcfcfc #000000 #000000 0 1;
#X obj 485 498 pow 2;
#X obj 485 523 * 6000;
#X text 472 632 stats;
#X text 427 312 transpose;
#X text 207 298 transpose;
#X text 520 631 clear_voices;
#X obj 28 383 metro 1000;
#X obj 663 245 fruit/receive fruit1;
#X obj 663 180 fruit/fruit 1 fruit1 10 exampleAudioFw 1;
#X msg 233 763 Ehello;
#X obj 95 688 spigot 1;
#X msg 449 770 Ehello;
#X msg 572 338 36;
#X obj 320 14 fruit/fruit 1 fruit0 0 exampleAudioFw;
#X obj 561 11 fruit/receive fruit0;
#X obj 649 61 print from_fruit0;
#X obj 751 295 print from_fruit1;
#X obj 663 270 route nbnotes;
#X floatatom 663 295 5 0 0 0 - - - 0;
#X obj 635 705 metro 100;
#X obj 645 667 tgl 20 0 empty empty empty 0 -10 0 12 #fcfcfc #000000 #000000 0 1;
#X obj 561 37 route nbnotes;
#X floatatom 561 62 5 0 0 0 - - - 0;
#X obj 311 769 fruit/send2 fruit1;
#X obj 95 764 fruit/send2 fruit0;
#X msg 709 648 10;
#X msg 745 647 5;
#X msg 673 648 100;
#N canvas 637 204 674 462 OUTPUT_PIN_FILTER_CIRCUIT 0;
#X obj 164 202 cnv 1 100 2 empty empty empty 5 -8 0 12 #000000 #000000 0;
#X obj 190 193 hsl 50 20 0 127 0 0 $--- $--- empty -2 -10 0 12 #fcfcfc #ffffff #000000 0 1;
#X obj 264 202 cnv 1 2 30 empty empty empty 5 -8 0 12 #000000 #000000 0;
#X obj 264 246 cnv 1 2 30 empty empty empty 5 -8 0 12 #000000 #000000 0;
#X text 156 171 R (e.g 100ohms);
#X obj 246 231 cnv 4 40 5 empty empty empty 5 -8 0 12 #000000 #000000 0;
#X obj 246 245 cnv 4 40 5 empty empty empty 5 -8 0 12 #000000 #000000 0;
#X obj 250 275 cnv 4 30 5 empty empty empty 5 -8 0 12 #000000 #000000 0;
#X text 243 275 / / /;
#X text 177 250 (e.g 100nF);
#X text 229 231 C;
#X obj 266 202 cnv 1 100 2 empty empty empty 5 -8 0 12 #000000 #000000 0;
#X obj 292 193 hsl 50 20 0 127 0 0 $--- $--- empty -2 -10 0 12 #fcfcfc #ffffff #000000 0 1;
#X obj 366 202 cnv 1 2 30 empty empty empty 5 -8 0 12 #000000 #000000 0;
#X obj 366 246 cnv 1 2 30 empty empty empty 5 -8 0 12 #000000 #000000 0;
#X text 280 171 R (e.g 100ohms);
#X obj 348 231 cnv 4 40 5 empty empty empty 5 -8 0 12 #000000 #000000 0;
#X obj 348 245 cnv 4 40 5 empty empty empty 5 -8 0 12 #000000 #000000 0;
#X obj 352 275 cnv 4 30 5 empty empty empty 5 -8 0 12 #000000 #000000 0;
#X text 345 275 / / /;
#X text 279 250 (e.g 100nF);
#X text 331 231 C;
#X obj 368 202 cnv 1 60 2 empty empty empty 5 -8 0 12 #000000 #000000 0;
#X obj 492 224 cnv 1 2 50 empty empty empty 5 -8 0 12 #000000 #000000 0;
#X obj 478 273 cnv 4 30 5 empty empty empty 5 -8 0 12 #000000 #000000 0;
#X text 471 273 / / /;
#X text 31 193 Pico output pin ->;
#X text 493 202 -> to amplifier;
#X text 36 340 You can adjust the cutoff frequency with R and C \, according to the samplerate you configured in the firmware., f 76;
#X text 39 381 Fcutoff = 1 /( 2 * pi * R * C);
#X text 38 404 If R = 100ohms and C = 100nF \, Fcutoff = 16kHz.;
#X text 38 426 If R = 150ohms and C = 100nF \, Fcutoff = 10kHz.;
#X obj 440 183 cnv 4 5 40 empty empty empty 5 -8 0 12 #000000 #000000 0;
#X obj 445 202 cnv 1 50 2 empty empty empty 5 -8 0 12 #000000 #000000 0;
#X obj 428 183 cnv 4 5 40 empty empty empty 5 -8 0 12 #000000 #000000 0;
#X text 408 162 C2 (e.g 10uF);
#X text 417 184 +;
#X text 29 17 You'll need to filter the output pin before driving the analog audio device (e.g amplifier) \, because the pin ouputs an high-rate PWM signal \, containing high-frequencies largely out of audio bandwidth \, and a DC offset., f 78;
#X text 27 93 The simplest is two cascaded 1st order lowpass filters \, formed with each one resistor and one capacitor \, plus one 10uF electrolytic capacitor to remove DC offset and center the signal around 0V:, f 78;
#X restore 321 85 pd OUTPUT_PIN_FILTER_CIRCUIT;
#X text 661 153 Case of separated fruit board:;
#X msg 95 629 c 2 l \$1 c \$2 i \$3 \$4 \$5;
#X connect 2 0 3 0;
#X connect 2 0 12 0;
#X connect 4 0 66 0;
#X connect 5 0 58 0;
#X connect 6 0 12 0;
#X connect 7 0 12 0;
#X connect 7 1 12 1;
#X connect 8 0 7 0;
#X connect 9 0 2 0;
#X connect 10 0 13 0;
#X connect 11 0 14 0;
#X connect 12 0 5 0;
#X connect 13 0 92 0;
#X connect 14 0 92 0;
#X connect 15 0 92 0;
#X connect 16 0 92 0;
#X connect 17 0 18 0;
#X connect 17 1 70 0;
#X connect 17 2 41 0;
#X connect 18 0 41 0;
#X connect 19 0 17 0;
#X connect 20 0 17 0;
#X connect 21 0 17 0;
#X connect 22 0 25 0;
#X connect 23 0 27 0;
#X connect 24 0 17 0;
#X connect 25 0 19 0;
#X connect 25 1 20 0;
#X connect 25 2 21 0;
#X connect 25 3 24 0;
#X connect 25 4 26 0;
#X connect 26 0 17 0;
#X connect 27 0 28 0;
#X connect 27 0 38 0;
#X connect 28 0 29 0;
#X connect 29 0 76 0;
#X connect 30 0 31 0;
#X connect 30 1 54 0;
#X connect 30 2 40 0;
#X connect 31 0 40 0;
#X connect 32 0 30 0;
#X connect 33 0 30 0;
#X connect 34 0 30 0;
#X connect 35 0 47 0;
#X connect 36 0 30 0;
#X connect 37 0 30 0;
#X connect 38 0 77 0;
#X connect 39 0 38 1;
#X connect 40 0 49 0;
#X connect 41 0 50 0;
#X connect 42 0 40 1;
#X connect 43 0 40 1;
#X connect 44 0 40 1;
#X connect 45 0 40 1;
#X connect 46 0 30 0;
#X connect 47 0 32 0;
#X connect 47 1 33 0;
#X connect 47 2 34 0;
#X connect 47 3 36 0;
#X connect 47 4 37 0;
#X connect 47 5 46 0;
#X connect 48 0 2 0;
#X connect 48 1 58 1;
#X connect 49 0 48 0;
#X connect 50 0 48 0;
#X connect 51 0 49 1;
#X connect 52 0 50 1;
#X connect 53 0 40 1;
#X connect 54 0 40 0;
#X connect 55 0 58 3;
#X connect 56 0 58 4;
#X connect 57 0 88 0;
#X connect 58 0 112 0;
#X connect 59 0 60 0;
#X connect 60 0 63 0;
#X connect 61 0 62 0;
#X connect 62 0 58 2;
#X connect 63 0 61 0;
#X connect 64 0 65 0;
#X connect 65 0 92 0;
#X connect 66 0 64 0;
#X connect 66 1 64 1;
#X connect 67 0 64 0;
#X connect 68 0 27 1;
#X connect 69 0 27 1;
#X connect 70 0 41 0;
#X connect 71 0 41 1;
#X connect 72 0 41 1;
#X connect 73 0 41 1;
#X connect 74 0 76 0;
#X connect 75 0 77 0;
#X connect 76 0 22 0;
#X connect 77 0 35 0;
#X connect 78 0 79 0;
#X connect 79 0 80 0;
#X connect 80 0 55 0;
#X connect 81 0 82 0;
#X connect 82 0 83 0;
#X connect 83 0 56 0;
#X connect 88 0 6 0;
#X connect 89 0 99 0;
#X connect 91 0 106 1;
#X connect 92 0 105 0;
#X connect 92 0 106 0;
#X connect 93 0 105 1;
#X connect 94 0 40 1;
#X connect 96 0 103 0;
#X connect 99 0 100 0;
#X connect 99 1 98 0;
#X connect 101 0 16 0;
#X connect 102 0 101 0;
#X connect 103 0 104 0;
#X connect 103 1 97 0;
#X connect 107 0 101 1;
#X connect 108 0 101 1;
#X connect 109 0 101 1;
#X connect 112 0 92 0;
