#N canvas 672 147 985 720 12;
#X declare -path Fraise;
#X obj 14 10 declare -path Fraise;
#X obj 561 36 print fromFruit;
#X msg 233 689 Ehello;
#X obj 163 11 pied/pied 1;
#X obj 561 11 fruit/receive myFruit;
#X obj 95 688 fruit/send myFruit;
#X obj 320 13 fruit/fruit 1 myFruit 0 exampleAudioFw;
#X obj 94 500 mtof;
#X floatatom 54 546 5 0 0 0 - - - 0;
#X obj 800 509 hsl 170 20 0 65535 0 0 empty empty mix -2 -10 0 12 #fcfcfc #000000 #000000 0 1;
#X floatatom 95 565 10 0 0 0 - - - 0;
#X msg 29 412 440;
#X obj 135 498 t b f;
#X floatatom 138 468 5 0 0 0 - - - 0;
#X floatatom 80 464 5 0 0 0 - - - 0;
#X obj 583 483 hsl 170 20 0 255 0 0 empty empty master -2 -10 0 12 #fcfcfc #000000 #000000 0 1;
#X obj 578 559 hradio 20 1 0 4 empty empty dither_mode 0 -10 0 12 #fcfcfc #000000 #000000 0;
#X obj 95 535 * 2333;
#X msg 580 508 c 4 c \$1;
#X msg 578 584 c 5 c \$1;
#X msg 542 651 c 3;
#X msg 470 650 c 6;
#X obj 106 308 t f f f;
#X obj 106 333 + 12;
#X msg 110 268 60;
#X msg 146 267 65;
#X msg 190 269 67;
#X floatatom 110 215 5 0 0 0 - - - 0;
#X obj 81 117 tgl 20 0 empty empty empty 0 -10 0 12 #fcfcfc #000000 #000000 0 1;
#X msg 225 268 70;
#X obj 110 241 sel 0 1 2 3 4, f 23;
#X msg 259 270 72;
#X obj 111 119 metro 75;
#X obj 110 143 tgl 20 0 empty empty empty 0 -10 0 12 #fcfcfc #000000 #000000 0 1;
#X obj 110 167 sel 0;
#X obj 331 310 t f f f;
#X obj 331 335 + 12;
#X msg 331 267 60;
#X msg 367 266 65;
#X msg 411 268 67;
#X floatatom 338 212 5 0 0 0 - - - 0;
#X msg 446 267 70;
#X msg 480 269 72;
#X obj 338 159 spigot;
#X obj 393 128 tgl 20 0 empty empty empty 0 -10 0 12 #fcfcfc #000000 #000000 0 1;
#X obj 332 369 + 17;
#X obj 106 367 - 12;
#X msg 441 336 12;
#X msg 536 336 24;
#X msg 474 336 17;
#X msg 503 337 19;
#X msg 511 270 77;
#X obj 338 236 sel 0 1 2 3 4 5, f 23;
#X obj 106 438 unpack f f;
#X obj 279 412 pack f 16;
#X obj 106 392 pack f 48;
#X floatatom 356 413 5 0 255 2 volume - - 0;
#X floatatom 188 391 5 0 255 2 volume - - 0;
#X msg 411 336 7;
#X obj 367 336 + 17;
#X msg 95 629 c 2 l \$1 c \$2 i \$3 i \$4 i \$5;
#X floatatom 259 569 6 0 0 0 - - - 0;
#X floatatom 308 569 6 0 0 0 - - - 0;
#X obj 28 356 tgl 20 0 empty empty empty 0 -10 0 12 #fcfcfc #000000 #000000 0 1;
#X obj 95 603 pack f 32 65000 0 0, f 27;
#X obj 215 463 hsl 170 20 0 1 0 0 empty empty release -2 -10 0 12 #fcfcfc #000000 #000000 0 1;
#X obj 210 492 pow 0.2;
#X obj 213 543 i;
#X floatatom 212 569 5 0 0 0 - - - 0;
#X obj 212 518 * 65530;
#X obj 773 558 pack f f;
#X msg 773 583 c 9 i \$1 i \$2;
#X obj 797 535 t b f;
#X obj 776 466 hsl 170 20 0 65535 0 0 empty empty feedback -2 -10 0 12 #fcfcfc #000000 #000000 0 1;
#X msg 194 114 75;
#X msg 231 116 150;
#X obj 142 334 + 19;
#X msg 204 319 12;
#X msg 236 319 24;
#X msg 268 319 36;
#X obj 66 168 bng 20 250 50 0 empty empty empty 0 -10 0 12 #fcfcfc #000000 #000000;
#X obj 304 176 bng 20 250 50 0 empty empty empty 0 -10 0 12 #fcfcfc #000000 #000000;
#X obj 110 190 motex/shuffle 0 8 0.3;
#X obj 338 187 motex/shuffle 0 10 0.3;
#X obj 398 467 hsl 80 20 0 1 0 0 empty empty lfo_amp -2 -10 0 12 #fcfcfc #000000 #000000 0 1;
#X obj 395 492 pow 2;
#X obj 395 517 * 6000;
#X obj 488 473 hsl 80 20 0 1 0 0 empty empty lfo_freq -2 -10 0 12 #fcfcfc #000000 #000000 0 1;
#X obj 485 498 pow 2;
#X obj 485 523 * 6000;
#X text 472 632 stats;
#X text 427 312 transpose;
#X text 207 298 transpose;
#X text 520 631 clear_voices;
#X obj 28 383 metro 1000;
#X connect 2 0 5 1;
#X connect 4 0 1 0;
#X connect 7 0 8 0;
#X connect 7 0 17 0;
#X connect 9 0 72 0;
#X connect 10 0 64 0;
#X connect 11 0 17 0;
#X connect 12 0 17 0;
#X connect 12 1 17 1;
#X connect 13 0 12 0;
#X connect 14 0 7 0;
#X connect 15 0 18 0;
#X connect 16 0 19 0;
#X connect 17 0 10 0;
#X connect 18 0 5 0;
#X connect 19 0 5 0;
#X connect 20 0 5 0;
#X connect 21 0 5 0;
#X connect 22 0 23 0;
#X connect 22 1 76 0;
#X connect 22 2 46 0;
#X connect 23 0 46 0;
#X connect 24 0 22 0;
#X connect 25 0 22 0;
#X connect 26 0 22 0;
#X connect 27 0 30 0;
#X connect 28 0 32 0;
#X connect 29 0 22 0;
#X connect 30 0 24 0;
#X connect 30 1 25 0;
#X connect 30 2 26 0;
#X connect 30 3 29 0;
#X connect 30 4 31 0;
#X connect 31 0 22 0;
#X connect 32 0 33 0;
#X connect 32 0 43 0;
#X connect 33 0 34 0;
#X connect 34 0 82 0;
#X connect 35 0 36 0;
#X connect 35 1 59 0;
#X connect 35 2 45 0;
#X connect 36 0 45 0;
#X connect 37 0 35 0;
#X connect 38 0 35 0;
#X connect 39 0 35 0;
#X connect 40 0 52 0;
#X connect 41 0 35 0;
#X connect 42 0 35 0;
#X connect 43 0 83 0;
#X connect 44 0 43 1;
#X connect 45 0 54 0;
#X connect 46 0 55 0;
#X connect 47 0 45 1;
#X connect 48 0 45 1;
#X connect 49 0 45 1;
#X connect 50 0 45 1;
#X connect 51 0 35 0;
#X connect 52 0 37 0;
#X connect 52 1 38 0;
#X connect 52 2 39 0;
#X connect 52 3 41 0;
#X connect 52 4 42 0;
#X connect 52 5 51 0;
#X connect 53 0 7 0;
#X connect 53 1 64 1;
#X connect 54 0 53 0;
#X connect 55 0 53 0;
#X connect 56 0 54 1;
#X connect 57 0 55 1;
#X connect 58 0 45 1;
#X connect 59 0 45 0;
#X connect 60 0 5 0;
#X connect 61 0 64 3;
#X connect 62 0 64 4;
#X connect 63 0 94 0;
#X connect 64 0 60 0;
#X connect 65 0 66 0;
#X connect 66 0 69 0;
#X connect 67 0 68 0;
#X connect 68 0 64 2;
#X connect 69 0 67 0;
#X connect 70 0 71 0;
#X connect 71 0 5 0;
#X connect 72 0 70 0;
#X connect 72 1 70 1;
#X connect 73 0 70 0;
#X connect 74 0 32 1;
#X connect 75 0 32 1;
#X connect 76 0 46 0;
#X connect 77 0 46 1;
#X connect 78 0 46 1;
#X connect 79 0 46 1;
#X connect 80 0 82 0;
#X connect 81 0 83 0;
#X connect 82 0 27 0;
#X connect 83 0 40 0;
#X connect 84 0 85 0;
#X connect 85 0 86 0;
#X connect 86 0 61 0;
#X connect 87 0 88 0;
#X connect 88 0 89 0;
#X connect 89 0 62 0;
#X connect 94 0 11 0;
