#N canvas 1184 21 622 648 12;
#X declare -path Fraise;
#X obj 20 18 declare -path Fraise;
#X obj 55 273 print fromFruit;
#X msg 429 184 Ehello;
#X obj 25 62 pied/pied 1;
#X msg 276 139 c 1 c \$1;
#X obj 279 102 hsl 170 20 3 40 0 0 empty empty empty -2 -10 0 12 #fcfcfc #000000 #000000 0 1;
#X msg 357 142 c 100 c 2 c 3;
#X msg 534 347 Ehello;
#X msg 526 308 Coucou;
#X msg 303 251 c 2;
#X msg 439 327 c 0 c 1;
#X msg 453 288 c 0;
#X obj 503 147 metro 500;
#X obj 504 172 tgl 20 0 empty empty empty 0 -10 0 12 #fcfcfc #000000 #000000 0 1;
#X obj 537 259 sel 0 1;
#X obj 496 115 tgl 20 0 empty empty empty 0 -10 0 12 #fcfcfc #000000 #000000 0 1;
#X obj 560 206 del 10;
#X obj 502 201 t f b;
#X msg 249 186 c 3;
#X obj 54 245 route tv;
#X obj 320 459 list tosymbol;
#X listbox 320 484 20 0 0 0 - - - 0;
#X msg 535 408 EA;
#X msg 584 454 L\$1;
#X obj 592 426 tgl 20 0 empty empty empty 0 -10 0 12 #fcfcfc #000000 #000000 0 1;
#X obj 449 379 fruit/send fruit1;
#X obj 260 386 print fruit1;
#X obj 260 321 fruit/receive fruit1;
#X msg 320 434 99 111 117 110 116 32 49 54 56;
#X msg 371 384 c 111 c 1;
#X msg 397 287 c 1 c \$1;
#X obj 356 261 hsl 170 20 3 40 0 0 empty empty empty -2 -10 0 12 #fcfcfc #000000 #000000 0 1;
#X msg 237 250 c 4;
#X text 238 232 stats;
#X text 244 168 next_tx;
#X text 295 272 reset;
#X obj 28 154 fruit/fruit 1 debugPied 0 fw_debugPied;
#X obj 32 554 pied/pied 2;
#X obj 23 325 fruit/fruit 1 fruit1 2 fw_debugFruit;
#X obj 50 435 fruit/fruit 1 fruit2 10 fw_versa 1;
#X obj 260 354 route present;
#X obj 285 215 fruit/send debugPied;
#X obj 54 217 fruit/receive debugPied;
#X msg 529 519 Ehello;
#X obj 269 524 fruit/receive fruit2;
#X obj 444 551 fruit/send fruit2;
#X obj 419 601 print fruit2;
#X obj 269 557 route present count K1;
#X floatatom 297 604 5 0 0 0 - - - 0;
#X floatatom 351 602 5 0 0 0 - - - 0;
#X msg 235 595 present \$1;
#X connect 2 0 41 1;
#X connect 4 0 41 0;
#X connect 5 0 4 0;
#X connect 6 0 41 0;
#X connect 7 0 25 1;
#X connect 8 0 25 1;
#X connect 9 0 41 0;
#X connect 10 0 25 0;
#X connect 11 0 25 0;
#X connect 12 0 13 0;
#X connect 13 0 17 0;
#X connect 14 0 11 0;
#X connect 14 1 10 0;
#X connect 15 0 12 0;
#X connect 17 0 14 0;
#X connect 17 1 9 0;
#X connect 18 0 41 0;
#X connect 19 1 1 0;
#X connect 20 0 21 0;
#X connect 22 0 25 1;
#X connect 23 0 25 1;
#X connect 24 0 23 0;
#X connect 27 0 40 0;
#X connect 28 0 20 0;
#X connect 29 0 25 0;
#X connect 30 0 25 0;
#X connect 31 0 30 0;
#X connect 32 0 41 0;
#X connect 40 1 26 0;
#X connect 42 0 19 0;
#X connect 43 0 45 1;
#X connect 44 0 47 0;
#X connect 47 0 50 0;
#X connect 47 1 48 0;
#X connect 47 2 49 0;
#X connect 47 3 46 0;
