#N canvas 2589 499 639 800 12;
#X declare -path Fraise;
#X obj 20 18 declare -path Fraise;
#X obj 55 273 print fromFruit;
#X msg 429 184 Ehello;
#X obj 25 62 pied/pied 1;
#X msg 276 139 c 1 c \$1;
#X obj 279 102 hsl 170 20 3 40 0 0 empty empty empty -2 -10 0 12 #fcfcfc #000000 #000000 0 1;
#X msg 357 142 c 100 c 2 c 3;
#X msg 574 347 Ehello;
#X msg 303 251 c 2;
#X msg 266 185 c 3;
#X obj 54 245 route tv;
#X msg 582 375 EA;
#X msg 574 673 L\$1;
#X obj 582 645 tgl 20 0 empty empty LED 0 -10 0 12 #fcfcfc #000000 #000000 0 1;
#X obj 449 379 fruit/send fruit1;
#X obj 353 385 print fruit1;
#X obj 260 321 fruit/receive fruit1;
#X msg 463 352 c 111 c 1;
#X msg 449 318 c 1 c \$1;
#X obj 452 292 hsl 170 20 3 40 0 0 empty empty led\ speed -2 -10 0 12 #fcfcfc #000000 #000000 0 1;
#X msg 237 250 c 4;
#X text 238 232 stats;
#X text 259 166 next_tx;
#X text 295 272 reset;
#X obj 28 154 fruit/fruit 1 debugPied 0 fw_debugPied;
#X obj 23 325 fruit/fruit 1 fruit1 2 fw_debugFruit;
#X obj 26 654 fruit/fruit 1 fruit2 10 fw_versa 1;
#X obj 285 215 fruit/send debugPied;
#X obj 54 217 fruit/receive debugPied;
#X msg 519 651 Ehello;
#X obj 254 656 fruit/receive fruit2;
#X obj 434 683 fruit/send fruit2;
#X obj 405 714 print fruit2;
#X obj 254 683 route present count K1;
#X floatatom 304 714 5 0 0 0 - - - 0;
#X floatatom 354 713 5 0 0 0 - - - 0;
#X obj 27 458 pied/pied 2 1;
#X obj 260 354 route present sEcho;
#X obj 325 381 bng 20 250 50 0 empty empty empty 0 -10 0 12 #fcfcfc #000000 #000000;
#X obj 204 575 hsl 170 20 0 1 0 0 empty __pied_2_usb_bootload__-progress usb-bootload\ progress -2 -10 0 12 #fcfcfc #000000 #000000 0 1;
#X msg 202 458 symbol fraise_bootloader_debug/build/fraise_bootloader.hex;
#X obj 202 483 file which;
#X msg 202 508 list _none_ \$1;
#X obj 202 533 s __pied_2_usb_bootload__;
#X msg 443 526 runapp;
#X msg 387 527 reboot;
#X msg 501 523 whoami;
#X obj 402 571 s __pied_2_out__;
#X msg 555 522 dontwrite;
#X connect 2 0 27 1;
#X connect 4 0 27 0;
#X connect 5 0 4 0;
#X connect 6 0 27 0;
#X connect 7 0 14 1;
#X connect 8 0 27 0;
#X connect 9 0 27 0;
#X connect 10 1 1 0;
#X connect 11 0 14 1;
#X connect 12 0 31 1;
#X connect 13 0 12 0;
#X connect 16 0 37 0;
#X connect 17 0 14 0;
#X connect 18 0 14 0;
#X connect 19 0 18 0;
#X connect 20 0 27 0;
#X connect 28 0 10 0;
#X connect 29 0 31 1;
#X connect 30 0 33 0;
#X connect 33 1 34 0;
#X connect 33 2 35 0;
#X connect 33 3 32 0;
#X connect 37 1 38 0;
#X connect 37 2 15 0;
#X connect 40 0 41 0;
#X connect 41 0 42 0;
#X connect 42 0 43 0;
#X connect 44 0 47 0;
#X connect 45 0 47 0;
#X connect 46 0 47 0;
#X connect 48 0 47 0;
