#N canvas 346 289 426 507 10;
#X declare -path Fraise;
#X obj 21 16 declare -path Fraise;
#X obj 37 401 fruit/receive master1;
#X msg 37 299 c 1 c \$1;
#X msg 37 268 0;
#X msg 70 268 10;
#X msg 141 290 0 \$1;
#X msg 191 290 10 \$1;
#X floatatom 141 267 5 0 255 0 - - - 0;
#X floatatom 191 269 5 0 255 0 - - - 0;
#X msg 141 321 c 2 c \$1 c \$2;
#X obj 37 361 fruit/send2 master1;
#X obj 19 141 fruit/fruit 1 slave1 20 example1_slave;
#X obj 19 192 fruit/fruit 1 master1 21 example1_master;
#X obj 37 422 route R;
#X obj 37 443 unpack f f;
#X floatatom 37 464 5 0 0 0 - - - 0;
#X floatatom 94 466 5 0 0 0 - - - 0;
#X obj 18 443 bng 15 250 50 0 empty empty empty 17 7 0 10 #fcfcfc #000000 #000000;
#X floatatom 237 269 5 0 255 0 - - - 0;
#X msg 100 268 254;
#X msg 237 290 254 \$1;
#X text 40 248 read register;
#X text 139 250 write register;
#X obj 21 38 pied/pied 1;
#X connect 1 0 13 0;
#X connect 2 0 10 0;
#X connect 3 0 2 0;
#X connect 4 0 2 0;
#X connect 5 0 9 0;
#X connect 6 0 9 0;
#X connect 7 0 5 0;
#X connect 8 0 6 0;
#X connect 9 0 10 0;
#X connect 13 0 14 0;
#X connect 13 0 17 0;
#X connect 14 0 15 0;
#X connect 14 1 16 0;
#X connect 18 0 20 0;
#X connect 19 0 2 0;
#X connect 20 0 9 0;
