#N canvas 1 81 395 300 10;
#X obj 65 43 inlet from_analog/parse;
#X obj 65 67 route \$1 \$2 \$3;
#X text 65 18 args: FSLP_D2CHAN FSLP_SLCHAN FSLP_SLCHAN2;
#X obj 73 116 /;
#X obj 172 127 spigot;
#X obj 73 187 clip 0 1;
#X obj 73 137 / 0.85;
#X obj 205 105 > 0.1;
#X obj 73 158 - 0.05;
#X msg 172 148 1 \$1;
#X obj 172 169 -;
#X obj 172 190 clip 0 1;
#X obj 73 209 outlet PRESSURE;
#X obj 172 209 outlet POSITION;
#X connect 0 0 1 0;
#X connect 1 0 3 1;
#X connect 1 1 3 0;
#X connect 1 1 7 0;
#X connect 1 2 4 0;
#X connect 3 0 6 0;
#X connect 4 0 9 0;
#X connect 5 0 12 0;
#X connect 6 0 8 0;
#X connect 7 0 4 1;
#X connect 8 0 5 0;
#X connect 9 0 10 0;
#X connect 10 0 11 0;
#X connect 11 0 13 0;
