#N canvas 0 51 399 531 10;
#X obj 29 62 inlet;
#X obj 28 448 outlet;
#X obj 193 449 outlet;
#N canvas 86 27 723 804 decode 1;
#X obj 33 15 inlet;
#X obj 33 202 list split, f 25;
#X obj 60 766 outlet;
#X obj 109 765 outlet;
#X obj 137 609 +;
#X obj 33 637 f;
#X obj 166 609 * 256;
#X msg 67 519 0;
#X obj 180 61 sel int8 uint8 int16 uint16 int32 uint32;
#X obj 180 29 inlet;
#X obj 109 741 list, f 36;
#X obj 33 709 t b f;
#X obj 137 561 * -1;
#X obj 137 585 + 255;
#X obj 158 537 unpack f f;
#X msg 158 510 1 0;
#X msg 186 510 -1 255;
#X obj 33 662 * -1;
#X obj 33 686 - 1;
#X msg 48 48 255 255 255 255;
#X obj 33 226 t b a b a;
#X msg 84 288 \$1;
#X obj 84 311 > 127;
#X obj 158 487 sel 0 1, f 10;
#X obj 61 637 unpack f f;
#X msg 70 608 1 0;
#X obj 70 584 sel 0 1, f 10;
#X msg 98 608 -1 1;
#X obj 429 61 sel lint8 luint8 lint16 luint16 lint32 luint32;
#X obj 132 411 list split 1;
#X obj 50 409 list split 1;
#X obj 50 432 t b f;
#X obj 88 432 list, f 6;
#X obj 50 364 list prepend 0, f 42;
#X obj 50 387 route 0 1, f 28;
#X obj 166 433 t a;
#X obj 132 459 f;
#X text 245 334 signed;
#X obj 84 257 list split 0;
#X obj 167 257 *, f 15;
#X obj 180 150 unpack f s s, f 20;
#X obj 180 173 t f f;
#X msg 238 195 1;
#X obj 238 172 sel s;
#X msg 266 195 0;
#X msg 297 196 1;
#X msg 325 196 0;
#X obj 297 173 sel l;
#X obj 238 226 f;
#X obj 297 226 f;
#X obj 207 196 - 1;
#X obj 180 122 t a;
#X obj 429 122 t a;
#X text 307 365 little endian;
#X obj 84 334 && 0, f 26;
#X msg 180 88 1 s b;
#X msg 219 87 1 u b;
#X msg 259 86 2 s b;
#X msg 298 85 2 u b;
#X msg 338 84 4 s b;
#X msg 377 83 4 u b;
#X msg 429 88 1 s l;
#X msg 474 85 1 u l;
#X msg 520 85 2 s l;
#X msg 565 85 2 u l;
#X msg 611 82 4 s l;
#X msg 656 83 4 u l;
#X connect 0 0 1 0;
#X connect 1 0 20 0;
#X connect 1 1 10 1;
#X connect 4 0 5 1;
#X connect 4 0 6 0;
#X connect 5 0 17 0;
#X connect 6 0 4 1;
#X connect 7 0 4 1;
#X connect 7 0 5 1;
#X connect 8 0 55 0;
#X connect 8 1 56 0;
#X connect 8 2 57 0;
#X connect 8 3 58 0;
#X connect 8 4 59 0;
#X connect 8 5 60 0;
#X connect 9 0 8 0;
#X connect 9 0 28 0;
#X connect 10 0 3 0;
#X connect 11 0 10 0;
#X connect 11 1 2 0;
#X connect 12 0 13 0;
#X connect 13 0 4 0;
#X connect 14 0 12 1;
#X connect 14 1 13 1;
#X connect 15 0 14 0;
#X connect 16 0 14 0;
#X connect 17 0 18 0;
#X connect 18 0 11 0;
#X connect 19 0 1 0;
#X connect 20 0 5 0;
#X connect 20 1 33 0;
#X connect 20 2 7 0;
#X connect 20 3 38 0;
#X connect 21 0 22 0;
#X connect 22 0 54 0;
#X connect 23 0 15 0;
#X connect 23 1 16 0;
#X connect 24 0 17 1;
#X connect 24 1 18 1;
#X connect 25 0 24 0;
#X connect 26 0 25 0;
#X connect 26 1 27 0;
#X connect 27 0 24 0;
#X connect 28 0 61 0;
#X connect 28 1 62 0;
#X connect 28 2 63 0;
#X connect 28 3 64 0;
#X connect 28 4 65 0;
#X connect 28 5 66 0;
#X connect 29 0 36 0;
#X connect 29 1 35 0;
#X connect 30 0 31 0;
#X connect 30 1 32 1;
#X connect 31 0 32 0;
#X connect 31 1 36 0;
#X connect 32 0 30 0;
#X connect 33 0 34 0;
#X connect 34 0 30 0;
#X connect 34 1 29 0;
#X connect 35 0 29 0;
#X connect 36 0 12 0;
#X connect 38 1 21 0;
#X connect 39 0 38 1;
#X connect 40 0 41 0;
#X connect 40 1 43 0;
#X connect 40 2 47 0;
#X connect 41 0 1 1;
#X connect 41 1 50 0;
#X connect 42 0 48 0;
#X connect 43 0 42 0;
#X connect 43 1 44 0;
#X connect 44 0 48 0;
#X connect 45 0 49 0;
#X connect 46 0 49 0;
#X connect 47 0 45 0;
#X connect 47 1 46 0;
#X connect 48 0 54 1;
#X connect 49 0 33 1;
#X connect 49 0 39 1;
#X connect 50 0 39 0;
#X connect 51 0 40 0;
#X connect 52 0 40 0;
#X connect 54 0 23 0;
#X connect 54 0 26 0;
#X connect 55 0 51 0;
#X connect 56 0 51 0;
#X connect 57 0 51 0;
#X connect 58 0 51 0;
#X connect 59 0 51 0;
#X connect 60 0 51 0;
#X connect 61 0 52 0;
#X connect 62 0 52 0;
#X connect 63 0 52 0;
#X connect 64 0 52 0;
#X connect 65 0 52 0;
#X connect 66 0 52 0;
#X restore 61 218 pd decode;
#X msg 223 112 args;
#X obj 223 135 pdcontrol;
#X obj 112 178 list split 1, f 32;
#X obj 153 354 list;
#X obj 126 328 t a b;
#X obj 126 272 list prepend 0;
#X msg 264 246 1, f 2;
#X msg 207 247 0, f 2;
#X obj 126 300 route 1 0, f 23;
#X obj 207 222 route bang;
#X obj 76 419 t a;
#X obj 28 423 list, f 6;
#X text 31 12 usage: fruit/decode type [type [type [...]]];
#X obj 29 87 t b a b b, f 49;
#X obj 61 378 list prepend, f 44;
#X text 97 36 types: [l][u]int8 [l][u]int16 [l][u]int32;
#X connect 0 0 17 0;
#X connect 3 0 18 0;
#X connect 3 1 9 0;
#X connect 4 0 5 0;
#X connect 5 0 6 0;
#X connect 6 0 3 1;
#X connect 6 1 7 1;
#X connect 6 1 13 0;
#X connect 7 0 6 0;
#X connect 8 0 3 0;
#X connect 8 1 7 0;
#X connect 9 0 12 0;
#X connect 10 0 9 1;
#X connect 11 0 9 1;
#X connect 12 0 8 0;
#X connect 12 1 2 0;
#X connect 13 0 11 0;
#X connect 13 1 10 0;
#X connect 14 0 18 1;
#X connect 15 0 1 0;
#X connect 17 0 15 0;
#X connect 17 1 3 0;
#X connect 17 2 4 0;
#X connect 17 3 18 1;
#X connect 18 0 14 0;
#X connect 18 0 15 1;
#X coords 0 0 1 1 200 40 0;
