#N canvas 447 248 399 531 10;
#X obj 29 62 inlet;
#X obj 28 448 outlet;
#X obj 193 449 outlet;
#N canvas 1375 249 455 639 decode 0;
#X obj 33 15 inlet;
#X msg 160 86 1;
#X msg 239 84 2;
#X msg 318 82 4;
#X obj 33 122 list split, f 28;
#X obj 50 288 list split 1;
#X obj 60 596 outlet;
#X obj 109 595 outlet;
#X obj 50 264 t a a, f 15;
#X obj 137 287 list split 1;
#X obj 137 439 +;
#X obj 33 467 f;
#X obj 166 439 * 256;
#X msg 67 239 0;
#X obj 160 59 sel int8 uint8 int16 uint16 int32 uint32;
#X msg 199 85 1;
#X msg 278 83 2;
#X msg 357 81 4;
#X obj 160 27 inlet;
#X obj 109 571 list, f 36;
#X obj 33 539 t b f;
#X obj 137 391 * -1;
#X obj 137 415 + 255;
#X obj 158 367 unpack f f;
#X msg 158 340 1 0;
#X msg 186 340 -1 255;
#X obj 33 492 * -1;
#X obj 33 516 - 1;
#X msg 48 48 255 255 255 255;
#X obj 33 146 t b a b a;
#X msg 84 168 \$1;
#X obj 84 191 > 127;
#X obj 84 214 &&;
#X msg 266 128 0;
#X msg 238 128 1;
#X obj 158 316 sel 0 1, f 10;
#X obj 61 467 unpack f f;
#X msg 70 438 1 0;
#X obj 70 414 sel 0 1, f 10;
#X msg 98 438 -1 1;
#X connect 0 0 4 0;
#X connect 1 0 4 1;
#X connect 1 0 34 0;
#X connect 2 0 4 1;
#X connect 2 0 34 0;
#X connect 3 0 4 1;
#X connect 3 0 34 0;
#X connect 4 0 29 0;
#X connect 4 1 19 1;
#X connect 5 1 8 0;
#X connect 8 0 5 0;
#X connect 8 1 9 0;
#X connect 9 0 21 0;
#X connect 10 0 11 1;
#X connect 10 0 12 0;
#X connect 11 0 26 0;
#X connect 12 0 10 1;
#X connect 13 0 10 1;
#X connect 13 0 11 1;
#X connect 14 0 1 0;
#X connect 14 1 15 0;
#X connect 14 2 2 0;
#X connect 14 3 16 0;
#X connect 14 4 3 0;
#X connect 14 5 17 0;
#X connect 15 0 4 1;
#X connect 15 0 33 0;
#X connect 16 0 4 1;
#X connect 16 0 33 0;
#X connect 17 0 4 1;
#X connect 17 0 33 0;
#X connect 18 0 14 0;
#X connect 19 0 7 0;
#X connect 20 0 19 0;
#X connect 20 1 6 0;
#X connect 21 0 22 0;
#X connect 22 0 10 0;
#X connect 23 0 21 1;
#X connect 23 1 22 1;
#X connect 24 0 23 0;
#X connect 25 0 23 0;
#X connect 26 0 27 0;
#X connect 27 0 20 0;
#X connect 28 0 4 0;
#X connect 29 0 11 0;
#X connect 29 1 8 0;
#X connect 29 2 13 0;
#X connect 29 3 30 0;
#X connect 30 0 31 0;
#X connect 31 0 32 0;
#X connect 32 0 35 0;
#X connect 32 0 38 0;
#X connect 33 0 32 1;
#X connect 34 0 32 1;
#X connect 35 0 24 0;
#X connect 35 1 25 0;
#X connect 36 0 26 1;
#X connect 36 1 27 1;
#X connect 37 0 36 0;
#X connect 38 0 37 0;
#X connect 38 1 39 0;
#X connect 39 0 36 0;
#X restore 61 218 pd decode;
#X msg 223 112 args;
#X obj 223 135 pdcontrol;
#X obj 112 178 list split 1, f 32;
#X obj 153 354 list;
#X obj 126 328 t a b;
#X obj 126 272 list prepend 0;
#X msg 264 246 1, f 2;
#X msg 207 247 0, f 2;
#X obj 126 300 route 1 0, f 23;
#X obj 207 222 route bang;
#X obj 76 419 t a;
#X obj 28 423 list, f 6;
#X text 137 38 types: [u]int8 [u]int16 [u]int32;
#X text 31 12 usage: fruit/decode type [type [type [...]]];
#X obj 29 87 t b a b b, f 49;
#X obj 61 378 list prepend, f 44;
#X connect 0 0 18 0;
#X connect 3 0 19 0;
#X connect 3 1 9 0;
#X connect 4 0 5 0;
#X connect 5 0 6 0;
#X connect 6 0 3 1;
#X connect 6 1 7 1;
#X connect 6 1 13 0;
#X connect 7 0 6 0;
#X connect 8 0 3 0;
#X connect 8 1 7 0;
#X connect 9 0 12 0;
#X connect 10 0 9 1;
#X connect 11 0 9 1;
#X connect 12 0 8 0;
#X connect 12 1 2 0;
#X connect 13 0 11 0;
#X connect 13 1 10 0;
#X connect 14 0 19 1;
#X connect 15 0 1 0;
#X connect 18 0 15 0;
#X connect 18 1 3 0;
#X connect 18 2 4 0;
#X connect 18 3 19 1;
#X connect 19 0 14 0;
#X connect 19 0 15 1;
#X coords 0 0 1 1 200 40 0;
