#N canvas 773 313 542 405 10;
#X declare -lib ../extra/getdir;
#X declare -stdpath ggee;
#X obj 21 69 cnv 15 150 25 empty \$0-stastocan-rcv empty 20 12 0 14
-241291 -1 0;
#X obj 100 73 cnv 15 70 20 empty \$0-pied_can-rcv pied_actif 2 12 1
12 -241291 -1 0;
#X obj 220 309 r \$0-fruitpresent;
#N canvas 836 233 450 543 rename 0;
#X obj 112 135 s \$0-2Fr2;
#X obj 52 69 symbol \$2;
#X msg 52 91 Boot rename \$1;
#X obj 222 26 r \$0-Fr2;
#X obj 222 73 route \$2;
#X obj 222 96 route renamed rename_error;
#X obj 232 173 s \$0-assign;
#X obj 52 44 r \$0-rename;
#X obj 222 50 route Boot;
#X obj 222 135 b;
#X obj 52 438 symbol RENAME:\$2;
#X obj 52 202 metro 500;
#X obj 52 236 i;
#X obj 84 236 + 1;
#X msg 84 174 0;
#X obj 52 144 t b b;
#X msg 127 182 0;
#X msg 52 174 1;
#X obj 52 274 t f f;
#X obj 52 305 mod 2;
#X obj 52 362 pack f f;
#X obj 97 296 div 2;
#X obj 52 389 route 0 1;
#X obj 52 413 b;
#X msg 52 467 label \$1;
#X obj 52 492 s \$0-rename-rcv;
#X obj 267 337 symbol RENAME:ERROR!;
#X obj 116 236 sel 21;
#X obj 267 265 b;
#X obj 222 304 del 4000;
#X obj 99 414 makefilename _____%d______;
#X obj 97 318 * -1;
#X obj 97 339 + 10;
#X obj 195 237 symbol RENAME:SUCCESS;
#X connect 1 0 2 0;
#X connect 2 0 0 0;
#X connect 2 0 15 0;
#X connect 3 0 8 0;
#X connect 4 0 5 0;
#X connect 5 0 9 0;
#X connect 5 1 14 0;
#X connect 5 1 28 0;
#X connect 7 0 1 0;
#X connect 8 0 4 0;
#X connect 9 0 6 0;
#X connect 9 0 14 0;
#X connect 9 0 33 0;
#X connect 9 0 29 0;
#X connect 10 0 24 0;
#X connect 11 0 12 0;
#X connect 12 0 13 0;
#X connect 12 0 18 0;
#X connect 13 0 27 0;
#X connect 14 0 11 0;
#X connect 15 0 17 0;
#X connect 15 1 16 0;
#X connect 16 0 12 1;
#X connect 17 0 11 0;
#X connect 18 0 19 0;
#X connect 18 1 21 0;
#X connect 19 0 20 0;
#X connect 20 0 22 0;
#X connect 21 0 31 0;
#X connect 22 0 23 0;
#X connect 22 1 30 0;
#X connect 23 0 10 0;
#X connect 24 0 25 0;
#X connect 26 0 24 0;
#X connect 27 0 14 0;
#X connect 27 1 12 1;
#X connect 28 0 26 0;
#X connect 28 0 29 0;
#X connect 29 0 10 0;
#X connect 30 0 24 0;
#X connect 31 0 32 0;
#X connect 32 0 20 1;
#X connect 33 0 24 0;
#X restore 22 237 pd rename;
#N canvas 8 182 347 223 assign 0;
#X obj 83 71 symbol \$2;
#X obj 83 94 pack s \$3;
#X obj 83 137 s \$0-2Fr2;
#X msg 83 117 Assign \$1 \$2 \, Status 0;
#X obj 83 48 r \$0-assign;
#X connect 0 0 1 0;
#X connect 1 0 3 0;
#X connect 3 0 2 0;
#X connect 4 0 0 0;
#X restore 22 262 pd assign;
#X obj 46 77 bng 15 250 50 0 \$0-showutils-snd \$0-showutils-rcv utils
17 7 0 10 -4034 -1 -1;
#N canvas 109 746 324 103 \$0-utils 1;
#X obj 1 1 cnv 15 320 100 empty empty empty 20 12 0 14 -57730 -66577
0;
#X obj 179 38 bng 15 250 50 0 \$0-assign \$0-assign-rcv ASSIGN_ID:10
-15 20 1 10 -4034 -1 -4034;
#X obj 179 9 bng 15 250 50 0 \$0-rename \$0-rename-rcv RENAME:fer1
-15 20 1 10 -258113 -1 -258113;
#X obj 116 82 cnv 10 120 15 \$0-progressbg-snd \$0-progressbg-rcv empty
30 -10 0 10 -83269 -257985 0;
#X obj 136 82 cnv 5 29 15 \$0-progressfg-snd \$0-progressfg-rcv 29%
105 8 0 10 -24198 -24198 0;
#X obj 118 82 bng 15 250 50 0 \$0-program \$0-program-rcv PROGRAM:fwAXL.hex
0 -8 1 10 -24198 -1 -24198;
#X obj 21 7 bng 15 250 50 0 \$0-progboot empty PROG_BOOTLOADER -15
20 1 10 -159808 -1 -159808;
#X obj 4 37 cnv 15 100 60 empty empty empty 20 12 0 14 -99865 -66577
0;
#X obj 8 41 bng 15 250 50 0 \$0-make empty MAKE 17 8 1 10 -4032 -1
-4032;
#X obj 11 59 hsl 90 15 0 127 0 0 \$0-make-rambg-snd \$0-make-rambg-rcv
empty -2 8 0 10 -191407 -191407 -1 4200 1;
#X obj 11 79 hsl 90 15 0 127 0 0 \$0-make-rombg-snd \$0-make-rombg-rcv
empty -2 8 0 10 -191407 -191407 -1 0 1;
#X obj 9 60 cnv 1 30 13 \$0-make-ram-snd \$0-make-ram-rcv RAM:1300/3879
2 8 0 10 -2816 -1 0;
#X obj 9 80 cnv 1 26 13 \$0-make-rom-snd \$0-make-rom-rcv ROM:18680/63488
2 8 0 10 -1984 -1 0;
#X restore 22 210 pd \$0-utils;
#N canvas 699 508 473 361 Fr2_interface 0;
#X obj 25 11 r Fr2;
#X obj 141 235 tgl 15 0 empty empty empty 17 7 0 10 -262144 -1 -1 1
1;
#X obj 25 32 route \$1;
#X obj 24 119 tgl 15 0 empty empty empty 17 7 0 10 -262144 -1 -1 1
1;
#X obj 141 190 del 100;
#X obj 141 169 t b f;
#X obj 141 213 f;
#X obj 24 138 s \$0-piedactif;
#X obj 141 280 s \$0-fruitpresent;
#X obj 25 52 s \$0-Fr2;
#X obj 24 76 r \$0-Fr2;
#X obj 24 166 r \$0-2Fr2;
#X obj 24 313 s 2Fr2;
#X obj 141 122 route \$3;
#X obj 24 97 route actif;
#X obj 159 238 r \$0-piedactif;
#X obj 141 259 &&;
#X text 308 211 data from child;
#X msg 337 189 present \$1;
#X obj 305 231 s Fraise-\$2-snd;
#X obj 337 168 r \$0-fruitpresent;
#X obj 141 147 route present wrerror;
#X obj 203 187 s \$0-wrerror;
#X obj 273 236 bng 15 250 50 0 empty empty empty 17 7 0 10 -262144
-1 -1;
#X obj 24 226 list prepend \$1;
#X obj 24 253 list trim;
#X connect 0 0 2 0;
#X connect 1 0 16 0;
#X connect 2 0 9 0;
#X connect 3 0 7 0;
#X connect 4 0 6 0;
#X connect 5 0 4 0;
#X connect 5 1 6 1;
#X connect 6 0 1 0;
#X connect 10 0 14 0;
#X connect 11 0 24 0;
#X connect 13 0 21 0;
#X connect 14 0 3 0;
#X connect 14 1 13 0;
#X connect 15 0 16 1;
#X connect 16 0 8 0;
#X connect 18 0 19 0;
#X connect 20 0 18 0;
#X connect 21 0 5 0;
#X connect 21 1 22 0;
#X connect 21 1 23 0;
#X connect 21 2 19 0;
#X connect 24 0 25 0;
#X connect 25 0 12 0;
#X restore 22 112 pd Fr2_interface;
#N canvas 10 414 355 250 tochild 0;
#X obj 35 216 s \$0-2Fr2;
#X text 33 8 data to child;
#X obj 35 35 r Fraise-\$2-rcv;
#X obj 159 36 r Fraise-\$2-C-rcv;
#X obj 159 58 list prepend OutC \$3;
#X obj 35 58 list prepend Out \$3;
#X obj 35 122 list trim;
#X obj 35 193 spigot 1;
#X obj 160 88 r \$0-wrerror;
#X msg 191 159 1;
#X msg 160 137 0;
#X obj 160 114 b;
#X obj 191 139 del 500;
#X connect 2 0 5 0;
#X connect 3 0 4 0;
#X connect 4 0 6 0;
#X connect 5 0 6 0;
#X connect 6 0 7 0;
#X connect 7 0 0 0;
#X connect 8 0 11 0;
#X connect 9 0 7 1;
#X connect 10 0 7 1;
#X connect 11 0 10 0;
#X connect 11 0 12 0;
#X connect 12 0 9 0;
#X restore 22 163 pd tochild;
#N canvas 401 259 429 489 UI 0;
#N canvas 62 350 394 241 canvascolor 0;
#X obj 15 13 inlet;
#X obj 15 103 s \$0-stastocan-rcv;
#X msg 15 74 color 1 13 22;
#X msg 114 74 color 15 13 22;
#X obj 15 37 sel 0 1 2;
#X msg 208 73 color 13 13 22;
#X connect 0 0 4 0;
#X connect 2 0 1 0;
#X connect 3 0 1 0;
#X connect 4 0 2 0;
#X connect 4 1 3 0;
#X connect 4 2 5 0;
#X connect 5 0 1 0;
#X restore 34 302 pd canvascolor;
#N canvas 584 528 347 343 pied_can 0;
#X obj 17 17 inlet;
#X obj 17 125 s \$0-pied_can-rcv;
#X msg 17 70 color 1 13 22 \, label pied_inactif;
#X msg 36 98 color 15 13 22 \, label pied_actif;
#X obj 272 32 tgl 15 0 empty empty empty 17 7 0 10 -262144 -1 -1 0
1;
#X obj 17 43 sel 0 1;
#X connect 0 0 5 0;
#X connect 2 0 1 0;
#X connect 3 0 1 0;
#X connect 5 0 2 0;
#X connect 5 1 3 0;
#X restore 34 119 pd pied_can;
#X obj 34 97 r \$0-piedactif;
#X obj 34 143 r \$0-fruitpresent;
#X obj 35 3 r \$0-showutils-snd;
#N canvas 437 537 506 316 program 0;
#X obj 43 15 r \$0-Fr2;
#X obj 43 35 route Boot;
#X obj 43 93 route prog_progress programmed program_error;
#X obj 44 164 * 100;
#X obj 44 185 i;
#X obj 44 206 change;
#X msg 33 255 label \$1%;
#X obj 186 57 hsl 128 15 0 1 0 0 empty empty empty -2 -8 0 10 -262144
-1 -1 3700 1;
#X obj 44 140 f;
#X obj 246 276 s \$0-progressfg-rcv;
#X msg 246 253 vis_size \$1 15;
#X msg 246 158 1;
#X msg 105 240 label done;
#X obj 33 279 s \$0-progressfg-rcv;
#X obj 313 164 r \$0-program;
#X obj 171 32 print;
#X obj 43 61 route \$2;
#X msg 313 185 color 15 22 15;
#X msg 314 221 color 16 22 16;
#X msg 294 137 color 13 22 13;
#X obj 374 274 s \$0-program-rcv;
#X obj 44 116 clip 0 1;
#X msg 169 280 label;
#X msg 204 231 0;
#X obj 169 257 loadbang;
#X msg 92 207 label ERROR!;
#X obj 246 230 * 100;
#X connect 0 0 1 0;
#X connect 1 0 16 0;
#X connect 2 0 21 0;
#X connect 2 1 11 0;
#X connect 2 1 12 0;
#X connect 2 1 18 0;
#X connect 2 2 19 0;
#X connect 2 2 25 0;
#X connect 3 0 4 0;
#X connect 4 0 5 0;
#X connect 5 0 6 0;
#X connect 6 0 13 0;
#X connect 7 0 8 0;
#X connect 8 0 3 0;
#X connect 8 0 26 0;
#X connect 10 0 9 0;
#X connect 11 0 26 0;
#X connect 12 0 13 0;
#X connect 14 0 17 0;
#X connect 16 0 2 0;
#X connect 17 0 9 0;
#X connect 17 0 20 0;
#X connect 18 0 9 0;
#X connect 18 0 20 0;
#X connect 19 0 9 0;
#X connect 19 0 20 0;
#X connect 21 0 8 0;
#X connect 22 0 13 0;
#X connect 23 0 10 0;
#X connect 24 0 22 0;
#X connect 24 0 11 0;
#X connect 24 0 17 0;
#X connect 25 0 13 0;
#X connect 26 0 10 0;
#X restore 168 281 pd program;
#X obj 80 169 r \$0-wrerror;
#X obj 79 191 b;
#X obj 79 212 del 500;
#X msg 49 230 2;
#X msg 79 232 1;
#N canvas 565 551 450 324 make 0;
#X obj 74 25 r \$0-Fr2;
#X obj 74 45 route Boot;
#X obj 74 71 route \$2;
#X obj 74 99 route RAM ROM;
#X obj 121 165 clip 0 100;
#X obj 34 253 s \$0-make-ram-rcv;
#X obj 299 175 clip 0 100;
#X obj 197 257 s \$0-make-rom-rcv;
#X msg 13 175 label RAM:\$1/\$2;
#X msg 122 144 \$3;
#X msg 197 177 label ROM:\$1/\$2;
#X msg 299 151 \$3;
#X msg 225 85 label;
#X msg 270 85 100;
#X obj 251 17 loadbang;
#X obj 252 41 b;
#X obj 227 25 bng 15 250 50 0 empty empty empty 17 7 0 10 -262144 -1
-1;
#X obj 312 18 r \$0-UImeminit;
#X obj 317 88 hsl 128 15 0 100 0 0 empty empty empty -2 -8 0 10 -262144
-1 -1 11800 1;
#X msg 121 214 vis_size \$1 13;
#X floatatom 163 254 5 0 0 0 - - -, f 5;
#X obj 121 187 * 0.93;
#X msg 299 224 vis_size \$1 13;
#X obj 299 197 * 0.93;
#X msg 140 277 size \$1;
#X msg 139 296 13;
#X msg 168 297 1;
#X connect 0 0 1 0;
#X connect 1 0 2 0;
#X connect 2 0 3 0;
#X connect 3 0 8 0;
#X connect 3 0 9 0;
#X connect 3 1 10 0;
#X connect 3 1 11 0;
#X connect 4 0 21 0;
#X connect 6 0 23 0;
#X connect 8 0 5 0;
#X connect 9 0 4 0;
#X connect 10 0 7 0;
#X connect 11 0 6 0;
#X connect 12 0 5 0;
#X connect 12 0 7 0;
#X connect 13 0 6 0;
#X connect 13 0 4 0;
#X connect 14 0 15 0;
#X connect 15 0 12 0;
#X connect 15 0 13 0;
#X connect 16 0 15 0;
#X connect 17 0 15 0;
#X connect 18 0 21 0;
#X connect 18 0 23 0;
#X connect 19 0 5 0;
#X connect 21 0 19 0;
#X connect 21 0 20 0;
#X connect 22 0 7 0;
#X connect 23 0 22 0;
#X connect 24 0 7 0;
#X connect 24 0 5 0;
#X connect 25 0 24 0;
#X connect 26 0 24 0;
#X restore 238 280 pd make;
#X obj 275 18 bng 15 250 50 0 empty empty empty 17 7 0 10 -262144 -1
-1;
#X obj 205 227 s \$0-rename-rcv;
#X msg 205 204 label RENAME:\$1;
#X msg 239 160 label ASSIGN_ID:\$1;
#X obj 239 181 s \$0-assign-rcv;
#X obj 205 82 unpack s f s;
#X obj 274 128 s \$0-program-rcv;
#X msg 274 107 label PROGRAM:\$1.hex;
#X obj 46 253 t b f;
#X obj 34 277 * 1;
#X obj 35 24 symbol pd-\$0-utils;
#X msg 35 48 \; \$1 vis 0 \; \$1 vis 1;
#X obj 205 17 loadbang;
#X obj 205 36 b;
#X obj 205 56 list append \$2 \$3 \$4;
#X obj 34 358 sel 0 1;
#X obj 34 449 s \$0-on-rcv;
#X msg 53 381 color 13 13 0 \, label on;
#X obj 34 337 r \$0-on-snd;
#X msg 34 414 color 10 1 2 \, label off;
#X connect 2 0 1 0;
#X connect 3 0 21 0;
#X connect 4 0 22 0;
#X connect 6 0 7 0;
#X connect 7 0 8 0;
#X connect 7 0 9 0;
#X connect 8 0 10 0;
#X connect 9 0 20 0;
#X connect 10 0 20 0;
#X connect 12 0 25 0;
#X connect 14 0 13 0;
#X connect 15 0 16 0;
#X connect 17 0 14 0;
#X connect 17 1 15 0;
#X connect 17 2 19 0;
#X connect 19 0 18 0;
#X connect 20 0 21 0;
#X connect 20 1 21 1;
#X connect 21 0 0 0;
#X connect 22 0 23 0;
#X connect 24 0 25 0;
#X connect 25 0 26 0;
#X connect 26 0 17 0;
#X connect 27 0 31 0;
#X connect 27 1 29 0;
#X connect 29 0 28 0;
#X connect 30 0 27 0;
#X connect 31 0 28 0;
#X restore 22 188 pd UI;
#X obj 220 329 outlet on;
#N canvas 7 80 450 300 select 0;
#X obj 44 18 r \$0-piedactif;
#X obj 44 228 s \$0-2Fr2;
#X obj 44 178 f \$3;
#X obj 121 178 f \$3;
#X msg 121 198 Deselect \$1;
#X msg 44 199 Select \$1;
#X obj 44 133 sel 1 0;
#X obj 158 173 s \$0-fruitpresent;
#X msg 158 153 0;
#X obj 127 245 bng 15 250 50 0 empty empty empty 17 7 0 10 -262144
-1 -1;
#X obj 44 109 change -1;
#X obj 44 88 &&;
#X obj 55 64 t b f;
#X obj 55 42 r \$0-on-snd;
#X obj 44 157 del 100;
#X connect 0 0 11 0;
#X connect 2 0 5 0;
#X connect 3 0 4 0;
#X connect 4 0 1 0;
#X connect 5 0 1 0;
#X connect 6 0 14 0;
#X connect 6 1 8 0;
#X connect 6 1 3 0;
#X connect 8 0 7 0;
#X connect 10 0 6 0;
#X connect 11 0 10 0;
#X connect 12 0 11 0;
#X connect 12 1 11 1;
#X connect 13 0 12 0;
#X connect 14 0 2 0;
#X restore 23 287 pd select;
#N canvas 154 602 335 253 program 0;
#X obj 42 28 bng 15 250 50 0 empty empty empty 17 7 0 10 -262144 -1
-1;
#X obj 90 102 symbol \$4;
#X obj 90 81 loadbang;
#X obj 62 125 pack s s s;
#X obj 160 82 loadbang;
#X obj 160 103 symbol \$2;
#X msg 62 153 Boot program \$3 \$1/\$2/\$2.hex;
#X obj 62 27 r \$0-program;
#X obj 62 189 s \$0-2Fr2;
#X obj 112 52 r \$0-dir;
#X obj 62 53 symbol;
#X connect 0 0 10 0;
#X connect 1 0 3 1;
#X connect 2 0 1 0;
#X connect 3 0 6 0;
#X connect 4 0 5 0;
#X connect 5 0 3 2;
#X connect 6 0 8 0;
#X connect 7 0 10 0;
#X connect 9 0 10 1;
#X connect 10 0 3 0;
#X restore 22 333 pd program;
#N canvas 580 556 450 300 make 0;
#X obj 48 14 bng 15 250 50 0 empty empty empty 17 7 0 10 -262144 -1
-1;
#X obj 100 126 symbol \$4;
#X obj 100 105 loadbang;
#X obj 72 149 pack s s s;
#X obj 170 106 loadbang;
#X obj 170 127 symbol \$2;
#X obj 72 213 s \$0-2Fr2;
#X msg 72 177 Boot make \$3 \$1/\$2;
#X obj 72 11 r \$0-make;
#X obj 190 81 bng 15 250 50 0 empty empty empty 17 7 0 10 -262144 -1
-1;
#X text 190 176 make Fruitname SourcePath;
#X obj 113 38 s \$0-UImeminit;
#X obj 72 37 t b b;
#X obj 120 62 r \$0-dir;
#X obj 72 63 symbol;
#X connect 0 0 12 0;
#X connect 1 0 3 1;
#X connect 2 0 1 0;
#X connect 3 0 7 0;
#X connect 4 0 5 0;
#X connect 5 0 3 2;
#X connect 7 0 6 0;
#X connect 8 0 12 0;
#X connect 9 0 5 0;
#X connect 9 0 1 0;
#X connect 12 0 14 0;
#X connect 12 1 11 0;
#X connect 13 0 14 1;
#X connect 14 0 3 0;
#X restore 23 310 pd make;
#N canvas 31 558 450 300 progbootloader 0;
#X obj 62 48 bng 15 250 50 0 empty empty empty 17 7 0 10 -262144 -1
-1;
#X obj 110 122 symbol \$4;
#X obj 110 101 loadbang;
#X obj 82 145 pack s s s;
#X obj 180 102 loadbang;
#X obj 180 123 symbol \$2;
#X obj 82 209 s \$0-2Fr2;
#X obj 196 67 bng 15 250 50 0 empty empty empty 17 7 0 10 -262144 -1
-1;
#X obj 82 47 r \$0-progboot;
#X msg 82 173 Boot progboot \$3 \$1/\$2;
#X obj 82 73 symbol;
#X obj 126 73 r \$0-dir;
#X connect 0 0 10 0;
#X connect 1 0 3 1;
#X connect 2 0 1 0;
#X connect 3 0 9 0;
#X connect 4 0 5 0;
#X connect 5 0 3 2;
#X connect 7 0 5 0;
#X connect 7 0 1 0;
#X connect 8 0 10 0;
#X connect 9 0 6 0;
#X connect 10 0 3 0;
#X connect 11 0 10 1;
#X restore 76 310 pd progbootloader;
#X obj 188 32 inlet on;
#X text 18 9 usage: Fr2Fruit piedid fruitname fruitid firmware dont_poll
;
#X obj 200 56 loadbang;
#X obj 200 100 == 0;
#X obj 200 78 f \$5;
#X obj 297 32 cnv 15 100 100 empty empty non-vanilla 5 12 0 14 -233017
-66577 0;
#X obj 306 60 loadbang;
#X obj 306 104 s \$0-dir;
#X text 295 134 (only for progbootloader \, make \, and program),
f 26;
#N canvas 7 175 298 320 init_status 0;
#X obj 70 45 loadbang;
#X obj 70 197 s \$0-2Fr2;
#X msg 70 175 Status 0;
#X obj 70 68 t b b;
#X obj 109 117 s \$0-piedactif;
#X obj 97 142 s \$0-fruitpresent;
#X msg 97 93 0;
#X connect 0 0 3 0;
#X connect 2 0 1 0;
#X connect 3 0 2 0;
#X connect 3 1 6 0;
#X connect 6 0 4 0;
#X connect 6 0 5 0;
#X restore 22 135 pd init_status;
#X obj 25 77 tgl 15 0 \$0-on-snd \$0-on-rcv on 3 7 1 8 -258699 -258699
-262144 1 1;
#X obj 188 124 s \$0-on-rcv;
#X obj 301 168 declare -lib ../extra/getdir;
#X obj 306 82 getdir 1;
#X obj 301 188 declare -stdpath ggee;
#X connect 2 0 10 0;
#X connect 15 0 26 0;
#X connect 17 0 19 0;
#X connect 18 0 26 0;
#X connect 19 0 18 0;
#X connect 21 0 28 0;
#X connect 28 0 22 0;
#X coords 0 -1 1 1 152 45 1 20 50;
