#N canvas 1355 404 426 378 10;
#X obj 21 69 cnv 15 150 25 empty \$0-stastocan-rcv empty 20 12 0 14 #e8e828 #000000 0;
#X obj 100 73 cnv 15 70 20 empty \$0-pied_can-rcv pied_actif 2 12 1 12 #e8e828 #000000 0;
#X obj 220 309 r \$0-fruitpresent;
#N canvas 1352 377 450 556 rename 0;
#X obj 74 150 s \$0-2Fr2;
#X obj 20 43 symbol \$2;
#X obj 222 47 r \$0-Fr2;
#X obj 222 94 route \$2;
#X obj 222 117 route renamed rename_error;
#X obj 232 194 s \$0-assign;
#X obj 20 18 r \$0-rename;
#X obj 222 71 route Boot;
#X obj 222 156 b;
#X obj 20 458 symbol RENAME:\$2;
#X obj 20 222 metro 500;
#X obj 20 256 i;
#X obj 52 256 + 1;
#X msg 52 194 0;
#X obj 20 164 t b b;
#X msg 95 202 0;
#X msg 20 194 1;
#X obj 20 294 t f f;
#X obj 20 325 mod 2;
#X obj 20 382 pack f f;
#X obj 65 316 div 2;
#X obj 20 409 route 0 1;
#X obj 20 433 b;
#X msg 20 487 label \$1;
#X obj 20 512 s \$0-rename-rcv;
#X obj 267 358 symbol RENAME:ERROR!;
#X obj 84 256 sel 21;
#X obj 267 286 b;
#X obj 222 325 del 4000;
#X obj 67 434 makefilename _____%d______;
#X obj 65 338 * -1;
#X obj 65 359 + 10;
#X obj 195 258 symbol RENAME:SUCCESS;
#X obj 20 88 pack s f, f 15;
#X obj 107 23 r \$0-is_pied_fruit;
#X msg 20 111 Boot rename \$1 \$2;
#X obj 77 65 == 0;
#X obj 20 66 spigot 1;
#X connect 1 0 37 0;
#X connect 2 0 7 0;
#X connect 3 0 4 0;
#X connect 4 0 8 0;
#X connect 4 1 13 0;
#X connect 4 1 27 0;
#X connect 6 0 1 0;
#X connect 7 0 3 0;
#X connect 8 0 5 0;
#X connect 8 0 13 0;
#X connect 8 0 32 0;
#X connect 8 0 28 0;
#X connect 9 0 23 0;
#X connect 10 0 11 0;
#X connect 11 0 12 0;
#X connect 11 0 17 0;
#X connect 12 0 26 0;
#X connect 13 0 10 0;
#X connect 14 0 16 0;
#X connect 14 1 15 0;
#X connect 15 0 11 1;
#X connect 16 0 10 0;
#X connect 17 0 18 0;
#X connect 17 1 20 0;
#X connect 18 0 19 0;
#X connect 19 0 21 0;
#X connect 20 0 30 0;
#X connect 21 0 22 0;
#X connect 21 1 29 0;
#X connect 22 0 9 0;
#X connect 23 0 24 0;
#X connect 25 0 23 0;
#X connect 26 0 13 0;
#X connect 26 1 11 1;
#X connect 27 0 25 0;
#X connect 27 0 28 0;
#X connect 28 0 9 0;
#X connect 29 0 23 0;
#X connect 30 0 31 0;
#X connect 31 0 19 1;
#X connect 32 0 23 0;
#X connect 33 0 35 0;
#X connect 34 0 33 1;
#X connect 34 0 36 0;
#X connect 35 0 0 0;
#X connect 35 0 14 0;
#X connect 36 0 37 1;
#X connect 37 0 33 0;
#X restore 22 237 pd rename;
#N canvas 260 457 347 223 assign 0;
#X obj 83 101 symbol \$2;
#X obj 83 124 pack s \$3;
#X obj 83 167 s \$0-2Fr2;
#X msg 83 147 Assign \$1 \$2 \, Status 0;
#X obj 83 48 r \$0-assign;
#X obj 172 48 r \$0-is_pied_fruit;
#X obj 172 71 == 0;
#X obj 83 75 spigot 1;
#X connect 0 0 1 0;
#X connect 1 0 3 0;
#X connect 3 0 2 0;
#X connect 4 0 7 0;
#X connect 5 0 6 0;
#X connect 6 0 7 1;
#X connect 7 0 0 0;
#X restore 22 262 pd assign;
#X obj 46 77 bng 15 250 50 0 \$0-showutils-snd \$0-showutils-rcv utils 17 7 0 10 #00fc04 #000000 #000000;
#N canvas 1558 84 329 139 \$0-utils 1;
#X obj 1 1 cnv 15 320 100 empty empty empty 20 12 0 14 #381804 #404040 0;
#X obj 179 38 bng 15 250 50 0 \$0-assign \$0-assign-rcv ASSIGN_ID:0 -15 20 1 10 #00fc04 #000000 #00fc04;
#X obj 179 9 bng 15 250 50 0 \$0-rename \$0-rename-rcv RENAME:myFruit -15 20 1 10 #fc0400 #000000 #fc0400;
#X obj 116 82 cnv 10 120 15 \$0-progressbg-snd \$0-progressbg-rcv empty 30 -10 0 10 #505410 #f8fc00 0;
#X obj 136 82 cnv 5 100 15 \$0-progressfg-snd \$0-progressfg-rcv empty 105 8 0 10 #e8e828 #e8e828 0;
#X obj 118 82 bng 15 250 50 0 \$0-program \$0-program-rcv PROGRAM:exampleAudioFw.hex 0 -8 1 10 #e8e828 #000000 #e8e828;
#X obj 21 7 bng 15 250 50 0 \$0-progboot empty PROG_BOOTLOADER -15 20 1 10 #9c00fc #000000 #9c00fc;
#X obj 4 37 cnv 15 100 60 empty empty empty 20 12 0 14 #606060 #404040 0;
#X obj 8 41 bng 15 250 50 0 \$0-make \$0-make MAKE 17 8 1 10 #00f8fc #000000 #00f8fc;
#X obj 11 59 hsl 90 15 0 127 0 0 \$0-make-rambg-snd \$0-make-rambg-rcv empty -2 8 0 10 #b8b8b8 #b8b8b8 #000000 0 1;
#X obj 11 79 hsl 90 15 0 127 0 0 \$0-make-rombg-snd \$0-make-rombg-rcv empty -2 8 0 10 #b8b8b8 #b8b8b8 #000000 0 1;
#X obj 9 60 cnv 1 37 13 \$0-make-ram-snd \$0-make-ram-rcv RAM:104.2k/256k 2 8 0 10 #00acfc #000000 0;
#X obj 9 80 cnv 1 1 13 \$0-make-rom-snd \$0-make-rom-rcv ROM:51k/1984k 2 8 0 10 #0078fc #000000 0;
#X obj 5 105 tgl 18 0 force_refresh_cmake force_refresh_cmake force_refresh_cmake 23 9 0 10 #faff00 #000000 #000000 0 1;
#X obj 60 41 bng 15 250 50 0 \$0-clean \$0-clean clean 17 8 1 10 #bbbbbb #bbbbbb #bbbbbb;
#X restore 22 210 pd \$0-utils;
#N canvas 943 507 473 361 Fr2_interface 0;
#X obj 25 11 r Fr2;
#X obj 141 235 tgl 15 0 empty empty empty 17 7 0 10 #fcfcfc #000000 #000000 0 1;
#X obj 25 32 route \$1;
#X obj 24 119 tgl 15 0 empty empty empty 17 7 0 10 #fcfcfc #000000 #000000 0 1;
#X obj 141 169 t b f;
#X obj 141 213 f;
#X obj 24 138 s \$0-piedactif;
#X obj 141 280 s \$0-fruitpresent;
#X obj 25 52 s \$0-Fr2;
#X obj 24 76 r \$0-Fr2;
#X obj 24 166 r \$0-2Fr2;
#X obj 24 313 s 2Fr2;
#X obj 141 122 route \$3;
#X obj 24 97 route actif;
#X obj 159 238 r \$0-piedactif;
#X obj 141 259 &&;
#X text 308 211 data from child;
#X msg 337 189 present \$1;
#X obj 305 231 s Fraise-\$2-snd;
#X obj 337 168 r \$0-fruitpresent;
#X obj 141 147 route present wrerror;
#X obj 203 187 s \$0-wrerror;
#X obj 273 236 bng 15 250 50 0 empty empty empty 17 7 0 10 #fcfcfc #000000 #000000;
#X obj 24 226 list prepend \$1;
#X obj 24 253 list trim;
#X obj 141 190 del 100;
#X connect 0 0 2 0;
#X connect 1 0 15 0;
#X connect 2 0 8 0;
#X connect 3 0 6 0;
#X connect 4 0 25 0;
#X connect 4 1 5 1;
#X connect 5 0 1 0;
#X connect 9 0 13 0;
#X connect 10 0 23 0;
#X connect 12 0 20 0;
#X connect 13 0 3 0;
#X connect 13 1 12 0;
#X connect 14 0 15 1;
#X connect 15 0 7 0;
#X connect 17 0 18 0;
#X connect 19 0 17 0;
#X connect 20 0 4 0;
#X connect 20 1 21 0;
#X connect 20 1 22 0;
#X connect 20 2 18 0;
#X connect 23 0 24 0;
#X connect 24 0 11 0;
#X connect 25 0 5 0;
#X restore 22 112 pd Fr2_interface;
#N canvas 624 368 399 277 tochild 0;
#X obj 35 216 s \$0-2Fr2;
#X text 33 8 data to child;
#X obj 35 35 r Fraise-\$2-rcv;
#X obj 159 36 r Fraise-\$2-C-rcv;
#X obj 159 58 list prepend OutC \$3;
#X obj 35 58 list prepend Out \$3;
#X obj 35 122 list trim;
#X obj 35 193 spigot 1;
#X obj 160 88 r \$0-wrerror;
#X msg 191 159 1;
#X msg 160 137 0;
#X obj 160 114 b;
#X obj 191 139 del 500;
#X obj 230 114 r \$0-wrerror_suspend_time;
#X connect 2 0 5 0;
#X connect 3 0 4 0;
#X connect 4 0 6 0;
#X connect 5 0 6 0;
#X connect 6 0 7 0;
#X connect 7 0 0 0;
#X connect 8 0 11 0;
#X connect 9 0 7 1;
#X connect 10 0 7 1;
#X connect 11 0 10 0;
#X connect 11 0 12 0;
#X connect 12 0 9 0;
#X connect 13 0 12 1;
#X restore 22 163 pd tochild;
#N canvas 491 440 630 489 UI 0;
#N canvas 62 350 394 241 canvascolor 0;
#X obj 15 13 inlet;
#X obj 15 103 s \$0-stastocan-rcv;
#X msg 15 74 color 1 13 22;
#X msg 114 74 color 15 13 22;
#X obj 15 37 sel 0 1 2;
#X msg 208 73 color 13 13 22;
#X connect 0 0 4 0;
#X connect 2 0 1 0;
#X connect 3 0 1 0;
#X connect 4 0 2 0;
#X connect 4 1 3 0;
#X connect 4 2 5 0;
#X connect 5 0 1 0;
#X restore 34 302 pd canvascolor;
#N canvas 584 528 347 343 pied_can 0;
#X obj 17 17 inlet;
#X obj 17 125 s \$0-pied_can-rcv;
#X msg 17 70 color 1 13 22 \, label pied_inactif;
#X msg 36 98 color 15 13 22 \, label pied_actif;
#X obj 272 32 tgl 15 0 empty empty empty 17 7 0 10 #fcfcfc #000000 #000000 0 1;
#X obj 17 43 sel 0 1;
#X connect 0 0 5 0;
#X connect 2 0 1 0;
#X connect 3 0 1 0;
#X connect 5 0 2 0;
#X connect 5 1 3 0;
#X restore 34 119 pd pied_can;
#X obj 34 97 r \$0-piedactif;
#X obj 34 143 r \$0-fruitpresent;
#X obj 35 3 r \$0-showutils-snd;
#N canvas 437 537 506 316 program 0;
#X obj 43 15 r \$0-Fr2;
#X obj 43 35 route Boot;
#X obj 43 93 route prog_progress programmed program_error;
#X obj 44 164 * 100;
#X obj 44 185 i;
#X obj 44 206 change;
#X msg 33 255 label \$1%;
#X obj 186 57 hsl 128 15 0 1 0 0 empty empty empty -2 -8 0 10 #fcfcfc #000000 #000000 0 1;
#X obj 44 140 f;
#X obj 246 276 s \$0-progressfg-rcv;
#X msg 246 253 vis_size \$1 15;
#X msg 246 158 1;
#X msg 105 240 label done;
#X obj 33 279 s \$0-progressfg-rcv;
#X obj 313 164 r \$0-program;
#X obj 171 32 print;
#X obj 43 61 route \$2;
#X msg 313 185 color 15 22 15;
#X msg 314 221 color 16 22 16;
#X msg 294 137 color 13 22 13;
#X obj 374 274 s \$0-program-rcv;
#X obj 44 116 clip 0 1;
#X msg 169 280 label;
#X msg 204 231 0;
#X obj 169 257 loadbang;
#X msg 92 207 label ERROR!;
#X obj 246 230 * 100;
#X connect 0 0 1 0;
#X connect 1 0 16 0;
#X connect 2 0 21 0;
#X connect 2 1 11 0;
#X connect 2 1 12 0;
#X connect 2 1 18 0;
#X connect 2 2 19 0;
#X connect 2 2 25 0;
#X connect 3 0 4 0;
#X connect 4 0 5 0;
#X connect 5 0 6 0;
#X connect 6 0 13 0;
#X connect 7 0 8 0;
#X connect 8 0 3 0;
#X connect 8 0 26 0;
#X connect 10 0 9 0;
#X connect 11 0 26 0;
#X connect 12 0 13 0;
#X connect 14 0 17 0;
#X connect 16 0 2 0;
#X connect 17 0 9 0;
#X connect 17 0 20 0;
#X connect 18 0 9 0;
#X connect 18 0 20 0;
#X connect 19 0 9 0;
#X connect 19 0 20 0;
#X connect 21 0 8 0;
#X connect 22 0 13 0;
#X connect 23 0 10 0;
#X connect 24 0 22 0;
#X connect 24 0 11 0;
#X connect 24 0 17 0;
#X connect 25 0 13 0;
#X connect 26 0 10 0;
#X restore 168 281 pd program;
#X obj 79 169 r \$0-wrerror;
#X obj 79 191 b;
#X obj 79 212 del 500;
#X msg 49 230 2;
#X msg 79 232 1;
#N canvas 565 551 450 324 make 0;
#X obj 74 25 r \$0-Fr2;
#X obj 74 45 route Boot;
#X obj 74 71 route \$2;
#X obj 74 95 route RAM ROM;
#X obj 121 165 clip 0 100;
#X obj 34 253 s \$0-make-ram-rcv;
#X obj 299 175 clip 0 100;
#X obj 197 257 s \$0-make-rom-rcv;
#X msg 13 175 label RAM:\$1/\$2;
#X msg 122 144 \$3;
#X msg 197 177 label ROM:\$1/\$2;
#X msg 299 151 \$3;
#X msg 225 85 label;
#X msg 270 85 100;
#X obj 251 17 loadbang;
#X obj 252 41 b;
#X obj 227 25 bng 15 250 50 0 empty empty empty 17 7 0 10 #fcfcfc #000000 #000000;
#X obj 312 18 r \$0-UImeminit;
#X obj 317 88 hsl 128 15 0 100 0 0 empty empty empty -2 -8 0 10 #fcfcfc #000000 #000000 0 1;
#X msg 121 214 vis_size \$1 13;
#X floatatom 163 254 5 0 0 0 - - - 0;
#X obj 121 187 * 0.93;
#X msg 299 224 vis_size \$1 13;
#X obj 299 197 * 0.93;
#X msg 140 277 size \$1;
#X msg 139 296 13;
#X msg 168 297 1;
#X obj 197 128 list;
#X obj 74 118 list;
#X connect 0 0 1 0;
#X connect 1 0 2 0;
#X connect 2 0 3 0;
#X connect 3 0 28 0;
#X connect 3 1 27 0;
#X connect 4 0 21 0;
#X connect 6 0 23 0;
#X connect 8 0 5 0;
#X connect 9 0 4 0;
#X connect 10 0 7 0;
#X connect 11 0 6 0;
#X connect 12 0 5 0;
#X connect 12 0 7 0;
#X connect 13 0 6 0;
#X connect 13 0 4 0;
#X connect 14 0 15 0;
#X connect 15 0 12 0;
#X connect 15 0 13 0;
#X connect 16 0 15 0;
#X connect 17 0 15 0;
#X connect 18 0 21 0;
#X connect 18 0 23 0;
#X connect 19 0 5 0;
#X connect 21 0 19 0;
#X connect 21 0 20 0;
#X connect 22 0 7 0;
#X connect 23 0 22 0;
#X connect 24 0 7 0;
#X connect 24 0 5 0;
#X connect 25 0 24 0;
#X connect 26 0 24 0;
#X connect 27 0 10 0;
#X connect 27 0 11 0;
#X connect 28 0 8 0;
#X connect 28 0 9 0;
#X restore 238 280 pd make;
#X obj 325 262 s \$0-rename-rcv;
#X msg 325 239 label RENAME:\$1;
#X msg 359 195 label ASSIGN_ID:\$1;
#X obj 359 216 s \$0-assign-rcv;
#X obj 325 117 unpack s f s;
#X obj 394 163 s \$0-program-rcv;
#X obj 46 253 t b f;
#X obj 34 277 * 1;
#X obj 35 24 symbol pd-\$0-utils;
#X msg 35 48 \; \$1 vis 0 \; \$1 vis 1;
#X obj 34 358 sel 0 1;
#X obj 34 449 s \$0-on-rcv;
#X msg 53 381 color 13 13 0 \, label on;
#X obj 34 337 r \$0-on-snd;
#X msg 34 414 color 10 1 2 \, label off;
#X obj 104 188 r \$0-wrerror_suspend_time;
#X obj 325 20 r \$0-hexfile;
#X obj 325 43 file splitname;
#X msg 325 66 symbol \$2;
#X obj 325 91 list prepend \$2 \$3;
#X msg 394 142 label PROGRAM:\$1;
#X connect 2 0 1 0;
#X connect 3 0 19 0;
#X connect 4 0 20 0;
#X connect 6 0 7 0;
#X connect 7 0 8 0;
#X connect 7 0 9 0;
#X connect 8 0 10 0;
#X connect 9 0 18 0;
#X connect 10 0 18 0;
#X connect 13 0 12 0;
#X connect 14 0 15 0;
#X connect 16 0 13 0;
#X connect 16 1 14 0;
#X connect 16 2 32 0;
#X connect 18 0 19 0;
#X connect 18 1 19 1;
#X connect 19 0 0 0;
#X connect 20 0 21 0;
#X connect 22 0 26 0;
#X connect 22 1 24 0;
#X connect 24 0 23 0;
#X connect 25 0 22 0;
#X connect 26 0 23 0;
#X connect 27 0 8 1;
#X connect 28 0 29 0;
#X connect 29 0 30 0;
#X connect 30 0 31 0;
#X connect 31 0 16 0;
#X connect 32 0 17 0;
#X restore 22 188 pd UI;
#X obj 220 329 outlet on;
#N canvas 886 222 450 354 select 0;
#X obj 116 77 r \$0-piedactif;
#X obj 44 307 s \$0-2Fr2;
#X obj 44 257 f \$3;
#X obj 121 219 f \$3;
#X msg 121 239 Deselect \$1;
#X msg 44 278 Select \$1;
#X obj 44 174 sel 1 0;
#X obj 197 239 s \$0-fruitpresent;
#X msg 197 219 0;
#X obj 44 76 r \$0-on-snd;
#X msg 63 210 stop;
#X obj 44 131 f;
#X obj 44 153 spigot, f 11;
#X obj 44 236 del 100;
#X obj 143 130 sel 0;
#X obj 44 99 change 0;
#X obj 116 98 t f f;
#X obj 72 131 sel 1;
#X connect 0 0 16 0;
#X connect 2 0 5 0;
#X connect 3 0 4 0;
#X connect 4 0 1 0;
#X connect 5 0 1 0;
#X connect 6 0 13 0;
#X connect 6 1 8 0;
#X connect 6 1 3 0;
#X connect 6 1 10 0;
#X connect 8 0 7 0;
#X connect 9 0 15 0;
#X connect 10 0 13 0;
#X connect 11 0 12 0;
#X connect 12 0 6 0;
#X connect 13 0 2 0;
#X connect 14 0 8 0;
#X connect 14 0 10 0;
#X connect 15 0 11 0;
#X connect 16 0 17 0;
#X connect 16 1 12 1;
#X connect 16 1 14 0;
#X connect 17 0 11 0;
#X restore 23 287 pd select;
#N canvas 1315 49 407 210 program 0;
#X obj 18 17 bng 15 250 50 0 empty empty empty 17 7 0 10 #fcfcfc #000000 #000000;
#X obj 38 16 r \$0-program;
#X obj 38 153 s \$0-2Fr2;
#X obj 38 42 symbol, f 14;
#X obj 143 69 r \$0-is_pied_fruit;
#X text 177 124 program hexfile is_pied_fruit;
#X obj 119 12 r \$0-hexfile;
#X obj 38 93 list append 0, f 18;
#X obj 38 68 list prepend \$2;
#X msg 38 125 Boot program \$1 \$2 \$3;
#X connect 0 0 3 0;
#X connect 1 0 3 0;
#X connect 3 0 8 0;
#X connect 4 0 7 1;
#X connect 6 0 3 1;
#X connect 7 0 9 0;
#X connect 8 0 7 0;
#X connect 9 0 2 0;
#X restore 22 333 pd program;
#N canvas 580 556 450 300 make 0;
#X obj 26 15 bng 15 250 50 0 empty empty empty 17 7 0 10 #fcfcfc #000000 #000000;
#X obj 78 127 symbol \$4;
#X obj 78 106 loadbang;
#X obj 148 107 loadbang;
#X obj 148 128 symbol \$2;
#X obj 50 214 s \$0-2Fr2;
#X obj 50 12 r \$0-make;
#X obj 168 82 bng 15 250 50 0 empty empty empty 17 7 0 10 #fcfcfc #000000 #000000;
#X obj 91 39 s \$0-UImeminit;
#X obj 50 38 t b b;
#X obj 98 63 r \$0-dir;
#X obj 50 64 symbol;
#X obj 218 127 r \$0-is_pied_fruit;
#X obj 50 150 pack s s s f, f 25;
#X text 181 177 make Fruitname SourcePath is_pied_fruit;
#X msg 50 178 Boot make \$3 \$1/\$2 \$4;
#X connect 0 0 9 0;
#X connect 1 0 13 1;
#X connect 2 0 1 0;
#X connect 3 0 4 0;
#X connect 4 0 13 2;
#X connect 6 0 9 0;
#X connect 7 0 4 0;
#X connect 7 0 1 0;
#X connect 9 0 11 0;
#X connect 9 1 8 0;
#X connect 10 0 11 1;
#X connect 11 0 13 0;
#X connect 12 0 13 3;
#X connect 13 0 15 0;
#X connect 15 0 5 0;
#X restore 23 310 pd make;
#N canvas 31 558 450 300 progbootloader 0;
#X obj 62 48 bng 15 250 50 0 empty empty empty 17 7 0 10 #fcfcfc #000000 #000000;
#X obj 110 122 symbol \$4;
#X obj 110 101 loadbang;
#X obj 82 145 pack s s s;
#X obj 180 102 loadbang;
#X obj 180 123 symbol \$2;
#X obj 82 209 s \$0-2Fr2;
#X obj 196 67 bng 15 250 50 0 empty empty empty 17 7 0 10 #fcfcfc #000000 #000000;
#X obj 82 47 r \$0-progboot;
#X msg 82 173 Boot progboot \$3 \$1/\$2;
#X obj 82 73 symbol;
#X obj 126 73 r \$0-dir;
#X connect 0 0 10 0;
#X connect 1 0 3 1;
#X connect 2 0 1 0;
#X connect 3 0 9 0;
#X connect 4 0 5 0;
#X connect 5 0 3 2;
#X connect 7 0 5 0;
#X connect 7 0 1 0;
#X connect 8 0 10 0;
#X connect 9 0 6 0;
#X connect 10 0 3 0;
#X connect 11 0 10 1;
#X restore 21 356 pd progbootloader;
#X obj 188 32 inlet on;
#X text 18 9 usage: Fr2Fruit piedid fruitname fruitid firmware dont_poll;
#X obj 200 56 loadbang;
#X obj 200 100 == 0;
#X obj 200 78 f \$5;
#N canvas 750 315 867 251 init_status 1;
#X obj 29 26 loadbang;
#X obj 29 178 s \$0-2Fr2;
#X msg 29 156 Status 0;
#X obj 150 161 s \$0-piedactif;
#X obj 138 186 s \$0-fruitpresent;
#X msg 138 137 0;
#X obj 174 81 f \$3;
#X obj 174 104 == 0;
#X obj 174 127 s \$0-is_pied_fruit;
#X obj 478 12 r \$0-is_pied_fruit;
#X obj 311 107 pdcontrol;
#X msg 311 87 dir 1;
#X obj 311 127 s \$0-dir;
#X text 311 145 (for progbootloader \, make \, and program), f 20;
#X obj 29 49 t b b b, f 37;
#X obj 541 35 r \$0-dir;
#X obj 143 16 bng 18 250 50 0 empty empty empty 0 -9 0 10 #fcfcfc #000000 #000000;
#X obj 478 59 list append;
#X obj 478 81 list append \$2 \$4;
#X obj 478 106 route 0 1, f 43;
#X msg 478 156 symbol \$1/\$3/\$3.hex;
#X listbox 478 179 106 0 0 0 - - - 0;
#X obj 605 131 list;
#X obj 478 131 list;
#X obj 478 201 s \$0-hexfile;
#X msg 605 156 symbol \$1/\$3/\$3-0.hex;
#X connect 0 0 14 0;
#X connect 2 0 1 0;
#X connect 5 0 3 0;
#X connect 5 0 4 0;
#X connect 6 0 7 0;
#X connect 7 0 8 0;
#X connect 9 0 17 0;
#X connect 10 0 12 0;
#X connect 11 0 10 0;
#X connect 14 0 2 0;
#X connect 14 1 5 0;
#X connect 14 1 6 0;
#X connect 14 2 11 0;
#X connect 15 0 17 1;
#X connect 16 0 14 0;
#X connect 17 0 18 0;
#X connect 18 0 19 0;
#X connect 19 0 23 0;
#X connect 19 1 22 0;
#X connect 20 0 21 0;
#X connect 21 0 24 0;
#X connect 22 0 25 0;
#X connect 23 0 20 0;
#X connect 25 0 21 0;
#X restore 22 135 pd init_status;
#X obj 25 77 tgl 15 0 \$0-on-snd \$0-on-rcv on 3 7 1 8 #fc2828 #fc2828 #fcfcfc 0 1;
#X obj 188 124 s \$0-on-rcv;
#X obj 315 34 inlet config;
#N canvas 1 81 450 300 config 0;
#X obj 37 37 inlet;
#X obj 37 58 route wrerror_suspend_time;
#X obj 37 79 s \$0-wrerror_suspend_time;
#X connect 0 0 1 0;
#X connect 1 0 2 0;
#X restore 315 55 pd config;
#X obj 188 162 loadbang;
#X msg 260 93 0;
#N canvas 580 556 480 300 clean 0;
#X obj 54 132 symbol \$4;
#X obj 54 111 loadbang;
#X obj 124 112 loadbang;
#X obj 124 133 symbol \$2;
#X obj 26 219 s \$0-2Fr2;
#X obj 144 87 bng 15 250 50 0 empty empty empty 17 7 0 10 #fcfcfc #000000 #000000;
#X obj 74 68 r \$0-dir;
#X obj 26 69 symbol;
#X obj 26 17 r \$0-clean;
#X obj 191 133 r \$0-is_pied_fruit;
#X obj 26 155 pack s s s f, f 25;
#X text 194 182 make clean Fruitname SourcePath is_pied_fruit;
#X msg 26 183 Boot make clean \$3 \$1/\$2 \$4;
#X connect 0 0 10 1;
#X connect 1 0 0 0;
#X connect 2 0 3 0;
#X connect 3 0 10 2;
#X connect 5 0 3 0;
#X connect 5 0 0 0;
#X connect 6 0 7 1;
#X connect 7 0 10 0;
#X connect 8 0 7 0;
#X connect 9 0 10 3;
#X connect 10 0 12 0;
#X connect 12 0 4 0;
#X restore 76 311 pd clean;
#X connect 2 0 10 0;
#X connect 15 0 22 0;
#X connect 17 0 19 0;
#X connect 18 0 22 0;
#X connect 19 0 18 0;
#X connect 23 0 24 0;
#X connect 26 0 22 0;
#X coords 0 -1 1 1 152 45 1 20 50;
