#N canvas 629 282 561 460 10;
#X msg 142 127 set \$1;
#X obj 28 15 r \$1-\$2-snd;
#X obj 142 14 r \$1-\$2n-snd;
#X obj 142 196 s \$1-\$2-rcv;
#X obj 151 169 s \$1-\$2n-rcv;
#X obj 343 12 r \$1-params;
#X obj 343 36 route \$2;
#X obj 28 123 f;
#X obj 28 37 + 0.5;
#X obj 28 57 i;
#X obj 343 58 + 0.5;
#X obj 343 78 i;
#X obj 28 185 s \$1-todevice;
#X obj 254 274 s \$1-todevice;
#X obj 233 37 route \$3;
#X obj 233 13 r \$1-fromdevice;
#X obj 254 124 r \$1-get;
#X obj 254 175 random 300;
#X obj 254 198 del;
#X obj 344 270 del;
#X obj 344 226 random 200;
#X msg 380 164 stop;
#X obj 344 249 + 400;
#X obj 254 228 f \$3;
#X obj 28 164 list prepend c \$3;
#X obj 28 145 list prepend \$4;
#X msg 254 250 c 254 c \$1;
#X obj 254 147 t b b;
#X obj 344 323 sel 20;
#X obj 377 344 b;
#X obj 344 368 symbol \$2;
#X obj 344 413 print;
#X msg 344 391 error: unable to get param \$1;
#X obj 344 295 i;
#X obj 369 295 + 1;
#X msg 375 270 0;
#X connect 0 0 3 0;
#X connect 0 0 4 0;
#X connect 1 0 8 0;
#X connect 2 0 0 0;
#X connect 2 0 7 0;
#X connect 5 0 6 0;
#X connect 6 0 10 0;
#X connect 7 0 25 0;
#X connect 8 0 9 0;
#X connect 9 0 7 0;
#X connect 9 0 0 0;
#X connect 10 0 11 0;
#X connect 11 0 4 0;
#X connect 14 0 0 0;
#X connect 14 0 21 0;
#X connect 15 0 14 0;
#X connect 16 0 27 0;
#X connect 17 0 18 0;
#X connect 18 0 20 0;
#X connect 18 0 23 0;
#X connect 19 0 33 0;
#X connect 20 0 22 0;
#X connect 21 0 18 0;
#X connect 21 0 19 0;
#X connect 22 0 19 0;
#X connect 23 0 26 0;
#X connect 24 0 12 0;
#X connect 25 0 24 0;
#X connect 26 0 13 0;
#X connect 27 0 17 0;
#X connect 27 1 35 0;
#X connect 28 0 30 0;
#X connect 28 1 29 0;
#X connect 29 0 17 0;
#X connect 30 0 32 0;
#X connect 32 0 31 0;
#X connect 33 0 34 0;
#X connect 33 0 28 0;
#X connect 34 0 33 1;
#X connect 35 0 33 1;
