#N canvas 324 357 450 300 10;
#X obj 105 92 inlet;
#X obj 180 92 inlet;
#X obj 105 114 spigot;
#X obj 180 116 spigot;
#X obj 237 92 f;
#X obj 237 71 route present;
#X obj 105 142 fruit/send \$1;
#X obj 237 51 fruit/receive \$1;
#X connect 0 0 2 0;
#X connect 1 0 3 0;
#X connect 2 0 6 0;
#X connect 3 0 6 1;
#X connect 4 0 3 1;
#X connect 4 0 2 1;
#X connect 5 0 4 0;
#X connect 7 0 5 0;
