#N canvas 641 226 572 553 10;
#X obj 109 516 s Fraise-\$1-rcv;
#X obj 16 61 t b a;
#X obj 130 153 list trim;
#X obj 130 207 mod 256;
#X obj 218 320 mod 256;
#X obj 167 297 t f f, f 9;
#X obj 167 320 div 256;
#X obj 167 365 pack f f, f 9;
#X obj 425 341 mod 256;
#X obj 272 207 t f f;
#X obj 272 230 div 256;
#X obj 272 364 pack f f f f, f 26;
#X obj 374 341 mod 256;
#X obj 272 252 t f f;
#X obj 272 275 div 256;
#X obj 323 341 mod 256;
#X obj 272 298 t f f;
#X obj 272 321 div 256;
#X obj 272 341 mod 256;
#X text 93 40 input: type1 val1 [type2 val2 [...]];
#X obj 167 343 mod 256;
#X obj 453 35 inlet char;
#X obj 453 76 s Fraise-\$1-C-rcv;
#X obj 43 105 t a a, f 15;
#X obj 43 82 list;
#X obj 130 466 list;
#X obj 109 493 list;
#X obj 16 470 t b b, f 16;
#X msg 16 495 list;
#X obj 130 412 t a;
#X obj 43 130 list split 2;
#X obj 130 130 list split 2;
#X text 12 9 usage: fruit/send fruitname;
#X obj 130 439 list prepend;
#X obj 16 39 inlet bytes;
#X text 96 57 types: int8 (or c) = 8 bits integer (signed or not);
#X obj 130 174 route c int8 i int16 l int32, f 29;
#X text 138 68 int16 (or i) = 16 bits integer (signed or not);
#X text 138 80 int32 (or l) = 32 bits integer (signed or not);
#X connect 1 0 27 0;
#X connect 1 1 24 0;
#X connect 2 0 36 0;
#X connect 3 0 29 0;
#X connect 4 0 7 1;
#X connect 5 0 6 0;
#X connect 5 1 4 0;
#X connect 6 0 20 0;
#X connect 7 0 29 0;
#X connect 8 0 11 3;
#X connect 9 0 10 0;
#X connect 9 1 8 0;
#X connect 10 0 13 0;
#X connect 11 0 29 0;
#X connect 12 0 11 2;
#X connect 13 0 14 0;
#X connect 13 1 12 0;
#X connect 14 0 16 0;
#X connect 15 0 11 1;
#X connect 16 0 17 0;
#X connect 16 1 15 0;
#X connect 17 0 18 0;
#X connect 18 0 11 0;
#X connect 20 0 7 0;
#X connect 21 0 22 0;
#X connect 23 0 30 0;
#X connect 23 1 31 0;
#X connect 24 0 23 0;
#X connect 25 0 26 1;
#X connect 25 0 33 1;
#X connect 26 0 0 0;
#X connect 27 0 28 0;
#X connect 27 1 26 0;
#X connect 28 0 25 0;
#X connect 29 0 33 0;
#X connect 30 1 24 0;
#X connect 31 0 2 0;
#X connect 33 0 25 0;
#X connect 34 0 1 0;
#X connect 36 0 3 0;
#X connect 36 1 3 0;
#X connect 36 2 5 0;
#X connect 36 3 5 0;
#X connect 36 4 9 0;
#X connect 36 5 9 0;
#X coords 0 0 1 1 200 40 0;
