#N canvas 114 236 572 640 10;
#X obj 109 567 s Fraise-\$1-rcv;
#X obj 130 254 mod 256;
#X obj 218 367 mod 256;
#X obj 167 344 t f f, f 9;
#X obj 167 367 div 256;
#X obj 167 412 pack f f, f 9;
#X obj 425 341 mod 256;
#X obj 272 254 t f f;
#X obj 272 277 div 256;
#X obj 272 411 pack f f f f, f 26;
#X obj 374 388 mod 256;
#X obj 272 299 t f f;
#X obj 272 322 div 256;
#X obj 323 388 mod 256;
#X obj 272 345 t f f;
#X obj 272 368 div 256;
#X obj 272 388 mod 256;
#X obj 167 390 mod 256;
#X obj 453 35 inlet char;
#X obj 453 76 s Fraise-\$1-C-rcv;
#X obj 130 513 list;
#X obj 109 540 list;
#X obj 16 517 t b b, f 16;
#X msg 16 542 list;
#X obj 130 459 t a;
#X text 12 9 usage: fruit/send fruitname;
#X obj 130 486 list prepend;
#X obj 16 39 inlet bytes;
#X text 102 45 types: int8 (or c) = 8 bits integer (signed or not);
#X obj 130 228 route c int8 i int16 l int32, f 29;
#X text 144 56 int16 (or i) = 16 bits integer (signed or not);
#X text 144 68 int32 (or l) = 32 bits integer (signed or not);
#X obj 103 110 list split 1, f 15;
#X obj 16 86 t b a b, f 30;
#X obj 149 134 list, f 5;
#X obj 103 133 t b a;
#X obj 130 181 list prepend c;
#X obj 130 204 list trim;
#X obj 130 156 route float symbol;
#X msg 211 121 symbol c;
#X text 96 27 input: [type1] val1 [[type2] val2 [...]];
#X connect 1 0 24 0;
#X connect 2 0 5 1;
#X connect 3 0 4 0;
#X connect 3 1 2 0;
#X connect 4 0 17 0;
#X connect 5 0 24 0;
#X connect 6 0 9 3;
#X connect 7 0 8 0;
#X connect 7 1 6 0;
#X connect 8 0 11 0;
#X connect 9 0 24 0;
#X connect 10 0 9 2;
#X connect 11 0 12 0;
#X connect 11 1 10 0;
#X connect 12 0 14 0;
#X connect 13 0 9 1;
#X connect 14 0 15 0;
#X connect 14 1 13 0;
#X connect 15 0 16 0;
#X connect 16 0 9 0;
#X connect 17 0 5 0;
#X connect 18 0 19 0;
#X connect 20 0 21 1;
#X connect 20 0 26 1;
#X connect 21 0 0 0;
#X connect 22 0 23 0;
#X connect 22 1 21 0;
#X connect 23 0 20 0;
#X connect 24 0 26 0;
#X connect 26 0 20 0;
#X connect 27 0 33 0;
#X connect 29 0 1 0;
#X connect 29 1 1 0;
#X connect 29 2 3 0;
#X connect 29 3 3 0;
#X connect 29 4 7 0;
#X connect 29 5 7 0;
#X connect 32 0 35 0;
#X connect 32 1 34 1;
#X connect 33 0 22 0;
#X connect 33 1 32 0;
#X connect 33 2 39 0;
#X connect 34 0 32 0;
#X connect 35 0 34 0;
#X connect 35 1 38 0;
#X connect 36 0 37 0;
#X connect 37 0 29 0;
#X connect 38 0 36 0;
#X connect 38 1 36 1;
#X connect 39 0 36 1;
#X coords 0 0 1 1 200 40 0;
