#N canvas 349 422 605 540 10;
#X floatatom 1143 70 5 0 1023 1 MaxVoltage #0-voltn-rcv #0-voltn-snd
, f 5;
#X floatatom 1143 53 5 0 1023 1 Courant #0-currentn-rcv #0-currentn-snd
, f 5;
#X floatatom 1143 91 8 -32768 32767 1 Speed #0-speedn-rcv #0-speedn-snd
, f 8;
#X floatatom 1143 108 8 0 32767 1 Accel #0-acceln-rcv #0-acceln-snd
, f 8;
#X obj 95 -2 inlet;
#X obj 122 459 s Fraise-\$1-rcv;
#X obj 95 20 t b a;
#X obj 205 129 list trim;
#X obj 205 150 route c i l;
#X obj 205 175 mod 256;
#X obj 278 221 mod 256;
#X obj 226 198 t f f;
#X obj 226 221 div 256;
#X obj 226 266 pack f f;
#X obj 496 266 mod 256;
#X obj 341 132 t f f;
#X obj 341 155 div 256;
#X obj 341 294 pack f f f f;
#X obj 442 266 mod 256;
#X obj 341 177 t f f;
#X obj 341 200 div 256;
#X obj 392 267 mod 256;
#X obj 341 223 t f f;
#X obj 341 246 div 256;
#X obj 341 266 mod 256;
#X text 190 -12 input: type1 val1 [type2 val2 [...]];
#X text 50 -32 usage: FruitReceive fruitname;
#X text 193 5 types: c=char (8 bits);
#X text 235 16 i=int (16 bits);
#X text 235 28 l=long (32 bits);
#X obj 226 244 mod 256;
#X obj 450 3 inlet char;
#X obj 450 44 s Fraise-\$1-C-rcv;
#X obj 122 64 t a a;
#X obj 122 41 list;
#X obj 143 406 list;
#X obj 143 379 list append;
#X obj 122 433 list;
#X obj 95 379 t b b;
#X msg 95 404 list;
#X obj 143 352 t a;
#X obj 122 93 list split 2;
#X obj 205 93 list split 2;
#X connect 4 0 6 0;
#X connect 6 0 38 0;
#X connect 6 1 34 0;
#X connect 7 0 8 0;
#X connect 8 0 9 0;
#X connect 8 1 11 0;
#X connect 8 2 15 0;
#X connect 9 0 40 0;
#X connect 10 0 13 1;
#X connect 11 0 12 0;
#X connect 11 1 10 0;
#X connect 12 0 30 0;
#X connect 13 0 40 0;
#X connect 14 0 17 3;
#X connect 15 0 16 0;
#X connect 15 1 14 0;
#X connect 16 0 19 0;
#X connect 17 0 40 0;
#X connect 18 0 17 2;
#X connect 19 0 20 0;
#X connect 19 1 18 0;
#X connect 20 0 22 0;
#X connect 21 0 17 1;
#X connect 22 0 23 0;
#X connect 22 1 21 0;
#X connect 23 0 24 0;
#X connect 24 0 17 0;
#X connect 30 0 13 0;
#X connect 31 0 32 0;
#X connect 33 0 41 0;
#X connect 33 1 42 0;
#X connect 34 0 33 0;
#X connect 35 0 36 1;
#X connect 35 0 37 1;
#X connect 36 0 35 0;
#X connect 37 0 5 0;
#X connect 38 0 39 0;
#X connect 38 1 37 0;
#X connect 39 0 35 0;
#X connect 40 0 36 0;
#X connect 41 1 34 0;
#X connect 42 0 7 0;
#X coords 0 0 1 1 200 40 0;
