#N canvas 455 210 450 300 10;
#X obj 79 39 inlet var;
#X obj 218 40 inlet len;
#X obj 218 80 f \$1;
#X obj 202 19 loadbang;
#X obj 246 162 table \$0-t \$1;
#X obj 218 125 s \$0-t;
#X msg 218 102 resize \$1;
#X obj 79 61 t f b;
#X obj 106 86 i;
#X obj 137 86 + 1;
#X obj 137 108 mod \$1;
#X obj 106 137 tabread \$0-t;
#X obj 79 164 tabwrite \$0-t;
#X obj 95 222 +;
#X obj 124 222 f;
#X obj 106 192 * -1;
#X obj 95 244 / \$1;
#X obj 95 266 outlet;
#X connect 0 0 7 0;
#X connect 1 0 2 0;
#X connect 2 0 6 0;
#X connect 2 0 16 1;
#X connect 3 0 2 0;
#X connect 6 0 5 0;
#X connect 7 0 12 0;
#X connect 7 0 13 0;
#X connect 7 1 8 0;
#X connect 8 0 9 0;
#X connect 8 0 11 0;
#X connect 8 0 12 1;
#X connect 9 0 10 0;
#X connect 10 0 8 1;
#X connect 11 0 15 0;
#X connect 13 0 14 0;
#X connect 13 0 16 0;
#X connect 14 0 13 1;
#X connect 15 0 13 0;
#X connect 16 0 17 0;
