#N canvas 748 384 426 403 10;
#X declare -path Fraise;
#X obj 22 262 route 0 1 2 3;
#X floatatom 22 371 8 0 0 0 - - - 0;
#X floatatom 40 345 8 0 0 0 - - - 0;
#X floatatom 59 319 8 0 0 0 - - - 0;
#X floatatom 78 293 8 0 0 0 - - - 0;
#X obj 22 207 fruit/receive fruit1;
#X obj 19 141 fruit/fruit 1 fruit1 10 example1;
#X obj 22 237 route s;
#X text 92 237 Switch capture on connector K1 \, K2 \, K3 and K4.;
#X obj 22 10 declare -path Fraise;
#X obj 21 38 pied/pied 1;
#X connect 0 0 1 0;
#X connect 0 1 2 0;
#X connect 0 2 3 0;
#X connect 0 3 4 0;
#X connect 5 0 7 0;
#X connect 7 0 0 0;
