#N canvas 2354 469 623 310 12;
#X declare -path Fraise;
#X obj 20 18 declare -path Fraise;
#X obj 25 62 pied/pied 2;
#X obj 54 242 print fromFruit;
#X msg 429 184 Ehello;
#X obj 28 154 fruit/fruit 2 pwmLeds 60 pwmFw;
#X obj 54 217 fruit/receive pwmLeds;
#X obj 287 214 fruit/send2 pwmLeds;
#X obj 296 45 hsl 170 20 0 35000 0 0 empty empty empty -2 -10 0 12 #fcfcfc #000000 #000000 0 1;
#X msg 287 96 c 12 i \$1;
#X obj 396 87 hsl 170 20 0 65535 0 0 empty empty empty -2 -10 0 12 #fcfcfc #000000 #000000 0 1;
#X msg 393 145 c 13 i \$1;
#X obj 255 16 hsl 170 20 0 65535 0 0 empty empty empty -2 -10 0 12 #fcfcfc #000000 #000000 0 1;
#X floatatom 393 117 9 0 0 0 - - - 0;
#X floatatom 287 72 9 0 0 0 - - - 0;
#X text 301 116 all value;
#X text 469 144 all smooth;
#X connect 3 0 6 1;
#X connect 5 0 2 0;
#X connect 7 0 13 0;
#X connect 8 0 6 0;
#X connect 9 0 12 0;
#X connect 10 0 6 0;
#X connect 11 0 13 0;
#X connect 12 0 10 0;
#X connect 13 0 8 0;
