#N canvas 470 191 1200 784 10;
#N canvas 81 287 465 199 get_modules 0;
#X obj 23 25 inlet;
#X obj 23 51 t b b, f 9;
#X obj 74 137 s \$0-make_add_if_module;
#X obj 23 136 outlet;
#X obj 235 114 r \$0-make_add_if_module;
#N canvas 1057 129 573 583 add_if_module 0;
#X obj 25 20 inlet;
#N canvas 524 217 354 367 is_user_module 0;
#X obj 32 25 inlet;
#X obj 78 223 pack s s;
#X obj 32 310 outlet test_other_location;
#X obj 78 270 s \$0-addmodule;
#X obj 113 114 file isfile;
#X obj 113 71 pack s s;
#X msg 113 93 symbol \$2/modules/\$1/\$1.h;
#X floatatom 113 135 5 0 0 0 - - - 0;
#X msg 176 134 0;
#X obj 32 49 t s s, f 14;
#X obj 32 156 list prepend 0;
#X obj 32 177 route 0 1, f 16;
#X obj 78 198 symbol;
#X obj 32 199 symbol;
#X msg 78 246 list \$2/modules/\$1/\$1 user;
#X obj 123 199 r \$1-make-src;
#X obj 158 47 r \$1-make-src;
#X connect 0 0 9 0;
#X connect 1 0 14 0;
#X connect 4 0 7 0;
#X connect 4 1 8 0;
#X connect 5 0 6 0;
#X connect 6 0 4 0;
#X connect 7 0 10 1;
#X connect 8 0 7 0;
#X connect 9 0 10 0;
#X connect 9 1 5 0;
#X connect 10 0 11 0;
#X connect 11 0 13 0;
#X connect 11 1 12 0;
#X connect 12 0 1 0;
#X connect 13 0 2 0;
#X connect 14 0 3 0;
#X connect 15 0 1 1;
#X connect 16 0 5 1;
#X restore 25 63 pd is_user_module;
#N canvas 950 569 339 338 is_system_module 0;
#X obj 27 12 inlet;
#X obj 73 211 pack s s;
#X obj 27 284 outlet test_other_location;
#X obj 73 256 s \$0-addmodule;
#X obj 108 100 file isfile;
#X obj 108 57 pack s s;
#X floatatom 108 121 5 0 0 0 - - - 0;
#X msg 171 120 0;
#X obj 27 35 t s s, f 14;
#X obj 27 142 list prepend 0;
#X obj 27 163 route 0 1, f 16;
#X obj 73 184 symbol;
#X obj 27 185 symbol;
#X msg 108 79 symbol \$2/\$1/\$1.h;
#X obj 153 35 r \$0-picmodulesdir;
#X obj 118 187 r \$0-picmodulesdir;
#X msg 73 234 list \$2/\$1/\$1 system;
#X connect 0 0 8 0;
#X connect 1 0 16 0;
#X connect 4 0 6 0;
#X connect 4 1 7 0;
#X connect 5 0 13 0;
#X connect 6 0 9 1;
#X connect 7 0 6 0;
#X connect 8 0 9 0;
#X connect 8 1 5 0;
#X connect 9 0 10 0;
#X connect 10 0 12 0;
#X connect 10 1 11 0;
#X connect 11 0 1 0;
#X connect 12 0 2 0;
#X connect 13 0 4 0;
#X connect 14 0 5 1;
#X connect 15 0 1 1;
#X connect 16 0 3 0;
#X restore 25 97 pd is_system_module;
#X obj 177 100 text search \$0-modules;
#X obj 177 26 r \$0-addmodule;
#X obj 177 121 sel -1;
#X obj 204 207 text insert \$0-modules 1e+06;
#X obj 177 142 symbol, f 8;
#X obj 177 79 t s s, f 8;
#X obj 177 163 t s s;
#X text 177 9 add module if not already there:;
#X text 197 228 test if module depends on another one:;
#X obj 177 536 s \$0-make_add_if_module;
#X msg 196 369 line 0 \, auto;
#X obj 204 325 text define \$0-tmp_module_src;
#X obj 196 390 text sequence \$0-tmp_module_src;
#N canvas 638 239 574 628 decode_includes 0;
#X obj 33 17 inlet;
#X obj 33 104 list fromsymbol;
#X obj 33 126 list split 1;
#X text 115 126 remove " or <;
#X obj 114 197 list;
#X obj 86 225 sel 34 62;
#X obj 86 171 list split 1;
#X obj 106 300 t a;
#X obj 67 149 t b a b;
#X obj 67 320 list, f 7;
#X obj 67 530 list tosymbol;
#X obj 137 247 t b f;
#X text 168 211 remove all from next " or >;
#X obj 113 277 list append;
#X obj 67 354 route 104;
#X obj 67 373 route 46;
#X text 130 373 '.';
#X text 130 354 'h';
#X obj 67 403 t b a b;
#X obj 86 422 list split 1;
#X obj 120 442 t a;
#X obj 106 487 t a;
#X obj 67 509 list, f 7;
#X obj 86 462 list prepend;
#X text 188 277 (the list will be reversed);
#X text 167 365 route the list only if it starts with "h." (e.g the initial string ends with ".h");
#X text 173 440 reverse the list back to normal order;
#X obj 67 551 outlet;
#X obj 33 60 route #include;
#X obj 33 40 list trim;
#X obj 33 81 list split 1;
#X text 132 103 convert to ascii;
#X text 114 81 select first symbol after #include (should be "module.h" or <module.h>), f 71;
#X connect 0 0 29 0;
#X connect 1 0 2 0;
#X connect 2 1 8 0;
#X connect 4 0 6 0;
#X connect 5 2 11 0;
#X connect 6 0 5 0;
#X connect 6 1 4 1;
#X connect 7 0 9 1;
#X connect 7 0 13 1;
#X connect 8 0 9 0;
#X connect 8 1 6 0;
#X connect 8 2 7 0;
#X connect 9 0 14 0;
#X connect 10 0 27 0;
#X connect 11 0 4 0;
#X connect 11 1 13 0;
#X connect 13 0 7 0;
#X connect 14 0 15 0;
#X connect 15 0 18 0;
#X connect 18 0 22 0;
#X connect 18 1 19 0;
#X connect 18 2 21 0;
#X connect 19 0 23 0;
#X connect 19 1 20 0;
#X connect 20 0 19 0;
#X connect 21 0 22 1;
#X connect 21 0 23 1;
#X connect 22 0 10 0;
#X connect 23 0 21 0;
#X connect 28 0 30 0;
#X connect 29 0 28 0;
#X connect 30 0 1 0;
#X restore 196 412 pd decode_includes;
#X msg 177 263 symbol \$1.c \, symbol \$1.h;
#X obj 177 284 t b s;
#X msg 204 305 clear \, read -c \$1;
#X obj 177 459 list store;
#X obj 177 347 t b b b;
#X msg 196 433 append \$1;
#X obj 177 480 list split 1;
#X obj 211 500 t a;
#X text 204 241 (caution \, recursivity here! not sure that it's all safe...);
#X obj 177 53 unpack s s;
#X obj 204 185 list append system;
#X connect 0 0 1 0;
#X connect 1 0 2 0;
#X connect 3 0 5 0;
#X connect 4 0 26 0;
#X connect 5 0 7 0;
#X connect 7 0 9 0;
#X connect 8 0 3 0;
#X connect 8 1 7 1;
#X connect 9 0 17 0;
#X connect 9 1 27 0;
#X connect 13 0 15 0;
#X connect 15 0 16 0;
#X connect 16 0 22 0;
#X connect 17 0 18 0;
#X connect 18 0 21 0;
#X connect 18 1 19 0;
#X connect 19 0 14 0;
#X connect 20 0 23 0;
#X connect 21 0 20 0;
#X connect 21 1 13 0;
#X connect 21 2 20 1;
#X connect 22 0 20 0;
#X connect 23 0 12 0;
#X connect 23 1 24 0;
#X connect 24 0 23 0;
#X connect 26 0 8 0;
#X connect 26 1 27 1;
#X connect 27 0 6 0;
#X restore 235 138 pd add_if_module;
#X msg 74 71 line 0 \, auto;
#N canvas 189 120 574 628 decode_includes 0;
#X obj 33 17 inlet;
#X obj 33 104 list fromsymbol;
#X obj 33 126 list split 1;
#X text 115 126 remove " or <;
#X obj 114 197 list;
#X obj 86 225 sel 34 62;
#X obj 86 171 list split 1;
#X obj 106 300 t a;
#X obj 67 149 t b a b;
#X obj 67 320 list, f 7;
#X obj 67 530 list tosymbol;
#X obj 137 247 t b f;
#X text 168 211 remove all from next " or >;
#X obj 113 277 list append;
#X obj 67 354 route 104;
#X obj 67 373 route 46;
#X text 130 373 '.';
#X text 130 354 'h';
#X obj 67 403 t b a b;
#X obj 86 422 list split 1;
#X obj 120 442 t a;
#X obj 106 487 t a;
#X obj 67 509 list, f 7;
#X obj 86 462 list prepend;
#X text 188 277 (the list will be reversed);
#X text 167 365 route the list only if it starts with "h." (e.g the initial string ends with ".h");
#X text 173 440 reverse the list back to normal order;
#X obj 67 551 outlet;
#X obj 33 60 route #include;
#X obj 33 40 list trim;
#X obj 33 81 list split 1;
#X text 132 103 convert to ascii;
#X text 114 81 select first symbol after #include (should be "module.h" or <module.h>), f 71;
#X connect 0 0 29 0;
#X connect 1 0 2 0;
#X connect 2 1 8 0;
#X connect 4 0 6 0;
#X connect 5 2 11 0;
#X connect 6 0 5 0;
#X connect 6 1 4 1;
#X connect 7 0 9 1;
#X connect 7 0 13 1;
#X connect 8 0 9 0;
#X connect 8 1 6 0;
#X connect 8 2 7 0;
#X connect 9 0 14 0;
#X connect 10 0 27 0;
#X connect 11 0 4 0;
#X connect 11 1 13 0;
#X connect 13 0 7 0;
#X connect 14 0 15 0;
#X connect 15 0 18 0;
#X connect 18 0 22 0;
#X connect 18 1 19 0;
#X connect 18 2 21 0;
#X connect 19 0 23 0;
#X connect 19 1 20 0;
#X connect 20 0 19 0;
#X connect 21 0 22 1;
#X connect 21 0 23 1;
#X connect 22 0 10 0;
#X connect 23 0 21 0;
#X connect 28 0 30 0;
#X connect 29 0 28 0;
#X connect 30 0 1 0;
#X restore 74 114 pd decode_includes;
#X obj 74 92 text sequence \$1-main;
#X connect 0 0 1 0;
#X connect 1 0 3 0;
#X connect 1 1 6 0;
#X connect 4 0 5 0;
#X connect 6 0 8 0;
#X connect 7 0 2 0;
#X connect 8 0 7 0;
#X restore 26 122 pd get_modules;
#N canvas 81 340 476 559 make_cflags 0;
#X obj 58 15 inlet;
#X obj 58 41 t b b;
#X obj 85 167 list append;
#X obj 85 287 list append;
#X obj 245 478 print MAKE;
#X obj 245 454 list prepend CFLAGS:;
#X obj 105 122 list append -DSDCC;
#X obj 85 447 s \$0-make-cflags;
#X obj 58 510 outlet;
#X msg 163 301 symbol -I"\$1";
#X obj 85 357 list append;
#X obj 85 407 list append;
#X msg 161 170 symbol -p\$1;
#X obj 85 243 list append;
#X msg 204 247 symbol --ivt-loc=\$1;
#X obj 170 213 sel 0;
#X msg 170 237 list;
#X obj 85 64 list append -I. -mpic16 --vc --denable-peeps --optimize-cmp --optimize-df --obanksel=2 --opt-code-speed --fomit-frame-pointer --use-non-free --std-sdcc99;
#X msg 163 366 symbol -I"\$1/pic-sdk/non-free/include/pic16";
#X msg 163 416 symbol -I"\$1/pic-sdk/include/pic16";
#X obj 163 277 r \$1-make-boarddir;
#X obj 161 150 r \$1-make-chip;
#X obj 163 343 r \$1-toolchain-path;
#X obj 163 393 r \$1-toolchain-path;
#X obj 170 192 r \$0-make-appstart;
#X connect 0 0 1 0;
#X connect 1 0 8 0;
#X connect 1 1 17 0;
#X connect 2 0 13 0;
#X connect 3 0 10 0;
#X connect 5 0 4 0;
#X connect 9 0 3 1;
#X connect 10 0 11 0;
#X connect 11 0 7 0;
#X connect 12 0 2 1;
#X connect 13 0 3 0;
#X connect 14 0 13 1;
#X connect 15 0 16 0;
#X connect 15 1 14 0;
#X connect 16 0 13 1;
#X connect 17 0 2 0;
#X connect 18 0 10 1;
#X connect 19 0 11 1;
#X connect 20 0 9 0;
#X connect 21 0 12 0;
#X connect 22 0 18 0;
#X connect 23 0 19 0;
#X connect 24 0 15 0;
#X restore 26 205 pd make_cflags;
#N canvas 581 124 264 277 print_modules 0;
#X obj 25 21 inlet;
#X obj 52 210 print MAKE;
#X obj 25 241 outlet finished;
#X obj 52 87 text sequence \$0-modules;
#X msg 52 66 line 0 \, auto;
#X obj 25 44 t b b;
#X obj 52 139 file splitname;
#X obj 52 113 unpack s s, f 18;
#X obj 52 163 list append system;
#X msg 52 187 add \$3 module \$2;
#X connect 0 0 5 0;
#X connect 3 0 7 0;
#X connect 4 0 3 0;
#X connect 5 0 2 0;
#X connect 5 1 4 0;
#X connect 6 0 8 0;
#X connect 7 0 6 0;
#X connect 7 1 8 1;
#X connect 8 0 9 0;
#X connect 9 0 1 0;
#X restore 26 146 pd print_modules;
#N canvas 305 269 453 328 make_modules_include 0;
#X obj 28 21 inlet;
#X obj 223 279 print MAKE;
#X obj 28 279 outlet finished;
#X obj 55 254 s \$0-make-modules-includes;
#X obj 223 255 list prepend MODULES_INCLUDES:;
#X obj 50 90 text sequence \$0-modules;
#X msg 50 69 line 0 \, auto;
#X obj 28 43 t b b b, f 8;
#X obj 50 157 list prepend;
#X msg 50 133 symbol -I"\$1";
#X obj 50 184 t a;
#X obj 28 210 list;
#X obj 28 231 t b a;
#X obj 50 111 file splitname;
#X connect 0 0 7 0;
#X connect 4 0 1 0;
#X connect 5 0 13 0;
#X connect 6 0 5 0;
#X connect 7 0 11 0;
#X connect 7 1 6 0;
#X connect 7 2 10 0;
#X connect 8 0 10 0;
#X connect 9 0 8 0;
#X connect 10 0 8 1;
#X connect 10 0 11 1;
#X connect 11 0 12 0;
#X connect 12 0 2 0;
#X connect 12 1 3 0;
#X connect 13 0 9 0;
#X restore 26 234 pd make_modules_include;
#N canvas 250 679 450 300 make_libs 0;
#X obj 73 24 inlet;
#X obj 100 71 symbol;
#X msg 100 104 list libsdcc.lib libc18f.lib libdev\$1.lib libm18f.lib;
#X obj 224 170 print MAKE;
#X obj 73 46 t b b;
#X obj 73 227 outlet;
#X obj 224 146 list prepend LIBS:;
#X obj 100 150 s \$0-make-libs;
#X obj 148 43 r \$1-make-chip;
#X connect 0 0 4 0;
#X connect 1 0 2 0;
#X connect 2 0 7 0;
#X connect 4 0 5 0;
#X connect 4 1 1 0;
#X connect 6 0 3 0;
#X connect 8 0 1 1;
#X restore 26 257 pd make_libs;
#X obj 127 196 tgl 15 0 empty empty empty 17 7 0 10 #fcfcfc #000000 #000000 0 -1;
#X text 40 277 -----make batch file:;
#N canvas 504 568 450 300 clear_batch 0;
#X obj 117 35 inlet;
#X obj 117 59 t b b;
#X obj 117 110 outlet;
#X msg 170 87 clear;
#X obj 170 108 s \$1-make-tobatch;
#X connect 0 0 1 0;
#X connect 1 0 2 0;
#X connect 1 1 3 0;
#X connect 3 0 4 0;
#X restore 244 242 pd clear_batch;
#N canvas 769 518 447 431 compile_boardconfig 0;
#X obj 177 114 r \$0-make-objsdir;
#X obj 120 214 list prepend;
#X obj 189 191 r \$0-make-cflags;
#X obj 93 25 inlet;
#X obj 93 47 t b b;
#X obj 120 136 pack s s s;
#X obj 93 277 outlet;
#X msg 120 70 symbol boardconfig;
#X msg 120 165 -c "\$2/\$1.c" -o "\$3/\$1.o";
#X obj 120 240 s \$0-make-addcompile;
#X obj 148 94 r \$1-make-boarddir;
#X connect 0 0 5 2;
#X connect 1 0 9 0;
#X connect 2 0 1 1;
#X connect 3 0 4 0;
#X connect 4 0 6 0;
#X connect 4 1 7 0;
#X connect 5 0 8 0;
#X connect 7 0 5 0;
#X connect 8 0 1 0;
#X connect 10 0 5 1;
#X restore 244 409 pd compile_boardconfig;
#N canvas 962 273 656 778 link_proj 0;
#X obj 33 15 inlet;
#X obj 143 140 r \$0-make-objsdir;
#X obj 71 141 pack s s s;
#X obj 33 36 t b b b b, f 10;
#X obj 71 189 list prepend;
#X obj 52 387 list prepend;
#X obj 121 364 r \$0-make-libs;
#X obj 52 433 list prepend;
#X msg 71 164 symbol "\$3/\$2/\$2.o";
#X obj 52 480 list prepend;
#X obj 52 532 list prepend;
#X obj 52 582 list prepend;
#X text 280 465 linker options : output map file \, linker script...;
#X obj 52 639 list prepend;
#X obj 33 743 outlet;
#X obj 52 338 list prepend;
#X obj 121 248 r \$0-make-objsdir;
#X obj 121 293 pack s s;
#X obj 52 712 s \$0-make-addcompile;
#X msg 121 316 list "\$1/boardconfig.o" "\$1/\$2.o";
#X obj 151 615 r \$0-make-objsdir;
#X msg 151 638 list --use-crt="\$1/crt.o";
#X obj 52 687 list prepend;
#X obj 121 666 r \$0-make-cflags;
#X obj 139 272 t b s;
#X obj 71 90 text sequence \$0-modules;
#X msg 71 69 line 0 \, auto;
#X obj 90 215 list;
#X obj 52 237 list, f 6;
#X obj 149 412 file splitname;
#X msg 149 433 -o "\$2.hex";
#X obj 235 264 file splitname;
#X msg 235 285 symbol \$2;
#X obj 71 113 file splitname;
#X msg 146 481 list -Wl"-O 1 -C -m -w -s \$1/board.lkr";
#X text 271 499 added2017: -C=disable cinit warnings (WARNING: incompatible with sdcc < 4.0);
#X msg 147 541 list -L"\$1/pic-sdk/non-free/lib/pic16";
#X msg 147 590 list -L"\$1/pic-sdk/lib/pic16";
#X obj 235 244 r \$1-make-src;
#X obj 149 390 r \$1-make-src;
#X obj 146 459 r \$1-make-boarddir;
#X listbox 339 645 20 0 0 0 - - - 0;
#X obj 147 518 r \$1-toolchain-path;
#X obj 147 568 r \$1-toolchain-path;
#X connect 0 0 3 0;
#X connect 1 0 2 2;
#X connect 2 0 8 0;
#X connect 3 0 14 0;
#X connect 3 1 28 0;
#X connect 3 2 26 0;
#X connect 3 3 27 0;
#X connect 4 0 27 0;
#X connect 5 0 7 0;
#X connect 6 0 5 1;
#X connect 7 0 9 0;
#X connect 8 0 4 0;
#X connect 9 0 10 0;
#X connect 10 0 11 0;
#X connect 11 0 13 0;
#X connect 13 0 22 0;
#X connect 15 0 5 0;
#X connect 16 0 17 0;
#X connect 17 0 19 0;
#X connect 19 0 15 1;
#X connect 20 0 21 0;
#X connect 20 0 41 0;
#X connect 21 0 13 1;
#X connect 22 0 18 0;
#X connect 23 0 22 1;
#X connect 24 0 17 0;
#X connect 24 1 17 1;
#X connect 25 0 33 0;
#X connect 26 0 25 0;
#X connect 27 0 4 1;
#X connect 27 0 28 1;
#X connect 28 0 15 0;
#X connect 29 0 30 0;
#X connect 30 0 7 1;
#X connect 31 0 32 0;
#X connect 32 0 24 0;
#X connect 33 0 2 0;
#X connect 34 0 9 1;
#X connect 36 0 10 1;
#X connect 37 0 11 1;
#X connect 38 0 31 0;
#X connect 39 0 29 0;
#X connect 40 0 34 0;
#X connect 42 0 36 0;
#X connect 43 0 37 0;
#X restore 244 434 pd link_proj;
#N canvas 615 236 450 300 cd_srcdir 0;
#X obj 110 19 inlet;
#X obj 110 42 t b b;
#X obj 137 63 symbol;
#X obj 137 110 list prepend add;
#X obj 137 131 list trim;
#X msg 137 86 cd \$1;
#X obj 110 187 outlet;
#X obj 170 39 r \$1-make-src;
#X obj 137 153 s \$1-make-tobatch;
#X connect 0 0 1 0;
#X connect 1 0 6 0;
#X connect 1 1 2 0;
#X connect 2 0 5 0;
#X connect 3 0 4 0;
#X connect 4 0 8 0;
#X connect 5 0 3 0;
#X connect 7 0 2 1;
#X restore 244 290 pd cd_srcdir;
#N canvas 582 427 444 579 count_available_ram 0;
#X obj 24 12 inlet;
#X obj 43 84 symbol;
#X obj 43 165 list trim;
#X obj 53 61 bng 15 250 50 0 empty empty empty 17 7 0 10 #fcfcfc #000000 #000000;
#X obj 43 193 route DATABANK ACCESSBANK;
#X obj 43 252 unpack s s s s, f 22;
#X obj 70 385 spigot;
#X msg 235 312 1;
#X obj 206 291 sel PROTECTED;
#X msg 206 312 0;
#X obj 43 227 t a b, f 28;
#X obj 70 361 +;
#X obj 70 334 * -1;
#X obj 70 416 +;
#X obj 99 416 f;
#X obj 24 33 t b b b;
#X msg 298 291 0;
#X floatatom 80 444 5 0 0 0 - - - 0;
#X obj 51 505 s \$0-make-totalram;
#X obj 24 449 f;
#X obj 24 475 t b f;
#X obj 24 541 outlet;
#X obj 75 481 outlet;
#X obj 43 142 catfile;
#X msg 43 112 symbol \$1/board.lkr;
#N canvas 0 0 305 346 after= 0;
#X obj 27 11 inlet;
#X obj 27 319 outlet;
#X obj 27 32 list fromsymbol;
#X obj 46 85 list split 1;
#X obj 59 107 list;
#X obj 27 53 t b a b;
#X obj 118 161 sel 61;
#X obj 46 135 t b f f;
#X msg 118 182 1;
#X obj 85 204 spigot;
#X msg 144 182 0;
#X obj 85 229 list prepend;
#X obj 66 254 t a;
#X obj 27 278 list;
#X obj 27 299 list tosymbol;
#X text 163 162 '=';
#X connect 0 0 2 0;
#X connect 2 0 5 0;
#X connect 3 0 7 0;
#X connect 3 1 4 1;
#X connect 4 0 3 0;
#X connect 5 0 13 0;
#X connect 5 1 3 0;
#X connect 5 2 10 0;
#X connect 5 2 12 0;
#X connect 6 0 8 0;
#X connect 7 0 4 0;
#X connect 7 1 6 0;
#X connect 7 2 9 0;
#X connect 8 0 9 1;
#X connect 9 0 11 0;
#X connect 10 0 9 1;
#X connect 11 0 12 0;
#X connect 12 0 11 1;
#X connect 12 0 13 1;
#X connect 13 0 14 0;
#X connect 14 0 1 0;
#X restore 70 291 pd after=;
#X obj 70 311 hexsym2dec;
#N canvas 0 0 305 346 after= 0;
#X obj 27 11 inlet;
#X obj 27 319 outlet;
#X obj 27 32 list fromsymbol;
#X obj 46 85 list split 1;
#X obj 59 107 list;
#X obj 27 53 t b a b;
#X obj 118 161 sel 61;
#X obj 46 135 t b f f;
#X msg 118 182 1;
#X obj 85 204 spigot;
#X msg 144 182 0;
#X obj 85 229 list prepend;
#X obj 66 254 t a;
#X obj 27 278 list;
#X obj 27 299 list tosymbol;
#X text 163 162 '=';
#X connect 0 0 2 0;
#X connect 2 0 5 0;
#X connect 3 0 7 0;
#X connect 3 1 4 1;
#X connect 4 0 3 0;
#X connect 5 0 13 0;
#X connect 5 1 3 0;
#X connect 5 2 10 0;
#X connect 5 2 12 0;
#X connect 6 0 8 0;
#X connect 7 0 4 0;
#X connect 7 1 6 0;
#X connect 7 2 9 0;
#X connect 8 0 9 1;
#X connect 9 0 11 0;
#X connect 10 0 9 1;
#X connect 11 0 12 0;
#X connect 12 0 11 1;
#X connect 12 0 13 1;
#X connect 13 0 14 0;
#X connect 14 0 1 0;
#X restore 136 291 pd after=;
#X obj 136 311 hexsym2dec;
#X obj 76 61 r \$1-make-boarddir;
#X connect 0 0 15 0;
#X connect 1 0 24 0;
#X connect 2 0 4 0;
#X connect 3 0 1 0;
#X connect 4 0 10 0;
#X connect 4 1 10 0;
#X connect 5 1 25 0;
#X connect 5 2 27 0;
#X connect 5 3 8 0;
#X connect 6 0 13 0;
#X connect 7 0 6 1;
#X connect 8 0 9 0;
#X connect 9 0 6 1;
#X connect 10 0 5 0;
#X connect 10 1 7 0;
#X connect 11 0 6 0;
#X connect 12 0 11 0;
#X connect 13 0 14 0;
#X connect 13 0 17 0;
#X connect 13 0 19 1;
#X connect 14 0 13 1;
#X connect 15 0 19 0;
#X connect 15 1 1 0;
#X connect 15 2 16 0;
#X connect 16 0 14 0;
#X connect 19 0 20 0;
#X connect 20 0 21 0;
#X connect 20 1 18 0;
#X connect 20 1 22 0;
#X connect 23 0 2 0;
#X connect 24 0 23 0;
#X connect 25 0 26 0;
#X connect 26 0 12 0;
#X connect 27 0 28 0;
#X connect 28 0 11 1;
#X connect 29 0 1 1;
#X restore 26 170 pd count_available_ram;
#N canvas 1178 195 495 695 count_used_memory 0;
#X obj 50 6 inlet;
#X obj 69 70 symbol;
#X obj 30 4 bng 15 250 50 0 empty empty empty 17 7 0 10 #fcfcfc #000000 #000000;
#X obj 116 296 +;
#X obj 145 296 f;
#X obj 50 27 t b b b;
#X msg 230 194 0;
#X floatatom 242 340 5 0 0 0 - - - 0;
#X obj 101 340 f;
#X obj 49 363 outlet;
#X msg 137 51 symbol \$1/\$2/\$2.map;
#X obj 228 288 +;
#X obj 257 288 f;
#X obj 213 341 f;
#X floatatom 129 342 5 0 0 0 - - - 0;
#X obj 101 363 s \$0-make-usedram;
#X obj 213 364 s \$0-make-usedrom;
#X obj 49 293 t b b b;
#X obj 98 399 r \$0-make-usedram;
#X obj 270 409 r \$0-make-usedrom;
#X obj 143 432 r \$0-make-totalram;
#X obj 98 460 pack f f;
#X obj 98 482 t a a;
#X obj 98 570 pack f f f;
#X obj 125 504 /;
#X obj 125 525 * 100;
#X obj 125 546 i;
#X obj 270 457 pack f f;
#X obj 270 479 t a a;
#X obj 270 567 pack f f f;
#X obj 297 501 /;
#X obj 297 522 * 100;
#X obj 297 543 i;
#X obj 191 649 list prepend;
#X obj 98 592 list prepend RAM;
#X obj 270 593 list prepend ROM;
#X floatatom 195 553 5 0 0 0 - - - 0;
#X obj 323 674 outlet;
#X obj 69 144 list split 1;
#X obj 69 212 sel udata code;
#X obj 104 187 list split 1;
#X obj 69 234 symbol;
#X obj 116 234 symbol;
#X obj 69 118 list split 1;
#X obj 103 165 list split 2;
#X obj 69 95 catfile;
#X obj 116 272 hexsym2dec;
#X obj 228 264 hexsym2dec;
#X obj 137 28 file splitname;
#X obj 137 7 r \$1-make-src;
#X obj 191 675 s \$2-Bootloader-snd;
#X obj 260 626 r \$1-make-fruitname;
#X obj 315 435 r \$0-make-memsize;
#X connect 0 0 5 0;
#X connect 1 0 45 0;
#X connect 2 0 5 0;
#X connect 3 0 4 0;
#X connect 3 0 8 1;
#X connect 4 0 3 1;
#X connect 5 0 17 0;
#X connect 5 1 1 0;
#X connect 5 2 6 0;
#X connect 6 0 4 0;
#X connect 6 0 12 0;
#X connect 8 0 14 0;
#X connect 8 0 15 0;
#X connect 10 0 1 1;
#X connect 11 0 12 0;
#X connect 11 0 13 1;
#X connect 12 0 11 1;
#X connect 13 0 7 0;
#X connect 13 0 16 0;
#X connect 17 0 9 0;
#X connect 17 1 8 0;
#X connect 17 2 13 0;
#X connect 18 0 21 0;
#X connect 19 0 27 0;
#X connect 20 0 21 1;
#X connect 21 0 22 0;
#X connect 22 0 23 0;
#X connect 22 1 24 0;
#X connect 23 0 34 0;
#X connect 24 0 25 0;
#X connect 25 0 26 0;
#X connect 26 0 23 2;
#X connect 26 0 36 0;
#X connect 27 0 28 0;
#X connect 28 0 29 0;
#X connect 28 1 30 0;
#X connect 29 0 35 0;
#X connect 30 0 31 0;
#X connect 31 0 32 0;
#X connect 32 0 29 2;
#X connect 33 0 37 0;
#X connect 33 0 50 0;
#X connect 34 0 33 0;
#X connect 35 0 33 0;
#X connect 38 0 39 0;
#X connect 38 1 44 0;
#X connect 39 0 41 0;
#X connect 39 1 42 0;
#X connect 40 0 41 1;
#X connect 40 0 42 1;
#X connect 41 0 46 0;
#X connect 42 0 47 0;
#X connect 43 1 38 0;
#X connect 44 1 40 0;
#X connect 45 0 43 0;
#X connect 46 0 3 0;
#X connect 47 0 11 0;
#X connect 48 0 10 0;
#X connect 49 0 48 0;
#X connect 51 0 33 1;
#X connect 52 0 27 1;
#X restore 608 452 pd count_used_memory;
#N canvas 1345 230 340 244 send_done_to_pd 0;
#X obj 33 15 inlet;
#X obj 60 105 list prepend add;
#X obj 60 126 list trim;
#X obj 33 178 outlet;
#X obj 33 39 t b b;
#X msg 60 82 echo make_done | to_pd \$1;
#X obj 60 148 s \$1-make-tobatch;
#X obj 60 61 v \$2-port;
#X connect 0 0 4 0;
#X connect 1 0 2 0;
#X connect 2 0 6 0;
#X connect 4 0 3 0;
#X connect 4 1 7 0;
#X connect 5 0 1 0;
#X connect 7 0 5 0;
#X restore 244 463 pd send_done_to_pd;
#N canvas 631 447 468 415 compile_modules 0;
#X obj 23 22 inlet;
#X obj 23 348 outlet finished;
#X obj 149 115 r \$0-make-objsdir;
#X obj 50 135 pack s s s, f 17;
#X obj 50 170 t a a, f 40;
#X text 306 175 mkdir;
#X obj 50 248 list prepend;
#X obj 119 225 r \$0-make-cflags;
#X obj 50 293 list prepend;
#X obj 119 270 r \$0-make-modules-includes;
#X msg 287 192 symbol \$3/\$2;
#X msg 50 199 -c "\$1/\$2.c" -o "\$3/\$2/\$2.o";
#X obj 50 319 s \$0-make-addcompile;
#X obj 50 86 text sequence \$0-modules;
#X msg 50 65 line 0 \, auto;
#X obj 23 44 t b b;
#X obj 50 112 file splitname;
#X obj 287 213 file mkdir;
#X connect 0 0 15 0;
#X connect 2 0 3 2;
#X connect 3 0 4 0;
#X connect 4 0 11 0;
#X connect 4 1 10 0;
#X connect 6 0 8 0;
#X connect 7 0 6 1;
#X connect 8 0 12 0;
#X connect 9 0 8 1;
#X connect 10 0 17 0;
#X connect 11 0 6 0;
#X connect 13 0 16 0;
#X connect 14 0 13 0;
#X connect 15 0 1 0;
#X connect 15 1 14 0;
#X connect 16 0 3 0;
#X restore 244 363 pd compile_modules;
#N canvas 808 423 281 257 test-if-worked 0;
#X obj 22 20 inlet;
#X obj 22 167 f;
#X obj 22 214 outlet ok;
#X obj 101 215 outlet failed;
#X obj 22 193 sel 1 0, f 27;
#X obj 22 101 symbol, f 7;
#X obj 22 123 file isfile;
#X floatatom 22 144 5 0 0 0 - - - 0;
#X msg 62 145 0;
#X msg 61 80 symbol \$1/\$2/\$2.map;
#X obj 22 45 t b;
#X obj 61 57 file splitname;
#X obj 61 37 r \$1-make-src;
#X connect 0 0 10 0;
#X connect 1 0 4 0;
#X connect 4 0 2 0;
#X connect 4 1 3 0;
#X connect 5 0 6 0;
#X connect 6 0 7 0;
#X connect 6 1 8 0;
#X connect 7 0 1 0;
#X connect 8 0 7 0;
#X connect 9 0 5 1;
#X connect 10 0 5 0;
#X connect 11 0 9 0;
#X connect 12 0 11 0;
#X restore 431 388 pd test-if-worked;
#X obj 431 409 bng 15 250 50 0 empty empty empty 17 7 0 10 #00fc04 #000000 #000000;
#X obj 752 424 bng 15 250 50 0 empty empty empty 17 7 0 10 #fc0400 #000000 #000000;
#N canvas 749 410 382 220 rm_mapfile_errfile 0;
#X obj 32 23 inlet;
#X obj 32 44 t b b;
#X obj 32 157 outlet;
#X obj 59 86 file splitname;
#X obj 59 131 file delete;
#X obj 59 65 symbol;
#X msg 59 109 symbol \$1/\$2/\$2.map \, symbol \$1/make.err;
#X obj 92 44 r \$1-make-src;
#X connect 0 0 1 0;
#X connect 1 0 2 0;
#X connect 1 1 5 0;
#X connect 3 0 6 0;
#X connect 5 0 3 0;
#X connect 6 0 4 0;
#X connect 7 0 5 1;
#X restore 244 340 pd rm_mapfile_errfile;
#N canvas 597 631 277 237 print_errfile 0;
#X obj 35 31 inlet;
#X obj 62 90 symbol;
#X msg 95 69 symbol \$1/make.err;
#X obj 62 158 print MAKE;
#X obj 35 53 t b b;
#X obj 35 189 outlet;
#X obj 82 24 bng 15 250 50 0 empty empty empty 17 7 0 10 #fcfcfc #000000 #000000;
#X obj 62 137 list trim;
#X obj 62 115 catfile;
#X obj 95 46 r \$1-make-src;
#X connect 0 0 4 0;
#X connect 1 0 8 0;
#X connect 2 0 1 1;
#X connect 4 0 5 0;
#X connect 4 1 1 0;
#X connect 6 0 1 0;
#X connect 7 0 3 0;
#X connect 8 0 7 0;
#X connect 9 0 2 0;
#X restore 431 365 pd print_errfile;
#X obj 752 472 print MAKE;
#X msg 752 449 ERROR : compilation failed !;
#X obj 458 583 print MAKE;
#X obj 431 538 t b b;
#X msg 458 561 cleaning...;
#X obj 752 544 print MAKE;
#X msg 752 522 cleaned.;
#X obj 431 431 t b b, f 30;
#X msg 608 478 compilation done;
#X obj 608 501 print MAKE;
#N canvas 40 486 240 264 add_bin_sdcc_path 0;
#X obj 32 36 inlet;
#X obj 59 90 symbol;
#X obj 32 144 outlet;
#X obj 92 70 r \$0-make-sdccpath;
#X obj 32 62 t b b;
#X obj 59 114 s \$1-make-addpath;
#X connect 0 0 4 0;
#X connect 1 0 5 0;
#X connect 3 0 1 1;
#X connect 4 0 2 0;
#X connect 4 1 1 0;
#X restore 244 316 pd add_bin_sdcc_path;
#X obj 431 515 spigot 1;
#X obj 476 495 tgl 15 0 empty empty empty 17 7 0 10 #fcfcfc #000000 #000000 0 1;
#N canvas 111 543 359 319 compile_crt 0;
#X obj 157 94 r \$0-make-objsdir;
#X obj 100 194 list prepend;
#X obj 169 171 r \$0-make-cflags;
#X obj 73 5 inlet;
#X obj 73 27 t b b;
#X obj 100 116 pack s s s;
#X msg 100 50 symbol crt0iz-rloc;
#X obj 73 272 outlet;
#X obj 100 225 s \$0-make-addcompile;
#X msg 100 145 -c "\$2/core/\$1.c" -o "\$3/crt.o";
#X obj 128 74 r \$0-picmodulesdir;
#X obj 193 269 print ----;
#X connect 0 0 5 2;
#X connect 1 0 8 0;
#X connect 2 0 1 1;
#X connect 3 0 4 0;
#X connect 4 0 7 0;
#X connect 4 1 6 0;
#X connect 5 0 9 0;
#X connect 6 0 5 0;
#X connect 9 0 1 0;
#X connect 9 0 11 0;
#X connect 10 0 5 1;
#X restore 244 385 pd compile_crt;
#X obj 476 474 == 0;
#X obj 752 498 r \$1-make-cleaned;
#N canvas 769 522 450 300 cd_srcdir 0;
#X obj 110 19 inlet;
#X obj 110 42 t b b;
#X obj 137 63 symbol;
#X obj 137 110 list prepend add;
#X obj 137 131 list trim;
#X msg 137 86 cd \$1;
#X obj 110 187 outlet;
#X obj 170 39 r \$1-make-src;
#X obj 137 153 s \$1-make-tobatch;
#X connect 0 0 1 0;
#X connect 1 0 6 0;
#X connect 1 1 2 0;
#X connect 2 0 5 0;
#X connect 3 0 4 0;
#X connect 4 0 8 0;
#X connect 5 0 3 0;
#X connect 7 0 2 1;
#X restore 26 346 pd cd_srcdir;
#N canvas 77 693 350 178 mkdir_objs 0;
#X obj 47 14 inlet;
#X obj 92 61 symbol;
#X obj 125 37 r \$0-make-objsdir;
#X obj 47 135 outlet;
#X obj 161 130 file delete;
#X msg 161 108 recursive \$1;
#X obj 92 106 file mkdir;
#X obj 92 84 t s s, f 12;
#X obj 47 40 t b b, f 8;
#X connect 0 0 8 0;
#X connect 1 0 7 0;
#X connect 2 0 1 1;
#X connect 5 0 4 0;
#X connect 7 0 6 0;
#X connect 7 1 5 0;
#X connect 8 0 3 0;
#X connect 8 1 1 0;
#X restore 26 370 pd mkdir_objs;
#N canvas 149 409 332 189 rm_mapfile_errfile 0;
#X obj 15 16 inlet;
#X obj 15 37 t b b;
#X obj 15 158 outlet;
#X obj 42 79 file splitname;
#X obj 42 124 file delete;
#X obj 42 58 symbol;
#X msg 42 102 symbol \$1/\$2/\$2.map \, symbol \$1/make.err;
#X obj 75 37 r \$1-make-src;
#X connect 0 0 1 0;
#X connect 1 0 2 0;
#X connect 1 1 5 0;
#X connect 3 0 6 0;
#X connect 5 0 3 0;
#X connect 6 0 4 0;
#X connect 7 0 5 1;
#X restore 26 413 pd rm_mapfile_errfile;
#N canvas 340 515 240 174 add_bin_sdcc_path 0;
#X obj 29 25 inlet;
#X obj 56 73 symbol;
#X obj 29 125 outlet;
#X obj 89 53 r \$0-make-sdccpath;
#X obj 29 51 t b b;
#X obj 56 97 s \$1-make-addpath;
#X connect 0 0 4 0;
#X connect 1 0 5 0;
#X connect 3 0 1 1;
#X connect 4 0 2 0;
#X connect 4 1 1 0;
#X restore 26 391 pd add_bin_sdcc_path;
#N canvas 115 457 340 225 send_done_to_pd 0;
#X obj 33 15 inlet;
#X obj 60 105 list prepend add;
#X obj 60 126 list trim;
#X obj 33 178 outlet;
#X obj 33 39 t b b;
#X msg 60 82 echo make_main_done | to_pd \$1;
#X obj 60 148 s \$1-make-tobatch;
#X obj 60 61 v \$2-port;
#X connect 0 0 4 0;
#X connect 1 0 2 0;
#X connect 2 0 6 0;
#X connect 4 0 3 0;
#X connect 4 1 7 0;
#X connect 5 0 1 0;
#X connect 7 0 5 0;
#X restore 26 459 pd send_done_to_pd;
#N canvas 733 365 402 414 compile_main 0;
#X obj 152 152 r \$0-make-objsdir;
#X obj 95 252 list prepend;
#X obj 164 229 r \$0-make-cflags;
#X obj 95 297 list prepend;
#X obj 164 274 r \$0-make-modules-includes;
#X obj 68 24 inlet;
#X obj 68 46 t b b;
#X obj 95 174 pack s s s;
#X obj 68 354 outlet;
#X obj 95 106 symbol;
#X obj 95 319 s \$0-make-addcompile;
#X msg 95 203 -c "\$2/main.c" -o "\$3/\$1.o";
#X obj 128 62 file splitname;
#X msg 128 83 symbol \$2;
#X obj 123 128 r \$1-make-src;
#X obj 128 39 r \$1-make-src;
#X connect 0 0 7 2;
#X connect 1 0 3 0;
#X connect 2 0 1 1;
#X connect 3 0 10 0;
#X connect 4 0 3 1;
#X connect 5 0 6 0;
#X connect 6 0 8 0;
#X connect 6 1 9 0;
#X connect 7 0 11 0;
#X connect 9 0 7 0;
#X connect 11 0 1 0;
#X connect 12 0 13 0;
#X connect 13 0 9 1;
#X connect 14 0 7 1;
#X connect 15 0 12 0;
#X restore 26 435 pd compile_main;
#N canvas 200 278 1138 473 findUserDefFuncs 0;
#X obj 30 26 inlet;
#X obj 57 100 symbol;
#X obj 76 196 bng 15 250 50 0 empty empty empty 17 7 0 10 #fcfcfc #000000 #000000;
#X obj 160 196 bng 15 250 50 0 empty empty empty 17 7 0 10 #fcfcfc #000000 #000000;
#X msg 90 78 symbol \$1/\$2/\$2-objs/\$2.asm;
#X obj 69 73 bng 15 250 50 0 empty empty empty 17 7 0 10 #fcfcfc #000000 #000000;
#X obj 57 145 list split 1;
#X obj 57 170 sel _EEdeclareMain: _lowInterrupts: _highInterrupts: _setup: _loop:, f 73;
#X obj 242 197 bng 15 250 50 0 empty empty empty 17 7 0 10 #fcfcfc #000000 #000000;
#X obj 331 199 bng 15 250 50 0 empty empty empty 17 7 0 10 #fcfcfc #000000 #000000;
#X obj 405 194 bng 15 250 50 0 empty empty empty 17 7 0 10 #fcfcfc #000000 #000000;
#X obj 535 196 bng 15 250 50 0 empty empty empty 17 7 0 10 #fcfcfc #000000 #000000;
#X obj 672 196 bng 15 250 50 0 empty empty empty 17 7 0 10 #fcfcfc #000000 #000000;
#X obj 813 193 bng 15 250 50 0 empty empty empty 17 7 0 10 #fcfcfc #000000 #000000;
#X obj 959 194 bng 15 250 50 0 empty empty empty 17 7 0 10 #fcfcfc #000000 #000000;
#X obj 525 173 sel _fraiseReceive: _fraiseReceiveBroadcast: _fraiseReceiveChar: _fraiseReceiveCharBroadcast:, f 95;
#X obj 55 391 s \$0-make-cflags;
#X obj 55 368 list append, f 14;
#X obj 136 345 r \$0-make-cflags;
#X msg 57 216 symbol UD_EE;
#X msg 144 217 symbol UD_LOW;
#X msg 231 218 symbol UD_HIGH;
#X msg 326 218 symbol UD_SETUP;
#X msg 427 218 symbol UD_LOOP;
#X msg 525 217 symbol UD_RCV;
#X msg 666 217 symbol UD_RCVB;
#X msg 808 216 symbol UD_RCVC;
#X msg 950 216 symbol UD_RCVCB;
#X obj 30 73 t b b;
#X obj 30 430 outlet;
#X obj 57 274 s \$0-userdefs_add_define;
#X obj 525 259 s \$0-userdefs_add_define;
#X obj 55 322 r \$0-userdefs_add_define;
#X msg 55 346 symbol -D\$1;
#X obj 57 121 catfile;
#X obj 90 56 file splitname;
#X obj 90 35 r \$1-make-src;
#X connect 0 0 28 0;
#X connect 1 0 34 0;
#X connect 4 0 1 1;
#X connect 5 0 1 0;
#X connect 6 0 7 0;
#X connect 7 0 2 0;
#X connect 7 0 19 0;
#X connect 7 1 3 0;
#X connect 7 1 20 0;
#X connect 7 2 8 0;
#X connect 7 2 21 0;
#X connect 7 3 9 0;
#X connect 7 3 22 0;
#X connect 7 4 10 0;
#X connect 7 4 23 0;
#X connect 7 5 15 0;
#X connect 15 0 11 0;
#X connect 15 0 24 0;
#X connect 15 1 12 0;
#X connect 15 1 25 0;
#X connect 15 2 13 0;
#X connect 15 2 26 0;
#X connect 15 3 14 0;
#X connect 15 3 27 0;
#X connect 17 0 16 0;
#X connect 18 0 17 1;
#X connect 19 0 30 0;
#X connect 20 0 30 0;
#X connect 21 0 30 0;
#X connect 22 0 30 0;
#X connect 23 0 30 0;
#X connect 24 0 31 0;
#X connect 25 0 31 0;
#X connect 26 0 31 0;
#X connect 27 0 31 0;
#X connect 28 0 29 0;
#X connect 28 1 1 0;
#X connect 32 0 33 0;
#X connect 33 0 17 0;
#X connect 34 0 6 0;
#X connect 35 0 4 0;
#X connect 36 0 35 0;
#X restore 244 217 pd findUserDefFuncs;
#N canvas 1221 415 262 278 test-if-worked 0;
#X obj 15 13 inlet;
#X obj 15 237 outlet ok;
#X obj 79 237 outlet failed;
#X obj 15 213 sel 1 0, f 22;
#X msg 48 97 symbol \$1/\$2/\$2-objs/\$2.asm;
#X obj 15 118 symbol;
#X msg 78 159 0;
#X obj 15 189 f;
#X obj 15 138 file isfile;
#X obj 48 72 file splitname;
#X obj 48 51 r \$1-make-src;
#X connect 0 0 5 0;
#X connect 3 0 1 0;
#X connect 3 1 2 0;
#X connect 4 0 5 1;
#X connect 5 0 8 0;
#X connect 6 0 7 0;
#X connect 7 0 3 0;
#X connect 8 0 7 0;
#X connect 8 1 6 0;
#X connect 9 0 4 0;
#X connect 10 0 9 0;
#X restore 244 178 pd test-if-worked;
#N canvas 232 429 249 232 print_errfile 0;
#X obj 37 29 inlet;
#X obj 64 88 symbol;
#X msg 97 67 symbol \$1/make.err;
#X obj 64 152 print MAKE;
#X obj 37 51 t b b;
#X obj 37 177 outlet;
#X obj 84 22 bng 15 250 50 0 empty empty empty 17 7 0 10 #fcfcfc #000000 #000000;
#X obj 64 131 list trim;
#X obj 64 109 catfile;
#X obj 97 44 r \$1-make-src;
#X connect 0 0 4 0;
#X connect 1 0 8 0;
#X connect 2 0 1 1;
#X connect 4 0 5 0;
#X connect 4 1 1 0;
#X connect 6 0 1 0;
#X connect 7 0 3 0;
#X connect 8 0 7 0;
#X connect 9 0 2 0;
#X restore 244 155 pd print_errfile;
#X obj 244 199 bng 15 250 50 0 empty empty empty 17 7 0 10 #00fc04 #000000 #000000;
#X obj 26 322 add_shebang \$0;
#X obj 244 266 add_shebang \$0;
#X obj 244 131 bng 17 250 50 0 empty empty empty 0 -9 0 10 #fcfcfc #000000 #000000;
#X obj 366 562 r \$0-clean;
#N canvas 502 572 450 300 clear_batch_and_clean 0;
#X obj 117 35 inlet;
#X obj 117 110 outlet;
#X msg 169 87 clear;
#X obj 222 85 s \$0-clean;
#X obj 117 59 t b b b, f 18;
#X obj 169 108 s \$1-make-tobatch;
#X connect 0 0 4 0;
#X connect 2 0 5 0;
#X connect 4 0 1 0;
#X connect 4 1 2 0;
#X connect 4 2 3 0;
#X restore 26 298 pd clear_batch_and_clean;
#N canvas 366 501 380 204 rmdir_objs 0;
#X obj 47 14 inlet;
#X obj 107 42 r \$0-make-objsdir;
#X obj 47 131 outlet;
#X obj 74 64 symbol;
#X obj 47 40 t b b;
#X obj 74 106 file delete;
#X msg 74 84 recursive \$1;
#X connect 0 0 4 0;
#X connect 1 0 3 1;
#X connect 3 0 6 0;
#X connect 4 0 2 0;
#X connect 4 1 3 0;
#X connect 6 0 5 0;
#X restore 431 603 pd rmdir_objs;
#N canvas 502 416 493 300 rm_mapfile_errfile_make_cod_lst_clean 0;
#X obj 65 28 inlet;
#X obj 65 49 t b b;
#X obj 65 205 outlet;
#X obj 92 70 symbol;
#X obj 92 134 file glob;
#X msg 92 92 \$1/*.map \, \$1/*.err \, \$1/*.lst \, \$1/*.cod \, \$1/make* \, \$1/clean*;
#X obj 92 113 symbol;
#X msg 92 155 symbol \$1;
#X obj 92 176 file delete;
#X obj 125 45 r \$1-make-src;
#X connect 0 0 1 0;
#X connect 1 0 2 0;
#X connect 1 1 3 0;
#X connect 3 0 5 0;
#X connect 4 0 7 0;
#X connect 5 0 6 0;
#X connect 6 0 4 0;
#X connect 7 0 8 0;
#X connect 9 0 3 1;
#X restore 431 623 pd rm_mapfile_errfile_make_cod_lst_clean;
#X text 21 533 First compile main.c \, so we can know which of the user-defined functions are used: setup() \, loop() \, receive funcs \, user interrupt routines \, eeprom variables registry., f 31;
#X obj 26 73 f;
#X obj 26 98 sel 0 1, f 28;
#X obj 119 123 s \$0-clean;
#X msg 729 315 list \$1.bat;
#X obj 729 294 symbol;
#X obj 638 293 symbol;
#X obj 26 14 inlet;
#X obj 707 156 select windows;
#X obj 707 132 r \$1-make-OS;
#X msg 707 178 1;
#X msg 788 178 0;
#X obj 638 203 list prepend;
#X obj 638 269 route 0 1, f 31;
#X obj 638 340 s \$1-make-launchbatch;
#X msg 638 314 list sh \$1.sh;
#X obj 638 90 pack s s;
#X msg 638 111 symbol \$2/\$1;
#X obj 683 66 r \$1-make-src;
#X msg 857 307 symbol \$1.sh;
#X msg 942 308 symbol \$1.bat;
#X msg 857 330 write \$1 cr;
#X obj 857 287 symbol;
#X obj 942 288 symbol;
#X obj 638 225 t a a, f 37;
#X obj 857 267 route 0 1, f 29;
#X obj 857 352 s \$1-make-tobatch;
#X text 869 249 save batch...;
#X text 659 250 then run it.;
#X obj 638 36 r \$0-run_batch_as;
#X obj 26 506 s \$0-run_batch_as;
#X msg 26 482 symbol make;
#X obj 244 510 s \$0-run_batch_as;
#X msg 244 486 symbol make;
#X obj 53 73 r \$1-make-is-clean;
#X obj 26 48 b;
#X obj 436 79 text define \$0-modules;
#X msg 436 58 clear;
#X obj 436 36 r \$1-make-init;
#X obj 436 155 s \$0-make-sdccpath;
#X msg 436 134 symbol \$1/bin;
#X obj 476 452 r \$2-dontclean-snd;
#X symbolatom 343 6 0 0 0 0 - - - 0;
#X obj 248 51 file normalize;
#X obj 248 74 s \$0-picmodulesdir;
#X msg 248 28 symbol \$1/pic;
#X obj 248 6 r \$1-fraisedir;
#X obj 431 341 r \$2-make-done;
#X obj 543 344 bng 18 250 50 0 empty empty empty 0 -9 0 10 #fcfcfc #000000 #000000;
#X obj 244 109 r \$2-make-main-done;
#X obj 749 700 list prepend add;
#X obj 749 721 list trim;
#X obj 749 645 list prepend sdcc;
#X obj 848 601 r \$0-make-sdccpath;
#X obj 749 581 r \$0-make-addcompile;
#X obj 749 675 list append;
#X msg 848 623 list \$1/sdcc --use-stdout;
#X msg 860 677 list >> make.err;
#X obj 860 654 r \$1-make-src;
#X obj 749 743 s \$1-make-tobatch;
#X symbolatom 438 250 24 0 0 0 - - - 0;
#X obj 438 279 s \$0-make-objsdir;
#X obj 438 204 file splitname;
#X msg 438 229 symbol \$1/\$2/\$2-objs;
#X obj 438 183 r \$1-make-src;
#X obj 436 112 r \$1-toolchain-path;
#X obj 847 57 symbol;
#X symbolatom 847 78 10 0 0 0 - - - 0;
#X obj 847 144 s \$0-make-appstart;
#X floatatom 847 123 5 0 0 0 - - - 0;
#X msg 917 121 0;
#X obj 1013 57 symbol;
#X symbolatom 1013 78 10 0 0 0 - - - 0;
#X floatatom 1013 168 5 0 0 0 - - - 0;
#X msg 1052 167 0;
#X obj 1013 189 s \$0-make-memsize;
#X obj 1013 144 -;
#X msg 1051 122 32;
#X obj 1051 145 * 64;
#X obj 1013 120 t f b;
#X obj 1013 98 hexsym2dec;
#X obj 847 100 hexsym2dec;
#X obj 848 14 r \$1-board_config;
#X obj 847 35 route APP_START MEM_SIZE, f 56;
#X obj 1078 167 r \$1-make-init;
#X obj 917 100 r \$1-make-init;
#X text 1009 207 minus bootloader_size=32*64;
#X connect 0 0 2 0;
#X connect 1 0 3 0;
#X connect 2 0 11 0;
#X connect 3 0 4 0;
#X connect 4 0 50 0;
#X connect 7 0 47 0;
#X connect 8 0 9 0;
#X connect 9 0 13 0;
#X connect 10 0 30 0;
#X connect 11 0 1 0;
#X connect 12 0 28 0;
#X connect 12 1 29 0;
#X connect 13 0 86 0;
#X connect 14 0 33 0;
#X connect 15 0 16 0;
#X connect 15 1 17 0;
#X connect 16 0 27 0;
#X connect 17 0 21 0;
#X connect 18 0 14 0;
#X connect 19 0 15 0;
#X connect 21 0 20 0;
#X connect 23 0 51 0;
#X connect 23 1 24 0;
#X connect 24 0 22 0;
#X connect 26 0 25 0;
#X connect 27 0 31 0;
#X connect 27 1 12 0;
#X connect 28 0 29 0;
#X connect 30 0 18 0;
#X connect 31 0 23 0;
#X connect 32 0 31 1;
#X connect 33 0 8 0;
#X connect 34 0 32 0;
#X connect 35 0 26 0;
#X connect 36 0 37 0;
#X connect 37 0 39 0;
#X connect 38 0 41 0;
#X connect 39 0 38 0;
#X connect 40 0 84 0;
#X connect 41 0 40 0;
#X connect 42 0 7 0;
#X connect 43 0 45 0;
#X connect 43 1 17 0;
#X connect 44 0 43 0;
#X connect 45 0 42 0;
#X connect 46 0 36 0;
#X connect 47 0 10 0;
#X connect 48 0 44 0;
#X connect 49 0 51 0;
#X connect 50 0 46 0;
#X connect 51 0 52 0;
#X connect 54 0 55 0;
#X connect 55 0 0 0;
#X connect 55 1 56 0;
#X connect 57 0 67 0;
#X connect 58 0 57 0;
#X connect 59 0 68 0;
#X connect 60 0 88 0;
#X connect 61 0 63 0;
#X connect 61 1 64 0;
#X connect 62 0 61 0;
#X connect 63 0 65 1;
#X connect 64 0 65 1;
#X connect 65 0 77 0;
#X connect 66 0 59 0;
#X connect 66 1 58 0;
#X connect 68 0 67 0;
#X connect 69 0 70 0;
#X connect 70 0 65 0;
#X connect 71 0 69 1;
#X connect 72 0 74 0;
#X connect 73 0 74 0;
#X connect 74 0 79 0;
#X connect 75 0 72 0;
#X connect 76 0 73 0;
#X connect 77 0 66 0;
#X connect 77 1 78 0;
#X connect 78 0 75 0;
#X connect 78 1 76 0;
#X connect 82 0 69 0;
#X connect 84 0 83 0;
#X connect 86 0 85 0;
#X connect 87 0 54 1;
#X connect 88 0 54 0;
#X connect 90 0 89 0;
#X connect 91 0 90 0;
#X connect 93 0 92 0;
#X connect 94 0 34 0;
#X connect 96 0 95 0;
#X connect 96 0 97 0;
#X connect 98 0 96 0;
#X connect 99 0 98 0;
#X connect 100 0 19 0;
#X connect 100 0 101 0;
#X connect 102 0 48 0;
#X connect 103 0 104 0;
#X connect 104 0 112 0;
#X connect 105 0 108 0;
#X connect 106 0 109 0;
#X connect 107 0 105 0;
#X connect 108 0 103 0;
#X connect 109 0 105 1;
#X connect 110 0 108 1;
#X connect 111 0 110 0;
#X connect 113 0 114 0;
#X connect 115 0 116 0;
#X connect 116 0 113 0;
#X connect 117 0 115 0;
#X connect 118 0 93 0;
#X connect 119 0 120 0;
#X connect 120 0 134 0;
#X connect 122 0 121 0;
#X connect 123 0 122 0;
#X connect 124 0 125 0;
#X connect 125 0 133 0;
#X connect 126 0 128 0;
#X connect 127 0 126 0;
#X connect 129 0 126 0;
#X connect 130 0 131 0;
#X connect 131 0 129 1;
#X connect 132 0 129 0;
#X connect 132 1 130 0;
#X connect 133 0 132 0;
#X connect 134 0 122 0;
#X connect 135 0 136 0;
#X connect 136 0 119 0;
#X connect 136 1 124 0;
#X connect 137 0 127 0;
#X connect 138 0 123 0;
