#N canvas 125 128 450 300 10;
#X obj 69 -37 inlet;
#X obj 69 109 msgfile;
#X obj 69 14 symbol;
#X obj 111 -18 r \$1-make-srcmain;
#X obj 69 39 pack s s;
#X obj 114 12 symbol \$2;
#X obj 69 -15 t b b;
#X obj 168 198 pack f s;
#X obj 168 142 t f b;
#X msg 168 220 \; \$2 \$1;
#X msg 168 120 0;
#X obj 213 175 symbol \$1-\$3;
#X msg 69 140 1;
#X obj 253 198 r \$1-\$3;
#X obj 253 220 outlet;
#X msg 69 67 read \$1 cr \, rewind \, find void \$2() \, find void
\$2(void) \, clear;
#X connect 0 0 6 0;
#X connect 1 0 12 0;
#X connect 2 0 4 0;
#X connect 3 0 2 1;
#X connect 4 0 15 0;
#X connect 5 0 4 1;
#X connect 6 0 2 0;
#X connect 6 1 5 0;
#X connect 6 1 10 0;
#X connect 7 0 9 0;
#X connect 8 0 7 0;
#X connect 8 1 11 0;
#X connect 10 0 8 0;
#X connect 11 0 7 1;
#X connect 12 0 8 0;
#X connect 13 0 14 0;
#X connect 15 0 1 0;
