#N canvas 311 19 512 468 10;
#X declare -path ggee;
#X declare -path comport;
#X declare -path extra;
#X declare -lib extra/comport;
#X declare -lib extra/shell -lib extra/system;
#X obj 22 46 cnv 10 150 53 empty \$0-stastocan-rcv empty 20 12 0 14 #000000 #000000 0;
#X obj 15 238 outlet;
#X obj 15 193 r \$0-pied;
#X obj 15 215 route actif;
#N canvas 1434 343 476 403 FromFraise 1;
#X obj 110 73 tgl 15 0 empty empty empty 17 7 0 10 #fcfcfc #000000 #000000 0 1;
#X obj 40 273 route UsbFraise;
#X symbolatom 50 321 10 0 0 0 - - - 0;
#X obj 40 342 s \$0-version;
#X obj 40 297 symbol;
#X obj 76 250 s \$0-piedID;
#X obj 113 228 s \$0-Fr2;
#X msg 113 206 \$1 present \$2;
#X obj 40 11 r \$0-piedraw-snd;
#X obj 205 113 s \$0-Fr2;
#X msg 149 185 \$1 wrerror 1;
#N canvas 779 283 776 539 totext_separe-system-data 0;
#X obj 67 22 inlet;
#X obj 67 45 sel 10;
#X obj 67 188 list trim;
#X obj 67 432 outlet system;
#X obj 67 340 route D;
#X obj 67 361 intern/hexa2dec;
#X floatatom 67 383 5 0 0 0 - - - 0;
#X msg 67 404 ID \$1;
#X msg 165 362 present \$1 0;
#X msg 269 363 present \$1 1;
#X obj 100 67 moses 32;
#X obj 145 87 moses 127;
#X obj 67 319 route I c C T, f 66;
#X msg 369 364 wrerror \$1;
#N canvas 585 521 445 453 num/string-toFruits 0;
#X obj 40 9 inlet;
#X obj 40 49 t a a, f 14;
#X obj 111 411 outlet;
#X obj 212 335 list append, f 17;
#X obj 212 311 - 128;
#X obj 40 29 list;
#X obj 121 69 list split 2;
#X obj 121 89 unpack s s;
#X obj 212 244 list split 2, f 35;
#X obj 212 265 unpack s s, f 15;
#X obj 67 228 list split 2;
#X obj 67 268 unpack s s, f 15;
#X obj 101 249 t a;
#X obj 40 199 t b a b, f 9;
#X obj 67 338 t a;
#X msg 167 291 list;
#X obj 67 315 list append;
#X obj 40 362 list, f 5;
#X obj 212 289 intern/hexa2dec;
#X obj 121 111 intern/hexa2dec;
#X obj 67 291 intern/hexa2dec;
#N canvas 562 336 275 266 chars2tolist 0;
#X obj 40 97 list split 1;
#X obj 121 96 list split 1;
#X obj 40 74 t a a, f 14;
#X obj 121 118 list fromsymbol;
#X obj 121 140 list prepend;
#X obj 121 161 t a;
#X obj 21 49 t b a b;
#X obj 21 183 list, f 17;
#X obj 21 27 inlet chars;
#X obj 21 229 outlet list;
#X obj 21 207 fudiparse;
#X connect 0 1 2 0;
#X connect 1 0 3 0;
#X connect 2 0 0 0;
#X connect 2 1 1 0;
#X connect 3 0 4 0;
#X connect 4 0 5 0;
#X connect 5 0 4 1;
#X connect 5 0 7 1;
#X connect 6 0 7 0;
#X connect 6 1 2 0;
#X connect 6 2 5 0;
#X connect 7 0 10 0;
#X connect 8 0 6 0;
#X connect 10 0 9 0;
#X restore 315 309 pd chars2tolist;
#X obj 40 154 list prepend 0;
#X obj 40 177 route 0 1, f 58;
#X obj 121 132 >= 128;
#X obj 229 391 print;
#X connect 0 0 5 0;
#X connect 1 0 22 0;
#X connect 1 1 6 0;
#X connect 3 0 2 0;
#X connect 4 0 3 0;
#X connect 5 0 1 0;
#X connect 6 0 7 0;
#X connect 7 0 19 0;
#X connect 7 1 19 1;
#X connect 8 0 9 0;
#X connect 8 1 21 0;
#X connect 9 0 18 0;
#X connect 9 1 18 1;
#X connect 10 0 11 0;
#X connect 10 1 12 0;
#X connect 11 0 20 0;
#X connect 11 1 20 1;
#X connect 12 0 10 0;
#X connect 13 0 17 0;
#X connect 13 1 10 0;
#X connect 13 2 15 0;
#X connect 14 0 16 1;
#X connect 14 0 17 1;
#X connect 15 0 14 0;
#X connect 16 0 14 0;
#X connect 17 0 2 0;
#X connect 18 0 4 0;
#X connect 19 0 24 0;
#X connect 20 0 16 0;
#X connect 21 0 3 1;
#X connect 22 0 23 0;
#X connect 23 0 13 0;
#X connect 23 1 8 0;
#X connect 24 0 22 1;
#X restore 118 234 pd num/string-toFruits;
#X obj 118 255 outlet Fr2;
#X obj 145 110 list tosymbol;
#X obj 111 158 t a;
#X obj 67 160 list;
#X obj 88 135 list prepend;
#X text 146 160 get line;
#X obj 165 342 intern/hexa2dec;
#X obj 269 343 intern/hexa2dec;
#X obj 369 343 intern/hexa2dec;
#X obj 487 263 t a;
#X obj 406 175 list split 1;
#X obj 487 174 list split 1;
#X obj 406 152 t a a, f 14;
#X obj 487 197 list fromsymbol;
#X obj 487 218 sel 32;
#X obj 487 241 list tosymbol;
#X obj 487 285 s \$0-bootmsgFrompied;
#X obj 512 103 route _;
#X obj 563 60 loadbang;
#X msg 563 81 32;
#X obj 563 102 list tosymbol;
#X obj 406 131 t a;
#X obj 617 265 spigot;
#X obj 661 267 tgl 15 0 empty empty empty 17 7 0 10 #fcfcfc #000000 #000000 0 1;
#X obj 617 287 print bootloaderMsg;
#N canvas 562 336 275 266 chars2tolist 0;
#X obj 40 97 list split 1;
#X obj 121 96 list split 1;
#X obj 40 74 t a a, f 14;
#X obj 121 118 list fromsymbol;
#X obj 121 140 list prepend;
#X obj 121 161 t a;
#X obj 21 49 t b a b;
#X obj 21 183 list, f 17;
#X obj 21 27 inlet chars;
#X obj 21 229 outlet list;
#X obj 21 207 fudiparse;
#X connect 0 1 2 0;
#X connect 1 0 3 0;
#X connect 2 0 0 0;
#X connect 2 1 1 0;
#X connect 3 0 4 0;
#X connect 4 0 5 0;
#X connect 5 0 4 1;
#X connect 5 0 7 1;
#X connect 6 0 7 0;
#X connect 6 1 2 0;
#X connect 6 2 5 0;
#X connect 7 0 10 0;
#X connect 8 0 6 0;
#X connect 10 0 9 0;
#X restore 467 344 pd chars2tolist;
#X obj 67 211 route s l;
#N canvas 562 336 275 266 chars2tolist 0;
#X obj 40 97 list split 1;
#X obj 121 96 list split 1;
#X obj 40 74 t a a, f 14;
#X obj 121 118 list fromsymbol;
#X obj 121 140 list prepend;
#X obj 121 161 t a;
#X obj 21 49 t b a b;
#X obj 21 183 list, f 17;
#X obj 21 27 inlet chars;
#X obj 21 229 outlet list;
#X obj 21 207 fudiparse;
#X connect 0 1 2 0;
#X connect 1 0 3 0;
#X connect 2 0 0 0;
#X connect 2 1 1 0;
#X connect 3 0 4 0;
#X connect 4 0 5 0;
#X connect 5 0 4 1;
#X connect 5 0 7 1;
#X connect 6 0 7 0;
#X connect 6 1 2 0;
#X connect 6 2 5 0;
#X connect 7 0 10 0;
#X connect 8 0 6 0;
#X connect 10 0 9 0;
#X restore 92 276 pd chars2tolist;
#X obj 92 297 s \$0-log;
#X obj 406 99 route x * b G;
#N canvas 562 336 275 274 chars2tolist 0;
#X obj 40 97 list split 1;
#X obj 121 96 list split 1;
#X obj 40 74 t a a, f 14;
#X obj 121 118 list fromsymbol;
#X obj 121 140 list prepend;
#X obj 121 161 t a;
#X obj 21 49 t b a b;
#X obj 21 183 list, f 17;
#X obj 21 27 inlet chars;
#X obj 21 251 outlet list;
#X obj 21 207 list tosymbol;
#X connect 0 1 2 0;
#X connect 1 0 3 0;
#X connect 2 0 0 0;
#X connect 2 1 1 0;
#X connect 3 0 4 0;
#X connect 4 0 5 0;
#X connect 5 0 4 1;
#X connect 5 0 7 1;
#X connect 6 0 7 0;
#X connect 6 1 2 0;
#X connect 6 2 5 0;
#X connect 7 0 10 0;
#X connect 8 0 6 0;
#X connect 10 0 9 0;
#X restore 616 172 pd chars2tolist;
#X obj 616 199 s \$0-gotName;
#X text 321 30 bootloader msg starts with either b \, x \, * or space., f 27;
#X text 321 58 Or 'G' followed by the name when queried with "V?", f 23;
#X symbolatom 631 221 22 0 0 0 - - - 0;
#X obj 631 241 bng 18 250 50 0 empty empty empty 0 -9 0 10 #fcfcfc #000000 #000000;
#X obj 67 89 t a b b;
#X connect 0 0 1 0;
#X connect 1 0 51 0;
#X connect 1 1 10 0;
#X connect 2 0 41 0;
#X connect 4 0 5 0;
#X connect 5 0 6 0;
#X connect 6 0 7 0;
#X connect 7 0 3 0;
#X connect 8 0 3 0;
#X connect 9 0 3 0;
#X connect 10 1 11 0;
#X connect 11 0 16 0;
#X connect 12 0 4 0;
#X connect 12 1 21 0;
#X connect 12 2 22 0;
#X connect 12 3 23 0;
#X connect 12 4 40 0;
#X connect 13 0 3 0;
#X connect 14 0 15 0;
#X connect 16 0 19 0;
#X connect 17 0 19 1;
#X connect 18 0 2 0;
#X connect 19 0 17 0;
#X connect 19 0 18 1;
#X connect 21 0 8 0;
#X connect 22 0 9 0;
#X connect 23 0 13 0;
#X connect 24 0 31 0;
#X connect 24 0 37 0;
#X connect 25 1 27 0;
#X connect 26 0 28 0;
#X connect 27 0 25 0;
#X connect 27 1 26 0;
#X connect 28 0 29 0;
#X connect 29 1 30 0;
#X connect 30 0 24 0;
#X connect 32 0 36 0;
#X connect 33 0 34 0;
#X connect 34 0 35 0;
#X connect 35 0 32 1;
#X connect 36 0 27 0;
#X connect 37 0 39 0;
#X connect 38 0 37 1;
#X connect 40 0 3 0;
#X connect 41 0 12 0;
#X connect 41 1 42 0;
#X connect 41 2 14 0;
#X connect 41 2 44 0;
#X connect 42 0 43 0;
#X connect 44 0 36 0;
#X connect 44 1 36 0;
#X connect 44 2 36 0;
#X connect 44 3 45 0;
#X connect 44 4 32 0;
#X connect 45 0 46 0;
#X connect 45 0 49 0;
#X connect 49 0 50 0;
#X connect 51 0 18 1;
#X connect 51 1 18 0;
#X connect 51 2 19 1;
#X restore 40 47 pd totext_separe-system-data;
#X obj 186 165 s \$0-echo;
#X obj 52 72 spigot 1;
#X obj 52 94 route Echo;
#X floatatom 170 265 5 0 0 0 - - - 0;
#X obj 109 114 s \$0-syslog;
#X obj 40 144 route V ID present wrerror Echo whoami;
#X obj 250 178 route usb_bootloader;
#X obj 250 306 s \$0-pied-rcv;
#X msg 250 282 runapp;
#X obj 250 258 spigot 1;
#X obj 295 208 r \$0-dont_runapp;
#X obj 295 236 == 0;
#X obj 328 235 sel 0;
#X obj 300 101 print ---;
#X connect 0 0 13 1;
#X connect 1 0 4 0;
#X connect 4 0 2 0;
#X connect 4 0 3 0;
#X connect 7 0 6 0;
#X connect 8 0 11 0;
#X connect 10 0 6 0;
#X connect 11 0 13 0;
#X connect 11 0 17 0;
#X connect 11 1 9 0;
#X connect 13 0 14 0;
#X connect 14 1 16 0;
#X connect 17 0 1 0;
#X connect 17 1 15 0;
#X connect 17 1 5 0;
#X connect 17 2 7 0;
#X connect 17 3 10 0;
#X connect 17 4 12 0;
#X connect 17 5 18 0;
#X connect 18 0 21 0;
#X connect 20 0 19 0;
#X connect 21 0 20 0;
#X connect 22 0 24 0;
#X connect 22 0 23 0;
#X connect 23 0 21 1;
#X connect 24 0 20 0;
#X restore 141 138 pd FromFraise;
#N canvas 400 447 860 485 ToFraise 0;
#X obj 33 6 r \$0-2Fr2;
#X obj 733 283 s \$0-Fr2;
#X msg 234 288 #S\$1;
#X msg 265 237 #C\$1;
#X text 95 195 Assign FruitName #n;
#X obj 90 215 unpack s f;
#X obj 90 257 pack s s;
#X msg 90 282 !N\$2\$1;
#X obj 264 432 s \$0-pied-rcv;
#X obj 33 58 route Boot;
#X obj 90 80 spigot 1;
#X obj 135 39 r \$0-bootloadermode;
#X obj 135 60 == 0;
#X obj 33 435 s \$0-Bootloader-rcv;
#X obj 33 31 spigot 1;
#X obj 98 26 tgl 15 0 empty empty empty 17 7 0 10 #fcfcfc #000000 #000000 0 1;
#X obj 145 10 print;
#X obj 147 237 intern/dec2hexa;
#X obj 265 216 intern/dec2hexa;
#X obj 234 266 intern/dec2hexa;
#X obj 555 244 + 128;
#X obj 555 267 intern/dec2hexa;
#X obj 555 220 list split 1;
#X obj 619 246 list split 1;
#X obj 555 289 list append;
#X msg 555 314 symbol \$1\$2;
#X obj 555 337 list append;
#X obj 389 263 list split 1;
#X obj 370 215 t b a b;
#X obj 400 243 t a;
#X obj 90 109 route Assign Select Deselect Out OutC Status, f 88;
#X obj 760 202 r \$0-pied;
#X obj 760 223 route actif;
#X msg 733 263 actif \$1;
#X obj 733 244 f, f 5;
#X obj 733 223 b;
#X obj 389 289 intern/dec2hexabytes;
#X obj 370 338 list, f 16;
#X obj 389 313 list append;
#X obj 465 313 t a;
#X obj 370 433 s \$0-piedbytes-rcv;
#X msg 552 382 !BHello;
#X msg 621 367 !b0001;
#X msg 624 391 !b1001;
#X connect 0 0 14 0;
#X connect 2 0 8 0;
#X connect 3 0 8 0;
#X connect 5 0 6 0;
#X connect 5 1 17 0;
#X connect 6 0 7 0;
#X connect 7 0 8 0;
#X connect 9 0 13 0;
#X connect 9 1 10 0;
#X connect 10 0 30 0;
#X connect 11 0 12 0;
#X connect 12 0 10 1;
#X connect 14 0 9 0;
#X connect 15 0 14 1;
#X connect 17 0 6 1;
#X connect 18 0 3 0;
#X connect 19 0 2 0;
#X connect 20 0 21 0;
#X connect 21 0 24 0;
#X connect 22 0 20 0;
#X connect 22 1 23 0;
#X connect 23 0 24 1;
#X connect 23 1 26 1;
#X connect 24 0 25 0;
#X connect 25 0 26 0;
#X connect 26 0 8 0;
#X connect 27 0 36 0;
#X connect 27 1 29 0;
#X connect 28 0 37 0;
#X connect 28 1 27 0;
#X connect 28 2 39 0;
#X connect 29 0 27 0;
#X connect 30 0 5 0;
#X connect 30 1 19 0;
#X connect 30 2 18 0;
#X connect 30 3 28 0;
#X connect 30 4 22 0;
#X connect 30 5 35 0;
#X connect 31 0 32 0;
#X connect 32 0 34 1;
#X connect 33 0 1 0;
#X connect 34 0 33 0;
#X connect 35 0 34 0;
#X connect 36 0 38 0;
#X connect 37 0 40 0;
#X connect 38 0 39 0;
#X connect 39 0 38 1;
#X connect 39 0 37 1;
#X connect 41 0 8 0;
#X connect 42 0 8 0;
#X connect 43 0 8 0;
#X restore 141 160 pd ToFraise;
#N canvas 497 171 360 233 SetID 0;
#X msg 148 23 1;
#X msg 179 23 2;
#X msg 211 23 3;
#X msg 243 23 4;
#X obj 167 108 s \$0-pied-rcv;
#X obj 79 24 r \$0-setID;
#X obj 167 68 intern/dec2hexa;
#X obj 121 129 r \$0-piedID;
#X obj 106 151 f;
#X obj 79 46 t f b;
#X msg 106 172 \$1 actif 0;
#X obj 106 193 s Fr2;
#X msg 167 87 #UNLOCK \, #W\$1 \, #R;
#X connect 0 0 6 0;
#X connect 1 0 6 0;
#X connect 2 0 6 0;
#X connect 3 0 6 0;
#X connect 5 0 9 0;
#X connect 6 0 12 0;
#X connect 7 0 8 1;
#X connect 8 0 10 0;
#X connect 9 0 6 0;
#X connect 9 1 8 0;
#X connect 10 0 11 0;
#X connect 12 0 4 0;
#X restore 15 148 pd SetID;
#X obj 21 72 cnv 10 120 10 empty \$0-devcan empty 2 7 1 10 #000000 #000000 0;
#N canvas 221 543 706 397 comport 0;
#X msg 155 213 close;
#X obj 155 128 sel 0 1, f 14;
#X obj 155 45 tgl 30 0 empty empty empty 17 7 0 10 #00fc04 #000000 #000000 0 1;
#X obj 391 76 list prepend print;
#X obj 391 98 list trim;
#X obj 391 8 r \$0-pied-rcv;
#X obj 391 120 t b a;
#X obj 391 141 10;
#X obj 155 365 s \$0-piedraw-snd;
#X obj 391 30 spigot 1;
#X msg 287 191 pollintervall 1;
#X obj 217 44 loadbang;
#X obj 194 285 route open;
#X msg 84 104 info;
#X obj 177 309 tgl 15 0 empty empty empty 17 7 0 10 #fcfcfc #000000 #000000 0 1;
#X obj 84 37 loadbang;
#X obj 106 59 bng 15 250 50 0 empty empty empty 17 7 0 10 #fcfcfc #000000 #000000;
#X msg 269 314 set -1;
#X obj 194 336 s \$0-opened;
#X obj 194 316 change -1;
#N canvas 1100 231 475 393 outrate 0;
#X obj 136 130 t b b;
#X obj 150 159 i;
#X obj 179 161 + 1;
#X obj 36 44 inlet;
#X obj 208 198 i;
#X obj 214 59 metro 200;
#X obj 214 81 t b b;
#X msg 214 105 0;
#X obj 216 31 loadbang;
#X obj 208 248 * 5;
#X obj 181 41 bng 15 250 50 0 empty empty empty 17 7 0 10 #fcfcfc #000000 #000000;
#X obj 208 316 s \$0-outrate;
#X obj 36 129 list split 1;
#X obj 70 149 t a;
#X obj 36 200 list fromsymbol;
#X obj 36 222 list split 1;
#X obj 70 242 t a;
#X obj 208 221 intern/m_mavg 10;
#X obj 36 172 route symbol;
#X obj 208 294 change;
#X obj 208 271 i;
#X connect 0 0 1 0;
#X connect 1 0 2 0;
#X connect 1 0 4 1;
#X connect 2 0 1 1;
#X connect 3 0 12 0;
#X connect 4 0 17 0;
#X connect 5 0 6 0;
#X connect 6 0 7 0;
#X connect 6 1 4 0;
#X connect 7 0 1 0;
#X connect 8 0 5 0;
#X connect 9 0 20 0;
#X connect 10 0 5 0;
#X connect 12 0 18 0;
#X connect 12 1 13 0;
#X connect 13 0 12 0;
#X connect 14 0 15 0;
#X connect 15 0 0 0;
#X connect 15 1 16 0;
#X connect 16 0 15 0;
#X connect 17 0 9 0;
#X connect 18 0 14 0;
#X connect 18 1 0 0;
#X connect 19 0 11 0;
#X connect 20 0 19 0;
#X restore 458 101 pd outrate;
#N canvas 24 430 450 345 inrate 0;
#X obj 136 130 t b b;
#X obj 150 159 i;
#X obj 179 161 + 1;
#X obj 136 73 inlet;
#X obj 211 200 i;
#X obj 214 59 metro 200;
#X obj 214 81 t b b;
#X msg 214 105 0;
#X obj 214 31 loadbang;
#X obj 211 243 * 5;
#X floatatom 147 287 5 0 0 0 - - - 0;
#X obj 181 41 bng 15 250 50 0 empty empty empty 17 7 0 10 #fcfcfc #000000 #000000;
#X obj 211 314 s \$0-inrate;
#X obj 211 222 intern/m_mavg 10;
#X obj 211 267 i;
#X obj 211 291 change;
#X connect 0 0 1 0;
#X connect 1 0 2 0;
#X connect 1 0 4 1;
#X connect 2 0 1 1;
#X connect 3 0 0 0;
#X connect 4 0 13 0;
#X connect 5 0 6 0;
#X connect 6 0 7 0;
#X connect 6 1 4 0;
#X connect 7 0 1 0;
#X connect 8 0 5 0;
#X connect 9 0 14 0;
#X connect 11 0 5 0;
#X connect 13 0 9 0;
#X connect 14 0 15 0;
#X connect 15 0 12 0;
#X restore 89 307 pd inrate;
#X obj 450 30 tgl 15 0 empty empty empty 17 7 0 10 #fcfcfc #000000 #000000 0 1;
#X obj 155 189 t b b;
#X msg 262 285 0;
#X obj 277 349 tgl 15 0 empty empty empty 17 7 0 10 #fcfcfc #000000 #000000 0 1;
#X obj 155 262 comport;
#X obj 155 18 r \$0-comport-on-snd;
#X obj 391 51 list;
#X obj 600 8 r \$0-pied-rcv;
#X obj 651 62 tgl 15 0 empty empty empty 17 7 0 10 #fcfcfc #000000 #000000 0 1;
#X obj 600 51 print;
#X obj 84 83 metro 100;
#X obj 228 149 r \$0-devname;
#X obj 195 170 symbol;
#X msg 195 191 devicename \$1;
#X obj 391 162 t a;
#X obj 155 84 && 1;
#X obj 255 69 r \$0-comport-pause;
#X obj 255 90 == 0;
#X obj 188 84 t b f;
#X obj 600 30 spigot 0;
#X obj 478 8 r \$0-piedbytes-rcv;
#X msg 75 228 devices;
#X obj 122 128 tgl 18 0 empty empty empty 0 -9 0 10 #fcfcfc #000000 #000000 0 1;
#X obj 532 145 route runapp reboot;
#X obj 532 168 b;
#X obj 575 234 del 1200;
#X msg 532 257 1;
#X msg 575 257 0;
#X obj 532 280 s \$0-comport-pause;
#X obj 498 186 bng 18 250 50 0 empty empty empty 0 -9 0 10 #fcfcfc #000000 #000000;
#X obj 532 193 b;
#X obj 86 272 bng 18 250 50 0 empty empty empty 0 -9 0 10 #fcfcfc #000000 #000000;
#X obj 532 234 del 20;
#X connect 0 0 26 0;
#X connect 0 0 53 0;
#X connect 1 0 23 0;
#X connect 1 1 10 0;
#X connect 1 1 34 0;
#X connect 2 0 37 0;
#X connect 3 0 4 0;
#X connect 4 0 6 0;
#X connect 5 0 9 0;
#X connect 5 0 45 0;
#X connect 6 0 7 0;
#X connect 6 1 36 0;
#X connect 7 0 36 0;
#X connect 9 0 28 0;
#X connect 10 0 26 0;
#X connect 11 0 10 0;
#X connect 11 0 0 0;
#X connect 12 0 14 0;
#X connect 12 0 19 0;
#X connect 13 0 26 0;
#X connect 15 0 32 0;
#X connect 16 0 32 0;
#X connect 17 0 19 0;
#X connect 19 0 18 0;
#X connect 19 0 25 0;
#X connect 22 0 9 1;
#X connect 23 0 0 0;
#X connect 23 1 24 0;
#X connect 24 0 19 0;
#X connect 26 0 8 0;
#X connect 26 0 21 0;
#X connect 26 1 12 0;
#X connect 27 0 2 0;
#X connect 28 0 3 0;
#X connect 28 0 20 0;
#X connect 29 0 41 0;
#X connect 30 0 41 1;
#X connect 32 0 13 0;
#X connect 33 0 34 1;
#X connect 34 0 35 0;
#X connect 35 0 26 0;
#X connect 36 0 26 0;
#X connect 37 0 1 0;
#X connect 37 0 44 0;
#X connect 38 0 39 0;
#X connect 39 0 40 0;
#X connect 40 0 37 0;
#X connect 40 1 37 1;
#X connect 41 0 31 0;
#X connect 42 0 20 0;
#X connect 42 0 6 0;
#X connect 43 0 26 0;
#X connect 45 0 46 0;
#X connect 45 0 51 0;
#X connect 45 1 46 0;
#X connect 46 0 52 0;
#X connect 47 0 49 0;
#X connect 48 0 50 0;
#X connect 49 0 50 0;
#X connect 52 0 47 0;
#X connect 52 0 54 0;
#X connect 54 0 48 0;
#X restore 15 107 pd comport;
#X obj 21 61 cnv 10 80 10 empty \$0-piedvercan empty 2 7 1 10 #000000 #000000 0;
#N canvas 109 308 413 270 \$0-utils 0;
#X obj 4 3 cnv 16 370 260 empty empty Pieds\ detected: 20 12 0 14 #000000 #faff00 0;
#X obj 245 6 bng 16 250 50 0 \$0-find_pieds-snd \$0-find_pieds-rcv (update) -60 8 0 12 #fcfcfc #000000 #fcfcfc;
#X obj 11 212 tgl 16 0 \$0-dontclean-snd \$0-dontclean-rcv don't\ clean\ after\ compile\ (debug) 20 8 0 10 #606060 #faff00 #7c7c7c 0 1;
#X obj 9 51 intern/pieddev \$0 1;
#X obj 9 73 intern/pieddev \$0 2;
#X obj 9 95 intern/pieddev \$0 3;
#X obj 9 117 intern/pieddev \$0 4;
#X obj 9 139 intern/pieddev \$0 5;
#X obj 9 161 intern/pieddev \$0 6;
#X obj 9 183 intern/pieddev \$0 7;
#X obj 9 29 intern/pieddev \$0 0;
#X obj 297 6 tgl 16 0 \$0-manualselect \$0-manualselect manual 20 8 0 12 #fcfcfc #000000 #ffffff 0 1;
#X obj 11 232 tgl 16 0 \$0-dont_runapp \$0-dont_runapp don't\ runapp\ (in\ case\ your\ firmaware\ hangs...) 20 8 0 10 #606060 #faff00 #7c7c7c 0 1;
#X restore 195 64 pd \$0-utils;
#X obj 123 47 bng 15 250 50 0 \$0-showutils-snd \$0-showutils-rcv utils 17 7 0 10 #7c7c7c #faff00 #7c7c7c;
#N canvas 56 517 493 343 Fr2-interface 0;
#X obj 250 151 t a;
#X obj 25 27 r 2Fr2;
#X obj 250 222 s Fr2;
#X obj 25 168 s \$0-2Fr2;
#X obj 250 112 r \$0-Fr2;
#X obj 200 18 r \$0-piedID;
#X obj 88 27 r \$0-piedID;
#X obj 200 40 t f f;
#X msg 233 89 actif 1;
#X obj 200 65 sel -1;
#X obj 25 56 list split 1;
#X obj 25 143 list trim;
#X obj 25 120 list, f 5;
#X obj 250 201 list trim;
#X obj 25 98 sel \$1;
#X obj 250 176 list prepend \$1;
#X connect 0 0 15 0;
#X connect 1 0 10 0;
#X connect 4 0 0 0;
#X connect 5 0 7 0;
#X connect 7 0 9 0;
#X connect 8 0 0 0;
#X connect 9 1 8 0;
#X connect 10 0 14 0;
#X connect 10 1 12 1;
#X connect 11 0 3 0;
#X connect 12 0 11 0;
#X connect 13 0 2 0;
#X connect 14 0 12 0;
#X connect 15 0 13 0;
#X restore 15 128 pd Fr2-interface;
#N canvas 949 366 721 506 UI 0;
#X obj 253 269 change -1;
#X obj 253 223 r \$0-pied;
#X obj 253 245 route actif;
#N canvas 1071 199 387 325 canvascolor 0;
#X obj 15 13 inlet;
#X obj 15 37 sel 0 1 2;
#X obj 133 156 s \$0-piedvercan;
#X obj 15 156 s \$0-stastocan-rcv;
#X obj 15 104 t a;
#X obj 231 156 s \$0-devcan;
#X obj 59 282 s \$0-outrate-slider;
#X obj 184 281 s \$0-inrate-slider;
#X obj 59 239 t a;
#X msg 59 218 color \$1 \$1 \$1;
#X msg 15 74 color 22 13 22;
#X msg 181 218 color 0 11 22;
#X msg 114 74 color 15 13 21;
#X msg 213 75 color 14 13 21;
#X connect 0 0 1 0;
#X connect 1 0 10 0;
#X connect 1 1 12 0;
#X connect 1 2 13 0;
#X connect 4 0 2 0;
#X connect 4 0 3 0;
#X connect 4 0 5 0;
#X connect 8 0 7 0;
#X connect 8 0 6 0;
#X connect 9 0 8 0;
#X connect 10 0 4 0;
#X connect 10 0 9 0;
#X connect 11 0 8 0;
#X connect 12 0 4 0;
#X connect 12 0 11 0;
#X connect 13 0 4 0;
#X connect 13 0 11 0;
#X restore 253 345 pd canvascolor;
#X obj 26 16 r \$0-version;
#X obj 26 87 s \$0-piedvercan;
#X obj 564 94 r \$0-piedID;
#X obj 564 138 s \$0-piedIDcan;
#X obj 239 17 r \$0-showutils-snd;
#X obj 555 205 loadbang;
#X msg 555 225 set 1;
#X obj 555 246 s \$0-on-rcv;
#X obj 464 222 r \$0-on-snd;
#X obj 464 252 sel 0 1;
#X obj 464 343 s \$0-on-rcv;
#X msg 483 275 color 13 13 0 \, label on;
#X msg 464 308 color 1 1 2 \, label off;
#X obj 327 246 r \$0-bootloadermode;
#X obj 264 294 t b f;
#X obj 327 266 + 1;
#X obj 253 317 * 1;
#X msg 363 291 0;
#X obj 239 39 symbol pd-\$0-utils;
#X msg 239 63 \; \$1 vis 0 \; \$1 vis 1;
#X msg 564 115 label piedID:\\\ \$1;
#N canvas 944 99 512 265 pieds 0;
#X listbox 273 106 20 0 0 0 - - - 0;
#N canvas 663 226 344 133 \$0-set_id_dialog 0;
#X obj 4 2 cnv 16 330 25 empty empty Set\ Pied\ ID 80 12 0 25 #000000 #faff00 0;
#X obj 4 29 cnv 16 330 20 empty empty Do\ you\ want\ to\ set\ the\ ID\ of\ the\ Pied\ connected\ to: 10 12 0 10 #000000 #ffffff 0;
#X obj 4 51 cnv 16 330 20 empty \$0-set_id_dialog_devcan /dev/ttyACM0 20 12 0 12 #e0e0e0 #000000 0;
#X obj 4 73 cnv 16 330 20 empty empty empty 20 12 0 12 #000000 #000000 0;
#X obj 152 75 bng 16 250 50 0 \$0-set_id_dialog_no \$0-set_id_dialog_no NO 20 8 0 10 #fcfcfc #000000 #faff00;
#X obj 81 75 bng 16 250 50 0 \$0-set_id_dialog_yes \$0-set_id_dialog_yes YES 20 8 0 10 #fcfcfc #000000 #faff00;
#X restore 205 210 pd \$0-set_id_dialog;
#X msg 202 141 vis 1;
#X obj 202 163 s pd-\$0-set_id_dialog;
#X obj 336 163 s \$0-set_id_dialog_devcan;
#X obj 63 117 r \$0-set_id_dialog_no;
#X msg 63 136 vis 0;
#X obj 18 91 r \$0-set_id_dialog_yes;
#X obj 18 214 s \$0-set_id_of_device;
#X obj 18 193 symbol, f 22;
#X msg 336 142 label \$1;
#X obj 202 98 t b s;
#X obj 202 72 r \$0-set_id_dialog_open;
#X obj 18 8 loadbang;
#X obj 18 29 f \$1;
#X obj 18 50 v \$0-wantedid;
#N canvas 0 0 788 774 olds 0;
#X obj 55 6 r \$0-update-piedsUI;
#X msg 213 68 1 \, 2 \, 3 \, 4 \, 5 \, 6 \, 7 \, 8;
#X obj 213 89 list prepend \$0;
#X obj 213 46 loadbang;
#X obj 55 68 text size \$0-pieds;
#X obj 55 45 t b b, f 24;
#X obj 55 89 t f b, f 7;
#X obj 55 110 until;
#X obj 55 131 i, f 7;
#X obj 107 131 + 1;
#X msg 94 111 0;
#X obj 55 173 text get \$0-pieds;
#X obj 55 152 t f f, f 20;
#X obj 27 23 bng 16 250 50 0 empty empty empty 0 -8 0 10 #fcfcfc #000000 #000000;
#X obj 55 194 list split 1;
#X obj 55 215 + 1;
#X obj 55 236 list append;
#X obj 55 258 list prepend \$0;
#X obj 55 363 list append 0;
#X obj 55 279 t a a, f 13;
#X msg 130 301 \$4;
#X obj 130 322 != \$1;
#X obj 130 343 * 11;
#X obj 425 33 r \$0-pied1-snd;
#X msg 425 54 1;
#X obj 454 53 r \$0-pied2-snd;
#X obj 484 73 r \$0-pied3-snd;
#X obj 513 93 r \$0-pied4-snd;
#X obj 543 114 r \$0-pied5-snd;
#X obj 572 134 r \$0-pied6-snd;
#X obj 602 154 r \$0-pied7-snd;
#X obj 631 174 r \$0-pied8-snd;
#X msg 454 74 2;
#X msg 484 94 3;
#X msg 513 114 4;
#X msg 543 135 5;
#X msg 572 155 6;
#X msg 602 175 7;
#X msg 631 195 8;
#X obj 513 214 f;
#X floatatom 468 238 5 0 0 0 - - - 0;
#X obj 513 235 - 1;
#X obj 513 256 text get \$0-pieds;
#X obj 513 276 route bang;
#X obj 570 298 t a a;
#X msg 597 318 \$3;
#X obj 597 339 != \$1;
#X obj 570 361 spigot;
#X msg 213 112 \; \$1-pied\$2-rcv label \; \$1-pied\$2-rcv label_pos 22 8 \; \$1-pied\$2-rcv color 22 22 22 \; \$1-pied\$2-rcv label_font 0 12;
#X obj 55 387 list append 0, f 20;
#X msg 55 412 \; \$1-pied\$6-rcv label Pied\\\ ID\\\ \$4\\\ (\$3) \; \$1-pied\$6-rcv color \$5 22 \$5;
#X obj 172 270 + 1;
#X msg 570 382 symbol \$2;
#X obj 570 403 s \$0-set_id_dialog_open;
#X obj 360 450 cnv 16 260 230 empty empty Pieds\ detected: 20 12 0 14 #202020 #faff00 0;
#X obj 383 491 bng 16 250 50 0 \$0-pied1-snd \$0-pied1-rcv empty 22 8 0 12 #000000 #000000 #000000;
#X obj 383 510 bng 16 250 50 0 \$0-pied2-snd \$0-pied2-rcv empty 22 8 0 12 #000000 #000000 #000000;
#X obj 383 529 bng 16 250 50 0 \$0-pied3-snd \$0-pied3-rcv empty 22 8 0 12 #000000 #000000 #000000;
#X obj 383 548 bng 16 250 50 0 \$0-pied4-snd \$0-pied4-rcv empty 22 8 0 12 #000000 #000000 #000000;
#X obj 383 567 bng 16 250 50 0 \$0-pied5-snd \$0-pied5-rcv empty 22 8 0 12 #000000 #000000 #000000;
#X obj 383 586 bng 16 250 50 0 \$0-pied6-snd \$0-pied6-rcv empty 22 8 0 12 #000000 #000000 #000000;
#X obj 383 605 bng 16 250 50 0 \$0-pied7-snd \$0-pied7-rcv empty 22 8 0 12 #000000 #000000 #000000;
#X obj 383 624 bng 16 250 50 0 \$0-pied8-snd \$0-pied8-rcv empty 22 8 0 12 #000000 #000000 #000000;
#X connect 1 0 2 0;
#X connect 2 0 48 0;
#X connect 3 0 1 0;
#X connect 4 0 6 0;
#X connect 5 0 4 0;
#X connect 5 1 1 0;
#X connect 6 0 7 0;
#X connect 6 1 10 0;
#X connect 7 0 8 0;
#X connect 8 0 9 0;
#X connect 8 0 12 0;
#X connect 9 0 8 1;
#X connect 10 0 8 1;
#X connect 11 0 14 0;
#X connect 12 0 11 0;
#X connect 12 1 51 0;
#X connect 13 0 5 0;
#X connect 14 0 15 0;
#X connect 14 1 16 1;
#X connect 15 0 16 0;
#X connect 16 0 17 0;
#X connect 17 0 19 0;
#X connect 18 0 49 0;
#X connect 19 0 18 0;
#X connect 19 1 20 0;
#X connect 20 0 21 0;
#X connect 21 0 22 0;
#X connect 22 0 18 1;
#X connect 23 0 24 0;
#X connect 24 0 39 0;
#X connect 25 0 32 0;
#X connect 26 0 33 0;
#X connect 27 0 34 0;
#X connect 28 0 35 0;
#X connect 29 0 36 0;
#X connect 30 0 37 0;
#X connect 31 0 38 0;
#X connect 32 0 39 0;
#X connect 33 0 39 0;
#X connect 34 0 39 0;
#X connect 35 0 39 0;
#X connect 36 0 39 0;
#X connect 37 0 39 0;
#X connect 38 0 39 0;
#X connect 39 0 40 0;
#X connect 39 0 41 0;
#X connect 41 0 42 0;
#X connect 42 0 43 0;
#X connect 43 1 44 0;
#X connect 44 0 47 0;
#X connect 44 1 45 0;
#X connect 45 0 46 0;
#X connect 46 0 47 1;
#X connect 47 0 52 0;
#X connect 49 0 50 0;
#X connect 51 0 49 1;
#X connect 52 0 53 0;
#X restore 389 20 pd olds;
#X connect 2 0 3 0;
#X connect 5 0 6 0;
#X connect 6 0 3 0;
#X connect 7 0 6 0;
#X connect 7 0 9 0;
#X connect 9 0 8 0;
#X connect 10 0 4 0;
#X connect 11 0 2 0;
#X connect 11 1 0 0;
#X connect 11 1 10 0;
#X connect 11 1 9 1;
#X connect 12 0 11 0;
#X connect 13 0 14 0;
#X connect 14 0 15 0;
#X restore 477 47 pd pieds;
#X obj 25 134 r \$0-devname;
#X obj 59 346 s \$0-devcan;
#X msg 59 323 label \$1;
#X obj 43 154 r \$0-pied;
#X obj 43 174 route actif;
#X obj 25 258 list split 0;
#X obj 43 195 == 0;
#X obj 25 236 symbol;
#X obj 43 215 t b f, f 9;
#X obj 59 278 route bang;
#X msg 59 299 symbol;
#X obj 119 16 loadbang;
#X msg 119 37 symbol;
#X obj 26 37 sel _, f 13;
#X obj 146 116 bng 16 250 50 0 empty empty empty 0 -8 0 10 #fcfcfc #000000 #000000;
#X msg 26 61 label;
#X obj 65 403 r \$0-outrate;
#X obj 65 465 s \$0-outrate-slider;
#X msg 85 432 label out:\$1;
#X obj 208 404 r \$0-inrate;
#X msg 228 433 label in:\$1;
#X obj 208 469 s \$0-inrate-slider;
#X msg 151 347 10000;
#X obj 91 381 s \$0-outrate;
#X obj 234 381 s \$0-inrate;
#X msg 101 60 label firmware:\\\ \$1;
#X msg 116 300 symbol device:\\\ \$1;
#X msg 142 194 symbol /dev/ttyUSBmodem005;
#X connect 0 0 20 0;
#X connect 1 0 2 0;
#X connect 2 0 0 0;
#X connect 4 0 39 0;
#X connect 6 0 24 0;
#X connect 8 0 22 0;
#X connect 9 0 10 0;
#X connect 9 0 15 0;
#X connect 9 0 21 0;
#X connect 10 0 11 0;
#X connect 12 0 13 0;
#X connect 13 0 16 0;
#X connect 13 1 15 0;
#X connect 15 0 14 0;
#X connect 16 0 14 0;
#X connect 17 0 19 0;
#X connect 18 0 20 0;
#X connect 18 1 20 1;
#X connect 19 0 18 0;
#X connect 20 0 3 0;
#X connect 21 0 3 0;
#X connect 22 0 23 0;
#X connect 24 0 7 0;
#X connect 26 0 33 0;
#X connect 28 0 27 0;
#X connect 29 0 30 0;
#X connect 30 0 32 0;
#X connect 31 1 35 0;
#X connect 32 0 34 0;
#X connect 33 0 31 0;
#X connect 34 0 33 0;
#X connect 34 1 31 1;
#X connect 35 0 36 0;
#X connect 35 1 52 0;
#X connect 36 0 28 0;
#X connect 37 0 38 0;
#X connect 38 0 39 1;
#X connect 39 0 41 0;
#X connect 39 1 51 0;
#X connect 41 0 5 0;
#X connect 42 0 43 0;
#X connect 42 0 44 0;
#X connect 44 0 43 0;
#X connect 45 0 46 0;
#X connect 45 0 47 0;
#X connect 46 0 47 0;
#X connect 48 0 49 0;
#X connect 48 0 50 0;
#X connect 51 0 5 0;
#X connect 52 0 28 0;
#X connect 53 0 52 0;
#X restore 15 168 pd UI;
#N canvas 290 773 495 183 interprete 0;
#X obj 68 21 inlet;
#X obj 68 124 s \$0-make-done;
#X msg 68 102 bang;
#X msg 150 71 bang;
#X obj 150 93 s \$0-make-cleaned;
#X obj 360 65 print;
#X msg 266 95 bang;
#X obj 266 117 s \$0-make-main-done;
#X obj 68 42 route make_done make_cleaned make_main_done pico;
#X obj 305 87 s \$0-pico-from-network;
#X connect 0 0 8 0;
#X connect 2 0 1 0;
#X connect 3 0 4 0;
#X connect 6 0 7 0;
#X connect 8 0 2 0;
#X connect 8 1 3 0;
#X connect 8 2 6 0;
#X connect 8 3 9 0;
#X connect 8 4 5 0;
#X restore 143 279 pd interprete;
#N canvas 806 203 560 372 tosystem 0;
#X obj 30 22 inlet tosystem;
#X obj 218 139 list prepend nohup;
#X obj 30 243 list trim;
#X obj 30 161 list append ";
#X obj 30 139 list prepend start bash -c ";
#X obj 30 90 intern/demux_os;
#X obj 30 281 shell;
#X connect 0 0 5 0;
#X connect 1 0 2 0;
#X connect 2 0 6 0;
#X connect 3 0 2 0;
#X connect 4 0 3 0;
#X connect 5 0 1 0;
#X connect 5 1 4 0;
#X connect 5 2 1 0;
#X restore 142 209 pd tosystem;
#N canvas 1443 110 444 261 Bootloader/Compiler 1;
#N canvas 1185 311 725 407 enter-boot-quit 1;
#X msg 123 204 0;
#X obj 123 225 s \$0-verified;
#X msg 199 157 !F\$1;
#X msg 88 151 V\$1;
#X obj 88 76 t s s;
#X obj 88 53 r \$0-enterbld;
#X obj 88 105 pipe s 100;
#X obj 279 62 r \$0-quitbld;
#X obj 85 310 sel V;
#X obj 85 355 s \$0-verified;
#X msg 85 333 1;
#X msg 279 89 A \, #F;
#X text 237 43 run device app \, quit pied bootload mode;
#X text 39 22 enter boot mode for device X;
#X text 43 36 then verify it's done;
#X obj 88 172 t a b;
#X obj 51 347 bng 15 250 50 0 empty empty empty 17 7 0 10 #fcfcfc #000000 #000000;
#X msg 183 82 symbol Lyre1;
#X obj 88 125 symbol;
#X obj 54 101 bng 15 250 50 0 empty empty empty 17 7 0 10 #fcfcfc #000000 #000000;
#X obj 199 136 symbol;
#X obj 199 113 bng 15 250 50 0 empty empty empty 17 7 0 10 #fcfcfc #000000 #000000;
#X obj 279 206 s \$0-pied-rcv;
#X msg 21 204 symbol Test;
#X obj 264 273 r \$0-verified;
#X obj 262 295 tgl 15 0 empty empty empty 17 7 0 10 #fcfcfc #000000 #000000 0 1;
#X obj 85 264 r \$0-bootmsgFrompied;
#X msg 373 133 !FE660B4400793632C;
#X msg 374 156 V?;
#X obj 344 347 s \$0-bootloadermode;
#X msg 351 313 1;
#X msg 383 312 0;
#X msg 403 243 !Ffruit1;
#X msg 394 178 VFE660B4400793632C;
#X msg 374 106 RENAME:fruit1;
#X msg 411 214 Vfruit1;
#X symbolatom 542 225 22 0 0 0 - - - 0;
#X obj 542 245 bng 18 250 50 0 empty empty empty 0 -9 0 10 #fcfcfc #000000 #000000;
#X obj 541 201 r \$0-gotName;
#X msg 233 242 symbol fruit1;
#X obj 494 306 t b b;
#X obj 497 270 bng 18 250 50 0 empty empty empty 0 -9 0 10 #fcfcfc #000000 #000000;
#X obj 494 349 del 100;
#X msg 183 356 v2 \, d1;
#X obj 183 332 spigot;
#X obj 228 332 tgl 18 0 empty empty dbg-bld 0 -9 0 10 #fcfcfc #000000 #000000 0 1;
#X msg 244 6 symbol fruit2;
#X obj 548 81 r \$0-on-snd;
#X obj 548 104 sel 0;
#X connect 0 0 1 0;
#X connect 2 0 22 0;
#X connect 3 0 15 0;
#X connect 4 0 6 0;
#X connect 4 1 20 0;
#X connect 5 0 4 0;
#X connect 6 0 18 0;
#X connect 7 0 11 0;
#X connect 8 0 10 0;
#X connect 8 0 16 0;
#X connect 8 0 44 0;
#X connect 10 0 9 0;
#X connect 11 0 0 0;
#X connect 11 0 22 0;
#X connect 15 0 22 0;
#X connect 15 1 0 0;
#X connect 17 0 3 0;
#X connect 18 0 3 0;
#X connect 19 0 18 0;
#X connect 20 0 2 0;
#X connect 21 0 20 0;
#X connect 23 0 3 0;
#X connect 24 0 25 0;
#X connect 26 0 8 0;
#X connect 27 0 22 0;
#X connect 28 0 22 0;
#X connect 30 0 29 0;
#X connect 31 0 29 0;
#X connect 32 0 22 0;
#X connect 33 0 22 0;
#X connect 34 0 22 0;
#X connect 35 0 15 0;
#X connect 36 0 37 0;
#X connect 38 0 36 0;
#X connect 39 0 20 0;
#X connect 40 0 42 0;
#X connect 40 1 39 0;
#X connect 41 0 40 0;
#X connect 42 0 35 0;
#X connect 43 0 22 0;
#X connect 44 0 43 0;
#X connect 45 0 44 1;
#X connect 46 0 4 0;
#X connect 47 0 48 0;
#X connect 48 0 31 0;
#X restore 232 17 pd enter-boot-quit;
#N canvas 65 417 717 562 sendfile 1;
#X obj 32 76 bng 15 250 50 0 empty empty program 17 7 0 10 #fc8000 #000000 #000000;
#X obj 70 343 t a b;
#X obj 363 125 sel X, f 21;
#X obj 517 281 print checksumerror;
#X obj 501 331 print DONE !;
#X obj 486 379 print unsupported-command;
#X obj 191 153 symbol;
#X obj 121 429 r \$0-msgtimeout-stop;
#X obj 412 97 s \$0-msgtimeout-stop;
#X msg 410 265 0;
#X msg 438 265 1;
#X msg 571 212 0;
#X msg 599 211 1;
#X msg 527 213 prev;
#X obj 570 191 r \$0-auto;
#X obj 396 244 r \$0-auto;
#X obj 486 147 sel u Y z l;
#X obj 533 170 print format-error;
#X obj 385 51 sel V;
#X obj 501 307 s \$0-DONE;
#X obj 32 96 del 100;
#X obj 98 108 s \$0-auto;
#X msg 98 73 1;
#X obj 131 49 r \$0-DONE;
#X msg 131 70 0;
#X obj 363 286 spigot;
#X obj 527 236 spigot;
#X obj 97 495 s \$0-msgtimeout;
#X msg 121 452 stop;
#X obj 363 191 del 0;
#X floatatom 121 345 5 0 0 0 - - - 0;
#X obj 121 386 /;
#X obj 121 406 outlet;
#X obj 224 132 r \$0-bootprogfile;
#X obj 32 23 r \$0-bootdoprogram;
#X obj 70 517 s \$0-pied-rcv;
#X obj 144 89 s \$0-msgtimeout-stop;
#X obj 162 70 bng 15 250 50 0 empty empty empty 17 7 0 10 #fcfcfc #000000 #000000;
#X obj 445 50 r \$0-auto;
#X obj 412 74 spigot;
#X obj 527 193 del 3;
#X obj 486 354 spigot 0;
#X text 543 355 silent 'u' error for now;
#X obj 363 25 r \$0-bootmsgFrompied;
#X obj 191 198 text define \$0-progtxt;
#X msg 191 175 read -c \$1;
#X obj 136 362 text size \$0-progtxt;
#X obj 27 235 route prev bang rewind;
#X msg 113 256 0;
#X obj 70 278 f, f 7;
#X obj 70 256 b;
#X obj 27 276 f;
#X obj 27 297 max 0;
#X obj 70 299 t f f, f 9;
#X obj 70 320 text get \$0-progtxt;
#X obj 122 278 + 1;
#X obj 27 214 r \$0-progtxt_ctl;
#X obj 32 176 s \$0-progtxt_ctl;
#X obj 363 308 s \$0-progtxt_ctl;
#X obj 527 258 s \$0-progtxt_ctl;
#X floatatom 182 398 5 0 0 0 - - - 0;
#X msg 365 461 prev;
#X obj 365 416 r \$0-msgtimeout;
#X msg 422 454 0;
#X msg 449 454 1;
#X obj 421 434 r \$0-auto;
#X obj 365 441 spigot;
#X obj 336 506 print timeout ! retry...;
#X obj 365 483 s \$0-progtxt_ctl;
#X msg 32 154 rewind \, bang;
#X obj 32 132 t b b b, f 27;
#X obj 296 49 print;
#X msg 233 321 v2;
#X obj 329 163 bng 18 250 50 0 empty empty empty 0 -9 0 10 #fcfcfc #000000 #000000;
#X obj 250 475 print;
#X obj 451 208 bng 18 250 50 0 empty empty empty 0 -9 0 10 #fcfcfc #000000 #000000;
#X msg 406 192 3;
#X obj 593 310 bng 18 250 50 0 empty empty empty 0 -9 0 10 #fcfcfc #000000 #000000;
#X obj 319 277 bng 18 250 50 0 empty empty empty 0 -9 0 10 #fcfcfc #000000 #000000;
#X obj 41 254 - 0;
#X obj 97 472 del 400;
#X obj 222 16 r \$0-on-snd;
#X obj 222 39 sel 0;
#X obj 385 151 bng 18 250 50 0 empty empty empty 0 -9 0 10 #fcfcfc #000000 #000000;
#X obj 336 240 bng 18 250 50 0 empty empty empty 0 -9 0 10 #fcfcfc #000000 #000000;
#X floatatom 37 358 5 0 0 0 - - - 0;
#X msg 188 257 446;
#X obj 16 331 bng 18 250 50 0 empty empty empty 0 -9 0 10 #fcfcfc #000000 #000000;
#X msg 219 256 447;
#X connect 0 0 20 0;
#X connect 1 0 35 0;
#X connect 1 1 80 0;
#X connect 2 0 29 0;
#X connect 2 0 83 0;
#X connect 2 1 16 0;
#X connect 6 0 45 0;
#X connect 7 0 28 0;
#X connect 9 0 25 1;
#X connect 10 0 25 1;
#X connect 11 0 26 1;
#X connect 12 0 26 1;
#X connect 13 0 26 0;
#X connect 14 0 26 1;
#X connect 15 0 25 1;
#X connect 16 0 41 0;
#X connect 16 0 75 0;
#X connect 16 0 29 0;
#X connect 16 1 19 0;
#X connect 16 2 3 0;
#X connect 16 2 40 0;
#X connect 16 3 17 0;
#X connect 18 1 39 0;
#X connect 20 0 70 0;
#X connect 22 0 21 0;
#X connect 23 0 24 0;
#X connect 23 0 36 0;
#X connect 24 0 21 0;
#X connect 25 0 58 0;
#X connect 26 0 59 0;
#X connect 28 0 80 0;
#X connect 29 0 25 0;
#X connect 29 0 84 0;
#X connect 30 0 31 0;
#X connect 31 0 32 0;
#X connect 33 0 6 1;
#X connect 34 0 0 0;
#X connect 34 0 22 0;
#X connect 37 0 36 0;
#X connect 38 0 39 1;
#X connect 39 0 8 0;
#X connect 40 0 13 0;
#X connect 41 0 5 0;
#X connect 43 0 2 0;
#X connect 43 0 18 0;
#X connect 45 0 44 0;
#X connect 46 0 31 1;
#X connect 46 0 60 0;
#X connect 47 0 51 0;
#X connect 47 1 50 0;
#X connect 47 2 48 0;
#X connect 48 0 49 1;
#X connect 49 0 53 0;
#X connect 49 0 55 0;
#X connect 49 0 79 0;
#X connect 50 0 49 0;
#X connect 51 0 52 0;
#X connect 52 0 49 0;
#X connect 53 0 54 0;
#X connect 53 1 30 0;
#X connect 54 0 1 0;
#X connect 55 0 49 1;
#X connect 56 0 47 0;
#X connect 61 0 68 0;
#X connect 62 0 66 0;
#X connect 63 0 66 1;
#X connect 64 0 66 1;
#X connect 65 0 66 1;
#X connect 66 0 61 0;
#X connect 66 0 67 0;
#X connect 69 0 57 0;
#X connect 70 0 69 0;
#X connect 70 1 46 0;
#X connect 70 2 6 0;
#X connect 72 0 35 0;
#X connect 73 0 29 0;
#X connect 76 0 29 1;
#X connect 77 0 19 0;
#X connect 78 0 58 0;
#X connect 79 0 51 1;
#X connect 80 0 27 0;
#X connect 81 0 82 0;
#X connect 82 0 24 0;
#X connect 86 0 49 0;
#X connect 87 0 51 0;
#X connect 88 0 49 0;
#X restore 231 39 pd sendfile;
#N canvas 831 412 452 306 debug_read-memory 0;
#X msg 4 133 r0800;
#X msg 41 135 r5870;
#X obj 152 101 + 5870;
#X msg 124 124 r\$1;
#X floatatom 157 79 5 0 0 0 - - - 0;
#X msg 13 166 A;
#X msg 160 58 8;
#X msg 160 126 r5880;
#X msg 172 144 r5F10;
#X obj 153 199 s \$0-fraise-rcv;
#X floatatom 79 49 5 0 0 0 - - - 0;
#X msg 84 19 8;
#X obj 73 95 + 800;
#X msg 76 115 r0\$1;
#X obj 120 22 hradio 15 1 0 16 empty empty empty 0 -8 0 10 #fcfcfc #000000 #000000 0;
#X obj 78 72 * 10;
#X msg 223 88 !b0122;
#X msg 223 111 811234;
#X msg 251 231 !N01Truc;
#X msg 263 157 Ebon;
#X obj 285 56 tgl 15 0 empty empty empty 17 7 0 10 #fcfcfc #000000 #000000 0 1;
#X obj 284 79 metro 1000;
#X obj 385 182 bng 15 250 50 0 empty empty empty 17 7 0 10 #fcfcfc #000000 #000000;
#X msg 337 56 200;
#X obj 287 111 tgl 15 0 empty empty empty 17 7 0 10 #fcfcfc #000000 #000000 0 1;
#X obj 279 133 sel 0 1;
#X msg 296 156 EAh;
#X msg 359 80 20;
#X connect 0 0 9 0;
#X connect 1 0 9 0;
#X connect 2 0 3 0;
#X connect 3 0 9 0;
#X connect 4 0 2 0;
#X connect 5 0 9 0;
#X connect 6 0 4 0;
#X connect 7 0 9 0;
#X connect 8 0 9 0;
#X connect 10 0 15 0;
#X connect 11 0 10 0;
#X connect 12 0 13 0;
#X connect 13 0 9 0;
#X connect 14 0 10 0;
#X connect 15 0 12 0;
#X connect 16 0 9 0;
#X connect 17 0 9 0;
#X connect 18 0 9 0;
#X connect 19 0 9 0;
#X connect 20 0 21 0;
#X connect 21 0 22 0;
#X connect 21 0 24 0;
#X connect 23 0 21 1;
#X connect 24 0 25 0;
#X connect 25 0 19 0;
#X connect 25 1 26 0;
#X connect 26 0 9 0;
#X connect 27 0 21 1;
#X restore 231 82 pd debug_read-memory;
#N canvas 787 395 407 325 rename/prefix 0;
#X obj 93 124 s \$0-fraise-rcv;
#X msg 201 106 !N10Mira;
#X msg 272 85 !N01Lyre2;
#X msg 206 84 !N01Truc;
#X msg 129 9 !N02Gratte1;
#X msg 35 13 RENAME:Gratte1;
#X msg 282 157 !B;
#X msg 93 34 RENAME:Truc;
#X msg 269 55 !N10Lyre1;
#X msg 118 73 PREFIX:;
#X msg 179 35 RENAME:Lyre1;
#X msg 196 196 RENAME:KE1;
#X msg 196 222 !N20KE1;
#X connect 1 0 0 0;
#X connect 2 0 0 0;
#X connect 3 0 0 0;
#X connect 4 0 0 0;
#X connect 5 0 0 0;
#X connect 6 0 0 0;
#X connect 7 0 0 0;
#X connect 8 0 0 0;
#X connect 9 0 0 0;
#X connect 10 0 0 0;
#X connect 11 0 0 0;
#X connect 12 0 0 0;
#X restore 232 102 pd rename/prefix;
#X obj 308 39 hsl 80 15 0 1 0 0 empty empty empty -2 -8 0 10 #fcfcfc #000000 #000000 0 1;
#X obj 11 18 r \$0-Bootloader-rcv;
#X obj 275 136 r \$0-Bootloader-snd;
#X obj 275 158 list prepend Boot;
#X obj 275 179 list trim;
#X obj 275 199 s \$0-Fr2;
#X obj 11 40 t a b;
#N canvas 465 196 644 654 rename 0;
#X obj 270 162 s \$0-bootloadermode;
#X msg 270 142 1;
#X obj 270 234 s \$0-enterbld;
#X obj 243 254 del 200;
#X obj 198 54 symbol;
#X obj 243 121 t s b;
#X obj 243 194 t b s;
#X msg 243 298 RENAME:\$1;
#X obj 243 275 symbol;
#X obj 281 215 s \$0-bootfruitname;
#X obj 289 275 r \$0-bootfruitname;
#X obj 408 304 r \$0-verified;
#X obj 408 326 sel 1;
#X obj 243 321 s \$0-pied-rcv;
#X obj 408 437 s \$0-Bootloader-snd;
#X obj 408 368 symbol;
#X obj 454 368 r \$0-bootfruitname;
#X obj 408 346 spigot;
#X msg 408 413 \$1 renamed;
#X msg 445 326 1;
#X msg 453 345 0;
#X obj 473 326 r \$0-bootloadermode;
#X obj 212 342 del 200;
#X obj 212 364 symbol;
#X obj 256 364 r \$0-bootfruitname;
#X obj 212 385 s \$0-enterbld;
#X msg 184 451 V\$1;
#X obj 184 472 s \$0-pied-rcv;
#X obj 184 409 del 200;
#X obj 184 429 symbol;
#X obj 228 429 r \$0-bootfruitname;
#X obj 159 497 del 200;
#X obj 87 438 b;
#X msg 155 258 stop;
#X obj 485 412 s \$0-quitbld;
#X obj 408 389 t s b;
#X msg 159 536 not responding. retrying...;
#X obj 217 314 b;
#X msg 106 196 stop;
#X obj 128 634 s \$0-Bootloader-snd;
#X obj 10 484 s \$0-quitbld;
#X msg 66 549 aborting !;
#X msg 72 505 \$1 rename_error;
#X obj 443 480 s \$0-bootloadermode;
#X msg 443 460 0;
#X obj 35 572 s \$0-bootloadermode;
#X msg 35 552 0;
#X msg 376 540 \$1 successful;
#X obj 507 273 tgl 15 0 empty empty empty 17 7 0 10 #fcfcfc #000000 #000000 0 1;
#X msg 290 474 VTest;
#X msg 349 469 Test;
#X obj 4 320 del 10000;
#X obj 106 169 r \$0-bootstoptimers;
#X obj 198 27 inlet;
#X obj 4 403 symbol;
#X obj 50 403 r \$0-bootfruitname;
#X obj 157 609 print;
#X obj 26 367 bng 15 250 50 0 empty empty empty 17 7 0 10 #fcfcfc #000000 #000000;
#X obj 4 447 t s b s;
#X obj 159 561 print fraise rename;
#X obj 198 87 sel pied;
#X obj 53 118 s \$0-Bootloader-snd;
#X msg 53 94 pied renamed;
#X obj 53 68 del 100;
#X text 235 25 (rename) Fruitname is_pied_fruit;
#X connect 1 0 0 0;
#X connect 3 0 8 0;
#X connect 3 0 51 0;
#X connect 4 0 60 0;
#X connect 5 0 6 0;
#X connect 5 1 1 0;
#X connect 6 0 3 0;
#X connect 6 1 2 0;
#X connect 6 1 9 0;
#X connect 6 1 19 0;
#X connect 7 0 13 0;
#X connect 8 0 7 0;
#X connect 8 0 37 0;
#X connect 10 0 8 1;
#X connect 11 0 12 0;
#X connect 11 0 48 0;
#X connect 12 0 17 0;
#X connect 15 0 35 0;
#X connect 16 0 15 1;
#X connect 17 0 15 0;
#X connect 17 0 20 0;
#X connect 17 0 33 0;
#X connect 17 0 38 0;
#X connect 18 0 14 0;
#X connect 19 0 17 1;
#X connect 20 0 17 1;
#X connect 21 0 20 0;
#X connect 22 0 23 0;
#X connect 22 0 28 0;
#X connect 23 0 25 0;
#X connect 24 0 23 1;
#X connect 26 0 27 0;
#X connect 28 0 29 0;
#X connect 28 0 31 0;
#X connect 29 0 26 0;
#X connect 30 0 29 1;
#X connect 31 0 32 0;
#X connect 31 0 36 0;
#X connect 32 0 8 0;
#X connect 33 0 22 0;
#X connect 33 0 28 0;
#X connect 33 0 31 0;
#X connect 35 0 18 0;
#X connect 35 0 47 0;
#X connect 35 1 34 0;
#X connect 35 1 44 0;
#X connect 36 0 59 0;
#X connect 37 0 22 0;
#X connect 38 0 33 0;
#X connect 38 0 3 0;
#X connect 38 0 51 0;
#X connect 41 0 59 0;
#X connect 42 0 39 0;
#X connect 44 0 43 0;
#X connect 46 0 45 0;
#X connect 47 0 59 0;
#X connect 49 0 27 0;
#X connect 50 0 23 0;
#X connect 51 0 33 0;
#X connect 51 0 54 0;
#X connect 52 0 38 0;
#X connect 53 0 4 0;
#X connect 54 0 58 0;
#X connect 55 0 54 1;
#X connect 57 0 54 0;
#X connect 58 1 40 0;
#X connect 58 1 41 0;
#X connect 58 1 46 0;
#X connect 58 2 42 0;
#X connect 60 0 63 0;
#X connect 60 1 5 0;
#X connect 62 0 61 0;
#X connect 63 0 62 0;
#X restore 11 209 pd rename;
#X obj 58 47 s \$0-bootstoptimers;
#N canvas 272 114 666 705 program 1;
#X obj 292 182 s \$0-bootloadermode;
#X msg 292 162 1;
#X obj 292 281 s \$0-enterbld;
#X obj 265 141 t s b;
#X obj 303 262 s \$0-bootfruitname;
#X obj 386 314 r \$0-verified;
#X obj 386 336 sel 1;
#X obj 464 555 s \$0-Bootloader-snd;
#X obj 464 486 symbol;
#X obj 510 486 r \$0-bootfruitname;
#X obj 386 356 spigot;
#X msg 423 336 1;
#X msg 431 355 0;
#X obj 451 336 r \$0-bootloadermode;
#X obj 559 530 s \$0-quitbld;
#X obj 464 507 t s b;
#X obj 216 276 b;
#X msg 133 184 stop;
#X obj 15 576 s \$0-Bootloader-snd;
#X obj 62 530 s \$0-quitbld;
#X obj 15 506 t s b;
#X obj 491 598 s \$0-bootloadermode;
#X msg 491 578 0;
#X obj 42 631 s \$0-bootloadermode;
#X msg 42 611 0;
#X obj 362 317 tgl 15 0 empty empty empty 17 7 0 10 #fcfcfc #000000 #000000 0 1;
#X obj 122 264 del 10000;
#X obj 133 157 r \$0-bootstoptimers;
#X obj 210 10 inlet;
#X obj 265 119 unpack s s;
#X obj 322 142 s \$0-bootprogfile;
#X obj 265 322 del 200;
#X obj 265 217 symbol;
#X msg 183 315 stop;
#X msg 15 552 \$1 program_error;
#X msg 464 531 \$1 programmed;
#X obj 265 578 symbol;
#X obj 298 557 r \$0-bootfruitname;
#X msg 284 634 \$1 not responding. retrying...;
#X obj 386 387 s \$0-bootdoprogram;
#X obj 308 431 spigot;
#X msg 345 411 1;
#X msg 353 430 0;
#X obj 308 389 r \$0-DONE;
#X obj 394 418 r \$0-bootloadermode;
#X msg 327 596 \$1 successfully programmed;
#X msg 204 447 stop;
#X obj 174 387 r \$0-bootstoptimers;
#X obj 204 496 t b b;
#X obj 15 481 symbol;
#X obj 48 460 r \$0-bootfruitname;
#X msg 147 608 aborting programming \$1!;
#X obj 537 395 bng 15 250 50 0 empty empty empty 17 7 0 10 #fcfcfc #000000 #000000;
#X obj 265 241 t b s b;
#X obj 204 523 s \$0-DONE;
#X obj 174 472 bng 15 250 50 0 empty empty empty 17 7 0 10 #fcfcfc #000000 #000000;
#X obj 468 144 r \$0-prog-progress;
#X obj 513 165 r \$0-bootfruitname;
#X obj 468 233 s \$0-Bootloader-snd;
#X obj 468 186 pack f s;
#X msg 468 209 \$2 prog_progress \$1;
#X obj 167 531 bng 15 250 50 0 empty empty empty 17 7 0 10 #fcfcfc #000000 #000000;
#X obj 204 474 del 60000;
#X obj 284 659 print fraise program;
#X obj 115 111 outlet;
#X text 261 11 (program) Fruitname HexFile is_pied_fruit;
#X obj 210 81 route 1 0, f 19;
#X msg 210 56 \$3 \$1 \$2 \$3;
#X obj 210 33 list;
#X connect 1 0 0 0;
#X connect 3 0 32 0;
#X connect 3 1 1 0;
#X connect 3 1 26 0;
#X connect 5 0 6 0;
#X connect 5 0 25 0;
#X connect 6 0 10 0;
#X connect 8 0 15 0;
#X connect 9 0 8 1;
#X connect 10 0 12 0;
#X connect 10 0 17 0;
#X connect 10 0 39 0;
#X connect 10 0 41 0;
#X connect 10 0 52 0;
#X connect 10 0 62 0;
#X connect 11 0 10 1;
#X connect 12 0 10 1;
#X connect 13 0 12 0;
#X connect 15 0 35 0;
#X connect 15 0 45 0;
#X connect 15 1 14 0;
#X connect 15 1 22 0;
#X connect 16 0 32 0;
#X connect 17 0 26 0;
#X connect 17 0 33 0;
#X connect 20 0 34 0;
#X connect 20 0 51 0;
#X connect 20 1 19 0;
#X connect 20 1 24 0;
#X connect 22 0 21 0;
#X connect 24 0 23 0;
#X connect 26 0 33 0;
#X connect 26 0 49 0;
#X connect 27 0 17 0;
#X connect 28 0 68 0;
#X connect 29 0 3 0;
#X connect 29 1 30 0;
#X connect 31 0 16 0;
#X connect 31 0 36 0;
#X connect 32 0 53 0;
#X connect 33 0 31 0;
#X connect 34 0 18 0;
#X connect 35 0 7 0;
#X connect 36 0 38 0;
#X connect 37 0 36 1;
#X connect 38 0 63 0;
#X connect 40 0 42 0;
#X connect 40 0 8 0;
#X connect 40 0 46 0;
#X connect 41 0 40 1;
#X connect 42 0 40 1;
#X connect 43 0 40 0;
#X connect 44 0 42 0;
#X connect 45 0 63 0;
#X connect 46 0 62 0;
#X connect 47 0 46 0;
#X connect 48 0 54 0;
#X connect 48 0 49 0;
#X connect 48 1 42 0;
#X connect 49 0 20 0;
#X connect 50 0 49 1;
#X connect 51 0 63 0;
#X connect 53 0 31 0;
#X connect 53 1 2 0;
#X connect 53 1 4 0;
#X connect 53 2 11 0;
#X connect 55 0 48 0;
#X connect 56 0 59 0;
#X connect 57 0 59 1;
#X connect 59 0 60 0;
#X connect 60 0 58 0;
#X connect 61 0 54 0;
#X connect 61 0 19 0;
#X connect 62 0 48 0;
#X connect 66 0 64 0;
#X connect 66 1 29 0;
#X connect 67 0 66 0;
#X connect 68 0 67 0;
#X restore 61 162 pd program;
#X obj 231 60 s \$0-prog-progress;
#X obj 11 69 route rename program make progboot;
#N canvas 296 475 518 290 progboot 0;
#X obj 51 18 inlet;
#X obj 51 60 t a b, f 12;
#X msg 51 86 symbol \$1;
#X text 196 129 SourcePath thisPath netPort;
#X text 86 17 (progboot) Fruitname SourcePath;
#X obj 51 173 outlet tosystem;
#X obj 184 199 bng 15 250 50 0 empty empty empty 17 7 0 10 #fcfcfc #000000 #000000;
#X obj 184 251 print Error progboot;
#X msg 184 223 sorry your OS is not supported yet.;
#X text 273 150 thisPath/progboot.sh SourcePath netPort;
#X obj 217 200 intern/demux_os;
#X msg 120 85 dir;
#X obj 120 106 pdcontrol;
#X obj 51 128 pack s s 41111, f 23;
#X obj 186 107 r \$0-port;
#X msg 51 150 bash \$2/bootloader/progboot.sh \$1 \$3;
#X connect 0 0 1 0;
#X connect 1 0 2 0;
#X connect 1 1 11 0;
#X connect 2 0 13 0;
#X connect 6 0 8 0;
#X connect 8 0 7 0;
#X connect 10 1 6 0;
#X connect 10 2 6 0;
#X connect 11 0 12 0;
#X connect 12 0 13 1;
#X connect 13 0 15 0;
#X connect 14 0 13 2;
#X connect 15 0 5 0;
#X restore 160 135 pd progboot;
#X obj 160 158 outlet tosystem;
#X obj 111 101 intern/MAKE \$0;
#X obj 61 187 ../../pico/sys/program \$0 \$1;
#X connect 1 0 4 0;
#X connect 1 0 14 0;
#X connect 5 0 10 0;
#X connect 6 0 7 0;
#X connect 7 0 8 0;
#X connect 8 0 9 0;
#X connect 10 0 15 0;
#X connect 10 1 12 0;
#X connect 13 0 19 0;
#X connect 15 0 11 0;
#X connect 15 1 13 0;
#X connect 15 2 18 0;
#X connect 15 3 16 0;
#X connect 16 0 17 0;
#X restore 142 189 pd Bootloader/Compiler;
#X text 2 9 usage: Fr2Pied num_serial_device unique_network_port;
#N canvas 691 518 1146 494 autoReconnect 1;
#X obj 128 43 r \$0-on-snd;
#X obj 128 446 s \$0-comport-on-snd;
#X obj 523 380 s \$0-pied-rcv;
#X obj 395 183 s \$0-version;
#X msg 395 161 symbol;
#X obj 368 63 r \$0-opened;
#X obj 368 85 sel 0 1;
#X msg 368 208 -1;
#X obj 368 231 s \$0-piedID;
#X obj 368 126 t b b;
#X msg 482 176 stop;
#X obj 452 94 bng 15 250 50 0 empty empty empty 17 7 0 10 #fcfcfc #000000 #000000;
#X obj 452 71 loadbang;
#X msg 523 201 1;
#X obj 523 227 metro 1000;
#X msg 482 200 0;
#X msg 997 267 actif 1;
#X msg 997 214 stop;
#X obj 1031 214 b;
#X obj 997 124 r \$0-version;
#X msg 1024 168 symbol;
#X obj 997 189 sel _;
#X msg 944 266 actif 0;
#X obj 1008 317 s \$0-pied;
#X obj 997 289 t a;
#X obj 997 338 s \$0-Fr2;
#X obj 761 89 r \$0-pied;
#X obj 761 111 route actif;
#X obj 761 135 tgl 15 0 empty empty empty 17 7 0 10 #fcfcfc #000000 #000000 0 1;
#X obj 761 155 metro 1000;
#X obj 847 197 del 800;
#X obj 847 136 r \$0-echo;
#X msg 847 156 stop;
#X obj 239 70 r \$0-pied;
#X obj 239 92 route actif;
#X obj 169 143 f;
#X obj 169 173 sel 0;
#X msg 128 415 0;
#X obj 169 106 metro 3000;
#X msg 136 173 stop;
#X obj 128 106 sel 0;
#X obj 222 207 bng 15 250 50 0 empty empty empty 17 7 0 10 #fcfcfc #000000 #000000;
#X msg 494 339 #R;
#X obj 578 112 r \$0-pied;
#X obj 578 134 route actif;
#X obj 578 156 sel 1;
#X msg 578 178 0;
#X obj 997 145 t s b;
#X obj 22 46 loadbang;
#X msg 22 89 0 \, 1;
#X obj 22 111 s \$0-on-rcv;
#X obj 22 68 del 10;
#X obj 847 341 s \$0-comport-on-snd;
#X msg 847 318 0;
#X text 24 17 1 : init;
#X text 126 18 2 : connect comport;
#X text 364 41 3 : get version and ID;
#X text 766 16 4 : send "actif" and start echo-watchdog. close comport if watchdog fires., f 41;
#X obj 761 245 s \$0-pied-rcv;
#X msg 761 223 #EsEcho;
#X obj 847 220 spigot 1;
#X obj 915 51 r \$0-bootloadermode;
#X obj 915 121 == 0;
#X obj 741 363 print fraise_system;
#X msg 741 339 pied timeout!;
#X obj 169 208 del 20;
#X obj 449 298 bng 16 250 50 0 empty empty empty 0 -8 0 10 #fcfcfc #000000 #000000;
#X obj 1057 266 bng 16 250 50 0 empty empty empty 0 -8 0 10 #fcfcfc #000000 #000000;
#X obj 523 179 del 20;
#X obj 169 292 s \$0-find_pieds-snd;
#X obj 166 348 b;
#X obj 166 390 spigot;
#X obj 128 72 t f f f;
#X obj 166 369 del 200;
#X obj 166 327 r \$0-devname;
#X obj 184 228 r \$0-manualselect;
#X obj 169 249 f;
#X obj 169 269 sel 0 1;
#X msg 166 415 0 \, 1;
#X obj 997 244 del 100;
#X floatatom 938 174 5 0 0 0 - - - 0;
#X obj 523 291 t b b, f 13;
#X msg 645 349 runapp;
#X obj 645 325 spigot 1;
#X obj 690 275 r \$0-dont_runapp;
#X obj 690 303 == 0;
#X obj 723 302 sel 0;
#X obj 598 213 r \$0-updating_fw;
#X obj 915 96 ||;
#X obj 941 96 t b f;
#X obj 941 74 r \$0-updating_fw;
#X obj 523 259 spigot 1, f 13;
#X obj 598 236 == 0;
#X obj 630 241 tgl 18 0 empty empty empty 0 -9 0 10 #fcfcfc #000000 #000000 0 1;
#X obj 761 189 spigot 1;
#X obj 239 140 ||;
#X obj 264 140 t b f;
#X obj 264 117 r \$0-updating_fw;
#X obj 20 206 s \$0-updating_fw;
#X msg 20 184 0;
#X obj 20 162 sel 1;
#X msg 523 339 #i \, #V \, #R \, whoami;
#X msg 366 395 whoami;
#X msg 420 338 #i;
#X connect 0 0 72 0;
#X connect 4 0 3 0;
#X connect 5 0 6 0;
#X connect 6 0 9 0;
#X connect 6 1 68 0;
#X connect 7 0 8 0;
#X connect 9 0 7 0;
#X connect 9 1 4 0;
#X connect 9 1 10 0;
#X connect 10 0 15 0;
#X connect 10 0 68 0;
#X connect 11 0 9 0;
#X connect 12 0 11 0;
#X connect 13 0 14 0;
#X connect 14 0 91 0;
#X connect 15 0 14 0;
#X connect 16 0 24 0;
#X connect 17 0 79 0;
#X connect 18 0 79 0;
#X connect 19 0 47 0;
#X connect 20 0 21 1;
#X connect 21 0 17 0;
#X connect 21 0 22 0;
#X connect 21 1 18 0;
#X connect 22 0 24 0;
#X connect 24 0 23 0;
#X connect 24 0 25 0;
#X connect 26 0 27 0;
#X connect 27 0 28 0;
#X connect 28 0 29 0;
#X connect 29 0 30 0;
#X connect 29 0 94 0;
#X connect 30 0 60 0;
#X connect 31 0 32 0;
#X connect 32 0 30 0;
#X connect 33 0 34 0;
#X connect 34 0 95 0;
#X connect 35 0 36 0;
#X connect 36 0 37 0;
#X connect 36 0 41 0;
#X connect 36 0 65 0;
#X connect 37 0 1 0;
#X connect 38 0 35 0;
#X connect 39 0 65 0;
#X connect 40 0 39 0;
#X connect 40 0 37 0;
#X connect 42 0 2 0;
#X connect 43 0 44 0;
#X connect 44 0 45 0;
#X connect 45 0 46 0;
#X connect 46 0 14 0;
#X connect 47 0 21 0;
#X connect 47 1 20 0;
#X connect 48 0 51 0;
#X connect 49 0 50 0;
#X connect 51 0 49 0;
#X connect 53 0 52 0;
#X connect 59 0 58 0;
#X connect 60 0 22 0;
#X connect 60 0 53 0;
#X connect 60 0 64 0;
#X connect 61 0 88 0;
#X connect 62 0 60 1;
#X connect 62 0 80 0;
#X connect 64 0 63 0;
#X connect 65 0 76 0;
#X connect 68 0 13 0;
#X connect 70 0 73 0;
#X connect 71 0 78 0;
#X connect 72 0 40 0;
#X connect 72 1 38 0;
#X connect 72 2 71 1;
#X connect 72 2 100 0;
#X connect 73 0 71 0;
#X connect 74 0 70 0;
#X connect 75 0 76 1;
#X connect 76 0 77 0;
#X connect 77 0 69 0;
#X connect 77 1 70 0;
#X connect 78 0 1 0;
#X connect 79 0 16 0;
#X connect 79 0 67 0;
#X connect 81 0 101 0;
#X connect 82 0 2 0;
#X connect 83 0 82 0;
#X connect 84 0 86 0;
#X connect 84 0 85 0;
#X connect 85 0 83 1;
#X connect 86 0 82 0;
#X connect 87 0 92 0;
#X connect 87 0 93 0;
#X connect 88 0 62 0;
#X connect 89 0 88 0;
#X connect 89 1 88 1;
#X connect 90 0 89 0;
#X connect 91 0 81 0;
#X connect 91 0 66 0;
#X connect 92 0 91 1;
#X connect 92 0 94 1;
#X connect 94 0 59 0;
#X connect 95 0 35 1;
#X connect 96 0 95 0;
#X connect 96 1 95 1;
#X connect 97 0 96 0;
#X connect 99 0 98 0;
#X connect 100 0 99 0;
#X connect 101 0 2 0;
#X connect 102 0 2 0;
#X connect 103 0 2 0;
#X restore 125 109 pd autoReconnect;
#N canvas 80 53 512 153 DECLARE-LIBS 0;
#X obj 31 45 declare -path ggee;
#X obj 31 64 declare -path comport;
#X obj 31 25 declare -path extra;
#X obj 181 65 declare -lib extra/comport;
#X obj 181 46 declare -lib extra/shell -lib extra/system;
#X restore 18 289 pd DECLARE-LIBS;
#N canvas 442 192 450 300 testBitRate 0;
#X obj 157 184 s \$0-pied-rcv;
#X msg 157 159 #ETESTSTRING;
#X obj 157 31 tgl 15 0 empty empty empty 17 7 0 10 #fcfcfc #000000 #000000 0 1;
#X obj 157 67 metro 10;
#X msg 221 26 1;
#X msg 343 26 10;
#X obj 157 129 until;
#X obj 157 107 f 10;
#X msg 249 27 2;
#X msg 313 26 5;
#X msg 282 25 4;
#X msg 302 73 3;
#X connect 1 0 0 0;
#X connect 2 0 3 0;
#X connect 3 0 7 0;
#X connect 4 0 3 1;
#X connect 5 0 3 1;
#X connect 6 0 1 0;
#X connect 7 0 6 0;
#X connect 8 0 3 1;
#X connect 9 0 3 1;
#X connect 10 0 3 1;
#X connect 11 0 3 1;
#X restore 195 82 pd testBitRate;
#X obj 143 258 netreceive;
#X floatatom 242 239 5 0 0 0 - - - 0;
#N canvas 914 363 335 293 auto-port 0;
#X obj 96 19 inlet number_connections;
#X obj 48 222 outlet tonetreceive;
#X msg 48 200 listen \$1;
#X obj 20 260 netsend;
#X msg 20 240 connect localhost \$1 \, disconnect;
#X obj 96 40 sel 1;
#X obj 20 137 i 41111, f 8;
#X obj 20 67 t b b;
#X obj 20 42 bng 16 250 50 0 empty empty empty 0 -8 0 10 #fcfcfc #000000 #000000;
#X obj 81 136 + 1;
#X obj 20 109 metro 10;
#X msg 20 88 1;
#X msg 96 62 0;
#X obj 77 180 outlet;
#X msg 81 110 41111;
#X obj 20 160 t f f f, f 10;
#X obj 20 20 loadbang;
#X obj 158 162 v \$0-port;
#X floatatom 158 183 5 0 0 0 - - - 0;
#X obj 158 141 bng 16 250 50 0 empty empty empty 0 -8 0 10 #fcfcfc #000000 #000000;
#X connect 0 0 5 0;
#X connect 2 0 1 0;
#X connect 4 0 3 0;
#X connect 5 0 12 0;
#X connect 6 0 9 0;
#X connect 6 0 15 0;
#X connect 7 0 11 0;
#X connect 7 1 14 0;
#X connect 8 0 7 0;
#X connect 9 0 6 1;
#X connect 10 0 6 0;
#X connect 11 0 10 0;
#X connect 12 0 10 0;
#X connect 14 0 6 1;
#X connect 15 0 4 0;
#X connect 15 1 2 0;
#X connect 15 2 13 0;
#X connect 16 0 8 0;
#X connect 17 0 18 0;
#X connect 19 0 17 0;
#X restore 143 239 pd auto-port;
#X obj 212 259 s \$0-port;
#X obj 163 346 spigot;
#X obj 207 347 tgl 15 0 empty empty empty 17 7 0 10 #fcfcfc #000000 #000000 0 1;
#X obj 19 348 spigot;
#X obj 63 350 tgl 15 0 empty empty empty 17 7 0 10 #fcfcfc #000000 #000000 0 1;
#X obj 19 328 r \$0-syslog;
#X obj 163 323 r \$0-bootmsgFrompied;
#X obj 20 391 r \$0-log;
#X obj 20 412 spigot;
#X obj 64 414 tgl 15 0 empty empty empty 17 7 0 10 #fcfcfc #000000 #000000 0 1;
#X obj 20 432 print fraise log;
#X obj 19 368 print fraise system;
#X obj 296 368 print fraise frombootloader;
#N canvas 731 57 822 737 find_device 0;
#X obj 346 166 loadbang;
#X msg 135 150 close \, ports;
#X obj 375 231 route ports;
#X obj 66 258 i;
#X msg 93 230 0;
#X obj 66 278 moses, f 12;
#X obj 93 258 + 1;
#X msg 66 187 1;
#X msg 135 299 0;
#X floatatom 12 305 5 0 0 0 - - - 0;
#X msg 373 402 1;
#X msg 401 402 2;
#X obj 336 427 sel \$1;
#X msg 244 565 failure... couldn't find pied ID \$1;
#X obj 244 470 b;
#X obj 244 544 f \$1;
#X msg 66 409 open \$1 \, print #R \, 10;
#X msg 135 475 close;
#X obj 135 433 b;
#X obj 336 209 comport;
#X obj 162 130 text define \$0-devices;
#X msg 162 110 clear;
#X obj 375 252 text insert \$0-devices 1e+06;
#X obj 135 89 t b b;
#X obj 336 148 r \$0-finddev-to_comport;
#X obj 135 171 s \$0-finddev-to_comport;
#X obj 66 507 s \$0-finddev-to_comport;
#X obj 66 161 t b b;
#X obj 66 363 text get \$0-devices;
#X obj 135 211 text size \$0-devices;
#X obj 66 66 t b b, f 12;
#X obj 42 35 bng 16 250 50 0 empty empty empty 0 -8 0 10 #fcfcfc #000000 #000000;
#X obj 336 453 list;
#X msg 336 478 success! device \$1: \$2;
#X obj 66 386 t a a, f 48;
#N canvas 8 64 261 329 decode_ID 0;
#X obj 18 9 inlet;
#X obj 18 30 sel 10;
#X obj 51 52 moses 32;
#X obj 96 72 moses 127;
#X obj 96 95 list tosymbol;
#X obj 55 144 t a;
#X obj 18 96 t b b;
#X obj 18 145 list;
#X msg 58 96 list;
#X obj 39 121 list prepend;
#X text 90 146 get line;
#X obj 18 192 route s;
#X obj 18 169 list trim;
#X obj 18 213 route I;
#X obj 18 235 route D;
#X obj 18 258 unpack s s, f 15;
#X obj 18 278 intern/hexa2dec;
#X floatatom 64 301 5 0 0 0 - - - 0;
#X obj 18 299 outlet;
#X connect 0 0 1 0;
#X connect 1 0 6 0;
#X connect 1 1 2 0;
#X connect 2 1 3 0;
#X connect 3 0 4 0;
#X connect 4 0 9 0;
#X connect 5 0 9 1;
#X connect 6 0 7 0;
#X connect 6 1 8 0;
#X connect 7 0 12 0;
#X connect 8 0 9 1;
#X connect 9 0 5 0;
#X connect 9 0 7 1;
#X connect 11 0 13 0;
#X connect 12 0 11 0;
#X connect 13 0 14 0;
#X connect 14 0 15 0;
#X connect 15 0 16 0;
#X connect 15 1 16 1;
#X connect 16 0 17 0;
#X connect 16 0 18 0;
#X restore 336 282 pd decode_ID;
#X obj 487 434 list prepend;
#X obj 66 338 t f f, f 78;
#X obj 174 257 text define \$0-pieds;
#X msg 174 235 clear;
#X obj 487 455 text insert \$0-pieds 1e+06;
#X obj 195 605 s \$0-update-piedsUI;
#X obj 66 38 r \$0-find_pieds-snd;
#X obj 208 36 loadbang;
#X obj 208 57 del 10;
#X obj 479 19 r \$0-set_id_of_device;
#X msg 500 39 symbol \$2;
#X obj 617 63 intern/dec2hexa;
#X obj 617 22 loadbang;
#X obj 617 43 f \$1;
#X obj 479 61 list append FF;
#X obj 676 22 bng 16 250 50 0 empty empty empty 0 -8 0 10 #fcfcfc #000000 #000000;
#X obj 479 108 s \$0-finddev-to_comport;
#X obj 356 55 b;
#X obj 356 119 s \$0-find_pieds-rcv;
#X msg 479 87 devicename \$1 \, print #UNLOCK \, 10 \, print #W\$2 \, print 10;
#X obj 356 76 del 150;
#X msg 415 75 close;
#X obj 356 98 t b b;
#X msg 346 187 close \, pollintervall 1;
#X obj 244 497 list prepend;
#X obj 244 521 sel 0 1, f 32;
#X msg 273 471 0;
#X msg 301 470 1;
#X obj 135 454 del 100;
#X obj 66 209 metro 100;
#X obj 338 669 symbol;
#X obj 338 691 s \$0-devname;
#X msg 371 650 symbol \$2;
#X obj 543 164 r \$0-listdevices-snd;
#X msg 543 186 devices;
#X obj 543 208 s \$0-finddev-to_comport;
#X obj 31 563 s \$0-comport-pause;
#X msg 31 541 1;
#X msg 63 541 0;
#X obj 338 632 spigot 1;
#X obj 383 590 r \$0-manualselect;
#X obj 383 611 == 0;
#X obj 336 499 s \$0-find_device_log;
#X connect 0 0 59 0;
#X connect 1 0 25 0;
#X connect 2 0 22 0;
#X connect 3 0 6 0;
#X connect 3 0 5 0;
#X connect 3 0 9 0;
#X connect 4 0 3 1;
#X connect 5 0 37 0;
#X connect 5 1 8 0;
#X connect 5 1 14 0;
#X connect 6 0 3 1;
#X connect 7 0 65 0;
#X connect 8 0 18 0;
#X connect 8 0 65 0;
#X connect 10 0 12 1;
#X connect 11 0 12 1;
#X connect 12 0 32 0;
#X connect 12 0 63 0;
#X connect 13 0 78 0;
#X connect 14 0 41 0;
#X connect 14 0 60 0;
#X connect 15 0 13 0;
#X connect 16 0 26 0;
#X connect 17 0 26 0;
#X connect 18 0 64 0;
#X connect 19 0 35 0;
#X connect 19 1 2 0;
#X connect 21 0 20 0;
#X connect 23 0 1 0;
#X connect 23 1 21 0;
#X connect 24 0 19 0;
#X connect 27 0 7 0;
#X connect 27 1 4 0;
#X connect 27 1 29 0;
#X connect 27 1 62 0;
#X connect 27 1 39 0;
#X connect 28 0 34 0;
#X connect 29 0 5 1;
#X connect 30 0 27 0;
#X connect 30 1 23 0;
#X connect 30 1 73 0;
#X connect 31 0 30 0;
#X connect 32 0 33 0;
#X connect 32 0 68 0;
#X connect 33 0 78 0;
#X connect 34 0 16 0;
#X connect 34 1 32 1;
#X connect 34 1 36 1;
#X connect 35 0 12 0;
#X connect 35 0 36 0;
#X connect 36 0 40 0;
#X connect 37 0 28 0;
#X connect 39 0 38 0;
#X connect 42 0 30 0;
#X connect 43 0 44 0;
#X connect 45 0 53 0;
#X connect 45 0 50 0;
#X connect 47 0 50 1;
#X connect 48 0 49 0;
#X connect 49 0 47 0;
#X connect 50 0 55 0;
#X connect 51 0 49 0;
#X connect 53 0 56 0;
#X connect 55 0 52 0;
#X connect 56 0 58 0;
#X connect 57 0 52 0;
#X connect 58 0 54 0;
#X connect 58 1 57 0;
#X connect 59 0 19 0;
#X connect 60 0 61 0;
#X connect 61 0 15 0;
#X connect 61 1 75 0;
#X connect 62 0 60 1;
#X connect 63 0 60 1;
#X connect 64 0 17 0;
#X connect 64 0 74 0;
#X connect 65 0 3 0;
#X connect 66 0 67 0;
#X connect 68 0 66 1;
#X connect 69 0 70 0;
#X connect 70 0 71 0;
#X connect 73 0 72 0;
#X connect 74 0 72 0;
#X connect 75 0 66 0;
#X connect 76 0 77 0;
#X connect 77 0 75 1;
#X restore 231 109 pd find_device;
#N canvas 597 371 330 367 old_utils 0;
#X obj 4 4 cnv 15 170 350 empty empty empty 20 12 0 14 #381804 #404040 0;
#X obj 10 9 bng 20 250 50 0 \$0-listdevices-snd \$0-listdevices-rcv list_serial_devices 22 10 0 12 #fcfcfc #000000 #fcfcfc;
#X obj 18 131 cnv 15 140 80 empty empty set_ID 20 10 0 14 #f8fc00 #404040 0;
#X msg 26 156 1;
#X msg 57 156 2;
#X msg 89 156 3;
#X msg 121 156 4;
#X obj 26 186 s \$0-setID;
#X obj 18 219 cnv 15 140 80 empty empty fake_ID 20 10 0 14 #fc8000 #404040 0;
#X msg 26 243 1;
#X msg 57 243 2;
#X msg 89 243 3;
#X msg 121 243 4;
#X obj 26 274 s \$0-piedID;
#X obj 18 40 cnv 15 140 80 empty empty USB_device_number 2 10 0 14 #00fc04 #404040 0;
#X msg 55 61 1;
#X msg 86 61 2;
#X msg 118 61 3;
#X obj 26 103 s \$0-devnum;
#X msg 26 61 0;
#X floatatom 26 85 5 0 0 0 - - - 0;
#X msg 86 81 4;
#X msg 118 81 5;
#X msg 120 274 0;
#X obj 18 311 cnv 15 140 35 empty empty empty 20 10 0 14 #fc0400 #404040 0;
#X connect 3 0 7 0;
#X connect 4 0 7 0;
#X connect 5 0 7 0;
#X connect 6 0 7 0;
#X connect 9 0 13 0;
#X connect 10 0 13 0;
#X connect 11 0 13 0;
#X connect 12 0 13 0;
#X connect 15 0 20 0;
#X connect 16 0 20 0;
#X connect 17 0 20 0;
#X connect 19 0 20 0;
#X connect 20 0 18 0;
#X connect 21 0 20 0;
#X connect 22 0 20 0;
#X connect 23 0 13 0;
#X restore 302 67 pd old_utils;
#N canvas 309 341 588 457 persistent_settings 0;
#X obj 27 14 r \$0-manualselect;
#X obj 79 36 r \$0-devname;
#X obj 358 246 text define \$0-settings;
#X obj 331 10 loadbang;
#X obj 331 51 pdcontrol;
#X msg 331 31 dir 1;
#X obj 331 74 list append \$1;
#X msg 331 95 symbol \$1/pied\$2_settings.txt;
#X obj 331 135 file isfile;
#X obj 358 203 symbol;
#X obj 331 115 t s s, f 13;
#X msg 358 224 read \$1;
#X obj 331 156 sel 1 0, f 8;
#X obj 331 396 s \$0-manualselect;
#X obj 331 180 t b b;
#X obj 331 291 text search \$0-settings;
#X msg 331 270 symbol device;
#X obj 331 312 text get \$0-settings;
#X msg 331 333 symbol \$2;
#X obj 358 375 s \$0-devname;
#X obj 27 103 sel 0 1;
#X obj 46 124 symbol;
#X obj 331 355 t b s;
#X msg 331 376 1;
#X obj 27 82 f;
#X obj 40 61 del 1;
#X obj 40 42 b;
#X obj 27 417 file delete;
#X obj 406 136 s \$0-settings-filename;
#X obj 391 183 r \$0-settings-filename;
#X obj 27 398 symbol;
#X obj 60 378 r \$0-settings-filename;
#X obj 46 145 t b s;
#X obj 112 229 text search \$0-settings;
#X obj 73 270 text set \$0-settings;
#X obj 73 164 list prepend device;
#X msg 112 208 symbol \$1;
#X obj 112 250 max 0;
#X obj 73 187 t a a, f 7;
#X obj 46 313 symbol;
#X obj 79 293 r \$0-settings-filename;
#X msg 46 334 write \$1;
#X obj 46 355 s \$0-settings;
#X connect 0 0 24 0;
#X connect 1 0 21 1;
#X connect 1 0 26 0;
#X connect 3 0 5 0;
#X connect 4 0 6 0;
#X connect 5 0 4 0;
#X connect 6 0 7 0;
#X connect 7 0 10 0;
#X connect 8 0 12 0;
#X connect 9 0 11 0;
#X connect 10 0 8 0;
#X connect 10 1 28 0;
#X connect 11 0 2 0;
#X connect 12 0 14 0;
#X connect 14 0 16 0;
#X connect 14 1 9 0;
#X connect 15 0 17 0;
#X connect 16 0 15 0;
#X connect 17 0 18 0;
#X connect 18 0 22 0;
#X connect 20 0 30 0;
#X connect 20 1 21 0;
#X connect 21 0 32 0;
#X connect 22 0 23 0;
#X connect 22 1 19 0;
#X connect 23 0 13 0;
#X connect 24 0 20 0;
#X connect 25 0 24 0;
#X connect 26 0 25 0;
#X connect 29 0 9 1;
#X connect 30 0 27 0;
#X connect 31 0 30 1;
#X connect 32 0 39 0;
#X connect 32 1 35 0;
#X connect 33 0 37 0;
#X connect 35 0 38 0;
#X connect 36 0 33 0;
#X connect 37 0 34 1;
#X connect 38 0 34 0;
#X connect 38 1 36 0;
#X connect 39 0 41 0;
#X connect 40 0 39 1;
#X connect 41 0 42 0;
#X restore 325 109 pd persistent_settings;
#X obj 333 191 cnv 13 70 13 empty \$0-piedIDcan piedID:\ -1 2 7 1 12 #c4fcc4 #404040 0;
#X obj 20 46 tgl 15 0 \$0-on-snd \$0-on-rcv on 3 7 1 8 #fc2828 #fc2828 #fcfcfc 0 1;
#X obj 20 30 inlet;
#X obj 25 86 hsl 55 12 0 10000 0 0 \$0-inrate-slider \$0-inrate-slider in:0 0 6 0 10 #000000 #000000 #000000 0 1;
#X obj 88 86 hsl 55 12 0 10000 0 0 \$0-outrate-slider \$0-outrate-slider out:0 0 6 0 10 #000000 #000000 #000000 0 1;
#X text 148 84 B/s;
#X obj 163 435 print find_device;
#X obj 163 391 r \$0-find_device_log;
#X obj 163 412 spigot;
#X obj 207 411 tgl 16 0 empty empty empty 0 -8 0 10 #fcfcfc #000000 #000000 0 1;
#X msg 383 301 symbol *;
#X obj 343 337 sel *;
#X connect 2 0 3 0;
#X connect 3 0 1 0;
#X connect 16 0 15 0;
#X connect 21 0 14 0;
#X connect 21 1 23 0;
#X connect 23 0 21 0;
#X connect 23 1 22 0;
#X connect 23 1 24 0;
#X connect 25 0 51 0;
#X connect 26 0 25 1;
#X connect 27 0 35 0;
#X connect 28 0 27 1;
#X connect 29 0 27 0;
#X connect 30 0 25 0;
#X connect 31 0 32 0;
#X connect 32 0 34 0;
#X connect 33 0 32 1;
#X connect 42 0 41 0;
#X connect 47 0 48 0;
#X connect 48 0 46 0;
#X connect 49 0 48 1;
#X connect 50 0 51 1;
#X connect 51 1 36 0;
#X coords 0 -1 1 1 152 70 1 20 30;
