#N canvas 41 141 409 360 10;
#X declare -lib ../extra/comport;
#X declare -path ggee;
#X declare -path hcs;
#X declare -path comport;
#X declare -lib ../extra/shell -lib ../extra/system;
#X declare -lib ../extra/uname -path ../extra;
#X declare -path zexy;
#X declare -lib ../extra/zexy -lib zexy;
#X obj 21 51 cnv 10 150 30 empty \$0-stastocan-rcv empty 20 12 0 14 #e8e828 #000000 0;
#X obj 20 51 tgl 15 0 \$0-on-snd \$0-on-rcv on 3 7 1 8 #fc2828 #fc2828 #fcfcfc 0 1;
#X obj 21 30 inlet;
#X obj 15 238 outlet;
#X obj 15 193 r \$0-pied;
#X obj 15 215 route actif;
#N canvas 212 521 440 403 FromFraise 0;
#X obj 167 79 tgl 15 0 empty empty empty 17 7 0 10 #fcfcfc #000000 #000000 0 1;
#X obj 110 123 print fraise_system;
#X obj 97 279 route UsbFraise;
#X symbolatom 30 344 10 0 0 0 - - - 0;
#X obj 97 341 s \$0-version;
#X obj 97 303 symbol;
#X obj 133 255 s \$0-piedID;
#X obj 170 234 s \$0-Fr2;
#X msg 170 212 \$1 present \$2;
#X obj 97 17 r \$0-piedraw-snd;
#X obj 262 119 s \$0-Fr2;
#X msg 206 191 \$1 wrerror 1;
#N canvas 956 399 776 539 totext_separe-system-data 0;
#X obj 67 22 inlet;
#X obj 67 45 sel 10;
#X obj 67 188 list trim;
#X obj 67 211 route s;
#X obj 120 506 outlet system;
#X obj 8 269 route D;
#X obj 8 290 intern/hexa2dec;
#X floatatom 8 312 5 0 0 0 - - - 0;
#X msg 8 333 ID \$1;
#X msg 61 334 present \$1 0;
#X msg 165 335 present \$1 1;
#X obj 100 67 moses 32;
#X obj 145 87 moses 127;
#X obj 67 235 route I c C T;
#X msg 265 336 wrerror \$1;
#N canvas 597 140 445 453 num/string-toFruits 0;
#X obj 40 9 inlet;
#X obj 40 49 t a a, f 14;
#X obj 111 411 outlet;
#X obj 121 132 > 128;
#X obj 212 335 list append, f 17;
#X obj 212 311 - 128;
#X obj 40 29 list;
#X obj 121 69 list split 2;
#X obj 121 89 unpack s s;
#X obj 212 244 list split 2, f 35;
#X obj 212 265 unpack s s, f 15;
#X obj 67 228 list split 2;
#X obj 67 268 unpack s s, f 15;
#X obj 101 249 t a;
#X obj 40 199 t b a b, f 9;
#X obj 67 338 t a;
#X msg 167 291 list;
#X obj 67 315 list append;
#X obj 40 362 list, f 5;
#X obj 212 289 intern/hexa2dec;
#X obj 121 111 intern/hexa2dec;
#X obj 67 291 intern/hexa2dec;
#N canvas 562 336 275 266 chars2tolist 0;
#X obj 40 97 list split 1;
#X obj 121 96 list split 1;
#X obj 40 74 t a a, f 14;
#X obj 121 118 list fromsymbol;
#X obj 121 140 list prepend;
#X obj 121 161 t a;
#X obj 21 49 t b a b;
#X obj 21 183 list, f 17;
#X obj 21 27 inlet chars;
#X obj 21 229 outlet list;
#X obj 21 207 fudiparse;
#X connect 0 1 2 0;
#X connect 1 0 3 0;
#X connect 2 0 0 0;
#X connect 2 1 1 0;
#X connect 3 0 4 0;
#X connect 4 0 5 0;
#X connect 5 0 4 1;
#X connect 5 0 7 1;
#X connect 6 0 7 0;
#X connect 6 1 2 0;
#X connect 6 2 5 0;
#X connect 7 0 10 0;
#X connect 8 0 6 0;
#X connect 10 0 9 0;
#X restore 315 309 pd chars2tolist;
#X obj 40 154 list prepend 0;
#X obj 40 177 route 0 1, f 58;
#X connect 0 0 6 0;
#X connect 1 0 23 0;
#X connect 1 1 7 0;
#X connect 3 0 23 1;
#X connect 4 0 2 0;
#X connect 5 0 4 0;
#X connect 6 0 1 0;
#X connect 7 0 8 0;
#X connect 8 0 20 0;
#X connect 8 1 20 1;
#X connect 9 0 10 0;
#X connect 9 1 22 0;
#X connect 10 0 19 0;
#X connect 10 1 19 1;
#X connect 11 0 12 0;
#X connect 11 1 13 0;
#X connect 12 0 21 0;
#X connect 12 1 21 1;
#X connect 13 0 11 0;
#X connect 14 0 18 0;
#X connect 14 1 11 0;
#X connect 14 2 16 0;
#X connect 15 0 17 1;
#X connect 15 0 18 1;
#X connect 16 0 15 0;
#X connect 17 0 15 0;
#X connect 18 0 2 0;
#X connect 19 0 5 0;
#X connect 20 0 3 0;
#X connect 21 0 17 0;
#X connect 22 0 4 1;
#X connect 23 0 24 0;
#X connect 24 0 14 0;
#X connect 24 1 9 0;
#X restore 302 227 pd num/string-toFruits;
#X obj 302 248 outlet Fr2;
#X obj 145 110 list tosymbol;
#X obj 104 159 t a;
#X obj 67 111 t b b;
#X obj 67 160 list;
#X msg 107 111 list;
#X obj 88 136 list prepend;
#X text 139 161 get line;
#X obj 61 314 intern/hexa2dec;
#X obj 165 315 intern/hexa2dec;
#X obj 265 315 intern/hexa2dec;
#X obj 487 263 t a;
#X obj 406 175 list split 1;
#X obj 487 174 list split 1;
#X obj 406 152 t a a, f 14;
#X obj 487 197 list fromsymbol;
#X obj 487 218 sel 32;
#X obj 487 241 list tosymbol;
#X obj 487 285 s \$0-bootmsgFrompied;
#X obj 406 105 route x *;
#X obj 469 105 route _;
#X obj 520 62 loadbang;
#X msg 520 83 32;
#X obj 520 104 list tosymbol;
#X obj 406 131 t a;
#X obj 619 262 spigot;
#X obj 663 264 tgl 15 0 empty empty empty 17 7 0 10 #fcfcfc #000000 #000000 0 1;
#X obj 619 284 print bootloaderMsg;
#X text 342 71 bootloader msg starts with either x \, * or space, f 27;
#N canvas 562 336 275 266 chars2tolist 0;
#X obj 40 97 list split 1;
#X obj 121 96 list split 1;
#X obj 40 74 t a a, f 14;
#X obj 121 118 list fromsymbol;
#X obj 121 140 list prepend;
#X obj 121 161 t a;
#X obj 21 49 t b a b;
#X obj 21 183 list, f 17;
#X obj 21 27 inlet chars;
#X obj 21 229 outlet list;
#X obj 21 207 fudiparse;
#X connect 0 1 2 0;
#X connect 1 0 3 0;
#X connect 2 0 0 0;
#X connect 2 1 1 0;
#X connect 3 0 4 0;
#X connect 4 0 5 0;
#X connect 5 0 4 1;
#X connect 5 0 7 1;
#X connect 6 0 7 0;
#X connect 6 1 2 0;
#X connect 6 2 5 0;
#X connect 7 0 10 0;
#X connect 8 0 6 0;
#X connect 10 0 9 0;
#X restore 369 315 pd chars2tolist;
#X connect 0 0 1 0;
#X connect 1 0 19 0;
#X connect 1 1 11 0;
#X connect 2 0 3 0;
#X connect 3 0 13 0;
#X connect 3 1 15 0;
#X connect 3 1 35 0;
#X connect 5 0 6 0;
#X connect 6 0 7 0;
#X connect 7 0 8 0;
#X connect 8 0 4 0;
#X connect 9 0 4 0;
#X connect 10 0 4 0;
#X connect 11 1 12 0;
#X connect 12 0 17 0;
#X connect 13 0 5 0;
#X connect 13 1 24 0;
#X connect 13 2 25 0;
#X connect 13 3 26 0;
#X connect 13 4 45 0;
#X connect 14 0 4 0;
#X connect 15 0 16 0;
#X connect 17 0 22 0;
#X connect 18 0 22 1;
#X connect 19 0 20 0;
#X connect 19 1 21 0;
#X connect 20 0 2 0;
#X connect 21 0 22 1;
#X connect 22 0 18 0;
#X connect 22 0 20 1;
#X connect 24 0 9 0;
#X connect 25 0 10 0;
#X connect 26 0 14 0;
#X connect 27 0 34 0;
#X connect 27 0 41 0;
#X connect 28 1 30 0;
#X connect 29 0 31 0;
#X connect 30 0 28 0;
#X connect 30 1 29 0;
#X connect 31 0 32 0;
#X connect 32 1 33 0;
#X connect 33 0 27 0;
#X connect 35 0 40 0;
#X connect 35 1 40 0;
#X connect 35 2 36 0;
#X connect 36 0 40 0;
#X connect 37 0 38 0;
#X connect 38 0 39 0;
#X connect 39 0 36 1;
#X connect 40 0 30 0;
#X connect 41 0 43 0;
#X connect 42 0 41 1;
#X connect 45 0 4 0;
#X restore 97 53 pd totext_separe-system-data;
#X obj 97 150 route V ID present wrerror Echo;
#X obj 243 171 s \$0-echo;
#X obj 109 78 spigot 1;
#X obj 109 100 route Echo;
#X floatatom 227 271 5 0 0 0 - - - 0;
#X connect 0 0 15 1;
#X connect 2 0 5 0;
#X connect 5 0 3 0;
#X connect 5 0 4 0;
#X connect 8 0 7 0;
#X connect 9 0 12 0;
#X connect 11 0 7 0;
#X connect 12 0 13 0;
#X connect 12 0 15 0;
#X connect 12 1 10 0;
#X connect 13 0 2 0;
#X connect 13 1 6 0;
#X connect 13 1 17 0;
#X connect 13 2 8 0;
#X connect 13 3 11 0;
#X connect 13 4 14 0;
#X connect 15 0 16 0;
#X connect 16 1 1 0;
#X restore 141 138 pd FromFraise;
#N canvas 504 221 891 578 ToFraise 0;
#X obj 63 6 r \$0-2Fr2;
#X msg 763 217 actif 1;
#X obj 763 237 s \$0-Fr2;
#X msg 264 288 #S\$1;
#X msg 294 237 #C\$1;
#X text 125 195 Assign FruitName #n;
#X obj 120 215 unpack s f;
#X obj 120 257 pack s s;
#X msg 120 282 !N\$2\$1;
#X obj 339 465 s \$0-pied-rcv;
#X obj 63 58 route Boot;
#X obj 120 80 spigot 1;
#X obj 165 39 r \$0-bootloadermode;
#X obj 165 60 == 0;
#X obj 63 485 s \$0-Bootloader-rcv;
#X obj 63 31 spigot 1;
#X obj 128 26 tgl 15 0 empty empty empty 17 7 0 10 #fcfcfc #000000 #000000 0 1;
#X obj 175 10 print;
#X obj 177 237 intern/dec2hexa;
#X obj 294 216 intern/dec2hexa;
#X obj 264 266 intern/dec2hexa;
#X obj 585 244 + 128;
#X obj 585 267 intern/dec2hexa;
#X obj 585 220 list split 1;
#X obj 649 246 list split 1;
#X obj 585 289 list append;
#X msg 585 314 symbol \$1\$2;
#X obj 585 337 list append;
#X obj 419 263 list split 1;
#X obj 400 215 t b a b;
#X obj 419 289 intern/dec2hexa;
#X obj 430 243 t a;
#X obj 419 318 pack s s;
#X msg 479 318 symbol \$1\$2;
#X msg 521 285 symbol;
#X obj 400 346 symbol;
#X obj 120 109 route Assign Select Deselect Out OutC Status;
#X connect 0 0 15 0;
#X connect 1 0 2 0;
#X connect 3 0 9 0;
#X connect 4 0 9 0;
#X connect 6 0 7 0;
#X connect 6 1 18 0;
#X connect 7 0 8 0;
#X connect 8 0 9 0;
#X connect 10 0 14 0;
#X connect 10 1 11 0;
#X connect 11 0 36 0;
#X connect 12 0 13 0;
#X connect 13 0 11 1;
#X connect 15 0 10 0;
#X connect 16 0 15 1;
#X connect 18 0 7 1;
#X connect 19 0 4 0;
#X connect 20 0 3 0;
#X connect 21 0 22 0;
#X connect 22 0 25 0;
#X connect 23 0 21 0;
#X connect 23 1 24 0;
#X connect 24 0 25 1;
#X connect 24 1 27 1;
#X connect 25 0 26 0;
#X connect 26 0 27 0;
#X connect 27 0 9 0;
#X connect 28 0 30 0;
#X connect 28 1 31 0;
#X connect 29 0 35 0;
#X connect 29 1 28 0;
#X connect 29 2 34 0;
#X connect 30 0 32 0;
#X connect 31 0 28 0;
#X connect 32 0 33 0;
#X connect 33 0 32 1;
#X connect 33 0 35 1;
#X connect 34 0 32 1;
#X connect 35 0 9 0;
#X connect 36 0 6 0;
#X connect 36 1 20 0;
#X connect 36 2 19 0;
#X connect 36 3 29 0;
#X connect 36 4 23 0;
#X connect 36 5 1 0;
#X restore 141 160 pd ToFraise;
#N canvas 497 171 360 233 SetID 0;
#X msg 148 23 1;
#X msg 179 23 2;
#X msg 211 23 3;
#X msg 243 23 4;
#X obj 167 108 s \$0-pied-rcv;
#X obj 79 24 r \$0-setID;
#X obj 167 68 intern/dec2hexa;
#X obj 121 129 r \$0-piedID;
#X obj 106 151 f;
#X obj 79 46 t f b;
#X msg 106 172 \$1 actif 0;
#X obj 106 193 s Fr2;
#X msg 167 87 #UNLOCK \, #W\$1 \, #R;
#X connect 0 0 6 0;
#X connect 1 0 6 0;
#X connect 2 0 6 0;
#X connect 3 0 6 0;
#X connect 5 0 9 0;
#X connect 6 0 12 0;
#X connect 7 0 8 1;
#X connect 8 0 10 0;
#X connect 9 0 6 0;
#X connect 9 1 8 0;
#X connect 10 0 11 0;
#X connect 12 0 4 0;
#X restore 15 148 pd SetID;
#X obj 21 67 cnv 13 70 13 empty \$0-piedIDcan piedID:1 2 7 1 12 #c4fcc4 #404040 0;
#N canvas 850 234 652 345 comport 0;
#X msg 155 160 close;
#X obj 155 80 sel 0 1;
#X obj 155 45 tgl 30 0 empty empty empty 17 7 0 10 #00fc04 #000000 #000000 0 1;
#X obj 360 101 list prepend print;
#X obj 360 123 list trim;
#X obj 360 33 r \$0-pied-rcv;
#X obj 222 177 t b a;
#X obj 197 176 10;
#X obj 155 312 s \$0-piedraw-snd;
#X obj 360 55 spigot 1;
#X msg 248 135 pollintervall 1;
#X obj 217 44 loadbang;
#X obj 84 83 metro 500;
#X obj 194 232 route open;
#X msg 84 104 info;
#X obj 177 256 tgl 15 0 empty empty empty 17 7 0 10 #fcfcfc #000000 #000000 0 1;
#X obj 84 37 loadbang;
#X obj 106 59 bng 15 250 50 0 empty empty empty 17 7 0 10 #fcfcfc #000000 #000000;
#X msg 269 261 set -1;
#X obj 194 283 s \$0-opened;
#X msg 338 180 devicename /dev/ttyACM0;
#X obj 194 114 f \$1;
#X msg 194 136 open \$1;
#X obj 19 150 r \$0-listdevices-snd;
#X msg 19 172 devices;
#X obj 194 263 change -1;
#N canvas 431 194 475 393 outrate 0;
#X obj 136 130 t b b;
#X obj 150 159 i;
#X obj 179 161 + 1;
#X obj 36 44 inlet;
#X obj 208 198 i;
#X obj 214 59 metro 200;
#X obj 214 81 t b b;
#X msg 214 105 0;
#X obj 216 31 loadbang;
#X obj 208 248 * 5;
#X obj 181 41 bng 15 250 50 0 empty empty empty 17 7 0 10 #fcfcfc #000000 #000000;
#X obj 208 274 s \$0-outrate;
#X obj 36 129 list split 1;
#X obj 70 149 t a;
#X obj 36 200 list fromsymbol;
#X obj 36 222 list split 1;
#X obj 70 242 t a;
#X obj 208 221 intern/m_mavg 10;
#X obj 76 282 print;
#X obj 36 172 route symbol;
#X connect 0 0 1 0;
#X connect 1 0 2 0;
#X connect 1 0 4 1;
#X connect 2 0 1 1;
#X connect 3 0 12 0;
#X connect 4 0 17 0;
#X connect 5 0 6 0;
#X connect 6 0 7 0;
#X connect 6 1 4 0;
#X connect 7 0 1 0;
#X connect 8 0 5 0;
#X connect 9 0 11 0;
#X connect 10 0 5 0;
#X connect 12 0 19 0;
#X connect 12 1 13 0;
#X connect 13 0 12 0;
#X connect 14 0 15 0;
#X connect 15 0 0 0;
#X connect 15 1 16 0;
#X connect 16 0 15 0;
#X connect 17 0 9 0;
#X connect 19 0 14 0;
#X connect 19 1 0 0;
#X restore 437 135 pd outrate;
#N canvas 24 430 450 300 inrate 0;
#X obj 136 130 t b b;
#X obj 150 159 i;
#X obj 179 161 + 1;
#X obj 136 73 inlet;
#X obj 208 198 i;
#X obj 214 59 metro 200;
#X obj 214 81 t b b;
#X msg 214 105 0;
#X obj 214 31 loadbang;
#X obj 211 249 * 5;
#X floatatom 211 275 5 0 0 0 - - - 0;
#X obj 181 41 bng 15 250 50 0 empty empty empty 17 7 0 10 #fcfcfc #000000 #000000;
#X obj 260 273 s \$0-inrate;
#X obj 211 222 intern/m_mavg 10;
#X connect 0 0 1 0;
#X connect 1 0 2 0;
#X connect 1 0 4 1;
#X connect 2 0 1 1;
#X connect 3 0 0 0;
#X connect 4 0 13 0;
#X connect 5 0 6 0;
#X connect 6 0 7 0;
#X connect 6 1 4 0;
#X connect 7 0 1 0;
#X connect 8 0 5 0;
#X connect 9 0 10 0;
#X connect 9 0 12 0;
#X connect 11 0 5 0;
#X connect 13 0 9 0;
#X restore 68 280 pd inrate;
#X obj 419 55 tgl 15 0 empty empty empty 17 7 0 10 #fcfcfc #000000 #000000 0 1;
#X obj 155 136 t b b;
#X msg 262 232 0;
#X obj 277 296 tgl 15 0 empty empty empty 17 7 0 10 #fcfcfc #000000 #000000 0 1;
#X obj 155 209 comport;
#X obj 155 18 r \$0-comport-on-snd;
#X obj 360 76 list;
#X obj 215 91 r \$0-devnum;
#X obj 491 29 r \$0-pied-rcv;
#X obj 550 51 tgl 15 0 empty empty empty 17 7 0 10 #fcfcfc #000000 #000000 0 1;
#X obj 491 72 print;
#X obj 491 51 spigot 0;
#X connect 0 0 32 0;
#X connect 1 0 29 0;
#X connect 1 1 10 0;
#X connect 1 1 21 0;
#X connect 2 0 1 0;
#X connect 3 0 4 0;
#X connect 4 0 6 0;
#X connect 5 0 9 0;
#X connect 6 0 7 0;
#X connect 6 1 32 0;
#X connect 7 0 32 0;
#X connect 9 0 34 0;
#X connect 10 0 32 0;
#X connect 11 0 10 0;
#X connect 11 0 0 0;
#X connect 12 0 14 0;
#X connect 13 0 15 0;
#X connect 13 0 25 0;
#X connect 14 0 32 0;
#X connect 16 0 12 0;
#X connect 17 0 12 0;
#X connect 18 0 25 0;
#X connect 21 0 22 0;
#X connect 22 0 32 0;
#X connect 23 0 24 0;
#X connect 24 0 32 0;
#X connect 25 0 19 0;
#X connect 25 0 31 0;
#X connect 28 0 9 1;
#X connect 29 0 0 0;
#X connect 29 1 30 0;
#X connect 30 0 25 0;
#X connect 32 0 8 0;
#X connect 32 0 27 0;
#X connect 32 1 13 0;
#X connect 33 0 2 0;
#X connect 34 0 3 0;
#X connect 34 0 26 0;
#X connect 35 0 21 1;
#X connect 36 0 39 0;
#X connect 37 0 39 1;
#X connect 39 0 38 0;
#X restore 15 107 pd comport;
#X obj 36 52 cnv 15 135 12 empty \$0-piedvercan firmware_version:2.1.6 2 7 1 10 #fcfcc4 #404040 0;
#N canvas 882 83 195 359 \$0-utils 0;
#X obj 4 4 cnv 15 170 350 empty empty empty 20 12 0 14 #381804 #404040 0;
#X obj 10 9 bng 20 250 50 0 \$0-listdevices-snd \$0-listdevices-rcv list_serial_devices 22 10 0 12 #fcfcfc #000000 #fcfcfc;
#X obj 18 131 cnv 15 140 80 empty empty set_ID 20 10 0 14 #f8fc00 #404040 0;
#X msg 26 156 1;
#X msg 57 156 2;
#X msg 89 156 3;
#X msg 121 156 4;
#X obj 26 186 s \$0-setID;
#X obj 18 219 cnv 15 140 80 empty empty fake_ID 20 10 0 14 #fc8000 #404040 0;
#X msg 26 243 1;
#X msg 57 243 2;
#X msg 89 243 3;
#X msg 121 243 4;
#X obj 26 274 s \$0-piedID;
#X obj 18 306 cnv 15 140 35 empty empty compilation 20 10 0 14 #fc0400 #404040 0;
#X obj 28 325 tgl 15 0 \$0-dontclean-snd \$0-dontclean-rcv dont_clean 17 7 0 10 #fcfcfc #000000 #000000 0 1;
#X obj 18 40 cnv 15 140 80 empty empty USB_device_number 2 10 0 14 #00fc04 #404040 0;
#X msg 55 61 1;
#X msg 86 61 2;
#X msg 118 61 3;
#X obj 26 103 s \$0-devnum;
#X msg 26 61 0;
#X floatatom 26 85 5 0 0 0 - - - 0;
#X msg 86 81 4;
#X msg 118 81 5;
#X msg 120 274 0;
#X connect 3 0 7 0;
#X connect 4 0 7 0;
#X connect 5 0 7 0;
#X connect 6 0 7 0;
#X connect 9 0 13 0;
#X connect 10 0 13 0;
#X connect 11 0 13 0;
#X connect 12 0 13 0;
#X connect 17 0 22 0;
#X connect 18 0 22 0;
#X connect 19 0 22 0;
#X connect 21 0 22 0;
#X connect 22 0 20 0;
#X connect 23 0 22 0;
#X connect 24 0 22 0;
#X connect 25 0 13 0;
#X restore 195 64 pd \$0-utils;
#X obj 123 65 bng 15 250 50 0 \$0-showutils-snd \$0-showutils-rcv utils 17 7 0 10 #00fc04 #000000 #000000;
#N canvas 56 517 493 343 Fr2-interface 0;
#X obj 250 151 t a;
#X obj 25 27 r 2Fr2;
#X obj 250 222 s Fr2;
#X obj 25 168 s \$0-2Fr2;
#X obj 250 112 r \$0-Fr2;
#X obj 200 18 r \$0-piedID;
#X obj 88 27 r \$0-piedID;
#X obj 200 40 t f f;
#X msg 233 89 actif 1;
#X obj 200 65 sel -1;
#X obj 25 56 list split 1;
#X obj 25 143 list trim;
#X obj 25 120 list, f 5;
#X obj 25 98 sel -1;
#X obj 250 201 list trim;
#X obj 250 176 list prepend;
#X connect 0 0 15 0;
#X connect 1 0 10 0;
#X connect 4 0 0 0;
#X connect 5 0 7 0;
#X connect 6 0 13 1;
#X connect 7 0 9 0;
#X connect 7 1 15 1;
#X connect 8 0 0 0;
#X connect 9 1 8 0;
#X connect 10 0 13 0;
#X connect 10 1 12 1;
#X connect 11 0 3 0;
#X connect 12 0 11 0;
#X connect 13 0 12 0;
#X connect 14 0 2 0;
#X connect 15 0 14 0;
#X restore 15 128 pd Fr2-interface;
#N canvas 634 113 450 300 UI 0;
#X obj 27 202 change -1;
#X obj 27 156 r \$0-pied;
#X obj 27 178 route actif;
#N canvas 374 255 344 144 canvascolor 0;
#X obj 15 13 inlet;
#X obj 15 103 s \$0-stastocan-rcv;
#X msg 15 74 color 1 13 22;
#X msg 114 74 color 15 13 22;
#X obj 15 37 sel 0 1 2;
#X msg 213 75 color 14 13 22;
#X connect 0 0 4 0;
#X connect 2 0 1 0;
#X connect 3 0 1 0;
#X connect 4 0 2 0;
#X connect 4 1 3 0;
#X connect 4 2 5 0;
#X connect 5 0 1 0;
#X restore 27 278 pd canvascolor;
#X obj 26 16 r \$0-version;
#X msg 26 38 label firmware_version:\$1;
#X obj 26 58 s \$0-piedvercan;
#X obj 27 85 r \$0-piedID;
#X msg 27 106 label piedID:\$1;
#X obj 27 129 s \$0-piedIDcan;
#X obj 239 17 r \$0-showutils-snd;
#X obj 330 102 loadbang;
#X msg 330 122 set 1;
#X obj 330 143 s \$0-on-rcv;
#X obj 239 119 r \$0-on-snd;
#X obj 239 149 sel 0 1;
#X obj 239 240 s \$0-on-rcv;
#X msg 258 172 color 13 13 0 \, label on;
#X msg 239 205 color 1 1 2 \, label off;
#X obj 101 179 r \$0-bootloadermode;
#X obj 38 227 t b f;
#X obj 101 199 + 1;
#X obj 27 250 * 1;
#X msg 137 224 0;
#X obj 239 39 symbol pd-\$0-utils;
#X msg 239 63 \; \$1 vis 0 \; \$1 vis 1;
#X connect 0 0 22 0;
#X connect 1 0 2 0;
#X connect 2 0 0 0;
#X connect 4 0 5 0;
#X connect 5 0 6 0;
#X connect 7 0 8 0;
#X connect 8 0 9 0;
#X connect 10 0 24 0;
#X connect 11 0 12 0;
#X connect 11 0 17 0;
#X connect 11 0 23 0;
#X connect 12 0 13 0;
#X connect 14 0 15 0;
#X connect 15 0 18 0;
#X connect 15 1 17 0;
#X connect 17 0 16 0;
#X connect 18 0 16 0;
#X connect 19 0 21 0;
#X connect 20 0 22 0;
#X connect 20 1 22 1;
#X connect 21 0 20 0;
#X connect 22 0 3 0;
#X connect 23 0 3 0;
#X connect 24 0 25 0;
#X restore 15 168 pd UI;
#X obj 43 85 nbx 5 14 -1e+37 1e+37 0 0 empty \$0-outrate out -18 6 0 8 #fcfcfc #000000 #000000 0 256;
#X obj 114 85 nbx 5 14 -1e+37 1e+37 0 0 empty \$0-inrate in -18 6 0 8 #fcfcfc #000000 #000000 0 256;
#N canvas 154 360 495 183 interprete 0;
#X obj 68 21 inlet;
#X obj 68 124 s \$0-make-done;
#X msg 68 102 bang;
#X msg 150 71 bang;
#X obj 150 93 s \$0-make-cleaned;
#X obj 340 84 print;
#X obj 68 42 route make_done make_cleaned make_main_done;
#X msg 266 95 bang;
#X obj 266 117 s \$0-make-main-done;
#X connect 0 0 6 0;
#X connect 2 0 1 0;
#X connect 3 0 4 0;
#X connect 6 0 2 0;
#X connect 6 1 3 0;
#X connect 6 2 7 0;
#X connect 6 3 5 0;
#X connect 7 0 8 0;
#X restore 143 279 pd interprete;
#N canvas 806 203 560 372 tosystem 0;
#X obj 30 22 inlet tosystem;
#X obj 218 139 list prepend nohup;
#X obj 30 243 list trim;
#X obj 30 161 list append ";
#X obj 30 139 list prepend start bash -c ";
#X obj 30 90 intern/demux_os;
#X obj 30 281 shell;
#X connect 0 0 5 0;
#X connect 1 0 2 0;
#X connect 2 0 6 0;
#X connect 3 0 2 0;
#X connect 4 0 3 0;
#X connect 5 0 1 0;
#X connect 5 1 4 0;
#X connect 5 2 1 0;
#X restore 142 209 pd tosystem;
#N canvas 137 487 444 261 Bootloader/Compiler 0;
#N canvas 653 423 498 407 enter-boot-quit 0;
#X msg 123 204 0;
#X obj 123 225 s \$0-verified;
#X msg 199 157 !F\$1;
#X msg 88 151 V\$1;
#X obj 88 76 t s s;
#X obj 88 53 r \$0-enterbld;
#X obj 88 105 pipe s 100;
#X obj 279 62 r \$0-quitbld;
#X obj 85 310 sel V;
#X obj 85 355 s \$0-verified;
#X msg 85 333 1;
#X msg 279 89 A \, #F;
#X text 237 43 run device app \, quit pied bootload mode;
#X text 39 22 enter boot mode for device X;
#X text 43 36 then verify it's done;
#X obj 88 172 t a b;
#X obj 182 314 bng 15 250 50 0 empty empty empty 17 7 0 10 #fcfcfc #000000 #000000;
#X msg 183 82 symbol Lyre1;
#X obj 88 125 symbol;
#X obj 54 101 bng 15 250 50 0 empty empty empty 17 7 0 10 #fcfcfc #000000 #000000;
#X obj 199 136 symbol;
#X obj 199 113 bng 15 250 50 0 empty empty empty 17 7 0 10 #fcfcfc #000000 #000000;
#X obj 279 206 s \$0-pied-rcv;
#X msg 21 204 symbol Test;
#X obj 264 273 r \$0-verified;
#X obj 262 295 tgl 15 0 empty empty empty 17 7 0 10 #fcfcfc #000000 #000000 0 1;
#X obj 85 264 r \$0-bootmsgFrompied;
#X connect 0 0 1 0;
#X connect 2 0 22 0;
#X connect 3 0 15 0;
#X connect 4 0 6 0;
#X connect 4 1 20 0;
#X connect 5 0 4 0;
#X connect 6 0 18 0;
#X connect 7 0 11 0;
#X connect 8 0 10 0;
#X connect 8 0 16 0;
#X connect 10 0 9 0;
#X connect 11 0 0 0;
#X connect 11 0 22 0;
#X connect 15 0 22 0;
#X connect 15 1 0 0;
#X connect 17 0 3 0;
#X connect 18 0 3 0;
#X connect 19 0 18 0;
#X connect 20 0 2 0;
#X connect 21 0 20 0;
#X connect 23 0 3 0;
#X connect 24 0 25 0;
#X connect 26 0 8 0;
#X restore 232 17 pd enter-boot-quit;
#N canvas 267 164 712 562 sendfile 0;
#X obj 32 76 bng 15 250 50 0 empty empty program 17 7 0 10 #fc8000 #000000 #000000;
#X obj 70 343 t a b;
#X obj 363 125 sel X, f 21;
#X obj 517 281 print checksumerror;
#X obj 501 331 print DONE !;
#X obj 486 379 print unsupported-command;
#X obj 191 153 symbol;
#X obj 121 429 r \$0-msgtimeout-stop;
#X obj 412 97 s \$0-msgtimeout-stop;
#X msg 410 265 0;
#X msg 438 265 1;
#X msg 571 212 0;
#X msg 599 211 1;
#X msg 527 213 prev;
#X obj 570 191 r \$0-auto;
#X obj 396 244 r \$0-auto;
#X obj 486 147 sel u Y z l;
#X obj 533 170 print format-error;
#X obj 385 51 sel V;
#X obj 509 307 s \$0-DONE;
#X obj 32 96 del 100;
#X obj 98 108 s \$0-auto;
#X msg 98 73 1;
#X obj 131 49 r \$0-DONE;
#X msg 131 70 0;
#X obj 363 286 spigot;
#X obj 527 236 spigot;
#X obj 97 495 s \$0-msgtimeout;
#X msg 121 452 stop;
#X obj 363 190 del 0;
#X floatatom 121 345 5 0 0 0 - - - 0;
#X obj 121 386 /;
#X obj 121 406 outlet;
#X obj 224 132 r \$0-bootprogfile;
#X obj 32 23 r \$0-bootdoprogram;
#X obj 70 517 s \$0-pied-rcv;
#X obj 144 89 s \$0-msgtimeout-stop;
#X obj 162 70 bng 15 250 50 0 empty empty empty 17 7 0 10 #fcfcfc #000000 #000000;
#X obj 445 50 r \$0-auto;
#X obj 412 74 spigot;
#X obj 97 472 del 200;
#X obj 527 193 del 3;
#X obj 486 354 spigot 0;
#X text 543 355 silent 'u' error for now;
#X obj 363 25 r \$0-bootmsgFrompied;
#X obj 191 198 text define \$0-progtxt;
#X msg 191 175 read -c \$1;
#X obj 136 362 text size \$0-progtxt;
#X obj 27 235 route prev bang rewind;
#X msg 113 256 0;
#X obj 70 278 f, f 7;
#X obj 70 256 b;
#X obj 42 255 - 1;
#X obj 27 276 f;
#X obj 27 297 max 0;
#X obj 70 299 t f f, f 9;
#X obj 70 320 text get \$0-progtxt;
#X obj 122 278 + 1;
#X obj 27 214 r \$0-progtxt_ctl;
#X obj 32 176 s \$0-progtxt_ctl;
#X obj 363 308 s \$0-progtxt_ctl;
#X obj 527 258 s \$0-progtxt_ctl;
#X floatatom 182 398 5 0 0 0 - - - 0;
#X msg 365 461 prev;
#X obj 365 416 r \$0-msgtimeout;
#X msg 422 454 0;
#X msg 449 454 1;
#X obj 421 434 r \$0-auto;
#X obj 365 441 spigot;
#X obj 336 506 print timeout ! retry...;
#X obj 365 483 s \$0-progtxt_ctl;
#X msg 32 154 rewind \, bang;
#X obj 32 132 t b b b, f 27;
#X connect 0 0 20 0;
#X connect 1 0 35 0;
#X connect 1 1 40 0;
#X connect 2 0 29 0;
#X connect 2 1 16 0;
#X connect 6 0 46 0;
#X connect 7 0 28 0;
#X connect 9 0 25 1;
#X connect 10 0 25 1;
#X connect 11 0 26 1;
#X connect 12 0 26 1;
#X connect 13 0 26 0;
#X connect 14 0 26 1;
#X connect 15 0 25 1;
#X connect 16 0 29 0;
#X connect 16 0 42 0;
#X connect 16 1 4 0;
#X connect 16 1 19 0;
#X connect 16 2 3 0;
#X connect 16 2 41 0;
#X connect 16 3 17 0;
#X connect 18 1 39 0;
#X connect 20 0 72 0;
#X connect 22 0 21 0;
#X connect 23 0 24 0;
#X connect 23 0 36 0;
#X connect 24 0 21 0;
#X connect 25 0 60 0;
#X connect 26 0 61 0;
#X connect 28 0 40 0;
#X connect 29 0 25 0;
#X connect 30 0 31 0;
#X connect 31 0 32 0;
#X connect 33 0 6 1;
#X connect 34 0 0 0;
#X connect 34 0 22 0;
#X connect 37 0 36 0;
#X connect 38 0 39 1;
#X connect 39 0 8 0;
#X connect 40 0 27 0;
#X connect 41 0 13 0;
#X connect 42 0 5 0;
#X connect 44 0 2 0;
#X connect 44 0 18 0;
#X connect 46 0 45 0;
#X connect 47 0 31 1;
#X connect 47 0 62 0;
#X connect 48 0 53 0;
#X connect 48 1 51 0;
#X connect 48 2 49 0;
#X connect 49 0 50 1;
#X connect 50 0 52 0;
#X connect 50 0 55 0;
#X connect 50 0 57 0;
#X connect 51 0 50 0;
#X connect 52 0 53 1;
#X connect 53 0 54 0;
#X connect 54 0 50 0;
#X connect 55 0 56 0;
#X connect 55 1 30 0;
#X connect 56 0 1 0;
#X connect 57 0 50 1;
#X connect 58 0 48 0;
#X connect 63 0 70 0;
#X connect 64 0 68 0;
#X connect 65 0 68 1;
#X connect 66 0 68 1;
#X connect 67 0 68 1;
#X connect 68 0 63 0;
#X connect 68 0 69 0;
#X connect 71 0 59 0;
#X connect 72 0 71 0;
#X connect 72 1 47 0;
#X connect 72 2 6 0;
#X restore 231 39 pd sendfile;
#N canvas 831 412 452 306 debug_read-memory 0;
#X msg 4 133 r0800;
#X msg 41 135 r5870;
#X obj 152 101 + 5870;
#X msg 124 124 r\$1;
#X floatatom 157 79 5 0 0 0 - - - 0;
#X msg 13 166 A;
#X msg 160 58 8;
#X msg 160 126 r5880;
#X msg 172 144 r5F10;
#X obj 153 199 s \$0-fraise-rcv;
#X floatatom 79 49 5 0 0 0 - - - 0;
#X msg 84 19 8;
#X obj 73 95 + 800;
#X msg 76 115 r0\$1;
#X obj 120 22 hradio 15 1 0 16 empty empty empty 0 -8 0 10 #fcfcfc #000000 #000000 0;
#X obj 78 72 * 10;
#X msg 223 88 !b0122;
#X msg 223 111 811234;
#X msg 251 231 !N01Truc;
#X msg 263 157 Ebon;
#X obj 285 56 tgl 15 0 empty empty empty 17 7 0 10 #fcfcfc #000000 #000000 0 1;
#X obj 284 79 metro 1000;
#X obj 385 182 bng 15 250 50 0 empty empty empty 17 7 0 10 #fcfcfc #000000 #000000;
#X msg 337 56 200;
#X obj 287 111 tgl 15 0 empty empty empty 17 7 0 10 #fcfcfc #000000 #000000 0 1;
#X obj 279 133 sel 0 1;
#X msg 296 156 EAh;
#X msg 359 80 20;
#X connect 0 0 9 0;
#X connect 1 0 9 0;
#X connect 2 0 3 0;
#X connect 3 0 9 0;
#X connect 4 0 2 0;
#X connect 5 0 9 0;
#X connect 6 0 4 0;
#X connect 7 0 9 0;
#X connect 8 0 9 0;
#X connect 10 0 15 0;
#X connect 11 0 10 0;
#X connect 12 0 13 0;
#X connect 13 0 9 0;
#X connect 14 0 10 0;
#X connect 15 0 12 0;
#X connect 16 0 9 0;
#X connect 17 0 9 0;
#X connect 18 0 9 0;
#X connect 19 0 9 0;
#X connect 20 0 21 0;
#X connect 21 0 22 0;
#X connect 21 0 24 0;
#X connect 23 0 21 1;
#X connect 24 0 25 0;
#X connect 25 0 19 0;
#X connect 25 1 26 0;
#X connect 26 0 9 0;
#X connect 27 0 21 1;
#X restore 231 82 pd debug_read-memory;
#N canvas 787 395 407 325 rename/prefix 0;
#X obj 93 124 s \$0-fraise-rcv;
#X msg 201 106 !N10Mira;
#X msg 272 85 !N01Lyre2;
#X msg 206 84 !N01Truc;
#X msg 129 9 !N02Gratte1;
#X msg 35 13 RENAME:Gratte1;
#X msg 282 157 !B;
#X msg 93 34 RENAME:Truc;
#X msg 269 55 !N10Lyre1;
#X msg 118 73 PREFIX:;
#X msg 179 35 RENAME:Lyre1;
#X msg 196 196 RENAME:KE1;
#X msg 196 222 !N20KE1;
#X connect 1 0 0 0;
#X connect 2 0 0 0;
#X connect 3 0 0 0;
#X connect 4 0 0 0;
#X connect 5 0 0 0;
#X connect 6 0 0 0;
#X connect 7 0 0 0;
#X connect 8 0 0 0;
#X connect 9 0 0 0;
#X connect 10 0 0 0;
#X connect 11 0 0 0;
#X connect 12 0 0 0;
#X restore 232 102 pd rename/prefix;
#X obj 308 39 hsl 80 15 0 1 0 0 empty empty empty -2 -8 0 10 #fcfcfc #000000 #000000 0 1;
#X obj 11 18 r \$0-Bootloader-rcv;
#X obj 275 136 r \$0-Bootloader-snd;
#X obj 275 158 list prepend Boot;
#X obj 275 179 list trim;
#X obj 275 199 s \$0-Fr2;
#X obj 11 40 t a b;
#N canvas 465 196 644 654 rename 0;
#X obj 270 162 s \$0-bootloadermode;
#X msg 270 142 1;
#X obj 270 234 s \$0-enterbld;
#X obj 243 254 del 200;
#X obj 243 99 symbol;
#X obj 243 121 t s b;
#X obj 243 194 t b s;
#X msg 243 298 RENAME:\$1;
#X obj 243 275 symbol;
#X obj 281 215 s \$0-bootfruitname;
#X obj 289 275 r \$0-bootfruitname;
#X obj 408 304 r \$0-verified;
#X obj 408 326 sel 1;
#X obj 243 321 s \$0-pied-rcv;
#X obj 408 437 s \$0-Bootloader-snd;
#X obj 408 368 symbol;
#X obj 454 368 r \$0-bootfruitname;
#X obj 408 346 spigot;
#X msg 408 413 \$1 renamed;
#X msg 445 326 1;
#X msg 453 345 0;
#X obj 473 326 r \$0-bootloadermode;
#X obj 212 342 del 200;
#X obj 212 364 symbol;
#X obj 256 364 r \$0-bootfruitname;
#X obj 212 385 s \$0-enterbld;
#X msg 184 451 V\$1;
#X obj 184 472 s \$0-pied-rcv;
#X obj 184 409 del 200;
#X obj 184 429 symbol;
#X obj 228 429 r \$0-bootfruitname;
#X obj 159 497 del 200;
#X obj 87 438 b;
#X msg 155 258 stop;
#X obj 485 412 s \$0-quitbld;
#X obj 408 389 t s b;
#X obj 159 561 print Fraise_RENAME;
#X msg 159 536 not responding. retrying...;
#X obj 217 314 b;
#X msg 106 196 stop;
#X obj 128 634 s \$0-Bootloader-snd;
#X obj 10 484 s \$0-quitbld;
#X msg 66 549 aborting !;
#X msg 72 505 \$1 rename_error;
#X obj 443 480 s \$0-bootloadermode;
#X msg 443 460 0;
#X obj 35 572 s \$0-bootloadermode;
#X msg 35 552 0;
#X msg 376 540 \$1 successful;
#X obj 507 273 tgl 15 0 empty empty empty 17 7 0 10 #fcfcfc #000000 #000000 0 1;
#X msg 290 474 VTest;
#X msg 349 469 Test;
#X obj 4 320 del 10000;
#X obj 106 169 r \$0-bootstoptimers;
#X obj 243 72 inlet;
#X obj 4 403 symbol;
#X obj 50 403 r \$0-bootfruitname;
#X text 280 70 (rename) Fruitname;
#X obj 157 609 print;
#X obj 26 367 bng 15 250 50 0 empty empty empty 17 7 0 10 #fcfcfc #000000 #000000;
#X obj 4 447 t s b s;
#X connect 1 0 0 0;
#X connect 3 0 8 0;
#X connect 3 0 52 0;
#X connect 4 0 5 0;
#X connect 5 0 6 0;
#X connect 5 1 1 0;
#X connect 6 0 3 0;
#X connect 6 1 2 0;
#X connect 6 1 9 0;
#X connect 6 1 19 0;
#X connect 7 0 13 0;
#X connect 8 0 7 0;
#X connect 8 0 38 0;
#X connect 10 0 8 1;
#X connect 11 0 12 0;
#X connect 11 0 49 0;
#X connect 12 0 17 0;
#X connect 15 0 35 0;
#X connect 16 0 15 1;
#X connect 17 0 15 0;
#X connect 17 0 20 0;
#X connect 17 0 33 0;
#X connect 17 0 39 0;
#X connect 18 0 14 0;
#X connect 19 0 17 1;
#X connect 20 0 17 1;
#X connect 21 0 20 0;
#X connect 22 0 23 0;
#X connect 22 0 28 0;
#X connect 23 0 25 0;
#X connect 24 0 23 1;
#X connect 26 0 27 0;
#X connect 28 0 29 0;
#X connect 28 0 31 0;
#X connect 29 0 26 0;
#X connect 30 0 29 1;
#X connect 31 0 32 0;
#X connect 31 0 37 0;
#X connect 32 0 8 0;
#X connect 33 0 22 0;
#X connect 33 0 28 0;
#X connect 33 0 31 0;
#X connect 35 0 18 0;
#X connect 35 0 48 0;
#X connect 35 1 34 0;
#X connect 35 1 45 0;
#X connect 37 0 36 0;
#X connect 38 0 22 0;
#X connect 39 0 33 0;
#X connect 39 0 3 0;
#X connect 39 0 52 0;
#X connect 42 0 36 0;
#X connect 43 0 40 0;
#X connect 45 0 44 0;
#X connect 47 0 46 0;
#X connect 48 0 36 0;
#X connect 50 0 27 0;
#X connect 51 0 23 0;
#X connect 52 0 33 0;
#X connect 52 0 55 0;
#X connect 53 0 39 0;
#X connect 54 0 4 0;
#X connect 55 0 60 0;
#X connect 56 0 55 1;
#X connect 59 0 55 0;
#X connect 60 1 41 0;
#X connect 60 1 42 0;
#X connect 60 1 47 0;
#X connect 60 2 43 0;
#X restore 11 141 pd rename;
#X obj 58 47 s \$0-bootstoptimers;
#N canvas 888 72 644 654 program 0;
#X obj 281 123 s \$0-bootloadermode;
#X msg 281 103 1;
#X obj 281 222 s \$0-enterbld;
#X obj 254 82 t s b;
#X obj 292 203 s \$0-bootfruitname;
#X obj 375 255 r \$0-verified;
#X obj 375 277 sel 1;
#X obj 453 496 s \$0-Bootloader-snd;
#X obj 453 427 symbol;
#X obj 499 427 r \$0-bootfruitname;
#X obj 375 297 spigot;
#X msg 412 277 1;
#X msg 420 296 0;
#X obj 440 277 r \$0-bootloadermode;
#X obj 548 471 s \$0-quitbld;
#X obj 453 448 t s b;
#X obj 205 217 b;
#X msg 122 125 stop;
#X obj 4 517 s \$0-Bootloader-snd;
#X obj 51 471 s \$0-quitbld;
#X obj 4 447 t s b;
#X obj 480 539 s \$0-bootloadermode;
#X msg 480 519 0;
#X obj 31 572 s \$0-bootloadermode;
#X msg 31 552 0;
#X obj 351 258 tgl 15 0 empty empty empty 17 7 0 10 #fcfcfc #000000 #000000 0 1;
#X obj 111 205 del 10000;
#X obj 122 98 r \$0-bootstoptimers;
#X obj 254 33 inlet;
#X obj 254 60 unpack s s;
#X obj 311 83 s \$0-bootprogfile;
#X obj 273 600 print Fraise_PROGRAM;
#X obj 254 263 del 200;
#X obj 254 158 symbol;
#X msg 172 256 stop;
#X msg 4 493 \$1 program_error;
#X msg 453 472 \$1 programmed;
#X obj 254 519 symbol;
#X obj 287 498 r \$0-bootfruitname;
#X msg 273 575 \$1 not responding. retrying...;
#X obj 375 328 s \$0-bootdoprogram;
#X obj 297 372 spigot;
#X msg 334 352 1;
#X msg 342 371 0;
#X obj 297 330 r \$0-DONE;
#X obj 383 359 r \$0-bootloadermode;
#X msg 316 537 \$1 successfully programmed;
#X msg 193 388 stop;
#X obj 163 328 r \$0-bootstoptimers;
#X obj 193 437 t b b;
#X obj 4 422 symbol;
#X obj 37 401 r \$0-bootfruitname;
#X msg 136 549 aborting programming \$1!;
#X obj 526 336 bng 15 250 50 0 empty empty empty 17 7 0 10 #fcfcfc #000000 #000000;
#X obj 254 182 t b s b;
#X obj 193 464 s \$0-DONE;
#X obj 163 413 bng 15 250 50 0 empty empty empty 17 7 0 10 #fcfcfc #000000 #000000;
#X obj 457 85 r \$0-prog-progress;
#X obj 502 106 r \$0-bootfruitname;
#X obj 457 174 s \$0-Bootloader-snd;
#X obj 457 127 pack f s;
#X msg 457 150 \$2 prog_progress \$1;
#X obj 156 472 bng 15 250 50 0 empty empty empty 17 7 0 10 #fcfcfc #000000 #000000;
#X text 294 30 (program) Fruitname HexFile;
#X obj 193 415 del 60000;
#X connect 1 0 0 0;
#X connect 3 0 33 0;
#X connect 3 1 1 0;
#X connect 3 1 26 0;
#X connect 5 0 6 0;
#X connect 5 0 25 0;
#X connect 6 0 10 0;
#X connect 8 0 15 0;
#X connect 9 0 8 1;
#X connect 10 0 12 0;
#X connect 10 0 17 0;
#X connect 10 0 40 0;
#X connect 10 0 42 0;
#X connect 10 0 53 0;
#X connect 10 0 64 0;
#X connect 11 0 10 1;
#X connect 12 0 10 1;
#X connect 13 0 12 0;
#X connect 15 0 36 0;
#X connect 15 0 46 0;
#X connect 15 1 14 0;
#X connect 15 1 22 0;
#X connect 16 0 33 0;
#X connect 17 0 26 0;
#X connect 17 0 34 0;
#X connect 20 0 35 0;
#X connect 20 0 52 0;
#X connect 20 1 19 0;
#X connect 20 1 24 0;
#X connect 22 0 21 0;
#X connect 24 0 23 0;
#X connect 26 0 34 0;
#X connect 26 0 50 0;
#X connect 27 0 17 0;
#X connect 28 0 29 0;
#X connect 29 0 3 0;
#X connect 29 1 30 0;
#X connect 32 0 16 0;
#X connect 32 0 37 0;
#X connect 33 0 54 0;
#X connect 34 0 32 0;
#X connect 35 0 18 0;
#X connect 36 0 7 0;
#X connect 37 0 39 0;
#X connect 38 0 37 1;
#X connect 39 0 31 0;
#X connect 41 0 43 0;
#X connect 41 0 8 0;
#X connect 41 0 47 0;
#X connect 42 0 41 1;
#X connect 43 0 41 1;
#X connect 44 0 41 0;
#X connect 45 0 43 0;
#X connect 46 0 31 0;
#X connect 47 0 64 0;
#X connect 48 0 47 0;
#X connect 49 0 55 0;
#X connect 49 0 50 0;
#X connect 49 1 43 0;
#X connect 50 0 20 0;
#X connect 51 0 50 1;
#X connect 52 0 31 0;
#X connect 54 0 32 0;
#X connect 54 1 2 0;
#X connect 54 1 4 0;
#X connect 54 2 11 0;
#X connect 56 0 49 0;
#X connect 57 0 60 0;
#X connect 58 0 60 1;
#X connect 60 0 61 0;
#X connect 61 0 59 0;
#X connect 62 0 55 0;
#X connect 62 0 19 0;
#X connect 64 0 49 0;
#X restore 27 116 pd program;
#X obj 231 60 s \$0-prog-progress;
#X obj 11 69 route rename program make progboot;
#N canvas 622 533 464 290 progboot 0;
#X obj 51 18 inlet;
#X obj 51 60 t a b, f 12;
#X msg 51 86 symbol \$1;
#X text 196 129 SourcePath thisPath netPort;
#X text 86 17 (progboot) Fruitname SourcePath;
#X obj 51 173 outlet tosystem;
#X obj 184 199 bng 15 250 50 0 empty empty empty 17 7 0 10 #fcfcfc #000000 #000000;
#X obj 184 251 print Error progboot;
#X msg 184 223 sorry your OS is not supported yet.;
#X text 210 149 thisPath/progboot.sh SourcePath netPort;
#X msg 51 150 bash \$2/progboot.sh \$1 \$3;
#X obj 217 200 intern/demux_os;
#X msg 120 85 dir;
#X obj 120 106 pdcontrol;
#X obj 51 128 pack s s 41111, f 23;
#X obj 186 107 r \$0-port;
#X connect 0 0 1 0;
#X connect 1 0 2 0;
#X connect 1 1 12 0;
#X connect 2 0 14 0;
#X connect 6 0 8 0;
#X connect 8 0 7 0;
#X connect 10 0 5 0;
#X connect 11 1 6 0;
#X connect 11 2 6 0;
#X connect 12 0 13 0;
#X connect 13 0 14 1;
#X connect 14 0 10 0;
#X connect 15 0 14 2;
#X restore 160 135 pd progboot;
#X obj 160 158 outlet tosystem;
#X obj 111 101 intern/MAKE \$0;
#X connect 1 0 4 0;
#X connect 1 0 14 0;
#X connect 5 0 10 0;
#X connect 6 0 7 0;
#X connect 7 0 8 0;
#X connect 8 0 9 0;
#X connect 10 0 15 0;
#X connect 10 1 12 0;
#X connect 15 0 11 0;
#X connect 15 1 13 0;
#X connect 15 2 18 0;
#X connect 15 3 16 0;
#X connect 16 0 17 0;
#X restore 142 189 pd Bootloader/Compiler;
#X text 2 9 usage: Fr2Pied num_serial_device unique_network_port;
#N canvas 673 174 999 356 autoReconnect 0;
#X obj 128 43 r \$0-on-snd;
#X obj 128 279 s \$0-comport-on-snd;
#X obj 493 286 s \$0-pied-rcv;
#X obj 365 181 s \$0-version;
#X msg 365 159 symbol;
#X obj 338 61 r \$0-opened;
#X obj 338 83 sel 0 1;
#X msg 338 206 -1;
#X obj 338 225 s \$0-piedID;
#X obj 338 124 t b b;
#X msg 493 245 #i \, #V \, #R;
#X msg 452 174 stop;
#X obj 422 92 bng 15 250 50 0 empty empty empty 17 7 0 10 #fcfcfc #000000 #000000;
#X obj 422 69 loadbang;
#X msg 493 199 1;
#X obj 493 225 metro 1000;
#X msg 452 198 0;
#X obj 493 177 del 500;
#X msg 894 241 actif 1;
#X obj 894 218 del 50;
#X msg 894 188 stop;
#X obj 928 188 b;
#X obj 894 98 r \$0-version;
#X msg 921 142 symbol;
#X obj 894 163 sel _;
#X msg 841 240 actif 0;
#X obj 905 291 s \$0-pied;
#X obj 894 263 t a;
#X obj 894 312 s \$0-Fr2;
#X obj 658 63 r \$0-pied;
#X obj 658 85 route actif;
#X obj 658 109 tgl 15 0 empty empty empty 17 7 0 10 #fcfcfc #000000 #000000 0 1;
#X obj 658 129 metro 1000;
#X obj 744 171 del 800;
#X obj 744 110 r \$0-echo;
#X msg 744 130 stop;
#X obj 239 78 r \$0-pied;
#X obj 239 100 route actif;
#X obj 169 127 f;
#X obj 169 149 sel 0;
#X obj 128 65 t f f;
#X msg 128 238 0;
#X obj 169 99 metro 3000;
#X msg 169 206 1;
#X msg 136 149 stop;
#X obj 128 99 sel 0;
#X obj 222 183 bng 15 250 50 0 empty empty empty 17 7 0 10 #fcfcfc #000000 #000000;
#X obj 169 184 del 200;
#X msg 464 245 #R;
#X obj 555 130 r \$0-pied;
#X obj 555 152 route actif;
#X obj 555 174 sel 1;
#X msg 555 196 0;
#X obj 894 119 t s b;
#X obj 22 46 loadbang;
#X msg 22 89 0 \, 1;
#X obj 22 111 s \$0-on-rcv;
#X obj 22 68 del 10;
#X obj 744 315 s \$0-comport-on-snd;
#X msg 744 292 0;
#X text 24 17 1 : init;
#X text 126 18 2 : connect comport;
#X text 336 18 3 : get version and ID;
#X text 656 24 4 : send "actif" and start echo-watchdog. close comport if watchdog fires., f 41;
#X obj 658 197 s \$0-pied-rcv;
#X msg 658 175 #EsEcho;
#X obj 744 194 spigot 1;
#X obj 812 73 r \$0-bootloadermode;
#X obj 812 95 == 0;
#X obj 621 319 print fraise_system;
#X msg 621 295 pied timeout!;
#X connect 0 0 40 0;
#X connect 4 0 3 0;
#X connect 5 0 6 0;
#X connect 6 0 9 0;
#X connect 6 1 17 0;
#X connect 7 0 8 0;
#X connect 9 0 7 0;
#X connect 9 1 4 0;
#X connect 9 1 11 0;
#X connect 10 0 2 0;
#X connect 11 0 16 0;
#X connect 11 0 17 0;
#X connect 12 0 9 0;
#X connect 13 0 12 0;
#X connect 14 0 15 0;
#X connect 15 0 10 0;
#X connect 16 0 15 0;
#X connect 17 0 14 0;
#X connect 18 0 27 0;
#X connect 19 0 18 0;
#X connect 20 0 19 0;
#X connect 21 0 19 0;
#X connect 22 0 53 0;
#X connect 23 0 24 1;
#X connect 24 0 20 0;
#X connect 24 0 25 0;
#X connect 24 1 21 0;
#X connect 25 0 27 0;
#X connect 27 0 26 0;
#X connect 27 0 28 0;
#X connect 29 0 30 0;
#X connect 30 0 31 0;
#X connect 31 0 32 0;
#X connect 32 0 33 0;
#X connect 32 0 65 0;
#X connect 33 0 66 0;
#X connect 34 0 35 0;
#X connect 35 0 33 0;
#X connect 36 0 37 0;
#X connect 37 0 38 1;
#X connect 38 0 39 0;
#X connect 39 0 41 0;
#X connect 39 0 46 0;
#X connect 39 0 47 0;
#X connect 40 0 45 0;
#X connect 40 1 42 0;
#X connect 41 0 1 0;
#X connect 42 0 38 0;
#X connect 43 0 1 0;
#X connect 44 0 47 0;
#X connect 45 0 44 0;
#X connect 45 0 41 0;
#X connect 47 0 43 0;
#X connect 48 0 2 0;
#X connect 49 0 50 0;
#X connect 50 0 51 0;
#X connect 51 0 52 0;
#X connect 52 0 15 0;
#X connect 53 0 24 0;
#X connect 53 1 23 0;
#X connect 54 0 57 0;
#X connect 55 0 56 0;
#X connect 57 0 55 0;
#X connect 59 0 58 0;
#X connect 65 0 64 0;
#X connect 66 0 25 0;
#X connect 66 0 59 0;
#X connect 66 0 70 0;
#X connect 67 0 68 0;
#X connect 68 0 66 1;
#X connect 70 0 69 0;
#X restore 125 109 pd autoReconnect;
#N canvas 80 53 705 225 DECLARE-LIBS 0;
#X obj 243 130 declare -lib ../extra/comport;
#X obj 66 85 declare -path ggee;
#X obj 69 60 declare -path hcs;
#X obj 65 131 declare -path comport;
#X obj 243 88 declare -lib ../extra/shell -lib ../extra/system;
#X obj 243 57 declare -lib ../extra/uname -path ../extra, f 61;
#X obj 65 108 declare -path zexy;
#X obj 243 109 declare -lib ../extra/zexy -lib zexy;
#X restore 18 289 pd DECLARE-LIBS;
#N canvas 5 75 450 300 testBitRate 0;
#X obj 157 184 s \$0-pied-rcv;
#X msg 157 159 #ETESTSTRING;
#X obj 157 31 tgl 15 0 empty empty empty 17 7 0 10 #fcfcfc #000000 #000000 0 1;
#X obj 157 67 metro 10;
#X msg 221 26 1;
#X msg 343 26 10;
#X obj 157 129 until;
#X obj 157 107 f 10;
#X msg 249 27 2;
#X msg 313 26 5;
#X msg 282 25 4;
#X msg 302 73 3;
#X connect 1 0 0 0;
#X connect 2 0 3 0;
#X connect 3 0 7 0;
#X connect 4 0 3 1;
#X connect 5 0 3 1;
#X connect 6 0 1 0;
#X connect 7 0 6 0;
#X connect 8 0 3 1;
#X connect 9 0 3 1;
#X connect 10 0 3 1;
#X connect 11 0 3 1;
#X restore 287 102 pd testBitRate;
#X obj 143 258 netreceive;
#X floatatom 242 239 5 0 0 0 - - - 0;
#N canvas 914 363 335 293 auto-port 0;
#X obj 96 19 inlet number_connections;
#X obj 48 222 outlet tonetreceive;
#X msg 48 200 listen \$1;
#X obj 20 260 netsend;
#X msg 20 240 connect localhost \$1 \, disconnect;
#X obj 96 40 sel 1;
#X obj 20 137 i 41111, f 8;
#X obj 20 67 t b b;
#X obj 20 42 bng 16 250 50 0 empty empty empty 0 -8 0 10 #fcfcfc #000000 #000000;
#X obj 81 136 + 1;
#X obj 20 109 metro 10;
#X msg 20 88 1;
#X msg 96 62 0;
#X obj 77 180 outlet;
#X msg 81 110 41111;
#X obj 20 160 t f f f, f 10;
#X obj 20 20 loadbang;
#X obj 158 162 v \$0-port;
#X floatatom 158 183 5 0 0 0 - - - 0;
#X obj 158 141 bng 16 250 50 0 empty empty empty 0 -8 0 10 #fcfcfc #000000 #000000;
#X connect 0 0 5 0;
#X connect 2 0 1 0;
#X connect 4 0 3 0;
#X connect 5 0 12 0;
#X connect 6 0 9 0;
#X connect 6 0 15 0;
#X connect 7 0 11 0;
#X connect 7 1 14 0;
#X connect 8 0 7 0;
#X connect 9 0 6 1;
#X connect 10 0 6 0;
#X connect 11 0 10 0;
#X connect 12 0 10 0;
#X connect 14 0 6 1;
#X connect 15 0 4 0;
#X connect 15 1 2 0;
#X connect 15 2 13 0;
#X connect 16 0 8 0;
#X connect 17 0 18 0;
#X connect 19 0 17 0;
#X restore 143 239 pd auto-port;
#X obj 212 259 s \$0-port;
#X connect 2 0 1 0;
#X connect 4 0 5 0;
#X connect 5 0 3 0;
#X connect 20 0 19 0;
#X connect 25 0 18 0;
#X connect 25 1 27 0;
#X connect 27 0 25 0;
#X connect 27 1 26 0;
#X connect 27 1 28 0;
#X coords 0 -1 1 1 152 72 1 20 30;
