#N canvas 632 318 466 535 10;
#X obj 42 8 inlet;
#X obj 42 484 outlet;
#X obj 61 64 s2l /;
#X obj 61 123 drip;
#X obj 146 344 list;
#X obj 61 157 sel ..;
#X obj 61 182 list;
#X obj 61 212 t a a;
#X obj 88 237 list length;
#X obj 61 285 list split;
#X obj 88 258 - 1;
#X obj 82 312 t a;
#X obj 42 393 list;
#X msg 280 237 list;
#X obj 42 414 l2s /;
#X obj 179 237 list prepend;
#X msg 93 457 symbol /\$1;
#X obj 42 37 t b s b s;
#X obj 326 165 dripchar;
#X obj 326 234 unwonk s;
#X obj 180 366 sel /;
#X obj 42 436 demux 0 1;
#X msg 208 388 0;
#X msg 181 387 1;
#X connect 0 0 17 0;
#X connect 2 0 3 0;
#X connect 3 0 5 0;
#X connect 4 0 6 1;
#X connect 4 0 12 1;
#X connect 4 0 15 1;
#X connect 5 0 6 0;
#X connect 5 1 15 0;
#X connect 6 0 7 0;
#X connect 7 0 9 0;
#X connect 7 1 8 0;
#X connect 8 0 10 0;
#X connect 9 0 11 0;
#X connect 9 2 11 0;
#X connect 10 0 9 1;
#X connect 11 0 4 0;
#X connect 12 0 14 0;
#X connect 13 0 4 0;
#X connect 14 0 21 0;
#X connect 15 0 4 0;
#X connect 16 0 1 0;
#X connect 17 0 12 0;
#X connect 17 1 2 0;
#X connect 17 2 13 0;
#X connect 17 3 18 0;
#X connect 18 0 19 0;
#X connect 19 0 20 0;
#X connect 20 0 23 0;
#X connect 20 1 22 0;
#X connect 21 0 1 0;
#X connect 21 1 16 0;
#X connect 22 0 21 1;
#X connect 23 0 21 1;
