#N canvas 154 305 490 333 10;
#X declare -stdpath moonlib;
#X declare -stdpath hcs;
#X declare -stdpath ggee;
#X declare -stdpath zexy;
#X declare -lib zexy;
#X declare -stdpath Fraise;
#X obj 19 141 fruit/fruit 1 fruit1 10 example1;
#X obj 254 165 fruit/send2 fruit1;
#X obj 21 38 pied/pied 0 41424;
#X obj 21 16 declare -stdpath Fraise;
#X text 208 20 hx711 example for Versa1.0;
#X msg 254 135 c 50 c \$1;
#X msg 254 94 0;
#X msg 295 94 1;
#X obj 254 199 fruit/receive fruit1;
#X obj 254 221 route 50;
#X obj 254 243 route 0 1;
#X floatatom 254 274 8 0 0 0 - - -, f 8;
#X floatatom 309 274 8 0 0 0 - - -, f 8;
#X obj 351 77 metro 200;
#X obj 351 99 tgl 15 0 empty empty empty 17 7 0 10 -262144 -1 -1 0
1;
#X obj 351 56 tgl 15 0 empty empty empty 17 7 0 10 -262144 -1 -1 0
1;
#X connect 5 0 1 0;
#X connect 6 0 5 0;
#X connect 7 0 5 0;
#X connect 8 0 9 0;
#X connect 9 0 10 0;
#X connect 10 0 11 0;
#X connect 10 1 12 0;
#X connect 13 0 14 0;
#X connect 14 0 5 0;
#X connect 15 0 13 0;
