#N canvas 156 68 604 380 10;
#X obj 100 164 tgl 15 0 empty empty empty 17 7 0 10 -262144 -1 -1 0
1;
#X obj 142 207 * 128;
#X obj 41 78 & 128;
#X obj 41 97 != 0;
#X obj 41 118 change;
#X obj 142 230 ++;
#X obj 115 164 tgl 15 0 empty empty empty 17 7 0 10 -262144 -1 -1 0
1;
#X obj 130 164 tgl 15 0 empty empty empty 17 7 0 10 -262144 -1 -1 0
1;
#X obj 145 164 tgl 15 0 empty empty empty 17 7 0 10 -262144 -1 -1 0
1;
#X obj 160 164 tgl 15 0 empty empty empty 17 7 0 10 -262144 -1 -1 0
1;
#X obj 175 164 tgl 15 0 empty empty empty 17 7 0 10 -262144 -1 -1 0
1;
#X obj 190 164 tgl 15 0 empty empty empty 17 7 0 10 -262144 -1 -1 0
1;
#X obj 205 164 tgl 15 0 empty empty empty 17 7 0 10 -262144 -1 -1 0
1;
#X obj 91 98 != 0;
#X obj 91 119 change;
#X obj 139 98 != 0;
#X obj 139 119 change;
#X obj 189 99 != 0;
#X obj 189 120 change;
#X obj 237 99 != 0;
#X obj 237 120 change;
#X obj 287 100 != 0;
#X obj 287 121 change;
#X obj 335 100 != 0;
#X obj 335 121 change;
#X obj 385 101 != 0;
#X obj 385 122 change;
#X obj 91 79 & 64;
#X obj 139 79 & 32;
#X obj 188 80 & 16;
#X obj 237 80 & 8;
#X obj 287 81 & 4;
#X obj 335 81 & 2;
#X obj 385 82 & 1;
#X obj 184 230 ++;
#X obj 15 306 outlet;
#X obj 64 305 outlet;
#X obj 113 306 outlet;
#X obj 162 305 outlet;
#X obj 213 306 outlet;
#X obj 262 305 outlet;
#X obj 311 306 outlet;
#X obj 360 305 outlet;
#X obj 416 344 outlet;
#X obj 184 207 * 64;
#X obj 221 230 ++;
#X obj 263 230 ++;
#X obj 301 230 ++;
#X obj 343 230 ++;
#X obj 380 230 ++;
#X obj 221 207 * 32;
#X obj 263 207 * 16;
#X obj 301 207 * 8;
#X obj 343 207 * 4;
#X obj 380 207 * 2;
#X obj 412 207 * 1;
#X obj 428 253 change;
#X obj 428 273 speedlim 2;
#X obj 428 293 change;
#X obj 364 -2 inlet;
#X obj 346 44 speedlim 25;
#X obj 463 63 change;
#X obj 11 10 inlet;
#X obj 52 10 inlet;
#X obj 93 10 inlet;
#X obj 134 10 inlet;
#X obj 177 9 inlet;
#X obj 218 9 inlet;
#X obj 259 9 inlet;
#X obj 300 9 inlet;
#X obj 364 21 route bang;
#X obj 416 322 f;
#X connect 0 0 1 0;
#X connect 0 0 35 0;
#X connect 1 0 5 0;
#X connect 2 0 3 0;
#X connect 3 0 4 0;
#X connect 4 0 0 0;
#X connect 5 0 56 0;
#X connect 6 0 36 0;
#X connect 6 0 44 0;
#X connect 7 0 37 0;
#X connect 7 0 50 0;
#X connect 8 0 38 0;
#X connect 8 0 51 0;
#X connect 9 0 39 0;
#X connect 9 0 52 0;
#X connect 10 0 40 0;
#X connect 10 0 53 0;
#X connect 11 0 41 0;
#X connect 11 0 54 0;
#X connect 12 0 42 0;
#X connect 12 0 55 0;
#X connect 13 0 14 0;
#X connect 14 0 6 0;
#X connect 15 0 16 0;
#X connect 16 0 7 0;
#X connect 17 0 18 0;
#X connect 18 0 8 0;
#X connect 19 0 20 0;
#X connect 20 0 9 0;
#X connect 21 0 22 0;
#X connect 22 0 10 0;
#X connect 23 0 24 0;
#X connect 24 0 11 0;
#X connect 25 0 26 0;
#X connect 26 0 12 0;
#X connect 27 0 13 0;
#X connect 28 0 15 0;
#X connect 29 0 17 0;
#X connect 30 0 19 0;
#X connect 31 0 21 0;
#X connect 32 0 23 0;
#X connect 33 0 25 0;
#X connect 34 0 5 1;
#X connect 44 0 34 0;
#X connect 45 0 34 1;
#X connect 46 0 45 1;
#X connect 47 0 46 1;
#X connect 48 0 47 1;
#X connect 49 0 48 1;
#X connect 50 0 45 0;
#X connect 51 0 46 0;
#X connect 52 0 47 0;
#X connect 53 0 48 0;
#X connect 54 0 49 0;
#X connect 55 0 49 1;
#X connect 56 0 57 0;
#X connect 57 0 58 0;
#X connect 58 0 71 0;
#X connect 59 0 70 0;
#X connect 60 0 2 0;
#X connect 60 0 27 0;
#X connect 60 0 28 0;
#X connect 60 0 29 0;
#X connect 60 0 30 0;
#X connect 60 0 31 0;
#X connect 60 0 32 0;
#X connect 60 0 33 0;
#X connect 61 0 60 0;
#X connect 62 0 0 0;
#X connect 63 0 6 0;
#X connect 64 0 7 0;
#X connect 65 0 8 0;
#X connect 66 0 9 0;
#X connect 67 0 10 0;
#X connect 68 0 11 0;
#X connect 69 0 12 0;
#X connect 70 0 60 0;
#X connect 70 0 71 0;
#X connect 70 1 61 0;
#X connect 70 1 71 0;
#X connect 71 0 43 0;
#X coords 0 -1 1 1 120 30 1 100 150;
