#N canvas 1231 117 545 587 10;
#X declare -path Fraise;
#X obj 22 237 analog/parse;
#X obj 22 262 route 0 1 2 3;
#X floatatom 22 371 8 0 0 0 - - - 0;
#X floatatom 40 345 8 0 0 0 - - - 0;
#X floatatom 59 319 8 0 0 0 - - - 0;
#X floatatom 78 293 8 0 0 0 - - - 0;
#X obj 22 207 fruit/receive fruit1;
#X text 114 235 Analog capture on connector K1 \, K2 \, K3 and K5.;
#X text 109 250 (K4 \, K11 and K12 cannot be analog inputs on Versa1);
#X msg 123 493 L\$1;
#X obj 123 470 tgl 15 0 empty empty set_LED 18 7 0 10 #00fc04 #000000 #000000 0 1;
#X obj 22 399 spigot;
#X obj 80 384 tgl 15 0 empty empty empty 17 7 0 10 #f8fc00 #000000 #000000 0 1;
#X text 102 382 <- switch this on \, then touch the pins of connector K1 to drive the led on., f 30;
#X obj 22 429 > 500;
#X text 135 292 K5 is programmed for capacitive touch measurement \; connect a small isolated conductive surface \, and you should see the value decreasing slightly when the surface is touched.;
#X obj 24 516 fruit/send fruit1;
#X obj 21 123 fruit/fruit 1 fruit1 10 example1-Versa2;
#X obj 348 418 route 0 1 2 3;
#X floatatom 348 527 8 0 0 0 - - - 0;
#X floatatom 366 501 8 0 0 0 - - - 0;
#X floatatom 385 475 8 0 0 0 - - - 0;
#X floatatom 404 449 8 0 0 0 - - - 0;
#X obj 348 399 analog/normalize 5;
#X msg 147 528 EHello;
#X obj 177 354 print fromFruit;
#X obj 21 16 declare -path Fraise;
#X obj 21 38 pied/pied 1;
#X connect 0 0 1 0;
#X connect 0 0 23 0;
#X connect 0 1 25 0;
#X connect 1 0 2 0;
#X connect 1 1 3 0;
#X connect 1 2 4 0;
#X connect 1 3 5 0;
#X connect 2 0 11 0;
#X connect 6 0 0 0;
#X connect 9 0 16 1;
#X connect 10 0 9 0;
#X connect 11 0 14 0;
#X connect 12 0 11 1;
#X connect 14 0 10 0;
#X connect 18 0 19 0;
#X connect 18 1 20 0;
#X connect 18 2 21 0;
#X connect 18 3 22 0;
#X connect 23 0 18 0;
#X connect 24 0 16 1;
