#N canvas 552 122 638 579 10;
#X declare -path Fraise -stdpath Fraise;
#X obj 22 237 analog/parse;
#X obj 22 262 route 0 1 2 3;
#X floatatom 22 371 8 0 0 0 - - -;
#X floatatom 40 345 8 0 0 0 - - -;
#X floatatom 59 319 8 0 0 0 - - -;
#X floatatom 78 293 8 0 0 0 - - -;
#X obj 22 207 fruit/receive fruit1;
#X text 114 235 Analog capture on connector K1 \, K2 \, K3 and K5.
;
#X obj 19 141 fruit/fruit 1 fruit1 10 example1;
#X text 109 250 (K4 \, K11 and K12 cannot be analog inputs on Versa1)
;
#X msg 125 515 L\$1;
#X obj 125 492 tgl 15 0 empty empty set_LED 18 7 0 10 -4034 -1 -1 0
1;
#X obj 216 456 tgl 15 0 empty empty empty 17 7 0 10 -262144 -1 -1 0
1;
#X msg 267 431 20;
#X floatatom 267 453 5 2 1000 0 - - -;
#X msg 297 430 100;
#X obj 216 475 metro 100;
#X obj 20 541 fruit/send2 fruit1;
#X obj 21 38 pied/pied 0 41424;
#X obj 22 399 spigot;
#X obj 80 384 tgl 15 0 empty empty empty 17 7 0 10 -257985 -1 -1 0
1;
#X text 102 382 <- switch this on \, then touch the pins of connector
K1 to drive the led on., f 30;
#X obj 22 474 > 500;
#X obj 21 16 declare -path Fraise -stdpath Fraise;
#X text 135 292 K5 is programmed for capacitive touch measurement \;
connect a small isolated conductive surface \, and you should see the
value decreasing slightly when the surface is touched.;
#X obj 519 286 analog/normalize 3;
#X obj 519 305 route 0 1 2 3;
#X floatatom 519 414 8 0 0 0 - - -;
#X floatatom 537 388 8 0 0 0 - - -;
#X floatatom 556 362 8 0 0 0 - - -;
#X floatatom 575 336 8 0 0 0 - - -;
#X connect 0 0 1 0;
#X connect 0 0 25 0;
#X connect 1 0 2 0;
#X connect 1 1 3 0;
#X connect 1 2 4 0;
#X connect 1 3 5 0;
#X connect 2 0 19 0;
#X connect 6 0 0 0;
#X connect 10 0 17 1;
#X connect 11 0 10 0;
#X connect 12 0 16 0;
#X connect 13 0 14 0;
#X connect 14 0 16 1;
#X connect 15 0 14 0;
#X connect 16 0 11 0;
#X connect 19 0 22 0;
#X connect 20 0 19 1;
#X connect 22 0 11 0;
#X connect 25 0 26 0;
#X connect 26 0 27 0;
#X connect 26 1 28 0;
#X connect 26 2 29 0;
#X connect 26 3 30 0;
