#N canvas 815 366 883 470 12;
#X declare -path Fraise;
#X obj 24 12 declare -path Fraise;
#X msg 383 333 Ehello;
#X obj 26 76 pied/pied 1;
#X msg 267 332 c 1 c \$1;
#X obj 618 338 fruit/receive fruit1;
#X text 24 42 This is the "pied". It represents the USB-connected pico \, and acts as the master for the "fruits".;
#X text 18 170 This is the fruit number 0 It's actually a virtual fruit \, hosted by the pied., f 30;
#X msg 383 233 Ehello;
#X msg 267 231 c 1 c \$1;
#X obj 270 205 hsl 170 20 2 40 0 0 empty empty led\ period 5 10 0 12 #fcfcfc #000000 #000000 0 1;
#X obj 620 239 print from_fruit0;
#X obj 620 215 fruit/receive fruit0;
#X obj 267 258 fruit/send fruit0;
#X obj 267 358 fruit/send fruit1;
#X text 23 290 This is another fruit. It must be connected to the Fraise bus., f 31;
#X obj 618 363 print from_fruit1;
#X text 264 169 We can talk to the fruit with fruit/send:;
#X text 594 168 fruit/receive allows to listen to the messages emitted by the fruit:, f 37;
#X obj 22 220 fruit/fruit 1 fruit0 0 fw_blink;
#X obj 24 327 fruit/fruit 1 fruit1 1 fw_blink;
#X text 27 416 Fruit arguments:;
#X text 250 80 Pied arguments:;
#X text 251 98 pied/pied pied_id;
#X text 25 433 fruit/fruit pied_id fruit_name fruit_id firmware_directory;
#X obj 270 307 hsl 170 20 2 40 0 0 empty empty led\ period 5 10 0 12 #fcfcfc #000000 #000000 0 1;
#X connect 1 0 13 1;
#X connect 3 0 13 0;
#X connect 4 0 15 0;
#X connect 7 0 12 1;
#X connect 8 0 12 0;
#X connect 9 0 8 0;
#X connect 11 0 10 0;
#X connect 24 0 3 0;
