#N canvas 648 388 737 470 12;
#X declare -path Fraise;
#X obj 26 6 declare -path Fraise;
#X msg 383 333 Ehello;
#X msg 267 332 c 1 c \$1;
#X obj 520 310 fruit/receive fruit1;
#X text 18 170 This is the fruit number 0 It's actually a virtual fruit \, hosted by the pied., f 30;
#X msg 383 233 Ehello;
#X msg 267 231 c 1 c \$1;
#X obj 270 205 hsl 170 20 2 40 0 0 empty empty led\ period 5 10 0 12 #ffe3c6 #7c7c7c #000000 0 1;
#X obj 522 249 print from_fruit0;
#X obj 522 225 fruit/receive fruit0;
#X obj 267 258 fruit/send fruit0;
#X obj 267 358 fruit/send fruit1;
#X text 21 293 This is another fruit. It must be connected to the Fraise bus., f 31;
#X obj 520 335 print from_fruit1;
#X text 266 167 We can talk to the fruit with fruit/send:, f 30;
#X text 514 166 fruit/receive allows to listen to the messages emitted by the fruit:, f 30;
#X obj 22 220 fruit/fruit 1 fruit0 0 fw_blink;
#X obj 270 307 hsl 170 20 2 40 0 0 empty empty led\ period 5 10 0 12 #ffe3c6 #7c7c7c #000000 0 1;
#X text 27 403 Pied arguments: pied/pied pied_id;
#X text 27 427 Fruit arguments: fruit/fruit pied_id fruit_name fruit_id firmware_directory, f 78;
#X obj 13 154 cnv 10 700 10 empty empty empty 20 12 0 12 #bbbbbb #404040 0;
#X obj 26 76 pied/pied 1;
#X text 24 42 This is the "pied". It represents the USB-connected pico \, and acts as the master for the "fruits".;
#X obj 13 282 cnv 10 700 10 empty empty empty 20 12 0 12 #bbbbbb #404040 0;
#X obj 13 387 cnv 10 700 10 empty empty empty 20 12 0 12 #bbbbbb #404040 0;
#X obj 13 451 cnv 10 700 10 empty empty empty 20 12 0 12 #bbbbbb #404040 0;
#X obj 13 31 cnv 10 700 10 empty empty empty 20 12 0 12 #bbbbbb #404040 0;
#X obj 22 330 fruit/fruit 1 fruit1 1 fw_blink;
#X connect 1 0 11 1;
#X connect 2 0 11 0;
#X connect 3 0 13 0;
#X connect 5 0 10 1;
#X connect 6 0 10 0;
#X connect 7 0 6 0;
#X connect 9 0 8 0;
#X connect 17 0 2 0;
