#N canvas 983 222 372 334 10;
#X declare -lib moonlib;
#X obj 21 39 cnv 15 150 25 empty \$0-stastocan-rcv empty 20 12 0 14
-166441 -1 0;
#X obj 26 47 tgl 15 1 \$0-on-snd \$0-on-rcv on 0 -6 1 8 -258699 -1
-1 1 1;
#X obj 100 43 cnv 15 70 20 empty \$0-pied_can-rcv pied_actif 2 12 1
12 -241291 -1 0;
#X obj 121 167 r \$0-fruitpresent;
#X obj 240 167 r Fraise-\$2-snd;
#N canvas 927 242 450 543 rename 0;
#X obj 76 149 s \$0-2Fr2;
#X obj 76 102 symbol \$2;
#X msg 76 124 Boot rename \$1;
#X obj 45 72 bng 15 250 50 0 empty empty empty 17 7 0 10 -262144 -1
-1;
#X obj 220 64 r \$0-Fr2;
#X obj 222 110 route \$2;
#X obj 222 141 route renamed rename_error;
#X obj 222 192 s \$0-assign;
#X obj 76 77 r \$0-rename;
#X obj 327 106 print;
#X obj 222 87 route Boot;
#X obj 222 165 b;
#X obj 53 449 symbol RENAME:\$2;
#X obj 55 227 metro 500;
#X obj 55 252 i;
#X obj 74 274 + 1;
#X msg 81 206 0;
#X obj 55 172 t b b;
#X msg 123 207 0;
#X msg 52 208 1;
#X obj 55 302 t f f;
#X obj 53 325 mod 2;
#X obj 52 381 pack f f;
#X obj 95 318 div 2;
#X obj 52 402 route 0 1;
#X obj 52 425 b;
#X msg 68 478 label \$1;
#X obj 73 502 s \$0-rename-rcv;
#X obj 235 366 symbol RENAME:ERROR!;
#X obj 116 271 sel 21;
#X obj 301 320 bng 15 250 50 0 empty empty empty 17 7 0 10 -262144
-1 -1;
#X obj 238 297 b;
#X obj 193 336 del 4000;
#X floatatom 10 273 5 0 0 0 - - -;
#X obj 16 427 bng 15 250 50 0 empty empty empty 17 7 0 10 -262144 -1
-1;
#X msg 145 401 5;
#X obj 73 428 makefilename _____%d______;
#X obj 94 341 * -1;
#X obj 94 362 + 10;
#X obj 190 259 symbol RENAME:SUCCESS;
#X connect 1 0 2 0;
#X connect 2 0 0 0;
#X connect 2 0 17 0;
#X connect 3 0 1 0;
#X connect 4 0 10 0;
#X connect 5 0 6 0;
#X connect 6 0 11 0;
#X connect 6 1 16 0;
#X connect 6 1 31 0;
#X connect 8 0 1 0;
#X connect 10 0 5 0;
#X connect 11 0 7 0;
#X connect 11 0 16 0;
#X connect 11 0 39 0;
#X connect 11 0 32 0;
#X connect 12 0 26 0;
#X connect 13 0 14 0;
#X connect 14 0 15 0;
#X connect 14 0 20 0;
#X connect 15 0 29 0;
#X connect 16 0 13 0;
#X connect 17 0 19 0;
#X connect 17 1 18 0;
#X connect 18 0 14 1;
#X connect 19 0 13 0;
#X connect 20 0 21 0;
#X connect 20 1 23 0;
#X connect 21 0 22 0;
#X connect 22 0 24 0;
#X connect 23 0 37 0;
#X connect 24 0 25 0;
#X connect 24 1 36 0;
#X connect 25 0 12 0;
#X connect 26 0 27 0;
#X connect 28 0 26 0;
#X connect 29 0 16 0;
#X connect 29 1 14 1;
#X connect 30 0 28 0;
#X connect 31 0 28 0;
#X connect 31 0 32 0;
#X connect 32 0 12 0;
#X connect 33 0 20 0;
#X connect 34 0 12 0;
#X connect 35 0 36 0;
#X connect 36 0 26 0;
#X connect 37 0 38 0;
#X connect 38 0 22 1;
#X connect 39 0 26 0;
#X restore 22 207 pd rename;
#N canvas 4 75 450 300 assign 0;
#X obj 83 71 symbol \$2;
#X obj 83 94 pack s \$3;
#X obj 83 137 s \$0-2Fr2;
#X msg 83 117 Assign \$1 \$2 \, Status 0;
#X obj 83 48 r \$0-assign;
#X connect 0 0 1 0;
#X connect 1 0 3 0;
#X connect 3 0 2 0;
#X connect 4 0 0 0;
#X restore 22 232 pd assign;
#X obj 46 47 bng 15 250 50 0 \$0-showutils-snd \$0-showutils-rcv utils
17 7 0 10 -4034 -1 -1;
#N canvas 678 129 327 107 \$0-utils 0;
#X obj 1 2 cnv 15 320 100 empty empty empty 20 12 0 14 -57730 -66577
0;
#X obj 179 39 bng 15 250 50 0 \$0-assign \$0-assign-rcv ASSIGN_ID:1
-15 20 1 10 -4034 -1 -4034;
#X obj 179 10 bng 15 250 50 0 \$0-rename \$0-rename-rcv RENAME:Bid1
-15 20 1 10 -258113 -1 -258113;
#X obj 116 83 cnv 10 120 15 \$0-progressbg-snd \$0-progressbg-rcv empty
30 -10 0 10 -83269 -257985 0;
#X obj 136 83 cnv 5 100 15 \$0-progressfg-snd \$0-progressfg-rcv empty
105 8 0 10 -241291 -241291 0;
#X obj 118 83 bng 15 250 50 0 \$0-program \$0-program-rcv PROGRAM:Bid.hex
0 -8 1 10 -241291 -1 -241291;
#X obj 21 8 bng 15 250 50 0 \$0-progboot empty PROG_BOOTLOADER -15
20 1 10 -159808 -1 -159808;
#X obj 4 38 cnv 15 100 60 empty empty empty 20 12 0 14 -99865 -66577
0;
#X obj 8 42 bng 15 250 50 0 \$0-make empty MAKE 17 8 1 10 -4032 -1
-4032;
#X obj 10 61 hsl 90 15 0 127 0 0 \$0-make-rambg-snd \$0-make-rambg-rcv
empty -2 8 0 10 -191407 -191407 -1 0 1;
#X obj 10 61 hsl 26 15 0 127 0 0 \$0-make-ram-snd \$0-make-ram-rcv
RAM:1156/3879 -2 8 0 10 -2816 -2816 -1 0 1;
#X obj 10 79 hsl 90 15 0 127 0 0 \$0-make-rombg-snd \$0-make-rombg-rcv
empty -2 8 0 10 -191407 -191407 -1 0 1;
#X obj 10 79 hsl 24 15 0 127 0 0 \$0-make-rom-snd \$0-make-rom-rcv
ROM:17158/63488 -2 8 0 10 -1984 -1984 -1 0 1;
#X obj 146 27 image fraise.gif 0;
#X restore 22 180 pd \$0-utils;
#N canvas 595 556 473 361 Fr2_interface 0;
#X obj 25 11 r Fr2;
#X obj 141 235 tgl 15 0 empty empty empty 17 7 0 10 -262144 -1 -1 0
1;
#X obj 25 32 route \$1;
#X obj 24 119 tgl 15 0 empty empty empty 17 7 0 10 -262144 -1 -1 1
1;
#X obj 141 190 del 100;
#X obj 141 169 t b f;
#X obj 141 213 f;
#X obj 24 138 s \$0-piedactif;
#X obj 141 280 s \$0-fruitpresent;
#X obj 25 52 s \$0-Fr2;
#X obj 24 76 r \$0-Fr2;
#X obj 24 166 r \$0-2Fr2;
#X obj 24 270 glue;
#X obj 64 248 a2l;
#X obj 24 290 route list;
#X obj 24 226 t b a;
#X obj 24 248 l \$1;
#X obj 24 313 s 2Fr2;
#X obj 141 122 route \$3;
#X obj 24 97 route actif;
#X obj 159 238 r \$0-piedactif;
#X obj 141 259 &&;
#X text 308 211 data from child;
#X msg 337 189 present \$1;
#X obj 305 231 s Fraise-\$2-snd;
#X obj 337 168 r \$0-fruitpresent;
#X obj 141 147 route present wrerror;
#X obj 203 187 s \$0-wrerror;
#X obj 273 236 bng 15 250 50 0 empty empty empty 17 7 0 10 -262144
-1 -1;
#X connect 0 0 2 0;
#X connect 1 0 21 0;
#X connect 2 0 9 0;
#X connect 3 0 7 0;
#X connect 4 0 6 0;
#X connect 5 0 4 0;
#X connect 5 1 6 1;
#X connect 6 0 1 0;
#X connect 10 0 19 0;
#X connect 11 0 15 0;
#X connect 12 0 14 0;
#X connect 13 0 12 1;
#X connect 14 0 17 0;
#X connect 15 0 16 0;
#X connect 15 1 13 0;
#X connect 16 0 12 0;
#X connect 18 0 26 0;
#X connect 19 0 3 0;
#X connect 19 1 18 0;
#X connect 20 0 21 1;
#X connect 21 0 8 0;
#X connect 23 0 24 0;
#X connect 25 0 23 0;
#X connect 26 0 5 0;
#X connect 26 1 27 0;
#X connect 26 1 28 0;
#X connect 26 2 24 0;
#X restore 22 82 pd Fr2_interface;
#N canvas 5 122 450 300 status 0;
#X obj 42 32 loadbang;
#X obj 42 96 s \$0-2Fr2;
#X msg 42 74 Status 0;
#X obj 42 52 t b b;
#X obj 109 80 s \$0-piedactif;
#X obj 131 105 s \$0-fruitpresent;
#X msg 131 53 0;
#X connect 0 0 3 0;
#X connect 2 0 1 0;
#X connect 3 0 2 0;
#X connect 3 1 6 0;
#X connect 6 0 4 0;
#X connect 6 0 5 0;
#X restore 22 105 pd status;
#X text 18 0 usage: Fr2Fruit piedid fruitname fruitid firmware;
#N canvas 4 199 355 250 tochild 0;
#X obj 79 197 s \$0-2Fr2;
#X text 25 10 data to child;
#X obj 37 29 r Fraise-\$2-rcv;
#X obj 164 29 r Fraise-\$2-C-rcv;
#X obj 164 51 list prepend OutC \$3;
#X obj 37 52 list prepend Out \$3;
#X obj 79 114 list trim;
#X obj 79 160 spigot 1;
#X obj 171 83 r \$0-wrerror;
#X msg 177 154 1;
#X msg 146 132 0;
#X obj 248 154 bng 15 250 50 0 empty empty empty 17 7 0 10 -262144
-1 -1;
#X obj 170 109 b;
#X obj 177 134 del 500;
#X connect 2 0 5 0;
#X connect 3 0 4 0;
#X connect 4 0 6 0;
#X connect 5 0 6 0;
#X connect 6 0 7 0;
#X connect 7 0 0 0;
#X connect 8 0 11 0;
#X connect 8 0 12 0;
#X connect 9 0 7 1;
#X connect 10 0 7 1;
#X connect 12 0 10 0;
#X connect 12 0 13 0;
#X connect 13 0 9 0;
#X restore 22 133 pd tochild;
#X obj 121 140 s Fraise-\$2-rcv;
#N canvas 623 81 425 323 UI 0;
#N canvas 63 347 394 241 canvascolor 0;
#X obj 15 13 inlet;
#X obj 15 103 s \$0-stastocan-rcv;
#X msg 15 74 color 1 13 22;
#X msg 114 74 color 15 13 22;
#X obj 15 37 sel 0 1 2;
#X msg 208 73 color 13 13 22;
#X connect 0 0 4 0;
#X connect 2 0 1 0;
#X connect 3 0 1 0;
#X connect 4 0 2 0;
#X connect 4 1 3 0;
#X connect 4 2 5 0;
#X connect 5 0 1 0;
#X restore 34 185 pd canvascolor;
#N canvas 582 476 347 343 pied_can 0;
#X obj 17 17 inlet;
#X obj 17 125 s \$0-pied_can-rcv;
#X msg 17 70 color 1 13 22 \, label pied_inactif;
#X msg 36 98 color 15 13 22 \, label pied_actif;
#X obj 272 32 tgl 15 0 empty empty empty 17 7 0 10 -262144 -1 -1 0
1;
#X obj 17 43 sel 0 1;
#X connect 0 0 5 0;
#X connect 2 0 1 0;
#X connect 3 0 1 0;
#X connect 5 0 2 0;
#X connect 5 1 3 0;
#X restore 34 2 pd pied_can;
#X obj 34 -20 r \$0-piedactif;
#X obj 34 26 r \$0-fruitpresent;
#X obj 35 -114 r \$0-showutils-snd;
#N canvas 446 548 506 316 program 0;
#X obj 43 15 r \$0-Fr2;
#X obj 43 35 route Boot;
#X obj 43 93 route prog_progress programmed program_error;
#X obj 44 164 * 100;
#X obj 44 185 i;
#X obj 44 206 change;
#X msg 33 255 label \$1%;
#X obj 186 57 hsl 128 15 0 1 0 0 empty empty empty -2 -8 0 10 -262144
-1 -1 0 1;
#X obj 44 140 f;
#X obj 246 276 s \$0-progressfg-rcv;
#X msg 246 253 vis_size \$1 15;
#X msg 246 158 1;
#X msg 105 240 label done;
#X obj 33 279 s \$0-progressfg-rcv;
#X obj 313 164 r \$0-program;
#X obj 171 32 print;
#X obj 43 61 route \$2;
#X msg 313 185 color 15 22 15;
#X msg 314 221 color 16 22 16;
#X msg 294 137 color 13 22 13;
#X obj 374 274 s \$0-program-rcv;
#X obj 44 116 clip 0 1;
#X msg 169 280 label;
#X msg 204 231 0;
#X obj 169 257 loadbang;
#X msg 92 207 label ERROR!;
#X obj 246 230 * 100;
#X connect 0 0 1 0;
#X connect 1 0 16 0;
#X connect 2 0 21 0;
#X connect 2 1 11 0;
#X connect 2 1 12 0;
#X connect 2 1 18 0;
#X connect 2 2 19 0;
#X connect 2 2 25 0;
#X connect 3 0 4 0;
#X connect 4 0 5 0;
#X connect 5 0 6 0;
#X connect 6 0 13 0;
#X connect 7 0 8 0;
#X connect 8 0 3 0;
#X connect 8 0 26 0;
#X connect 10 0 9 0;
#X connect 11 0 26 0;
#X connect 12 0 13 0;
#X connect 14 0 17 0;
#X connect 16 0 2 0;
#X connect 17 0 9 0;
#X connect 17 0 20 0;
#X connect 18 0 9 0;
#X connect 18 0 20 0;
#X connect 19 0 9 0;
#X connect 19 0 20 0;
#X connect 21 0 8 0;
#X connect 22 0 13 0;
#X connect 23 0 10 0;
#X connect 24 0 22 0;
#X connect 24 0 11 0;
#X connect 24 0 17 0;
#X connect 25 0 13 0;
#X connect 26 0 10 0;
#X restore 168 164 pd program;
#X obj 80 52 r \$0-wrerror;
#X obj 79 74 b;
#X obj 79 95 del 500;
#X msg 49 113 2;
#X msg 79 115 1;
#N canvas 418 570 450 300 make 0;
#X obj 53 25 r \$0-Fr2;
#X obj 53 45 route Boot;
#X obj 53 71 route \$2;
#X obj 53 99 route RAM ROM;
#X obj 100 165 clip 0 100;
#X obj 100 187 * 0.9;
#X obj 13 253 s \$0-make-ram-rcv;
#X msg 100 214 size \$1 15;
#X obj 278 175 clip 0 100;
#X obj 278 197 * 0.9;
#X msg 278 224 size \$1 15;
#X obj 176 257 s \$0-make-rom-rcv;
#X msg -8 175 label RAM:\$1/\$2;
#X msg 101 144 \$3;
#X msg 176 177 label ROM:\$1/\$2;
#X msg 278 151 \$3;
#X msg 204 85 label;
#X msg 249 85 100;
#X obj 230 17 loadbang;
#X obj 231 41 b;
#X obj 206 25 bng 15 250 50 0 empty empty empty 17 7 0 10 -262144 -1
-1;
#X obj 291 18 r \$0-UImeminit;
#X connect 0 0 1 0;
#X connect 1 0 2 0;
#X connect 2 0 3 0;
#X connect 3 0 12 0;
#X connect 3 0 13 0;
#X connect 3 1 14 0;
#X connect 3 1 15 0;
#X connect 4 0 5 0;
#X connect 5 0 7 0;
#X connect 7 0 6 0;
#X connect 8 0 9 0;
#X connect 9 0 10 0;
#X connect 10 0 11 0;
#X connect 12 0 6 0;
#X connect 13 0 4 0;
#X connect 14 0 11 0;
#X connect 15 0 8 0;
#X connect 16 0 6 0;
#X connect 16 0 11 0;
#X connect 17 0 8 0;
#X connect 17 0 4 0;
#X connect 18 0 19 0;
#X connect 19 0 16 0;
#X connect 19 0 17 0;
#X connect 20 0 19 0;
#X connect 21 0 19 0;
#X restore 238 163 pd make;
#X obj 205 -90 bng 15 250 50 0 empty empty empty 17 7 0 10 -262144
-1 -1;
#X obj 205 110 s \$0-rename-rcv;
#X msg 205 87 label RENAME:\$1;
#X msg 239 43 label ASSIGN_ID:\$1;
#X obj 239 64 s \$0-assign-rcv;
#X obj 205 -61 init \$2 \$3 \$4;
#X obj 205 -35 unpack s f s;
#X obj 274 11 s \$0-program-rcv;
#X msg 274 -10 label PROGRAM:\$1.hex;
#X obj 46 136 t b f;
#X obj 34 160 * 1;
#X obj 35 -93 symbol pd-\$0-utils;
#X msg 35 -69 \; \$1 vis 0 \; \$1 vis 1;
#X connect 2 0 1 0;
#X connect 3 0 22 0;
#X connect 4 0 23 0;
#X connect 6 0 7 0;
#X connect 7 0 8 0;
#X connect 7 0 9 0;
#X connect 8 0 10 0;
#X connect 9 0 21 0;
#X connect 10 0 21 0;
#X connect 12 0 17 0;
#X connect 14 0 13 0;
#X connect 15 0 16 0;
#X connect 17 0 18 0;
#X connect 18 0 14 0;
#X connect 18 1 15 0;
#X connect 18 2 20 0;
#X connect 20 0 19 0;
#X connect 21 0 22 0;
#X connect 21 1 22 1;
#X connect 22 0 0 0;
#X connect 23 0 24 0;
#X restore 22 158 pd UI;
#X obj 121 187 outlet on;
#X obj 240 189 outlet data;
#X obj 121 120 inlet data;
#N canvas 4 85 450 300 select 0;
#X obj 44 18 r \$0-piedactif;
#X obj 44 228 s \$0-2Fr2;
#X obj 44 178 f \$3;
#X obj 121 178 f \$3;
#X msg 121 198 Deselect \$1;
#X msg 44 199 Select \$1;
#X obj 44 133 sel 1 0;
#X obj 158 173 s \$0-fruitpresent;
#X msg 158 153 0;
#X obj 127 245 bng 15 250 50 0 empty empty empty 17 7 0 10 -262144
-1 -1;
#X obj 44 109 change -1;
#X obj 44 88 &&;
#X obj 55 64 t b f;
#X obj 55 42 r \$0-on-snd;
#X obj 44 157 del 100;
#X connect 0 0 11 0;
#X connect 2 0 5 0;
#X connect 3 0 4 0;
#X connect 4 0 1 0;
#X connect 5 0 1 0;
#X connect 6 0 14 0;
#X connect 6 1 8 0;
#X connect 6 1 3 0;
#X connect 8 0 7 0;
#X connect 10 0 6 0;
#X connect 11 0 10 0;
#X connect 12 0 11 0;
#X connect 12 1 11 1;
#X connect 13 0 12 0;
#X connect 14 0 2 0;
#X restore 23 257 pd select;
#N canvas 151 439 335 253 program 0;
#X obj 42 28 bng 15 250 50 0 empty empty empty 17 7 0 10 -262144 -1
-1;
#X obj 90 102 symbol \$4;
#X obj 90 81 loadbang;
#X obj 62 125 pack s s s;
#X obj 160 82 loadbang;
#X obj 160 103 symbol \$2;
#X msg 62 153 Boot program \$3 \$1/\$2/\$2.hex;
#X obj 62 27 r \$0-program;
#X obj 62 189 s \$0-2Fr2;
#X obj 245 84 print;
#X obj 223 19 bng 15 250 50 0 empty empty empty 17 7 0 10 -262144 -1
-1;
#X obj 221 42 getdir 2;
#X obj 62 53 getdir 2;
#X connect 0 0 12 0;
#X connect 1 0 3 1;
#X connect 2 0 1 0;
#X connect 3 0 6 0;
#X connect 4 0 5 0;
#X connect 5 0 3 2;
#X connect 6 0 8 0;
#X connect 7 0 12 0;
#X connect 10 0 11 0;
#X connect 11 0 9 0;
#X connect 12 0 3 0;
#X restore 22 303 pd program;
#N canvas 791 425 450 300 make 0;
#X obj 48 14 bng 15 250 50 0 empty empty empty 17 7 0 10 -262144 -1
-1;
#X obj 100 112 symbol \$4;
#X obj 100 91 loadbang;
#X obj 72 135 pack s s s;
#X obj 170 92 loadbang;
#X obj 170 113 symbol \$2;
#X obj 72 199 s \$0-2Fr2;
#X msg 72 163 Boot make \$3 \$1/\$2;
#X obj 72 11 r \$0-make;
#X obj 186 57 bng 15 250 50 0 empty empty empty 17 7 0 10 -262144 -1
-1;
#X text 190 162 make Fruitname SourcePath;
#X obj 145 234 print;
#X obj 72 63 getdir 2;
#X obj 113 38 s \$0-UImeminit;
#X obj 72 37 t b b;
#X connect 0 0 14 0;
#X connect 1 0 3 1;
#X connect 2 0 1 0;
#X connect 3 0 7 0;
#X connect 4 0 5 0;
#X connect 5 0 3 2;
#X connect 7 0 6 0;
#X connect 8 0 14 0;
#X connect 9 0 5 0;
#X connect 9 0 1 0;
#X connect 12 0 3 0;
#X connect 14 0 12 0;
#X connect 14 1 13 0;
#X restore 23 280 pd make;
#N canvas 29 572 450 300 progbootloader 0;
#X obj 62 48 bng 15 250 50 0 empty empty empty 17 7 0 10 -262144 -1
-1;
#X obj 110 122 symbol \$4;
#X obj 110 101 loadbang;
#X obj 82 145 pack s s s;
#X obj 180 102 loadbang;
#X obj 180 123 symbol \$2;
#X obj 82 209 s \$0-2Fr2;
#X obj 82 73 getdir 2;
#X obj 196 67 bng 15 250 50 0 empty empty empty 17 7 0 10 -262144 -1
-1;
#X obj 82 47 r \$0-progboot;
#X msg 82 173 Boot progboot \$3 \$1/\$2;
#X connect 0 0 7 0;
#X connect 1 0 3 1;
#X connect 2 0 1 0;
#X connect 3 0 10 0;
#X connect 4 0 5 0;
#X connect 5 0 3 2;
#X connect 7 0 3 0;
#X connect 8 0 5 0;
#X connect 8 0 1 0;
#X connect 9 0 7 0;
#X connect 10 0 6 0;
#X restore 75 280 pd progbootloader;
#X obj 209 28 import moonlib;
#X connect 3 0 15 0;
#X connect 4 0 16 0;
#X connect 17 0 13 0;
#X coords 0 -1 1 1 152 45 1 20 20;
