#N canvas 84 480 372 373 10;
#X declare -lib motex -lib hcs -lib maxlib -lib ggee -lib zexy -lib
list-abs;
#X declare -lib moonlib -lib iemlib;
#X obj 21 51 cnv 10 150 30 empty \$0-stastocan-rcv empty 20 12 0 14
-241291 -1 0;
#X obj 20 51 tgl 15 0 \$0-on-snd \$0-on-rcv on 2 7 1 8 -258699 -258699
-262144 1 1;
#X obj 21 30 inlet;
#X obj 15 238 outlet;
#X obj 15 193 r \$0-pied;
#X obj 15 215 route actif;
#N canvas 630 114 590 466 FromFraise 0;
#X obj 381 122 print;
#X obj 381 99 spigot;
#X obj 425 101 tgl 15 0 empty empty empty 17 7 0 10 -262144 -1 -1 0
1;
#X obj 173 103 spigot;
#X obj 218 103 tgl 15 0 empty empty empty 17 7 0 10 -262144 -1 -1 1
1;
#X obj 173 123 print fraise_system;
#X obj 237 103 init 1;
#X obj 461 277 s \$0-pied-rcv;
#X obj 161 268 route UsbFraise;
#X symbolatom 91 325 10 0 0 0 - - -;
#X obj 161 330 s \$0-version;
#X obj 270 364 s \$0-pied;
#X msg 270 342 actif 1;
#X msg 405 275 actif 0;
#X msg 359 275 symbol;
#X obj 161 292 symbol;
#X obj 196 176 s \$0-piedID;
#X obj 231 221 s \$0-Fr2;
#X obj 365 162 r \$0-opened;
#X msg 231 199 \$1 present \$2;
#X obj 365 184 sel 0 1;
#X obj 161 20 r \$0-piedraw-snd;
#X msg 281 250 -1;
#X obj 281 269 s \$0-piedID;
#X obj 312 123 s \$0-Fr2;
#X obj 405 310 s \$0-Fr2;
#X obj 365 208 t b b;
#X msg 461 253 #i \, #V \, #R;
#X obj 72 178 print;
#X obj 161 153 route V ID present wrerror;
#X msg 275 181 \$1 wrerror 1;
#X floatatom 360 372 5 0 0 0 - - -;
#X obj 270 319 del 50;
#X msg 323 320 stop;
#X obj 270 297 b;
#X msg 461 206 stop;
#X obj 487 333 bng 15 250 50 0 empty empty empty 17 7 0 10 -262144
-1 -1;
#X obj 461 231 del 250;
#X obj 515 204 bng 15 250 50 0 empty empty empty 17 7 0 10 -262144
-1 -1;
#N canvas 23 245 470 591 totext_separe-system-data 0;
#X obj -123 39 inlet;
#X obj -90 137 f2char;
#X obj -90 159 repack 512;
#X obj -123 62 sel 10;
#X obj 181 137 l2s;
#X obj 145 250 outlet;
#X obj 196 113 symbol;
#X obj 196 92 loadbang;
#X obj 181 158 s2l;
#X obj 181 180 list trim;
#X obj -129 153 bng 15 250 50 0 empty empty empty 17 7 0 10 -262144
-1 -1;
#X obj -90 188 list trim;
#X obj -90 211 route s;
#X obj 73 297 l2s;
#X obj 73 318 s2l;
#X obj 73 340 list trim;
#X obj -45 431 outlet system;
#X obj -149 269 route D;
#X obj -149 290 hexa2dec;
#X floatatom -149 312 5 0 0 0 - - -;
#X obj -96 314 hexa2dec;
#X obj -11 312 hexa2dec;
#X msg -149 333 ID \$1;
#X msg -96 334 present \$1 0;
#X msg -11 332 present \$1 1;
#X obj 88 277 symbol;
#X obj 88 255 loadbang;
#X obj 227 205 s \$0-pied-snd;
#X obj 181 202 outlet;
#X obj 173 89 bng 15 250 50 0 empty empty empty 17 7 0 10 -262144 -1
-1;
#X obj -90 84 moses 32;
#X obj -45 104 moses 127;
#X obj -90 235 route I c C T;
#X obj 83 374 hexa2dec;
#X msg 83 395 wrerror \$1;
#X obj 179 375 print;
#N canvas 945 464 326 378 num/string-toFruits 0;
#X obj 40 -30 inlet;
#X obj 40 17 t a a;
#X obj 40 110 demux;
#X obj 120 290 outlet;
#X obj 40 -10 a2l;
#X obj 63 165 repack 2;
#X obj 63 236 repack 60;
#X obj 40 138 t b a b;
#X obj 63 187 unpack s s;
#X obj 63 256 route bang;
#X obj 217 207 l2s;
#X obj 148 208 hexa2dec;
#X obj 63 212 hexa2dec;
#X obj 67 41 unwonk s s;
#X obj 67 85 > 128;
#X obj 67 64 hexa2dec;
#X obj 232 186 symbol;
#X obj 232 166 loadbang;
#X obj 148 254 list append;
#X obj 148 185 unwonk s s s;
#X obj 217 229 s2l;
#X obj 148 230 - 128;
#X obj 189 299 print;
#X connect 0 0 4 0;
#X connect 1 0 2 0;
#X connect 1 1 13 0;
#X connect 2 0 7 0;
#X connect 2 1 19 0;
#X connect 4 0 1 0;
#X connect 5 0 8 0;
#X connect 6 0 9 0;
#X connect 7 0 6 0;
#X connect 7 1 5 0;
#X connect 7 2 5 0;
#X connect 8 0 12 0;
#X connect 8 1 12 1;
#X connect 9 1 3 0;
#X connect 10 0 20 0;
#X connect 11 0 21 0;
#X connect 12 0 6 0;
#X connect 13 0 15 0;
#X connect 13 1 15 1;
#X connect 14 0 2 1;
#X connect 15 0 14 0;
#X connect 16 0 10 1;
#X connect 17 0 16 0;
#X connect 18 0 3 0;
#X connect 19 0 11 0;
#X connect 19 1 11 1;
#X connect 19 3 10 0;
#X connect 20 0 18 1;
#X connect 21 0 18 0;
#X restore 145 227 pd num/string-toFruits;
#X connect 0 0 3 0;
#X connect 1 0 2 0;
#X connect 2 0 11 0;
#X connect 3 0 2 0;
#X connect 3 1 30 0;
#X connect 4 0 8 0;
#X connect 6 0 4 1;
#X connect 7 0 6 0;
#X connect 8 0 9 0;
#X connect 9 0 27 0;
#X connect 9 0 28 0;
#X connect 10 0 2 0;
#X connect 11 0 12 0;
#X connect 12 0 32 0;
#X connect 12 1 36 0;
#X connect 12 1 4 0;
#X connect 13 0 14 0;
#X connect 14 0 15 0;
#X connect 15 0 16 0;
#X connect 17 0 18 0;
#X connect 18 0 19 0;
#X connect 19 0 22 0;
#X connect 20 0 23 0;
#X connect 21 0 24 0;
#X connect 22 0 16 0;
#X connect 23 0 16 0;
#X connect 24 0 16 0;
#X connect 25 0 13 1;
#X connect 26 0 25 0;
#X connect 29 0 6 0;
#X connect 30 1 31 0;
#X connect 31 0 1 0;
#X connect 32 0 17 0;
#X connect 32 1 20 0;
#X connect 32 2 21 0;
#X connect 32 3 33 0;
#X connect 32 4 13 0;
#X connect 33 0 34 0;
#X connect 34 0 16 0;
#X connect 36 0 5 0;
#X restore 161 56 pd totext_separe-system-data;
#X obj 450 167 bng 15 250 50 0 empty empty empty 17 7 0 10 -262144
-1 -1;
#X obj 450 144 loadbang;
#X connect 1 0 0 0;
#X connect 2 0 1 1;
#X connect 3 0 5 0;
#X connect 4 0 3 1;
#X connect 6 0 4 0;
#X connect 8 0 15 0;
#X connect 12 0 11 0;
#X connect 13 0 11 0;
#X connect 13 0 25 0;
#X connect 13 0 33 0;
#X connect 14 0 10 0;
#X connect 15 0 9 0;
#X connect 15 0 10 0;
#X connect 15 0 34 0;
#X connect 18 0 20 0;
#X connect 19 0 17 0;
#X connect 20 0 26 0;
#X connect 20 1 37 0;
#X connect 21 0 39 0;
#X connect 22 0 23 0;
#X connect 26 0 22 0;
#X connect 26 1 13 0;
#X connect 26 1 14 0;
#X connect 26 1 35 0;
#X connect 27 0 7 0;
#X connect 27 0 36 0;
#X connect 29 0 8 0;
#X connect 29 1 16 0;
#X connect 29 2 19 0;
#X connect 29 3 30 0;
#X connect 29 3 31 0;
#X connect 30 0 17 0;
#X connect 32 0 12 0;
#X connect 33 0 32 0;
#X connect 34 0 32 0;
#X connect 35 0 37 0;
#X connect 35 0 38 0;
#X connect 37 0 27 0;
#X connect 39 0 3 0;
#X connect 39 0 29 0;
#X connect 39 1 24 0;
#X connect 39 2 1 0;
#X connect 40 0 26 0;
#X connect 41 0 40 0;
#X restore 125 136 pd FromFraise;
#N canvas 500 290 777 401 ToFraise 0;
#X obj 63 6 r \$0-2Fr2;
#X obj 657 61 t s s;
#X obj 657 40 symbol;
#X obj 702 84 s \$0-TestID;
#X msg 388 38 Assign Test 2;
#X obj 402 204 repack 60;
#X obj 402 224 route bang;
#X obj 370 137 t b a;
#X obj 402 159 drip;
#X obj 469 245 l2s;
#X obj 487 202 loadbang;
#X msg 487 224 symbol;
#X msg 524 40 Out 1 0 255 255;
#X msg 457 138 actif 1;
#X obj 457 158 s \$0-Fr2;
#X msg 657 83 !A\$1;
#X msg 249 190 #S\$1;
#X msg 305 207 #C\$1;
#X msg 469 265 \$1;
#X text 115 155 Assign FruitName #n;
#X obj 108 169 unpack s f;
#X obj 108 211 pack s s;
#X obj 105 303 s \$0-2pied;
#X msg 108 236 !N\$2\$1;
#X obj 403 323 s \$0-pied-rcv;
#X obj 63 58 route Boot;
#X obj 120 80 spigot 1;
#X obj 165 39 r \$0-bootloadermode;
#X obj 165 60 == 0;
#X obj 32 132 s \$0-Bootloader-rcv;
#X symbolatom 543 298 16 0 0 0 - - -;
#X obj 120 108 route --- Assign Select Deselect Out Status OutC;
#X obj 603 110 unwonk f;
#X obj 603 181 pack s s;
#X obj 686 154 l2s;
#X obj 686 133 a2l;
#X msg 603 211 \$1\$2;
#X obj 637 262 print;
#X obj 603 131 + 128;
#X obj 65 31 spigot 1;
#X obj 130 26 tgl 15 0 empty empty empty 17 7 0 10 -262144 -1 -1 0
1;
#X obj 175 10 print;
#X obj 228 253 print;
#X obj 165 191 pied/dec2hexa;
#X obj 249 170 pied/dec2hexa;
#X obj 304 187 pied/dec2hexa;
#X obj 402 180 pied/dec2hexa;
#X obj 603 154 pied/dec2hexa;
#X connect 0 0 39 0;
#X connect 1 0 15 0;
#X connect 1 1 3 0;
#X connect 2 0 1 0;
#X connect 5 0 6 0;
#X connect 6 1 9 0;
#X connect 7 0 5 0;
#X connect 7 1 8 0;
#X connect 8 0 46 0;
#X connect 9 0 18 0;
#X connect 10 0 11 0;
#X connect 11 0 9 1;
#X connect 13 0 14 0;
#X connect 16 0 24 0;
#X connect 17 0 24 0;
#X connect 18 0 24 0;
#X connect 20 0 21 0;
#X connect 20 1 43 0;
#X connect 21 0 23 0;
#X connect 23 0 24 0;
#X connect 25 0 29 0;
#X connect 25 1 26 0;
#X connect 26 0 31 0;
#X connect 27 0 28 0;
#X connect 28 0 26 1;
#X connect 31 1 20 0;
#X connect 31 2 44 0;
#X connect 31 3 45 0;
#X connect 31 4 7 0;
#X connect 31 5 13 0;
#X connect 31 6 32 0;
#X connect 32 0 38 0;
#X connect 32 1 35 0;
#X connect 33 0 36 0;
#X connect 34 0 33 1;
#X connect 35 0 34 0;
#X connect 36 0 24 0;
#X connect 38 0 47 0;
#X connect 39 0 25 0;
#X connect 40 0 39 1;
#X connect 43 0 21 1;
#X connect 44 0 16 0;
#X connect 45 0 17 0;
#X connect 46 0 5 0;
#X connect 47 0 33 0;
#X restore 136 163 pd ToFraise;
#N canvas 823 155 360 194 SetID 0;
#X msg 148 23 1;
#X msg 179 23 2;
#X msg 211 23 3;
#X msg 243 23 4;
#X obj 167 68 dec2hexa;
#X obj 167 108 s \$0-pied-rcv;
#X msg 167 87 #W\$1 \, #R;
#X obj 79 24 r \$0-setID;
#X connect 0 0 4 0;
#X connect 1 0 4 0;
#X connect 2 0 4 0;
#X connect 3 0 4 0;
#X connect 4 0 6 0;
#X connect 6 0 5 0;
#X connect 7 0 4 0;
#X restore 15 148 pd SetID;
#X obj 21 67 cnv 13 70 13 empty \$0-piedIDcan piedID:1 2 7 1 12 -204786
-66577 0;
#N canvas 162 479 477 336 comport 0;
#X msg 92 149 close;
#X obj 98 80 sel 0 1;
#X obj 98 45 tgl 30 0 empty empty empty 17 7 0 10 -4034 -1 -1 0 1;
#X obj 281 68 a2l;
#X obj 281 90 list prepend print;
#X obj 281 112 list trim;
#X obj 281 22 r \$0-pied-rcv;
#X obj 159 166 t b a;
#X obj 134 165 10;
#X obj 92 301 s \$0-piedraw-snd;
#X obj 281 44 spigot 1;
#X msg 160 81 pollintervall 1;
#X obj 160 44 loadbang;
#X obj 27 83 metro 500;
#X obj 131 221 route open;
#X msg 27 104 info;
#X obj 114 245 tgl 15 0 empty empty empty 17 7 0 10 -262144 -1 -1 1
1;
#X obj 27 37 loadbang;
#X obj 49 59 bng 15 250 50 0 empty empty empty 17 7 0 10 -262144 -1
-1;
#X msg 206 250 set -1;
#X obj 98 18 r \$0-on-snd;
#X obj 131 272 s \$0-opened;
#X msg 283 275 devicename /dev/ttyACM0;
#X obj 133 104 f \$1;
#X msg 133 126 open \$1;
#X obj -38 150 r \$0-listdevices-snd;
#X msg -38 172 devices;
#X obj 261 243 print from;
#X obj 131 252 change -1;
#N canvas 1 58 450 300 outrate 0;
#X obj 117 60 dripchar;
#X obj 136 130 t b b;
#X obj 150 159 i;
#X obj 179 161 + 1;
#X floatatom 105 219 5 0 0 0 - - -;
#X obj 117 31 inlet;
#X obj 208 198 i;
#X obj 214 59 metro 200;
#X obj 214 81 t b b;
#X msg 214 105 0;
#X obj 216 31 loadbang;
#X obj 208 248 * 5;
#X floatatom 158 277 5 0 0 0 - - -;
#X obj 181 41 bng 15 250 50 0 empty empty empty 17 7 0 10 -262144 -1
-1;
#X obj 208 221 mavg 10;
#X obj 208 274 s \$0-outrate;
#X floatatom 275 195 5 0 0 0 - - -;
#X obj 136 89 drip;
#X connect 0 0 17 0;
#X connect 1 0 2 0;
#X connect 2 0 3 0;
#X connect 2 0 6 1;
#X connect 3 0 2 1;
#X connect 5 0 0 0;
#X connect 6 0 14 0;
#X connect 7 0 8 0;
#X connect 8 0 9 0;
#X connect 8 1 6 0;
#X connect 9 0 2 0;
#X connect 10 0 7 0;
#X connect 11 0 15 0;
#X connect 13 0 7 0;
#X connect 14 0 11 0;
#X connect 17 0 1 0;
#X restore 346 115 pd outrate;
#N canvas 0 0 450 300 inrate 0;
#X obj 136 130 t b b;
#X obj 150 159 i;
#X obj 179 161 + 1;
#X floatatom 105 219 5 0 0 0 - - -;
#X obj 132 73 inlet;
#X obj 208 198 i;
#X obj 214 59 metro 200;
#X obj 214 81 t b b;
#X msg 214 105 0;
#X obj 216 31 loadbang;
#X obj 211 249 * 5;
#X floatatom 211 275 5 0 0 0 - - -;
#X obj 181 41 bng 15 250 50 0 empty empty empty 17 7 0 10 -262144 -1
-1;
#X obj 211 222 mavg 10;
#X obj 260 273 s \$0-inrate;
#X connect 0 0 1 0;
#X connect 1 0 2 0;
#X connect 1 0 5 1;
#X connect 2 0 1 1;
#X connect 4 0 0 0;
#X connect 5 0 13 0;
#X connect 6 0 7 0;
#X connect 7 0 8 0;
#X connect 7 1 5 0;
#X connect 8 0 1 0;
#X connect 9 0 6 0;
#X connect 10 0 11 0;
#X connect 10 0 14 0;
#X connect 12 0 6 0;
#X connect 13 0 10 0;
#X restore 11 280 pd inrate;
#X obj 340 44 tgl 15 0 empty empty empty 17 7 0 10 -262144 -1 -1 0
1;
#X obj 92 120 t b b;
#X msg 202 222 0;
#X obj 257 174 s \$0-pied-rcv;
#X msg 257 150 #i;
#X obj 214 285 tgl 15 0 empty empty empty 17 7 0 10 -262144 -1 -1 1
1;
#X obj 92 198 comport;
#X obj 363 179 print;
#X connect 0 0 37 0;
#X connect 1 0 32 0;
#X connect 1 1 11 0;
#X connect 1 1 23 0;
#X connect 2 0 1 0;
#X connect 3 0 4 0;
#X connect 3 0 29 0;
#X connect 4 0 5 0;
#X connect 5 0 7 0;
#X connect 6 0 10 0;
#X connect 7 0 8 0;
#X connect 7 1 37 0;
#X connect 8 0 37 0;
#X connect 10 0 3 0;
#X connect 11 0 37 0;
#X connect 12 0 11 0;
#X connect 13 0 15 0;
#X connect 14 0 16 0;
#X connect 14 0 28 0;
#X connect 15 0 37 0;
#X connect 17 0 13 0;
#X connect 18 0 13 0;
#X connect 19 0 28 0;
#X connect 20 0 2 0;
#X connect 23 0 24 0;
#X connect 24 0 37 0;
#X connect 25 0 26 0;
#X connect 26 0 37 0;
#X connect 28 0 21 0;
#X connect 28 0 36 0;
#X connect 31 0 10 1;
#X connect 32 0 0 0;
#X connect 32 1 33 0;
#X connect 32 1 35 0;
#X connect 33 0 28 0;
#X connect 35 0 34 0;
#X connect 37 0 9 0;
#X connect 37 0 30 0;
#X connect 37 1 14 0;
#X restore 15 107 pd comport;
#X obj 36 52 cnv 15 135 12 empty \$0-piedvercan firmware_version:2.1.3
2 7 1 10 -262130 -66577 0;
#N canvas 40 216 175 253 \$0-utils 0;
#X obj 2 -1 cnv 15 170 250 empty empty empty 20 12 0 14 -57730 -66577
0;
#X obj 10 7 bng 20 250 50 0 \$0-listdevices-snd \$0-listdevices-rcv
list_serial_devices 22 10 0 12 -262144 -1 -262144;
#X obj 11 35 cnv 15 140 80 empty empty set_ID 20 10 0 14 -257985 -66577
0;
#X msg 19 60 1;
#X msg 50 60 2;
#X msg 82 60 3;
#X msg 114 60 4;
#X obj 19 90 s \$0-setID;
#X obj 11 123 cnv 15 140 80 empty empty fake_ID 20 10 0 14 -260097
-66577 0;
#X msg 19 147 1;
#X msg 50 147 2;
#X msg 82 147 3;
#X msg 114 147 4;
#X obj 19 178 s \$0-piedID;
#X obj 10 210 cnv 15 140 35 empty empty compilation 20 10 0 14 -258113
-66577 0;
#X obj 20 229 tgl 15 0 \$0-dontclean-snd \$0-dontclean-rcv dont_clean
17 7 0 10 -262144 -1 -1 0 1;
#X connect 3 0 7 0;
#X connect 4 0 7 0;
#X connect 5 0 7 0;
#X connect 6 0 7 0;
#X connect 9 0 13 0;
#X connect 10 0 13 0;
#X connect 11 0 13 0;
#X connect 12 0 13 0;
#X restore 128 106 pd \$0-utils;
#X obj 123 34 bng 15 250 50 0 \$0-showutils-snd \$0-showutils-rcv utils
17 7 0 10 -4034 -1 -1;
#N canvas 568 464 450 300 Fr2-interface 0;
#X obj 202 67 t a;
#X obj 202 132 glue;
#X obj 242 110 a2l;
#X obj 202 152 route list;
#X obj 202 88 t b a;
#X obj 25 27 r 2Fr2;
#X obj 202 173 s Fr2;
#X obj 24 111 s \$0-2Fr2;
#X obj 202 28 r \$0-Fr2;
#X obj 268 22 r \$0-piedID;
#X msg 316 67 list \$1;
#X obj 25 48 nroute -1 1;
#X obj 25 68 unwonk f;
#X obj 75 28 r \$0-piedID;
#X obj 202 110 l;
#X obj 268 44 t f f;
#X msg 301 93 actif 1;
#X obj 268 66 sel -1;
#X obj 24 91 route list;
#X obj 288 194 print;
#X connect 0 0 4 0;
#X connect 1 0 3 0;
#X connect 2 0 1 1;
#X connect 3 0 6 0;
#X connect 4 0 14 0;
#X connect 4 1 2 0;
#X connect 5 0 11 0;
#X connect 8 0 0 0;
#X connect 9 0 15 0;
#X connect 10 0 14 1;
#X connect 11 0 12 0;
#X connect 12 1 18 0;
#X connect 13 0 11 1;
#X connect 14 0 1 0;
#X connect 15 0 17 0;
#X connect 15 1 10 0;
#X connect 16 0 0 0;
#X connect 17 1 16 0;
#X connect 18 0 7 0;
#X restore 15 128 pd Fr2-interface;
#N canvas 139 213 450 300 UI 0;
#X obj -200 202 change -1;
#X obj -200 156 r \$0-pied;
#X obj -200 178 route actif;
#N canvas 374 255 344 144 canvascolor 0;
#X obj 15 13 inlet;
#X obj 15 103 s \$0-stastocan-rcv;
#X msg 15 74 color 1 13 22;
#X msg 114 74 color 15 13 22;
#X obj 15 37 sel 0 1 2;
#X msg 213 75 color 14 13 22;
#X connect 0 0 4 0;
#X connect 2 0 1 0;
#X connect 3 0 1 0;
#X connect 4 0 2 0;
#X connect 4 1 3 0;
#X connect 4 2 5 0;
#X connect 5 0 1 0;
#X restore -200 278 pd canvascolor;
#X obj -201 16 r \$0-version;
#X msg -201 38 label firmware_version:\$1;
#X obj -201 58 s \$0-piedvercan;
#X obj -200 85 r \$0-piedID;
#X msg -200 106 label piedID:\$1;
#X obj -200 129 s \$0-piedIDcan;
#X obj 12 17 r \$0-showutils-snd;
#X obj 103 102 loadbang;
#X msg 103 122 set 1;
#X obj 103 143 s \$0-on-rcv;
#X obj 12 119 r \$0-on-snd;
#X obj 12 149 sel 0 1;
#X obj 12 240 s \$0-on-rcv;
#X msg 31 172 color 13 13 0 \, label on;
#X msg 12 205 color 1 1 2 \, label off;
#X obj -126 179 r \$0-bootloadermode;
#X obj -189 227 t b f;
#X obj -126 199 + 1;
#X obj -200 250 * 1;
#X msg -90 224 0;
#X obj 12 39 symbol pd-\$0-utils;
#X msg 12 63 \; \$1 vis 0 \; \$1 vis 1;
#X connect 0 0 22 0;
#X connect 1 0 2 0;
#X connect 2 0 0 0;
#X connect 4 0 5 0;
#X connect 5 0 6 0;
#X connect 7 0 8 0;
#X connect 8 0 9 0;
#X connect 10 0 24 0;
#X connect 11 0 12 0;
#X connect 11 0 17 0;
#X connect 11 0 23 0;
#X connect 12 0 13 0;
#X connect 14 0 15 0;
#X connect 15 0 18 0;
#X connect 15 1 17 0;
#X connect 17 0 16 0;
#X connect 18 0 16 0;
#X connect 19 0 21 0;
#X connect 20 0 22 0;
#X connect 20 1 22 1;
#X connect 21 0 20 0;
#X connect 22 0 3 0;
#X connect 23 0 3 0;
#X connect 24 0 25 0;
#X restore 15 168 pd UI;
#X obj 123 281 print make;
#X obj 123 233 netreceive \$2;
#X obj 43 85 nbx 5 14 -1e+37 1e+37 0 0 empty \$0-outrate out -18 6
0 8 -262144 -1 -1 0 256;
#X obj 114 85 nbx 5 14 -1e+37 1e+37 0 0 empty \$0-inrate in -18 6 0
8 -262144 -1 -1 0 256;
#N canvas 147 374 495 411 interprete 0;
#X obj 68 21 inlet;
#X obj 68 124 s \$0-make-done;
#X msg 68 102 bang;
#X msg 111 272 symbol \$6;
#X obj 111 295 s2l (;
#X obj 111 315 s2l %;
#X msg 110 335 \$1;
#X floatatom 110 360 5 0 0 0 - - -;
#X obj 65 404 s \$0-make-ram;
#X obj 65 248 t a a;
#X floatatom 47 455 5 0 0 0 - - -;
#X msg 238 272 symbol \$6;
#X obj 238 295 s2l (;
#X obj 238 315 s2l %;
#X msg 237 335 \$1;
#X floatatom 237 360 5 0 0 0 - - -;
#X obj 192 248 t a a;
#X floatatom 105 452 5 0 0 0 - - -;
#X obj 192 404 s \$0-make-rom;
#X msg 65 271 \$1 \$4;
#X obj 65 382 pack f f f;
#X obj 47 431 unpack f f;
#X msg 192 271 \$1 \$4;
#X obj 192 382 pack f f f;
#X floatatom 157 451 5 0 0 0 - - -;
#X floatatom 215 448 5 0 0 0 - - -;
#X obj 157 427 unpack f f;
#X obj 86 215 route RAM ROM;
#X msg 150 71 bang;
#X obj 150 93 s \$0-make-cleaned;
#X obj 68 42 route make_done make_cleaned;
#X text 103 198 olds;
#X obj 325 79 print;
#X connect 0 0 30 0;
#X connect 2 0 1 0;
#X connect 3 0 4 0;
#X connect 4 0 5 0;
#X connect 5 0 6 0;
#X connect 6 0 7 0;
#X connect 7 0 20 2;
#X connect 9 0 19 0;
#X connect 9 1 3 0;
#X connect 11 0 12 0;
#X connect 12 0 13 0;
#X connect 13 0 14 0;
#X connect 14 0 15 0;
#X connect 15 0 23 2;
#X connect 16 0 22 0;
#X connect 16 1 11 0;
#X connect 19 0 20 0;
#X connect 19 0 21 0;
#X connect 20 0 8 0;
#X connect 21 0 10 0;
#X connect 21 1 17 0;
#X connect 22 0 23 0;
#X connect 22 0 26 0;
#X connect 23 0 18 0;
#X connect 26 0 24 0;
#X connect 26 1 25 0;
#X connect 27 0 9 0;
#X connect 27 1 16 0;
#X connect 28 0 29 0;
#X connect 30 0 2 0;
#X connect 30 1 28 0;
#X connect 30 2 32 0;
#X restore 123 254 pd interprete;
#N canvas 42 112 560 372 tosystem 0;
#X obj 30 287 system;
#X msg 238 283 echo \$2/make.sh \$1 \$3 | at now;
#X obj 30 22 inlet tosystem;
#X obj 379 180 list prepend nohup;
#X obj 30 55 list append;
#X obj 199 49 operating_system;
#X symbolatom 199 73 10 0 0 0 - - -;
#X obj 199 27 loadbang;
#X obj 259 28 bng 15 250 50 0 empty empty empty 17 7 0 10 -262144 -1
-1;
#X obj 30 243 list trim;
#X obj 318 59 setenv FRAISEOS 1;
#X text 332 72 doesn't work \, at least with wine;
#X obj 135 292 print;
#X obj 197 234 list prepend start -MIN bash -c;
#X obj 30 182 list append "| at now;
#X obj 30 159 list prepend echo ";
#X obj 177 183 list append ";
#X obj 176 161 list prepend start bash -c ";
#X obj 30 90 pied/demux_os;
#X connect 2 0 4 0;
#X connect 3 0 9 0;
#X connect 4 0 18 0;
#X connect 5 0 6 0;
#X connect 5 0 4 1;
#X connect 7 0 5 0;
#X connect 8 0 5 0;
#X connect 9 0 0 0;
#X connect 14 0 9 0;
#X connect 15 0 14 0;
#X connect 16 0 9 0;
#X connect 17 0 16 0;
#X connect 18 0 15 0;
#X connect 18 1 17 0;
#X connect 18 2 3 0;
#X restore 99 209 pd tosystem;
#N canvas 37 585 419 259 Bootloader/Compiler 0;
#N canvas 781 317 498 407 enter-boot-quit 0;
#X msg 123 204 0;
#X obj 123 225 s \$0-verified;
#X msg 199 157 !F\$1;
#X msg 88 151 V\$1;
#X obj 88 76 t s s;
#X obj 88 53 r \$0-enterbld;
#X obj 88 105 pipe s 100;
#X obj 279 62 r \$0-quitbld;
#X obj 85 264 r \$0-pied-snd;
#X obj 85 287 drip;
#X obj 85 310 sel V;
#X obj 85 355 s \$0-verified;
#X msg 85 333 1;
#X msg 279 89 A \, #F;
#X text 237 43 run device app \, quit pied bootload mode;
#X text 39 22 enter boot mode for device X;
#X text 43 36 then verify it's done;
#X obj 88 172 t a b;
#X obj 182 314 bng 15 250 50 0 empty empty empty 17 7 0 10 -262144
-1 -1;
#X msg 183 82 symbol Lyre1;
#X obj 88 125 symbol;
#X obj 54 101 bng 15 250 50 0 empty empty empty 17 7 0 10 -262144 -1
-1;
#X obj 199 136 symbol;
#X obj 199 113 bng 15 250 50 0 empty empty empty 17 7 0 10 -262144
-1 -1;
#X obj 279 206 s \$0-pied-rcv;
#X msg 21 204 symbol Test;
#X obj 264 273 r \$0-verified;
#X obj 262 295 tgl 15 0 empty empty empty 17 7 0 10 -262144 -1 -1 0
1;
#X connect 0 0 1 0;
#X connect 2 0 24 0;
#X connect 3 0 17 0;
#X connect 4 0 6 0;
#X connect 4 1 22 0;
#X connect 5 0 4 0;
#X connect 6 0 20 0;
#X connect 7 0 13 0;
#X connect 8 0 9 0;
#X connect 9 0 10 0;
#X connect 10 0 12 0;
#X connect 10 0 18 0;
#X connect 12 0 11 0;
#X connect 13 0 0 0;
#X connect 13 0 24 0;
#X connect 17 0 24 0;
#X connect 17 1 0 0;
#X connect 19 0 3 0;
#X connect 20 0 3 0;
#X connect 21 0 20 0;
#X connect 22 0 2 0;
#X connect 23 0 22 0;
#X connect 25 0 3 0;
#X connect 26 0 27 0;
#X restore 232 17 pd enter-boot-quit;
#N canvas 494 182 748 542 sendfile 0;
#X obj 68 332 msgfile;
#X msg 219 183 rewind;
#X obj 200 183 bng 15 250 50 0 empty empty empty 17 7 0 10 -262144
-1 -1;
#X obj 200 115 bng 15 250 50 0 empty empty program 17 7 0 10 -260097
-1 -1;
#X obj 377 149 r \$0-pied-snd;
#X obj 377 177 drip;
#X msg 244 253 prev;
#X obj 68 360 t a b;
#X obj 76 421 bng 15 250 50 0 empty empty empty 17 7 0 10 -262144 -1
-1;
#X obj 377 198 sel X;
#X obj 533 393 print checksumerror;
#X obj 517 443 print DONE !;
#X obj 502 463 print unsupported-command;
#X msg 375 85 goto \$1 \, bang;
#X obj 375 68 hradio 15 1 0 16 empty empty empty 0 -8 0 10 -262144
-1 -1 0;
#X obj 25 200 symbol;
#X obj 68 269 r \$0-msgfile;
#X obj 25 249 s \$0-msgfile;
#X obj 200 278 s \$0-msgfile;
#X obj 164 375 r \$0-msgtimeout-stop;
#X obj 473 216 s \$0-msgtimeout-stop;
#X obj 244 205 r \$0-msgtimeout;
#X obj 377 310 s \$0-msgfile;
#X msg 435 257 0;
#X msg 463 257 1;
#X text 441 240 auto;
#X obj 543 305 del 2;
#X msg 626 345 0;
#X msg 654 344 1;
#X text 633 327 auto;
#X msg 543 325 prev;
#X obj 543 370 s \$0-msgfile;
#X obj 626 364 r \$0-auto;
#X obj 435 277 r \$0-auto;
#X obj 502 259 sel u Y z l;
#X obj 549 282 print format-error;
#X obj 446 170 sel V;
#X obj 525 419 s \$0-DONE;
#X msg 302 233 0;
#X msg 329 233 1;
#X text 308 216 auto;
#X obj 302 253 r \$0-auto;
#X obj 200 135 del 100;
#X obj 375 107 s \$0-msgfile;
#X msg 465 115 :10085000E5FF08C0E5FF09C0E5FF0AC0E5FF0BC0E2;
#X msg 553 93 :020000040000FA;
#X obj 95 460 del 100;
#X obj 266 143 s \$0-auto;
#X msg 266 112 1;
#X obj 299 88 r \$0-DONE;
#X msg 299 109 0;
#X obj 244 233 spigot;
#X obj 377 257 spigot;
#X obj 543 348 spigot;
#X obj 216 303 print timeout ! retry...;
#X obj 95 483 s \$0-msgtimeout;
#X obj 203 437 bng 15 250 50 0 empty empty empty 17 7 0 10 -262144
-1 -1;
#X msg 164 436 stop;
#X obj 38 486 bng 15 250 50 0 empty empty empty 17 7 0 10 -262144 -1
-1;
#X obj 355 366 timer;
#X obj 377 283 t b b;
#X floatatom 355 400 5 0 0 0 - - -;
#X obj 336 340 b;
#X obj 377 237 del 0;
#X obj 400 346 b;
#X floatatom 107 379 5 0 0 0 - - -;
#X floatatom 23 364 5 0 0 0 - - -;
#X msg 8 304 print;
#X msg 25 225 read \$1 cr \, end \, skip -1 \, where;
#X obj 14 170 bng 15 250 50 0 empty empty empty 17 7 0 10 -262144 -1
-1;
#X obj 68 290 t b a;
#X msg 68 310 where;
#X obj 122 399 f;
#X obj 107 420 /;
#X obj 107 440 outlet;
#X obj 200 159 t b b b;
#X obj 414 373 mavg 10;
#X floatatom 414 401 5 0 0 0 - - -;
#X obj 107 351 route float;
#X obj 70 200 r \$0-bootprogfile;
#X obj 200 62 r \$0-bootdoprogram;
#X obj 68 505 s \$0-pied-rcv;
#X obj 314 128 s \$0-msgtimeout-stop;
#X obj 330 109 bng 15 250 50 0 empty empty empty 17 7 0 10 -262144
-1 -1;
#X obj 506 169 r \$0-auto;
#X obj 473 193 spigot;
#X connect 0 0 7 0;
#X connect 0 1 78 0;
#X connect 1 0 18 0;
#X connect 2 0 18 0;
#X connect 3 0 42 0;
#X connect 3 0 15 0;
#X connect 4 0 5 0;
#X connect 5 0 9 0;
#X connect 5 0 36 0;
#X connect 6 0 18 0;
#X connect 7 0 81 0;
#X connect 7 1 46 0;
#X connect 7 1 62 0;
#X connect 9 0 63 0;
#X connect 9 0 64 0;
#X connect 9 1 34 0;
#X connect 13 0 43 0;
#X connect 14 0 13 0;
#X connect 15 0 68 0;
#X connect 16 0 70 0;
#X connect 19 0 57 0;
#X connect 19 0 56 0;
#X connect 21 0 51 0;
#X connect 23 0 52 1;
#X connect 24 0 52 1;
#X connect 26 0 30 0;
#X connect 27 0 53 1;
#X connect 28 0 53 1;
#X connect 30 0 53 0;
#X connect 32 0 53 1;
#X connect 33 0 52 1;
#X connect 34 0 12 0;
#X connect 34 0 63 0;
#X connect 34 1 11 0;
#X connect 34 1 37 0;
#X connect 34 2 10 0;
#X connect 34 2 26 0;
#X connect 34 3 35 0;
#X connect 36 1 85 0;
#X connect 38 0 51 1;
#X connect 39 0 51 1;
#X connect 41 0 51 1;
#X connect 42 0 75 0;
#X connect 46 0 8 0;
#X connect 46 0 55 0;
#X connect 46 0 58 0;
#X connect 48 0 47 0;
#X connect 49 0 50 0;
#X connect 49 0 82 0;
#X connect 50 0 47 0;
#X connect 51 0 6 0;
#X connect 51 0 54 0;
#X connect 52 0 60 0;
#X connect 53 0 31 0;
#X connect 57 0 46 0;
#X connect 59 0 61 0;
#X connect 59 0 76 0;
#X connect 60 0 22 0;
#X connect 60 1 59 1;
#X connect 62 0 59 0;
#X connect 63 0 52 0;
#X connect 64 0 59 1;
#X connect 65 0 73 0;
#X connect 67 0 0 0;
#X connect 68 0 17 0;
#X connect 69 0 15 0;
#X connect 70 0 71 0;
#X connect 70 1 0 0;
#X connect 71 0 0 0;
#X connect 72 0 73 1;
#X connect 73 0 74 0;
#X connect 75 0 2 0;
#X connect 75 1 1 0;
#X connect 75 2 72 0;
#X connect 76 0 77 0;
#X connect 78 0 65 0;
#X connect 78 0 72 1;
#X connect 79 0 15 1;
#X connect 80 0 3 0;
#X connect 80 0 48 0;
#X connect 83 0 82 0;
#X connect 84 0 85 1;
#X connect 85 0 20 0;
#X restore 231 39 pd sendfile;
#N canvas 828 418 452 306 debug_read-memory 0;
#X msg 4 133 r0800;
#X msg 41 135 r5870;
#X obj 152 101 + 5870;
#X msg 124 124 r\$1;
#X floatatom 157 79 5 0 0 0 - - -;
#X msg 13 166 A;
#X msg 160 58 8;
#X msg 160 126 r5880;
#X msg 172 144 r5F10;
#X obj 153 199 s \$0-fraise-rcv;
#X floatatom 79 49 5 0 0 0 - - -;
#X msg 84 19 8;
#X obj 73 95 + 800;
#X msg 76 115 r0\$1;
#X obj 120 22 hradio 15 1 0 16 empty empty empty 0 -8 0 10 -262144
-1 -1 0;
#X obj 78 72 * 10;
#X msg 223 88 !b0122;
#X msg 223 111 811234;
#X msg 251 231 !N01Truc;
#X msg 263 157 Ebon;
#X obj 285 56 tgl 15 0 empty empty empty 17 7 0 10 -262144 -1 -1 0
1;
#X obj 284 79 metro 1000;
#X obj 385 182 bng 15 250 50 0 empty empty empty 17 7 0 10 -262144
-1 -1;
#X msg 337 56 200;
#X obj 287 111 tgl 15 0 empty empty empty 17 7 0 10 -262144 -1 -1 0
1;
#X obj 279 133 sel 0 1;
#X msg 296 156 EAh;
#X msg 359 80 20;
#X connect 0 0 9 0;
#X connect 1 0 9 0;
#X connect 2 0 3 0;
#X connect 3 0 9 0;
#X connect 4 0 2 0;
#X connect 5 0 9 0;
#X connect 6 0 4 0;
#X connect 7 0 9 0;
#X connect 8 0 9 0;
#X connect 10 0 15 0;
#X connect 11 0 10 0;
#X connect 12 0 13 0;
#X connect 13 0 9 0;
#X connect 14 0 10 0;
#X connect 15 0 12 0;
#X connect 16 0 9 0;
#X connect 17 0 9 0;
#X connect 18 0 9 0;
#X connect 19 0 9 0;
#X connect 20 0 21 0;
#X connect 21 0 22 0;
#X connect 21 0 24 0;
#X connect 23 0 21 1;
#X connect 24 0 25 0;
#X connect 25 0 19 0;
#X connect 25 1 26 0;
#X connect 26 0 9 0;
#X connect 27 0 21 1;
#X restore 231 82 pd debug_read-memory;
#N canvas 785 399 407 325 rename/prefix 0;
#X obj 93 124 s \$0-fraise-rcv;
#X msg 201 106 !N10Mira;
#X msg 272 85 !N01Lyre2;
#X msg 206 84 !N01Truc;
#X msg 129 9 !N02Gratte1;
#X msg 35 13 RENAME:Gratte1;
#X msg 282 157 !B;
#X msg 93 34 RENAME:Truc;
#X msg 269 55 !N10Lyre1;
#X msg 118 73 PREFIX:;
#X msg 179 35 RENAME:Lyre1;
#X msg 196 196 RENAME:KE1;
#X msg 196 222 !N20KE1;
#X connect 1 0 0 0;
#X connect 2 0 0 0;
#X connect 3 0 0 0;
#X connect 4 0 0 0;
#X connect 5 0 0 0;
#X connect 6 0 0 0;
#X connect 7 0 0 0;
#X connect 8 0 0 0;
#X connect 9 0 0 0;
#X connect 10 0 0 0;
#X connect 11 0 0 0;
#X connect 12 0 0 0;
#X restore 232 102 pd rename/prefix;
#X obj 308 39 hsl 80 15 0 1 0 0 empty empty empty -2 -8 0 10 -262144
-1 -1 0 1;
#X obj 11 18 r \$0-Bootloader-rcv;
#X obj 230 153 r \$0-Bootloader-snd;
#X obj 230 175 list prepend Boot;
#X obj 230 196 list trim;
#X obj 230 216 s \$0-Fr2;
#X obj 11 40 t a b;
#N canvas 459 208 644 654 rename 0;
#X obj 270 162 s \$0-bootloadermode;
#X msg 270 142 1;
#X obj 270 234 s \$0-enterbld;
#X obj 243 254 del 200;
#X obj 243 99 symbol;
#X obj 243 121 t s b;
#X obj 243 194 t b s;
#X msg 243 298 RENAME:\$1;
#X obj 243 275 symbol;
#X obj 281 215 s \$0-bootfruitname;
#X obj 289 275 r \$0-bootfruitname;
#X obj 408 304 r \$0-verified;
#X obj 408 326 sel 1;
#X obj 243 321 s \$0-pied-rcv;
#X obj 408 437 s \$0-Bootloader-snd;
#X obj 408 368 symbol;
#X obj 454 368 r \$0-bootfruitname;
#X obj 408 346 spigot;
#X msg 408 413 \$1 renamed;
#X msg 445 326 1;
#X msg 453 345 0;
#X obj 473 326 r \$0-bootloadermode;
#X obj 212 342 del 200;
#X obj 212 364 symbol;
#X obj 256 364 r \$0-bootfruitname;
#X obj 212 385 s \$0-enterbld;
#X msg 184 451 V\$1;
#X obj 184 472 s \$0-pied-rcv;
#X obj 184 409 del 200;
#X obj 184 429 symbol;
#X obj 228 429 r \$0-bootfruitname;
#X obj 159 497 del 200;
#X obj 87 438 b;
#X msg 155 258 stop;
#X obj 485 412 s \$0-quitbld;
#X obj 408 389 t s b;
#X obj 159 561 print Fraise_RENAME;
#X msg 159 536 not responding. retrying...;
#X obj 217 314 b;
#X msg 106 196 stop;
#X obj 128 634 s \$0-Bootloader-snd;
#X obj 10 484 s \$0-quitbld;
#X msg 66 549 aborting !;
#X msg 72 505 \$1 rename_error;
#X obj 443 480 s \$0-bootloadermode;
#X msg 443 460 0;
#X obj 35 572 s \$0-bootloadermode;
#X msg 35 552 0;
#X msg 376 540 \$1 successful;
#X obj 507 273 tgl 15 0 empty empty empty 17 7 0 10 -262144 -1 -1 0
1;
#X msg 290 474 VTest;
#X msg 349 469 Test;
#X obj 4 320 del 10000;
#X obj 106 169 r \$0-bootstoptimers;
#X obj 243 72 inlet;
#X obj 4 403 symbol;
#X obj 50 403 r \$0-bootfruitname;
#X text 280 70 (rename) Fruitname;
#X obj 157 609 print;
#X obj 26 367 bng 15 250 50 0 empty empty empty 17 7 0 10 -262144 -1
-1;
#X obj 4 447 t s b s;
#X connect 1 0 0 0;
#X connect 3 0 8 0;
#X connect 3 0 52 0;
#X connect 4 0 5 0;
#X connect 5 0 6 0;
#X connect 5 1 1 0;
#X connect 6 0 3 0;
#X connect 6 1 2 0;
#X connect 6 1 9 0;
#X connect 6 1 19 0;
#X connect 7 0 13 0;
#X connect 8 0 7 0;
#X connect 8 0 38 0;
#X connect 10 0 8 1;
#X connect 11 0 12 0;
#X connect 11 0 49 0;
#X connect 12 0 17 0;
#X connect 15 0 35 0;
#X connect 16 0 15 1;
#X connect 17 0 15 0;
#X connect 17 0 20 0;
#X connect 17 0 33 0;
#X connect 17 0 39 0;
#X connect 18 0 14 0;
#X connect 19 0 17 1;
#X connect 20 0 17 1;
#X connect 21 0 20 0;
#X connect 22 0 23 0;
#X connect 22 0 28 0;
#X connect 23 0 25 0;
#X connect 24 0 23 1;
#X connect 26 0 27 0;
#X connect 28 0 29 0;
#X connect 28 0 31 0;
#X connect 29 0 26 0;
#X connect 30 0 29 1;
#X connect 31 0 32 0;
#X connect 31 0 37 0;
#X connect 32 0 8 0;
#X connect 33 0 22 0;
#X connect 33 0 28 0;
#X connect 33 0 31 0;
#X connect 35 0 18 0;
#X connect 35 0 48 0;
#X connect 35 1 34 0;
#X connect 35 1 45 0;
#X connect 37 0 36 0;
#X connect 38 0 22 0;
#X connect 39 0 33 0;
#X connect 39 0 3 0;
#X connect 39 0 52 0;
#X connect 42 0 36 0;
#X connect 43 0 40 0;
#X connect 45 0 44 0;
#X connect 47 0 46 0;
#X connect 48 0 36 0;
#X connect 50 0 27 0;
#X connect 51 0 23 0;
#X connect 52 0 33 0;
#X connect 52 0 55 0;
#X connect 53 0 39 0;
#X connect 54 0 4 0;
#X connect 55 0 60 0;
#X connect 56 0 55 1;
#X connect 59 0 55 0;
#X connect 60 1 41 0;
#X connect 60 1 42 0;
#X connect 60 1 47 0;
#X connect 60 2 43 0;
#X restore 11 141 pd rename;
#X obj 58 47 s \$0-bootstoptimers;
#N canvas 439 95 644 654 program 0;
#X obj 281 123 s \$0-bootloadermode;
#X msg 281 103 1;
#X obj 281 222 s \$0-enterbld;
#X obj 254 82 t s b;
#X obj 292 203 s \$0-bootfruitname;
#X obj 375 255 r \$0-verified;
#X obj 375 277 sel 1;
#X obj 453 496 s \$0-Bootloader-snd;
#X obj 453 427 symbol;
#X obj 499 427 r \$0-bootfruitname;
#X obj 375 297 spigot;
#X msg 412 277 1;
#X msg 420 296 0;
#X obj 440 277 r \$0-bootloadermode;
#X obj 548 471 s \$0-quitbld;
#X obj 453 448 t s b;
#X obj 205 217 b;
#X msg 122 125 stop;
#X obj 4 517 s \$0-Bootloader-snd;
#X obj 51 471 s \$0-quitbld;
#X obj 4 447 t s b;
#X obj 480 539 s \$0-bootloadermode;
#X msg 480 519 0;
#X obj 31 572 s \$0-bootloadermode;
#X msg 31 552 0;
#X obj 351 258 tgl 15 0 empty empty empty 17 7 0 10 -262144 -1 -1 0
1;
#X obj 111 205 del 10000;
#X obj 122 98 r \$0-bootstoptimers;
#X obj 254 33 inlet;
#X obj 254 60 unpack s s;
#X obj 311 83 s \$0-bootprogfile;
#X obj 273 600 print Fraise_PROGRAM;
#X obj 254 263 del 200;
#X obj 254 158 symbol;
#X msg 172 256 stop;
#X msg 4 493 \$1 program_error;
#X msg 453 472 \$1 programmed;
#X obj 254 519 symbol;
#X obj 287 498 r \$0-bootfruitname;
#X msg 273 575 \$1 not responding. retrying...;
#X obj 375 328 s \$0-bootdoprogram;
#X obj 297 372 spigot;
#X msg 334 352 1;
#X msg 342 371 0;
#X obj 297 330 r \$0-DONE;
#X obj 383 359 r \$0-bootloadermode;
#X msg 316 537 \$1 successfully programmed;
#X obj 193 415 del 30000;
#X msg 193 388 stop;
#X obj 163 328 r \$0-bootstoptimers;
#X obj 193 437 t b b;
#X obj 4 422 symbol;
#X obj 37 401 r \$0-bootfruitname;
#X msg 136 549 aborting programming \$1!;
#X obj 526 336 bng 15 250 50 0 empty empty empty 17 7 0 10 -262144
-1 -1;
#X obj 254 182 t b s b;
#X obj 193 464 s \$0-DONE;
#X obj 163 413 bng 15 250 50 0 empty empty empty 17 7 0 10 -262144
-1 -1;
#X obj 457 85 r \$0-prog-progress;
#X obj 502 106 r \$0-bootfruitname;
#X obj 457 174 s \$0-Bootloader-snd;
#X obj 457 127 pack f s;
#X msg 457 150 \$2 prog_progress \$1;
#X obj 156 472 bng 15 250 50 0 empty empty empty 17 7 0 10 -262144
-1 -1;
#X text 294 30 (program) Fruitname HexFile;
#X connect 1 0 0 0;
#X connect 3 0 33 0;
#X connect 3 1 1 0;
#X connect 3 1 26 0;
#X connect 5 0 6 0;
#X connect 5 0 25 0;
#X connect 6 0 10 0;
#X connect 8 0 15 0;
#X connect 9 0 8 1;
#X connect 10 0 12 0;
#X connect 10 0 17 0;
#X connect 10 0 40 0;
#X connect 10 0 42 0;
#X connect 10 0 47 0;
#X connect 10 0 54 0;
#X connect 11 0 10 1;
#X connect 12 0 10 1;
#X connect 13 0 12 0;
#X connect 15 0 36 0;
#X connect 15 0 46 0;
#X connect 15 1 14 0;
#X connect 15 1 22 0;
#X connect 16 0 33 0;
#X connect 17 0 26 0;
#X connect 17 0 34 0;
#X connect 20 0 35 0;
#X connect 20 0 53 0;
#X connect 20 1 19 0;
#X connect 20 1 24 0;
#X connect 22 0 21 0;
#X connect 24 0 23 0;
#X connect 26 0 34 0;
#X connect 26 0 51 0;
#X connect 27 0 17 0;
#X connect 28 0 29 0;
#X connect 29 0 3 0;
#X connect 29 1 30 0;
#X connect 32 0 16 0;
#X connect 32 0 37 0;
#X connect 33 0 55 0;
#X connect 34 0 32 0;
#X connect 35 0 18 0;
#X connect 36 0 7 0;
#X connect 37 0 39 0;
#X connect 38 0 37 1;
#X connect 39 0 31 0;
#X connect 41 0 43 0;
#X connect 41 0 8 0;
#X connect 41 0 48 0;
#X connect 42 0 41 1;
#X connect 43 0 41 1;
#X connect 44 0 41 0;
#X connect 45 0 43 0;
#X connect 46 0 31 0;
#X connect 47 0 50 0;
#X connect 48 0 47 0;
#X connect 49 0 48 0;
#X connect 50 0 56 0;
#X connect 50 0 51 0;
#X connect 50 1 43 0;
#X connect 51 0 20 0;
#X connect 52 0 51 1;
#X connect 53 0 31 0;
#X connect 55 0 32 0;
#X connect 55 1 2 0;
#X connect 55 1 4 0;
#X connect 55 2 11 0;
#X connect 57 0 50 0;
#X connect 58 0 61 0;
#X connect 59 0 61 1;
#X connect 61 0 62 0;
#X connect 62 0 60 0;
#X connect 63 0 56 0;
#X connect 63 0 19 0;
#X restore 27 116 pd program;
#X obj 231 60 s \$0-prog-progress;
#X obj 11 69 route rename program make progboot;
#N canvas 376 432 450 300 progboot 0;
#X obj 51 18 inlet;
#X obj 129 105 getdir;
#X obj 51 71 t a b;
#X obj 221 237 system;
#X msg 51 105 symbol \$1;
#X obj 51 131 pack s s \$2;
#X msg 198 214 echo \$2/progboot.sh \$1 \$3| at now;
#X text 125 132 SourcePath thisPath netPort;
#X text 86 17 (progboot) Fruitname SourcePath;
#X obj 51 211 outlet tosystem;
#X obj 188 51 bng 15 250 50 0 empty empty empty 17 7 0 10 -262144 -1
-1;
#X obj 188 103 print Error progboot;
#X msg 188 75 sorry your OS is not supported yet.;
#X obj 137 191 print;
#X msg 51 153 \$2/pied/progboot.sh \$1 \$3;
#X text 210 152 thisPath/pied/progboot.sh SourcePath netPort;
#X obj 221 52 pied/demux_os;
#X connect 0 0 2 0;
#X connect 1 0 5 1;
#X connect 2 0 4 0;
#X connect 2 1 1 0;
#X connect 4 0 5 0;
#X connect 5 0 14 0;
#X connect 10 0 12 0;
#X connect 12 0 11 0;
#X connect 14 0 9 0;
#X connect 16 1 10 0;
#X connect 16 2 10 0;
#X restore 160 135 pd progboot;
#X obj 114 184 outlet tosystem;
#X obj 38 198 print;
#X obj 84 215 demux 0 1;
#X obj 152 220 tgl 15 1 empty empty empty 17 7 0 10 -262144 -1 -1 1
1;
#N canvas 458 256 461 394 oldmake 0;
#X obj 43 17 inlet;
#X obj 110 75 getdir;
#X msg 43 75 symbol \$1;
#X obj 43 101 pack s s \$2;
#X obj 158 168 r \$0-make-ram;
#X obj 272 166 r \$0-make-rom;
#X obj 244 256 s \$0-Bootloader-snd;
#X obj 43 41 t a b a;
#X msg 313 95 symbol \$1;
#X obj 244 227 list prepend;
#X obj 313 72 a2l;
#X obj 158 190 list prepend RAM;
#X obj 272 190 list prepend ROM;
#X text 83 17 (make) Fruitname SourcePath;
#X text 112 101 SourcePath thisPath netPort;
#X text 145 121 thisPath/make.sh SourcePath netPort;
#X msg 66 354 echo \$2/make.sh \$1 \$3 | at now;
#X msg 43 123 \$2/make.sh \$1 \$3;
#X obj 43 314 outlet tosystem;
#X connect 0 0 7 0;
#X connect 1 0 3 1;
#X connect 2 0 3 0;
#X connect 3 0 17 0;
#X connect 4 0 11 0;
#X connect 5 0 12 0;
#X connect 7 0 2 0;
#X connect 7 1 1 0;
#X connect 7 2 10 0;
#X connect 8 0 9 1;
#X connect 9 0 6 0;
#X connect 10 0 8 0;
#X connect 11 0 9 0;
#X connect 12 0 9 0;
#X connect 17 0 18 0;
#X restore 78 237 pd oldmake;
#X obj 111 101 pied/MAKE \$0 \$2;
#X connect 1 0 4 0;
#X connect 1 0 14 0;
#X connect 5 0 10 0;
#X connect 6 0 7 0;
#X connect 7 0 8 0;
#X connect 8 0 9 0;
#X connect 10 0 15 0;
#X connect 10 1 12 0;
#X connect 15 0 11 0;
#X connect 15 1 13 0;
#X connect 15 2 22 0;
#X connect 15 3 16 0;
#X connect 16 0 17 0;
#X connect 19 0 21 0;
#X connect 20 0 19 1;
#X restore 99 189 pd Bootloader/Compiler;
#X obj 17 330 import motex hcs maxlib ggee zexy list-abs;
#X obj 18 308 import moonlib iemlib;
#X text 2 9 usage: Fr2Pied num_serial_device unique_network_port;
#X connect 2 0 1 0;
#X connect 4 0 5 0;
#X connect 5 0 3 0;
#X connect 17 0 20 0;
#X connect 22 0 21 0;
#X coords 0 -1 1 1 152 72 1 20 30;
