#N canvas 322 361 450 300 10;
#X obj 105 142 FruitSend \$1;
#X obj 105 92 inlet;
#X obj 174 92 inlet;
#X obj 105 114 spigot;
#X obj 174 116 spigot;
#X obj 231 92 f;
#X obj 231 51 FruitReceive \$1;
#X obj 231 71 route present;
#X connect 1 0 3 0;
#X connect 2 0 4 0;
#X connect 3 0 0 0;
#X connect 4 0 0 1;
#X connect 5 0 4 1;
#X connect 5 0 3 1;
#X connect 6 0 7 0;
#X connect 7 0 5 0;
