#N canvas 673 396 574 504 10;
#X floatatom 1143 70 5 0 1023 1 MaxVoltage #0-voltn-rcv #0-voltn-snd
;
#X floatatom 1143 53 5 0 1023 1 Courant #0-currentn-rcv #0-currentn-snd
;
#X floatatom 1143 91 8 -32768 32767 1 Speed #0-speedn-rcv #0-speedn-snd
;
#X floatatom 1143 108 8 0 32767 1 Accel #0-acceln-rcv #0-acceln-snd
;
#X obj 95 -2 inlet;
#X obj 95 405 s Fraise-\$1-rcv;
#X obj 95 20 t b a;
#X obj 191 131 list trim;
#X obj 191 152 route c i l;
#X obj 95 381 repack 128;
#X obj 123 233 mod 256;
#X obj 240 245 mod 256;
#X obj 188 222 t f f;
#X obj 188 245 div 256;
#X obj 188 290 pack f f;
#X obj 454 312 mod 256;
#X obj 299 181 t f f;
#X obj 299 204 div 256;
#X obj 298 350 pack f f f f;
#X obj 400 315 mod 256;
#X obj 299 226 t f f;
#X obj 299 249 div 256;
#X obj 350 316 mod 256;
#X obj 299 272 t f f;
#X obj 299 295 div 256;
#X obj 299 315 mod 256;
#X text 190 -12 input: type1 val1 [type2 val2 [...]];
#X text 50 -32 usage: FruitReceive fruitname;
#X text 193 5 types: c=char (8 bits);
#X text 235 16 i=int (16 bits);
#X text 235 28 l=long (32 bits);
#X obj 188 268 mod 256;
#X obj 450 3 inlet char;
#X obj 450 44 s Fraise-\$1-C-rcv;
#X obj 191 85 unwonk s f;
#X obj 122 86 unwonk s f;
#X obj 122 64 t a a;
#X obj 191 107 pack s f;
#X obj 122 41 list;
#X connect 4 0 6 0;
#X connect 6 0 9 0;
#X connect 6 1 38 0;
#X connect 7 0 8 0;
#X connect 8 0 10 0;
#X connect 8 1 12 0;
#X connect 8 2 16 0;
#X connect 9 0 5 0;
#X connect 10 0 9 0;
#X connect 11 0 14 1;
#X connect 12 0 13 0;
#X connect 12 1 11 0;
#X connect 13 0 31 0;
#X connect 14 0 9 0;
#X connect 15 0 18 3;
#X connect 16 0 17 0;
#X connect 16 1 15 0;
#X connect 17 0 20 0;
#X connect 18 0 9 0;
#X connect 19 0 18 2;
#X connect 20 0 21 0;
#X connect 20 1 19 0;
#X connect 21 0 23 0;
#X connect 22 0 18 1;
#X connect 23 0 24 0;
#X connect 23 1 22 0;
#X connect 24 0 25 0;
#X connect 25 0 18 0;
#X connect 31 0 14 0;
#X connect 32 0 33 0;
#X connect 34 0 37 0;
#X connect 34 1 37 1;
#X connect 35 2 38 0;
#X connect 36 0 35 0;
#X connect 36 1 34 0;
#X connect 37 0 7 0;
#X connect 38 0 36 0;
#X coords 0 0 1 1 200 40 0;
