#N canvas 137 272 247 212 10;
#X obj 48 32 FruitReceive \$1;
#X obj 48 55 route \$2;
#X obj 48 78 s Fraise-\$1-\$3-snd;
#X obj 48 115 r Fraise-\$1-\$3-rcv;
#X obj 48 137 list prepend \$2;
#X obj 48 159 s Fraise-\$1-rcv;
#X connect 0 0 1 0;
#X connect 1 0 2 0;
#X connect 3 0 4 0;
#X connect 4 0 5 0;
