#N canvas 634 254 272 217 10;
#X obj 12 78 makesymbol pd-%s;
#X obj 12 55 makesymbol \$1;
#X obj 69 2 inlet;
#X obj 144 50 sel 0;
#X msg 144 78 0;
#X msg 174 78 1;
#X obj 12 112 pack s f;
#X obj 70 22 t b a;
#X floatatom 161 123 5 0 0;
#X msg 13 134 \; \$1 vis \$2;
#X connect 0 0 6 0;
#X connect 1 0 0 0;
#X connect 2 0 7 0;
#X connect 3 0 4 0;
#X connect 3 1 5 0;
#X connect 4 0 6 1;
#X connect 4 0 8 0;
#X connect 5 0 6 1;
#X connect 5 0 8 0;
#X connect 6 0 9 0;
#X connect 7 0 1 0;
#X connect 7 1 3 0;
