#N canvas 79 136 499 300 10;
#X obj 47 14 inlet;
#X obj 47 40 t b b;
#X obj 74 138 list prepend add;
#X obj 47 219 outlet;
#X obj 74 159 list trim;
#X obj 74 181 s \$1-make-tobatch;
#X msg 107 64 0;
#X msg 188 63 1;
#X obj 107 42 select windows;
#X obj 74 87 spigot;
#X obj 107 18 r \$1-make-OS;
#X msg 74 109 #!/bin/sh;
#X connect 0 0 1 0;
#X connect 1 0 3 0;
#X connect 1 1 9 0;
#X connect 2 0 4 0;
#X connect 4 0 5 0;
#X connect 6 0 9 1;
#X connect 7 0 9 1;
#X connect 8 0 6 0;
#X connect 8 1 7 0;
#X connect 9 0 11 0;
#X connect 10 0 8 0;
#X connect 11 0 2 0;
