#N canvas 372 75 940 713 10;
#X obj 94 38 inlet;
#X text 612 783 Jack/RYBN 2015;
#X obj 558 530 symbol_length;
#X obj 465 501 t s s;
#X obj 465 632 /;
#X obj 558 602 pow;
#X obj 558 552 t b f;
#X msg 558 574 10;
#X obj 374 662 +;
#X obj 374 684 *;
#X obj 278 530 symbol_length;
#X obj 185 501 t s s;
#X obj 185 632 /;
#X obj 278 602 pow;
#X obj 278 552 t b f;
#X msg 278 574 10;
#X obj 94 672 +;
#X obj 94 694 *;
#X obj 374 764 pow;
#X obj 374 714 t b f;
#X msg 374 736 10;
#X obj 94 796 *;
#X msg 795 557 1;
#X obj 94 220 list split 1;
#X obj 94 440 list split 1;
#X obj 374 440 list split 1;
#X obj 128 245 route bang;
#X obj 128 463 route bang;
#X obj 408 463 route bang;
#N canvas 178 619 561 440 get_signe 0;
#X obj 180 39 list fromsymbol;
#X msg 256 145 \$1;
#X obj 256 167 == 45;
#X obj 237 266 list split;
#X obj 256 189 t f f;
#X obj 415 218 * -2;
#X obj 415 240 + 1;
#X obj 180 15 inlet;
#X obj 180 61 route bang;
#X obj 265 345 list tosymbol;
#X obj 265 367 outlet;
#X obj 415 367 outlet;
#X msg 326 155 \$1;
#X obj 237 119 t l l l;
#X obj 256 221 ||;
#X obj 326 177 == 43;
#X connect 0 0 8 0;
#X connect 1 0 2 0;
#X connect 2 0 4 0;
#X connect 3 1 9 0;
#X connect 4 0 14 0;
#X connect 4 1 5 0;
#X connect 5 0 6 0;
#X connect 6 0 11 0;
#X connect 7 0 0 0;
#X connect 8 0 9 0;
#X connect 8 1 13 0;
#X connect 9 0 10 0;
#X connect 12 0 15 0;
#X connect 13 0 3 0;
#X connect 13 1 1 0;
#X connect 13 2 12 0;
#X connect 14 0 3 1;
#X connect 15 0 14 1;
#X restore 94 279 pd get_signe;
#N canvas 356 280 561 440 get_signe 0;
#X obj 180 39 list fromsymbol;
#X msg 256 155 \$1;
#X obj 256 177 == 45;
#X obj 237 276 list split;
#X obj 256 199 t f f;
#X obj 415 228 * -2;
#X obj 415 250 + 1;
#X obj 180 15 inlet;
#X obj 180 61 route bang;
#X obj 265 355 list tosymbol;
#X obj 265 377 outlet;
#X obj 415 377 outlet;
#X obj 237 129 t l l l;
#X msg 326 155 \$1;
#X obj 326 177 == 43;
#X obj 256 231 ||;
#X connect 0 0 8 0;
#X connect 1 0 2 0;
#X connect 2 0 4 0;
#X connect 3 1 9 0;
#X connect 4 0 15 0;
#X connect 4 1 5 0;
#X connect 5 0 6 0;
#X connect 6 0 11 0;
#X connect 7 0 0 0;
#X connect 8 0 9 0;
#X connect 8 1 12 0;
#X connect 9 0 10 0;
#X connect 12 0 3 0;
#X connect 12 1 1 0;
#X connect 12 2 13 0;
#X connect 13 0 14 0;
#X connect 14 0 15 1;
#X connect 15 0 3 1;
#X restore 374 279 pd get_signe;
#X obj 113 132 array-splitsymbol e;
#X msg 113 154 add2 \$1;
#X msg 172 154 set;
#X obj 94 108 t b s b;
#X msg 113 360 add2 \$1;
#X msg 94 402 22 0;
#X msg 172 360 set;
#X msg 393 360 add2 \$1;
#X msg 374 402 22 0;
#X msg 452 360 set;
#X obj 94 918 outlet;
#X obj 94 314 t b s b b;
#X obj 374 314 t b s b b;
#X msg 523 338 0;
#X msg 243 338 0;
#N canvas 340 381 698 567 symbol2int 0;
#X obj 270 69 list fromsymbol;
#X obj 361 361 t f f;
#X obj 407 361 * 10;
#X obj 361 317 +;
#X obj 327 434 i;
#X msg 394 317 0;
#X obj 327 464 outlet;
#X obj 270 18 inlet;
#N canvas 0 102 450 300 serialize 0;
#X obj 183 173 list split 1;
#X obj 183 131 until;
#X obj 183 152 list append;
#X obj 183 111 t b l;
#X obj 313 173 bang;
#X obj 183 195 outlet;
#X obj 183 83 inlet;
#X connect 0 0 5 0;
#X connect 0 1 2 1;
#X connect 0 2 4 0;
#X connect 1 0 2 0;
#X connect 2 0 0 0;
#X connect 3 0 1 0;
#X connect 3 1 2 1;
#X connect 4 0 1 1;
#X connect 6 0 3 0;
#X restore 361 158 pd serialize;
#N canvas 0 102 450 300 ascii2digit 0;
#X obj 55 52 inlet;
#X obj 55 80 - 48;
#X obj 55 122 moses 0;
#X obj 55 102 moses 10;
#X obj 41 191 outlet;
#X text 171 74 ASCII offset of '0' is 48;
#X text 170 108 filter out non-digits;
#X obj 126 191 outlet;
#X connect 0 0 1 0;
#X connect 1 0 3 0;
#X connect 2 0 7 0;
#X connect 2 1 4 0;
#X connect 3 0 2 0;
#X connect 3 1 7 0;
#X restore 361 234 pd ascii2digit;
#X obj 447 463 outlet;
#X obj 447 438 symbol;
#X obj 490 271 t b b;
#X obj 327 129 t b b l b;
#X obj 327 409 spigot;
#X obj 447 409 spigot;
#X msg 490 293 0;
#X msg 520 293 1;
#X obj 270 44 t s s b b;
#X msg 558 292 1;
#X msg 588 292 0;
#X obj 270 91 route bang;
#X msg 270 130 symbol;
#X connect 0 0 21 0;
#X connect 1 0 4 1;
#X connect 1 1 2 0;
#X connect 2 0 3 1;
#X connect 3 0 1 0;
#X connect 4 0 6 0;
#X connect 5 0 1 0;
#X connect 7 0 18 0;
#X connect 8 0 9 0;
#X connect 9 0 3 0;
#X connect 9 1 12 0;
#X connect 11 0 10 0;
#X connect 12 0 16 0;
#X connect 12 1 17 0;
#X connect 13 0 14 0;
#X connect 13 1 15 0;
#X connect 13 2 8 0;
#X connect 13 3 5 0;
#X connect 14 0 4 0;
#X connect 15 0 11 0;
#X connect 16 0 14 1;
#X connect 17 0 15 1;
#X connect 18 0 0 0;
#X connect 18 1 11 1;
#X connect 18 2 19 0;
#X connect 18 3 20 0;
#X connect 19 0 14 1;
#X connect 20 0 15 1;
#X connect 21 0 22 0;
#X connect 21 1 13 0;
#X connect 22 0 10 0;
#X restore 94 556 pd symbol2int;
#N canvas 0 92 698 567 symbol2int 0;
#X obj 270 69 list fromsymbol;
#X obj 361 361 t f f;
#X obj 407 361 * 10;
#X obj 361 317 +;
#X obj 327 434 i;
#X msg 394 317 0;
#X obj 327 464 outlet;
#X obj 270 18 inlet;
#N canvas 0 97 450 300 serialize 0;
#X obj 183 173 list split 1;
#X obj 183 131 until;
#X obj 183 152 list append;
#X obj 183 111 t b l;
#X obj 313 173 bang;
#X obj 183 195 outlet;
#X obj 183 83 inlet;
#X connect 0 0 5 0;
#X connect 0 1 2 1;
#X connect 0 2 4 0;
#X connect 1 0 2 0;
#X connect 2 0 0 0;
#X connect 3 0 1 0;
#X connect 3 1 2 1;
#X connect 4 0 1 1;
#X connect 6 0 3 0;
#X restore 361 158 pd serialize;
#N canvas 0 102 450 300 ascii2digit 0;
#X obj 55 52 inlet;
#X obj 55 80 - 48;
#X obj 55 122 moses 0;
#X obj 55 102 moses 10;
#X obj 41 191 outlet;
#X text 171 74 ASCII offset of '0' is 48;
#X text 170 108 filter out non-digits;
#X obj 126 191 outlet;
#X connect 0 0 1 0;
#X connect 1 0 3 0;
#X connect 2 0 7 0;
#X connect 2 1 4 0;
#X connect 3 0 2 0;
#X connect 3 1 7 0;
#X restore 361 234 pd ascii2digit;
#X obj 447 463 outlet;
#X obj 447 438 symbol;
#X obj 490 271 t b b;
#X obj 327 129 t b b l b;
#X obj 327 409 spigot;
#X obj 447 409 spigot;
#X msg 490 293 0;
#X msg 520 293 1;
#X obj 270 44 t s s b b;
#X msg 558 292 1;
#X msg 588 292 0;
#X obj 270 91 route bang;
#X msg 270 113 symbol;
#X connect 0 0 21 0;
#X connect 1 0 4 1;
#X connect 1 1 2 0;
#X connect 2 0 3 1;
#X connect 3 0 1 0;
#X connect 4 0 6 0;
#X connect 5 0 1 0;
#X connect 7 0 18 0;
#X connect 8 0 9 0;
#X connect 9 0 3 0;
#X connect 9 1 12 0;
#X connect 11 0 10 0;
#X connect 12 0 16 0;
#X connect 12 1 17 0;
#X connect 13 0 14 0;
#X connect 13 1 15 0;
#X connect 13 2 8 0;
#X connect 13 3 5 0;
#X connect 14 0 4 0;
#X connect 15 0 11 0;
#X connect 16 0 14 1;
#X connect 17 0 15 1;
#X connect 18 0 0 0;
#X connect 18 1 11 1;
#X connect 18 2 19 0;
#X connect 18 3 20 0;
#X connect 19 0 14 1;
#X connect 20 0 15 1;
#X connect 21 0 22 0;
#X connect 21 1 13 0;
#X connect 22 0 10 0;
#X restore 185 530 pd symbol2int;
#N canvas 0 92 698 567 symbol2int 0;
#X obj 270 69 list fromsymbol;
#X obj 361 361 t f f;
#X obj 407 361 * 10;
#X obj 361 317 +;
#X obj 327 434 i;
#X msg 394 317 0;
#X obj 327 464 outlet;
#X obj 270 18 inlet;
#N canvas 0 97 450 300 serialize 0;
#X obj 183 173 list split 1;
#X obj 183 131 until;
#X obj 183 152 list append;
#X obj 183 111 t b l;
#X obj 313 173 bang;
#X obj 183 195 outlet;
#X obj 183 83 inlet;
#X connect 0 0 5 0;
#X connect 0 1 2 1;
#X connect 0 2 4 0;
#X connect 1 0 2 0;
#X connect 2 0 0 0;
#X connect 3 0 1 0;
#X connect 3 1 2 1;
#X connect 4 0 1 1;
#X connect 6 0 3 0;
#X restore 361 158 pd serialize;
#N canvas 0 102 450 300 ascii2digit 0;
#X obj 55 52 inlet;
#X obj 55 80 - 48;
#X obj 55 122 moses 0;
#X obj 55 102 moses 10;
#X obj 41 191 outlet;
#X text 171 74 ASCII offset of '0' is 48;
#X text 170 108 filter out non-digits;
#X obj 126 191 outlet;
#X connect 0 0 1 0;
#X connect 1 0 3 0;
#X connect 2 0 7 0;
#X connect 2 1 4 0;
#X connect 3 0 2 0;
#X connect 3 1 7 0;
#X restore 361 234 pd ascii2digit;
#X obj 447 463 outlet;
#X obj 447 438 symbol;
#X obj 490 271 t b b;
#X obj 327 129 t b b l b;
#X obj 327 409 spigot;
#X obj 447 409 spigot;
#X msg 490 293 0;
#X msg 520 293 1;
#X obj 270 44 t s s b b;
#X msg 558 292 1;
#X msg 588 292 0;
#X obj 270 91 route bang;
#X msg 270 113 symbol;
#X connect 0 0 21 0;
#X connect 1 0 4 1;
#X connect 1 1 2 0;
#X connect 2 0 3 1;
#X connect 3 0 1 0;
#X connect 4 0 6 0;
#X connect 5 0 1 0;
#X connect 7 0 18 0;
#X connect 8 0 9 0;
#X connect 9 0 3 0;
#X connect 9 1 12 0;
#X connect 11 0 10 0;
#X connect 12 0 16 0;
#X connect 12 1 17 0;
#X connect 13 0 14 0;
#X connect 13 1 15 0;
#X connect 13 2 8 0;
#X connect 13 3 5 0;
#X connect 14 0 4 0;
#X connect 15 0 11 0;
#X connect 16 0 14 1;
#X connect 17 0 15 1;
#X connect 18 0 0 0;
#X connect 18 1 11 1;
#X connect 18 2 19 0;
#X connect 18 3 20 0;
#X connect 19 0 14 1;
#X connect 20 0 15 1;
#X connect 21 0 22 0;
#X connect 21 1 13 0;
#X connect 22 0 10 0;
#X restore 374 552 pd symbol2int;
#N canvas 0 92 698 567 symbol2int 0;
#X obj 270 69 list fromsymbol;
#X obj 361 361 t f f;
#X obj 407 361 * 10;
#X obj 361 317 +;
#X obj 327 434 i;
#X msg 394 317 0;
#X obj 327 464 outlet;
#X obj 270 18 inlet;
#N canvas 0 97 450 300 serialize 0;
#X obj 183 173 list split 1;
#X obj 183 131 until;
#X obj 183 152 list append;
#X obj 183 111 t b l;
#X obj 313 173 bang;
#X obj 183 195 outlet;
#X obj 183 83 inlet;
#X connect 0 0 5 0;
#X connect 0 1 2 1;
#X connect 0 2 4 0;
#X connect 1 0 2 0;
#X connect 2 0 0 0;
#X connect 3 0 1 0;
#X connect 3 1 2 1;
#X connect 4 0 1 1;
#X connect 6 0 3 0;
#X restore 361 158 pd serialize;
#N canvas 0 102 450 300 ascii2digit 0;
#X obj 55 52 inlet;
#X obj 55 80 - 48;
#X obj 55 122 moses 0;
#X obj 55 102 moses 10;
#X obj 41 191 outlet;
#X text 171 74 ASCII offset of '0' is 48;
#X text 170 108 filter out non-digits;
#X obj 126 191 outlet;
#X connect 0 0 1 0;
#X connect 1 0 3 0;
#X connect 2 0 7 0;
#X connect 2 1 4 0;
#X connect 3 0 2 0;
#X connect 3 1 7 0;
#X restore 361 234 pd ascii2digit;
#X obj 447 463 outlet;
#X obj 447 438 symbol;
#X obj 490 271 t b b;
#X obj 327 129 t b b l b;
#X obj 327 409 spigot;
#X obj 447 409 spigot;
#X msg 490 293 0;
#X msg 520 293 1;
#X obj 270 44 t s s b b;
#X msg 558 292 1;
#X msg 588 292 0;
#X obj 270 91 route bang;
#X msg 270 113 symbol;
#X connect 0 0 21 0;
#X connect 1 0 4 1;
#X connect 1 1 2 0;
#X connect 2 0 3 1;
#X connect 3 0 1 0;
#X connect 4 0 6 0;
#X connect 5 0 1 0;
#X connect 7 0 18 0;
#X connect 8 0 9 0;
#X connect 9 0 3 0;
#X connect 9 1 12 0;
#X connect 11 0 10 0;
#X connect 12 0 16 0;
#X connect 12 1 17 0;
#X connect 13 0 14 0;
#X connect 13 1 15 0;
#X connect 13 2 8 0;
#X connect 13 3 5 0;
#X connect 14 0 4 0;
#X connect 15 0 11 0;
#X connect 16 0 14 1;
#X connect 17 0 15 1;
#X connect 18 0 0 0;
#X connect 18 1 11 1;
#X connect 18 2 19 0;
#X connect 18 3 20 0;
#X connect 19 0 14 1;
#X connect 20 0 15 1;
#X connect 21 0 22 0;
#X connect 21 1 13 0;
#X connect 22 0 10 0;
#X restore 465 531 pd symbol2int;
#X msg 149 860 0;
#X obj 94 878 spigot;
#X obj 284 878 spigot;
#X obj 284 858 symbol;
#X msg 329 858 1;
#X msg 835 557 0;
#X obj 94 86 t s s b b;
#X obj 151 591 t b b;
#X obj 94 591 t b f;
#X obj 284 910 outlet;
#X msg 94 196 22;
#X obj 94 64 route symbol;
#X obj 113 338 array-splitsymbol .;
#X obj 393 338 array-splitsymbol .;
#X connect 0 0 61 0;
#X connect 2 0 6 0;
#X connect 3 0 49 0;
#X connect 3 1 2 0;
#X connect 4 0 8 1;
#X connect 5 0 4 1;
#X connect 6 0 7 0;
#X connect 6 1 5 1;
#X connect 7 0 5 0;
#X connect 8 0 9 0;
#X connect 9 0 19 0;
#X connect 10 0 14 0;
#X connect 11 0 47 0;
#X connect 11 1 10 0;
#X connect 12 0 16 1;
#X connect 13 0 12 1;
#X connect 14 0 15 0;
#X connect 14 1 13 1;
#X connect 15 0 13 0;
#X connect 16 0 17 0;
#X connect 17 0 21 0;
#X connect 18 0 21 1;
#X connect 19 0 20 0;
#X connect 19 1 18 1;
#X connect 20 0 18 0;
#X connect 21 0 51 0;
#X connect 22 0 21 1;
#X connect 22 0 51 1;
#X connect 23 0 29 0;
#X connect 23 1 26 0;
#X connect 24 0 46 0;
#X connect 24 1 27 0;
#X connect 25 0 48 0;
#X connect 25 1 28 0;
#X connect 26 1 30 0;
#X connect 27 1 11 0;
#X connect 28 1 3 0;
#X connect 29 0 42 0;
#X connect 29 1 17 1;
#X connect 30 0 43 0;
#X connect 30 1 9 1;
#X connect 31 0 32 0;
#X connect 32 0 60 0;
#X connect 33 0 60 0;
#X connect 34 0 60 0;
#X connect 34 1 31 0;
#X connect 34 2 33 0;
#X connect 35 0 36 0;
#X connect 36 0 24 0;
#X connect 37 0 36 0;
#X connect 38 0 39 0;
#X connect 39 0 25 0;
#X connect 40 0 39 0;
#X connect 42 0 36 0;
#X connect 42 1 62 0;
#X connect 42 2 37 0;
#X connect 42 3 45 0;
#X connect 43 0 39 0;
#X connect 43 1 63 0;
#X connect 43 2 40 0;
#X connect 43 3 44 0;
#X connect 44 0 8 1;
#X connect 45 0 16 1;
#X connect 46 0 58 0;
#X connect 46 1 57 0;
#X connect 47 0 12 0;
#X connect 47 1 50 0;
#X connect 47 1 54 0;
#X connect 48 0 8 0;
#X connect 48 1 50 0;
#X connect 48 1 54 0;
#X connect 49 0 4 0;
#X connect 49 1 50 0;
#X connect 49 1 54 0;
#X connect 50 0 51 1;
#X connect 51 0 41 0;
#X connect 52 0 59 0;
#X connect 53 0 52 0;
#X connect 54 0 52 1;
#X connect 55 0 52 1;
#X connect 56 0 34 0;
#X connect 56 1 53 1;
#X connect 56 2 22 0;
#X connect 56 3 55 0;
#X connect 57 0 53 0;
#X connect 57 1 50 0;
#X connect 57 1 54 0;
#X connect 58 0 53 0;
#X connect 58 1 16 0;
#X connect 60 0 23 0;
#X connect 61 0 56 0;
#X connect 62 0 35 0;
#X connect 63 0 38 0;
