#N canvas 395 292 626 613 10;
#X obj 60 21 inlet;
#X obj 60 583 outlet;
#X obj 60 65 list fromsymbol;
#X obj 131 416 list tosymbol;
#X obj 60 43 route symbol;
#X obj 204 134 list length;
#X obj 296 23 loadbang;
#X obj 296 67 route float symbol;
#X obj 296 45 list append \$1;
#X obj 296 89 makefilename %d;
#X obj 296 111 list fromsymbol;
#X obj 146 302 route -1;
#X msg 131 389 70;
#X msg 257 335 set;
#X msg 191 336 add2 \$1;
#X obj 146 334 t b b;
#X text 295 441 Jack/RYBN 2015;
#X obj 60 87 route bang;
#X obj 330 397 array define \$0-array-splitsymbol 1;
#X obj 204 158 array size \$0-array-splitsymbol;
#X obj 189 180 array set \$0-array-splitsymbol;
#X obj 146 269 array-drip \$0-array-splitsymbol;
#X msg 60 109 symbol;
#X obj 355 292 route -1;
#X msg 355 269 \$1;
#X obj 117 467 list split;
#X obj 145 490 route -1;
#X obj 389 17 bng 15 250 50 0 empty empty empty 17 7 0 10 -262144 -1
-1;
#X obj 174 440 - 1;
#X msg 355 319 symbol;
#X obj 117 108 t l b b b l l l;
#X msg 145 517 symbol;
#X connect 0 0 4 0;
#X connect 2 0 17 0;
#X connect 3 0 1 0;
#X connect 4 0 2 0;
#X connect 5 0 19 0;
#X connect 5 0 28 0;
#X connect 6 0 8 0;
#X connect 7 0 9 0;
#X connect 7 1 10 0;
#X connect 8 0 7 0;
#X connect 9 0 10 0;
#X connect 10 0 11 1;
#X connect 10 0 23 1;
#X connect 10 0 26 1;
#X connect 11 0 15 0;
#X connect 11 1 14 0;
#X connect 12 0 3 0;
#X connect 13 0 12 0;
#X connect 14 0 12 0;
#X connect 15 0 13 0;
#X connect 15 1 12 0;
#X connect 17 0 22 0;
#X connect 17 1 30 0;
#X connect 21 0 11 0;
#X connect 22 0 1 0;
#X connect 23 0 29 0;
#X connect 24 0 23 0;
#X connect 25 1 26 0;
#X connect 26 0 31 0;
#X connect 27 0 8 0;
#X connect 28 0 25 1;
#X connect 29 0 1 0;
#X connect 30 0 25 0;
#X connect 30 1 12 0;
#X connect 30 2 21 0;
#X connect 30 3 13 0;
#X connect 30 4 24 0;
#X connect 30 5 20 0;
#X connect 30 6 5 0;
#X connect 31 0 1 0;
