#N canvas 107 164 450 345 12;
#X obj 33 15 inlet file;
#X obj 33 39 t b b s;
#X obj 79 87 text define \$0-text;
#X msg 79 63 clear \, read -c \$1;
#X obj 88 240 text sequence \$0-text;
#X msg 33 64 clear;
#X obj 88 264 outlet;
#X obj 56 114 text size \$0-text;
#X obj 56 138 sel 0;
#X msg 88 216 line \$1 \, auto;
#X obj 88 163 b;
#X obj 88 188 f \$1;
#X connect 0 0 1 0;
#X connect 1 0 5 0;
#X connect 1 1 7 0;
#X connect 1 2 3 0;
#X connect 3 0 2 0;
#X connect 4 0 6 0;
#X connect 7 0 8 0;
#X connect 8 1 10 0;
#X connect 9 0 4 0;
#X connect 10 0 11 0;
#X connect 11 0 9 0;
