#N canvas 107 164 450 300 12;
#X obj 72 35 inlet file;
#X obj 72 59 t b b s;
#X obj 118 107 text define \$0-text;
#X msg 118 83 clear \, read -c \$1;
#X msg 127 182 line 0 \, auto;
#X obj 127 206 text sequence \$0-text;
#X msg 72 84 clear;
#X obj 127 230 outlet;
#X obj 95 134 text size \$0-text;
#X obj 95 158 sel 0;
#X connect 0 0 1 0;
#X connect 1 0 6 0;
#X connect 1 1 8 0;
#X connect 1 2 3 0;
#X connect 3 0 2 0;
#X connect 4 0 5 0;
#X connect 5 0 7 0;
#X connect 6 0 2 0;
#X connect 8 0 9 0;
#X connect 9 1 4 0;
