#N canvas 840 359 393 251 10;
#X obj 46 26 inlet;
#N canvas 637 129 306 200 nibble 0;
#X obj 20 13 inlet;
#X obj 20 148 outlet;
#X obj 20 35 sel 10 11 12 13 14 15;
#X msg 20 62 A;
#X obj 20 119 symbol;
#X msg 51 61 B;
#X msg 83 61 C;
#X msg 114 60 D;
#X msg 146 60 E;
#X msg 177 59 F;
#X obj 208 59 makefilename %s;
#X connect 0 0 2 0;
#X connect 2 0 3 0;
#X connect 2 1 5 0;
#X connect 2 2 6 0;
#X connect 2 3 7 0;
#X connect 2 4 8 0;
#X connect 2 5 9 0;
#X connect 2 6 10 0;
#X connect 3 0 4 0;
#X connect 4 0 1 0;
#X connect 5 0 4 0;
#X connect 6 0 4 0;
#X connect 7 0 4 0;
#X connect 8 0 4 0;
#X connect 9 0 4 0;
#X connect 10 0 1 0;
#X restore 46 116 pd nibble;
#X obj 46 67 t f f, f 18;
#X obj 46 90 >> 4;
#X obj 151 92 & 15;
#X obj 46 47 i;
#N canvas 637 129 328 184 nibble 0;
#X obj 20 13 inlet;
#X obj 20 148 outlet;
#X obj 20 35 sel 10 11 12 13 14 15;
#X msg 20 62 A;
#X obj 20 119 symbol;
#X msg 51 61 B;
#X msg 83 61 C;
#X msg 114 60 D;
#X msg 146 60 E;
#X msg 177 59 F;
#X obj 213 58 makefilename %s;
#X connect 0 0 2 0;
#X connect 2 0 3 0;
#X connect 2 1 5 0;
#X connect 2 2 6 0;
#X connect 2 3 7 0;
#X connect 2 4 8 0;
#X connect 2 5 9 0;
#X connect 2 6 10 0;
#X connect 3 0 4 0;
#X connect 4 0 1 0;
#X connect 5 0 4 0;
#X connect 6 0 4 0;
#X connect 7 0 4 0;
#X connect 8 0 4 0;
#X connect 9 0 4 0;
#X connect 10 0 1 0;
#X restore 151 115 pd nibble;
#X obj 46 187 outlet list;
#X obj 46 137 list fromsymbol;
#X obj 151 137 list fromsymbol;
#X obj 46 158 pack f f, f 18;
#X connect 0 0 5 0;
#X connect 1 0 8 0;
#X connect 2 0 3 0;
#X connect 2 1 4 0;
#X connect 3 0 1 0;
#X connect 4 0 6 0;
#X connect 5 0 2 0;
#X connect 6 0 9 0;
#X connect 8 0 10 0;
#X connect 9 0 10 1;
#X connect 10 0 7 0;
#X coords 0 0 0.00203252 0.00161812 280 45 0;
