#N canvas 312 204 393 251 10;
#X obj 46 26 inlet;
#N canvas 637 129 306 200 nibble 0;
#X obj 20 13 inlet;
#X obj 20 148 outlet;
#X obj 20 35 sel 10 11 12 13 14 15;
#X msg 20 62 A;
#X obj 20 119 symbol;
#X msg 51 61 B;
#X msg 83 61 C;
#X msg 114 60 D;
#X msg 146 60 E;
#X msg 177 59 F;
#X obj 208 59 makefilename %s;
#X connect 0 0 2 0;
#X connect 2 0 3 0;
#X connect 2 1 5 0;
#X connect 2 2 6 0;
#X connect 2 3 7 0;
#X connect 2 4 8 0;
#X connect 2 5 9 0;
#X connect 2 6 10 0;
#X connect 3 0 4 0;
#X connect 4 0 1 0;
#X connect 5 0 4 0;
#X connect 6 0 4 0;
#X connect 7 0 4 0;
#X connect 8 0 4 0;
#X connect 9 0 4 0;
#X connect 10 0 1 0;
#X restore 46 116 pd nibble;
#X obj 46 183 outlet;
#X obj 46 67 t f f;
#X obj 46 90 >> 4;
#X obj 117 92 & 15;
#X obj 46 47 i;
#N canvas 637 129 328 184 nibble 0;
#X obj 20 13 inlet;
#X obj 20 148 outlet;
#X obj 20 35 sel 10 11 12 13 14 15;
#X msg 20 62 A;
#X obj 20 119 symbol;
#X msg 51 61 B;
#X msg 83 61 C;
#X msg 114 60 D;
#X msg 146 60 E;
#X msg 177 59 F;
#X obj 213 58 makefilename %s;
#X connect 0 0 2 0;
#X connect 2 0 3 0;
#X connect 2 1 5 0;
#X connect 2 2 6 0;
#X connect 2 3 7 0;
#X connect 2 4 8 0;
#X connect 2 5 9 0;
#X connect 2 6 10 0;
#X connect 3 0 4 0;
#X connect 4 0 1 0;
#X connect 5 0 4 0;
#X connect 6 0 4 0;
#X connect 7 0 4 0;
#X connect 8 0 4 0;
#X connect 9 0 4 0;
#X connect 10 0 1 0;
#X restore 117 115 pd nibble;
#X obj 46 139 pack s s;
#X msg 46 161 symbol \$1\$2;
#X obj 218 97 makefilename %.2X;
#X text 219 77 could be simpler :;
#X connect 0 0 6 0;
#X connect 1 0 8 0;
#X connect 3 0 4 0;
#X connect 3 1 5 0;
#X connect 4 0 1 0;
#X connect 5 0 7 0;
#X connect 6 0 3 0;
#X connect 7 0 8 1;
#X connect 8 0 9 0;
#X connect 9 0 2 0;
#X coords 0 0 0.00203252 0.00161812 280 45 0;
