#N canvas 628 314 441 266 10;
#X obj 41 8 inlet;
#X symbolatom 128 94 10 0 0 0 - - - 0;
#X obj 109 17 bng 15 250 50 0 empty empty empty 17 7 0 10 #fcfcfc #000000 #000000;
#X obj 129 16 loadbang;
#X msg 141 145 0;
#X msg 180 144 1;
#X obj 110 41 uname;
#X obj 110 64 unpack s s s s s;
#X obj 41 224 outlet x86-32bit;
#X obj 154 224 outlet x86-64bit;
#X obj 267 225 outlet arm;
#X msg 238 144 2;
#X floatatom 180 175 5 0 0 0 - - - 0;
#X obj 128 115 select i386 i686 x86_64 armv7l;
#X obj 41 172 list prepend 0;
#X obj 41 201 route 0 1 2, f 57;
#X connect 0 0 14 0;
#X connect 1 0 13 0;
#X connect 2 0 6 0;
#X connect 3 0 6 0;
#X connect 4 0 12 0;
#X connect 4 0 14 1;
#X connect 5 0 12 0;
#X connect 5 0 14 1;
#X connect 6 0 7 0;
#X connect 7 4 1 0;
#X connect 11 0 12 0;
#X connect 11 0 14 1;
#X connect 13 0 4 0;
#X connect 13 1 4 0;
#X connect 13 2 5 0;
#X connect 13 3 11 0;
#X connect 14 0 15 0;
#X connect 15 0 8 0;
#X connect 15 1 9 0;
#X connect 15 2 10 0;
