#N canvas 628 314 442 281 10;
#X obj 41 8 inlet;
#X symbolatom 128 94 10 0 0 0 - - -, f 10;
#X obj 109 17 bng 15 250 50 0 empty empty empty 17 7 0 10 -262144 -1
-1;
#X obj 129 16 loadbang;
#X msg 136 173 0;
#X msg 175 172 1;
#X obj 41 201 mdemux 0 1 2;
#X obj 110 41 uname;
#X obj 110 64 unpack s s s s s;
#X obj 41 251 outlet x86-32bit;
#X obj 163 251 outlet x86-64bit;
#X obj 284 251 outlet arm;
#X msg 233 172 2;
#X floatatom 197 213 5 0 0 0 - - -, f 5;
#X obj 128 115 select i386 i686 x86_64 armv7l;
#X connect 0 0 6 0;
#X connect 1 0 14 0;
#X connect 2 0 7 0;
#X connect 3 0 7 0;
#X connect 4 0 6 1;
#X connect 4 0 13 0;
#X connect 5 0 6 1;
#X connect 5 0 13 0;
#X connect 6 0 9 0;
#X connect 6 1 10 0;
#X connect 6 2 11 0;
#X connect 7 0 8 0;
#X connect 8 4 1 0;
#X connect 12 0 6 1;
#X connect 12 0 13 0;
#X connect 14 0 4 0;
#X connect 14 1 4 0;
#X connect 14 2 5 0;
#X connect 14 3 12 0;
