#N canvas 183 364 328 224 10;
#X obj 15 11 inlet;
#X obj 120 86 select linux windows macos;
#X msg 120 108 0;
#X msg 171 106 1;
#X obj 15 192 outlet linux;
#X obj 97 191 outlet windows;
#X obj 191 191 outlet macos;
#X msg 222 107 2;
#X obj 15 140 mdemux 0 1 2, f 35;
#X obj 120 62 r FRAISE-OS;
#X connect 0 0 8 0;
#X connect 1 0 2 0;
#X connect 1 1 3 0;
#X connect 1 2 7 0;
#X connect 2 0 8 1;
#X connect 3 0 8 1;
#X connect 7 0 8 1;
#X connect 8 0 4 0;
#X connect 8 1 5 0;
#X connect 8 2 6 0;
#X connect 9 0 1 0;
