#N canvas 635 280 328 224 10;
#X obj 41 8 inlet;
#X obj 136 42 operating_system;
#X symbolatom 136 66 10 0 0 0 - - -, f 10;
#X obj 136 18 bng 15 250 50 0 empty empty empty 17 7 0 10 -262144 -1
-1;
#X obj 136 87 select linux windows macos;
#X obj 155 17 loadbang;
#X msg 136 109 0;
#X msg 187 107 1;
#X obj 18 183 outlet linux;
#X obj 100 182 outlet windows;
#X obj 194 182 outlet macos;
#X msg 238 108 2;
#X obj 41 137 mdemux 0 1 2;
#X connect 0 0 12 0;
#X connect 1 0 2 0;
#X connect 2 0 4 0;
#X connect 3 0 1 0;
#X connect 4 0 6 0;
#X connect 4 1 7 0;
#X connect 4 2 11 0;
#X connect 5 0 1 0;
#X connect 6 0 12 1;
#X connect 7 0 12 1;
#X connect 11 0 12 1;
#X connect 12 0 8 0;
#X connect 12 1 9 0;
#X connect 12 2 10 0;
