#N canvas 183 364 332 205 10;
#X obj 15 11 inlet;
#X obj 120 52 select linux windows macos;
#X msg 120 74 0;
#X msg 171 72 1;
#X obj 15 162 outlet linux;
#X obj 108 163 outlet windows;
#X obj 201 163 outlet macos;
#X msg 222 73 2;
#X obj 15 101 list prepend 0, f 18;
#X obj 15 140 route 0 1 2, f 47;
#X obj 120 28 r \$1-make-OS;
#X connect 0 0 8 0;
#X connect 1 0 2 0;
#X connect 1 1 3 0;
#X connect 1 2 7 0;
#X connect 2 0 8 1;
#X connect 3 0 8 1;
#X connect 7 0 8 1;
#X connect 8 0 9 0;
#X connect 9 0 4 0;
#X connect 9 1 5 0;
#X connect 9 2 6 0;
#X connect 10 0 1 0;
