#N canvas 391 221 291 218 10;
#X obj 46 26 inlet;
#X obj 114 26 inlet;
#X obj 46 57 pack s s;
#X obj 46 78 unpack s s;
#N canvas 705 185 450 300 nibble 0;
#X obj 72 32 inlet;
#X obj 72 54 sel A B C D E F;
#X obj 201 87 15;
#X obj 72 87 10;
#X obj 99 87 11;
#X obj 124 87 12;
#X obj 150 87 13;
#X obj 175 87 14;
#X obj 124 221 outlet;
#X obj 258 198 array-symbol2float;
#X obj 234 86 list fromsymbol;
#X obj 234 127 - 48;
#X obj 234 149 moses 0;
#X obj 234 171 moses 10;
#X obj 234 108 list split 1;
#X connect 0 0 1 0;
#X connect 1 0 3 0;
#X connect 1 1 4 0;
#X connect 1 2 5 0;
#X connect 1 3 6 0;
#X connect 1 4 7 0;
#X connect 1 5 2 0;
#X connect 1 6 10 0;
#X connect 2 0 8 0;
#X connect 3 0 8 0;
#X connect 4 0 8 0;
#X connect 5 0 8 0;
#X connect 6 0 8 0;
#X connect 7 0 8 0;
#X connect 9 0 8 0;
#X connect 10 0 14 0;
#X connect 11 0 12 0;
#X connect 12 1 13 0;
#X connect 13 0 8 0;
#X connect 14 0 11 0;
#X restore 113 103 pd nibble;
#N canvas 512 81 450 300 nibble 0;
#X obj 72 32 inlet;
#X obj 72 54 sel A B C D E F;
#X obj 201 87 15;
#X obj 72 87 10;
#X obj 99 87 11;
#X obj 124 87 12;
#X obj 150 87 13;
#X obj 175 87 14;
#X obj 124 224 outlet;
#X obj 234 86 list fromsymbol;
#X obj 234 127 - 48;
#X obj 234 149 moses 0;
#X obj 234 171 moses 10;
#X obj 234 108 list split 1;
#X connect 0 0 1 0;
#X connect 1 0 3 0;
#X connect 1 1 4 0;
#X connect 1 2 5 0;
#X connect 1 3 6 0;
#X connect 1 4 7 0;
#X connect 1 5 2 0;
#X connect 1 6 9 0;
#X connect 2 0 8 0;
#X connect 3 0 8 0;
#X connect 4 0 8 0;
#X connect 5 0 8 0;
#X connect 6 0 8 0;
#X connect 7 0 8 0;
#X connect 9 0 13 0;
#X connect 10 0 11 0;
#X connect 11 1 12 0;
#X connect 12 0 8 0;
#X connect 13 0 10 0;
#X restore 46 102 pd nibble;
#X obj 46 124 * 16;
#X obj 46 145 +;
#X obj 46 166 outlet;
#X connect 0 0 2 0;
#X connect 1 0 2 1;
#X connect 2 0 3 0;
#X connect 3 0 5 0;
#X connect 3 1 4 0;
#X connect 4 0 7 1;
#X connect 5 0 6 0;
#X connect 6 0 7 0;
#X connect 7 0 8 0;
#X coords 0 0 0.00203252 0.00161812 280 45 0;
