#N canvas 389 119 291 218 10;
#X obj 46 26 inlet;
#X obj 114 26 inlet;
#X obj 46 57 pack s s;
#X obj 46 78 unpack s s;
#N canvas 702 194 450 300 nibble 0;
#X obj 72 32 inlet;
#X obj 72 54 sel A B C D E F;
#X obj 201 87 15;
#X obj 72 87 10;
#X obj 99 87 11;
#X obj 124 87 12;
#X obj 150 87 13;
#X obj 175 87 14;
#X obj 145 186 outlet;
#X obj 229 86 array-symbol2float;
#X connect 0 0 1 0;
#X connect 1 0 3 0;
#X connect 1 1 4 0;
#X connect 1 2 5 0;
#X connect 1 3 6 0;
#X connect 1 4 7 0;
#X connect 1 5 2 0;
#X connect 1 6 9 0;
#X connect 2 0 8 0;
#X connect 3 0 8 0;
#X connect 4 0 8 0;
#X connect 5 0 8 0;
#X connect 6 0 8 0;
#X connect 7 0 8 0;
#X connect 9 0 8 0;
#X restore 113 103 pd nibble;
#N canvas 507 66 450 300 nibble 0;
#X obj 72 32 inlet;
#X obj 72 54 sel A B C D E F;
#X obj 201 87 15;
#X obj 72 87 10;
#X obj 99 87 11;
#X obj 124 87 12;
#X obj 150 87 13;
#X obj 175 87 14;
#X obj 145 186 outlet;
#X obj 234 86 array-symbol2float;
#X connect 0 0 1 0;
#X connect 1 0 3 0;
#X connect 1 1 4 0;
#X connect 1 2 5 0;
#X connect 1 3 6 0;
#X connect 1 4 7 0;
#X connect 1 5 2 0;
#X connect 1 6 9 0;
#X connect 2 0 8 0;
#X connect 3 0 8 0;
#X connect 4 0 8 0;
#X connect 5 0 8 0;
#X connect 6 0 8 0;
#X connect 7 0 8 0;
#X connect 9 0 8 0;
#X restore 41 102 pd nibble;
#X obj 41 124 * 16;
#X obj 41 145 +;
#X obj 41 166 outlet;
#X connect 0 0 2 0;
#X connect 1 0 2 1;
#X connect 2 0 3 0;
#X connect 3 0 5 0;
#X connect 3 1 4 0;
#X connect 4 0 7 1;
#X connect 5 0 6 0;
#X connect 6 0 7 0;
#X connect 7 0 8 0;
#X coords 0 0 0.00203252 0.00161812 280 45 0;
