#N canvas 528 242 334 538 10;
#X obj 46 26 inlet;
#X obj 46 47 list fromsymbol;
#X obj 46 68 route 48;
#X text 105 69 0;
#X obj 46 89 route 88 120;
#X text 127 88 X x;
#X obj 65 135 list split 1;
#X obj 78 175 list;
#X obj 65 156 t b a, f 9;
#N canvas 743 76 508 300 nibble 1;
#X obj 16 9 inlet;
#X obj 145 178 outlet;
#X obj 73 91 - 48;
#X obj 130 57 moses 65;
#X obj 188 57 moses 71;
#X obj 245 57 moses 97;
#X obj 302 57 moses 103;
#X obj 16 57 moses 48;
#X obj 73 57 moses 58;
#X obj 188 92 - 55;
#X obj 302 89 - 87;
#X connect 0 0 7 0;
#X connect 2 0 1 0;
#X connect 3 1 4 0;
#X connect 4 0 9 0;
#X connect 4 1 5 0;
#X connect 5 1 6 0;
#X connect 6 0 10 0;
#X connect 7 1 8 0;
#X connect 8 0 2 0;
#X connect 8 1 3 0;
#X connect 9 0 1 0;
#X connect 10 0 1 0;
#X restore 116 179 pd nibble;
#X obj 46 110 t b a b;
#X obj 116 237 t a;
#X obj 46 264 list;
#X obj 116 201 list append;
#X obj 65 311 list split 1;
#X obj 78 351 list;
#X obj 65 332 t b a, f 9;
#X obj 46 286 t b a b;
#X obj 143 375 f 1;
#X obj 116 378 * 1;
#X obj 171 375 * 16;
#X msg 180 352 1;
#X obj 116 355 t f b;
#X obj 116 399 +;
#X obj 116 420 t f f;
#X msg 151 398 0;
#X obj 46 449 f;
#X obj 46 485 outlet;
#X connect 0 0 1 0;
#X connect 1 0 2 0;
#X connect 2 0 4 0;
#X connect 4 0 10 0;
#X connect 4 1 10 0;
#X connect 6 0 8 0;
#X connect 6 1 7 1;
#X connect 7 0 6 0;
#X connect 8 0 7 0;
#X connect 8 1 9 0;
#X connect 9 0 13 0;
#X connect 10 0 12 0;
#X connect 10 1 6 0;
#X connect 10 2 11 0;
#X connect 11 0 12 1;
#X connect 11 0 13 1;
#X connect 12 0 17 0;
#X connect 13 0 11 0;
#X connect 14 0 16 0;
#X connect 14 1 15 1;
#X connect 15 0 14 0;
#X connect 16 0 15 0;
#X connect 16 1 22 0;
#X connect 17 0 26 0;
#X connect 17 1 14 0;
#X connect 17 2 21 0;
#X connect 17 2 25 0;
#X connect 18 0 20 0;
#X connect 18 0 19 1;
#X connect 19 0 23 0;
#X connect 20 0 18 1;
#X connect 21 0 18 1;
#X connect 22 0 19 0;
#X connect 22 1 18 0;
#X connect 23 0 24 0;
#X connect 24 0 26 1;
#X connect 24 1 23 1;
#X connect 25 0 23 1;
#X connect 26 0 27 0;
#X coords 0 0 0.00203252 0.00161812 280 45 0;
