#N canvas 9 109 527 613 10;
#X obj 264 203 list split 1;
#X obj 304 228 list;
#X obj 264 228 t b a;
#X obj 245 156 t b a b;
#X msg 447 242 list;
#X obj 291 317 sel _;
#X obj 342 252 loadbang;
#X msg 342 274 32;
#X obj 342 296 list tosymbol;
#X obj 275 349 t b b;
#X obj 326 509 t a;
#X obj 302 480 list prepend;
#X obj 321 348 pack s s;
#X msg 366 325 symbol;
#X obj 302 425 symbol;
#X msg 321 372 symbol \$2\$1;
#X obj 245 521 list;
#X text 352 204 drip;
#X text 210 317 split at " ";
#X text 396 373 repack symbol;
#X text 390 481 repack list;
#X obj 39 70 inlet;
#X obj 39 513 outlet;
#X obj 341 228 b;
#X obj 302 450 array-symbol2float;
#X obj 56 210 loadbang;
#X obj 56 232 symbol;
#X obj 39 263 l2s;
#X obj 39 285 s2l;
#X connect 0 0 2 0;
#X connect 0 1 1 1;
#X connect 0 2 23 0;
#X connect 1 0 0 0;
#X connect 2 0 1 0;
#X connect 2 1 5 0;
#X connect 3 0 16 0;
#X connect 3 1 0 0;
#X connect 3 2 4 0;
#X connect 4 0 10 0;
#X connect 4 0 13 0;
#X connect 5 0 9 0;
#X connect 5 1 12 0;
#X connect 6 0 7 0;
#X connect 7 0 8 0;
#X connect 8 0 5 1;
#X connect 9 0 13 0;
#X connect 9 1 14 0;
#X connect 10 0 11 1;
#X connect 11 0 10 0;
#X connect 11 0 16 1;
#X connect 12 0 15 0;
#X connect 13 0 12 1;
#X connect 13 0 14 1;
#X connect 14 0 24 0;
#X connect 15 0 12 1;
#X connect 15 0 14 1;
#X connect 21 0 27 0;
#X connect 23 0 9 0;
#X connect 24 0 11 0;
#X connect 24 1 11 0;
#X connect 25 0 26 0;
#X connect 26 0 27 1;
#X connect 27 0 28 0;
#X connect 28 0 22 0;
