#N canvas 233 74 1120 786 10;
#X obj 75 25 inlet;
#X symbolatom 94 162 10 0 0 0 - - - 0;
#X obj 94 183 s \$0-make-fruitname;
#X obj 168 161 s \$0-make-src;
#X symbolatom 168 134 0 0 0 0 - - - 0;
#X symbolatom 458 153 0 0 0 0 - - - 0;
#X obj 450 107 s \$0-fraisedir;
#N canvas 432 280 369 248 get_board 0;
#X obj 21 19 inlet;
#X obj 21 39 b;
#X obj 21 133 t b a, f 9;
#X obj 21 156 outlet;
#X obj 72 180 outlet;
#X msg 72 156 symbol \$3;
#X obj 157 185 print MAKE ERROR;
#X msg 157 162 no board found !;
#X obj 21 86 text search \$0-main 0 1;
#X msg 21 63 list #define BOARD;
#X obj 21 107 text get \$0-main;
#X connect 0 0 1 0;
#X connect 1 0 9 0;
#X connect 2 0 3 0;
#X connect 2 1 5 0;
#X connect 5 0 4 0;
#X connect 7 0 6 0;
#X connect 8 0 10 0;
#X connect 9 0 8 0;
#X connect 10 0 2 0;
#X restore 75 211 pd get_board;
#X symbolatom 161 216 10 0 0 0 - - - 0;
#X obj 161 235 s \$0-make-boardname;
#N canvas 1 356 479 402 get_boarddir 0;
#X obj 65 -1 inlet;
#X obj 65 76 symbol;
#X obj 65 55 b;
#X obj 110 79 r \$0-make-boardname;
#X obj 65 105 pack s s;
#X obj 116 273 outlet;
#X obj 65 129 t a a, f 14;
#X obj 116 253 symbol;
#X obj 65 229 t b b, f 9;
#X obj 65 272 outlet;
#X msg 65 153 symbol \$1/\$2/boardconfig.h;
#X msg 149 183 symbol \$1/\$2;
#X obj 293 51 r \$0-make-src;
#X obj 65 20 t b b, f 33;
#X obj 305 132 r \$0-make-boardname;
#X obj 260 72 symbol;
#X obj 260 50 b;
#X obj 260 152 pack s s;
#X msg 260 94 symbol \$1/boards;
#X obj 260 115 t s s;
#X msg 260 175 symbol \$1/\$2/boardconfig.h;
#X obj 260 239 symbol;
#X text 271 21 first try local "boards" dir:;
#X obj 260 197 file isfile;
#X obj 260 218 sel 1;
#X obj 65 175 file isfile;
#X obj 65 198 sel 1 0;
#X obj 192 361 print MAKE;
#X msg 192 338 ERROR: board \$1 not found;
#X obj 225 294 r \$0-make-boardname;
#X obj 192 316 symbol;
#X obj 192 295 b;
#X obj 98 52 r \$0-boardsdir;
#X obj 260 260 s \$0-boardsdir;
#X connect 0 0 13 0;
#X connect 1 0 4 0;
#X connect 2 0 1 0;
#X connect 3 0 4 1;
#X connect 4 0 6 0;
#X connect 6 0 10 0;
#X connect 6 1 11 0;
#X connect 7 0 5 0;
#X connect 8 0 9 0;
#X connect 8 1 7 0;
#X connect 10 0 25 0;
#X connect 11 0 7 1;
#X connect 12 0 15 1;
#X connect 13 0 2 0;
#X connect 13 1 16 0;
#X connect 14 0 17 1;
#X connect 15 0 18 0;
#X connect 16 0 15 0;
#X connect 17 0 20 0;
#X connect 18 0 19 0;
#X connect 19 0 17 0;
#X connect 19 1 21 1;
#X connect 20 0 23 0;
#X connect 21 0 33 0;
#X connect 23 0 24 0;
#X connect 24 0 21 0;
#X connect 25 0 26 0;
#X connect 25 1 31 0;
#X connect 26 0 8 0;
#X connect 26 1 31 0;
#X connect 28 0 27 0;
#X connect 29 0 30 1;
#X connect 30 0 28 0;
#X connect 31 0 30 0;
#X connect 32 0 1 1;
#X restore 75 263 pd get_boarddir;
#X symbolatom 206 270 0 0 0 0 - - - 0;
#X obj 206 290 s \$0-make-boarddir;
#N canvas 392 233 465 199 get_modules 0;
#X obj 23 25 inlet;
#X obj 23 51 t b b, f 9;
#X obj 74 137 s \$0-make_add_if_module;
#X obj 23 136 outlet;
#X obj 235 114 r \$0-make_add_if_module;
#N canvas 1057 129 573 564 add_if_module 0;
#X obj 25 20 inlet;
#N canvas 524 217 354 367 is_user_module 0;
#X obj 32 25 inlet;
#X obj 78 223 pack s s;
#X obj 123 199 r \$0-make-src;
#X obj 32 310 outlet test_other_location;
#X obj 78 270 s \$0-addmodule;
#X msg 78 246 symbol \$2/modules/\$1/\$1;
#X obj 113 114 file isfile;
#X obj 113 71 pack s s;
#X obj 158 47 r \$0-make-src;
#X msg 113 93 symbol \$2/modules/\$1/\$1.h;
#X floatatom 113 135 5 0 0 0 - - - 0;
#X msg 176 134 0;
#X obj 32 49 t s s, f 14;
#X obj 32 156 list prepend 0;
#X obj 32 177 route 0 1, f 16;
#X obj 78 198 symbol;
#X obj 32 199 symbol;
#X connect 0 0 12 0;
#X connect 1 0 5 0;
#X connect 2 0 1 1;
#X connect 5 0 4 0;
#X connect 6 0 10 0;
#X connect 6 1 11 0;
#X connect 7 0 9 0;
#X connect 8 0 7 1;
#X connect 9 0 6 0;
#X connect 10 0 13 1;
#X connect 11 0 10 0;
#X connect 12 0 13 0;
#X connect 12 1 7 0;
#X connect 13 0 14 0;
#X connect 14 0 16 0;
#X connect 14 1 15 0;
#X connect 15 0 1 0;
#X connect 16 0 3 0;
#X restore 25 63 pd is_user_module;
#N canvas 950 569 339 338 is_system_module 0;
#X obj 27 12 inlet;
#X obj 73 211 pack s s;
#X obj 27 284 outlet test_other_location;
#X obj 73 256 s \$0-addmodule;
#X msg 73 234 symbol \$2/\$1/\$1;
#X obj 108 100 file isfile;
#X obj 108 57 pack s s;
#X floatatom 108 121 5 0 0 0 - - - 0;
#X msg 171 120 0;
#X obj 27 35 t s s, f 14;
#X obj 27 142 list prepend 0;
#X obj 27 163 route 0 1, f 16;
#X obj 73 184 symbol;
#X obj 27 185 symbol;
#X msg 108 79 symbol \$2/\$1/\$1.h;
#X obj 153 35 r \$0-modulesdir;
#X obj 118 187 r \$0-modulesdir;
#X connect 0 0 9 0;
#X connect 1 0 4 0;
#X connect 4 0 3 0;
#X connect 5 0 7 0;
#X connect 5 1 8 0;
#X connect 6 0 14 0;
#X connect 7 0 10 1;
#X connect 8 0 7 0;
#X connect 9 0 10 0;
#X connect 9 1 6 0;
#X connect 10 0 11 0;
#X connect 11 0 13 0;
#X connect 11 1 12 0;
#X connect 12 0 1 0;
#X connect 13 0 2 0;
#X connect 14 0 5 0;
#X connect 15 0 6 1;
#X connect 16 0 1 1;
#X restore 25 97 pd is_system_module;
#X obj 177 69 text search \$0-modules;
#X obj 177 26 r \$0-addmodule;
#X obj 177 90 sel -1;
#X obj 204 153 text insert \$0-modules 1e+06;
#X obj 177 111 symbol, f 8;
#X obj 177 48 t s s, f 8;
#X obj 177 132 t s s;
#X text 177 9 add module if not already there:;
#X text 197 197 test if module depends on another one:;
#X obj 177 505 s \$0-make_add_if_module;
#X msg 196 338 line 0 \, auto;
#X obj 204 294 text define \$0-tmp_module_src;
#X obj 196 359 text sequence \$0-tmp_module_src;
#N canvas 638 239 574 628 decode_includes 0;
#X obj 33 17 inlet;
#X obj 33 104 list fromsymbol;
#X obj 33 126 list split 1;
#X text 115 126 remove " or <;
#X obj 114 197 list;
#X obj 86 225 sel 34 62;
#X obj 86 171 list split 1;
#X obj 106 300 t a;
#X obj 67 149 t b a b;
#X obj 67 320 list, f 7;
#X obj 67 530 list tosymbol;
#X obj 137 247 t b f;
#X text 168 211 remove all from next " or >;
#X obj 113 277 list append;
#X obj 67 354 route 104;
#X obj 67 373 route 46;
#X text 130 373 '.';
#X text 130 354 'h';
#X obj 67 403 t b a b;
#X obj 86 422 list split 1;
#X obj 120 442 t a;
#X obj 106 487 t a;
#X obj 67 509 list, f 7;
#X obj 86 462 list prepend;
#X text 188 277 (the list will be reversed);
#X text 167 365 route the list only if it starts with "h." (e.g the initial string ends with ".h");
#X text 173 440 reverse the list back to normal order;
#X obj 67 551 outlet;
#X obj 33 60 route #include;
#X obj 33 40 list trim;
#X obj 33 81 list split 1;
#X text 132 103 convert to ascii;
#X text 114 81 select first symbol after #include (should be "module.h" or <module.h>), f 71;
#X connect 0 0 29 0;
#X connect 1 0 2 0;
#X connect 2 1 8 0;
#X connect 4 0 6 0;
#X connect 5 2 11 0;
#X connect 6 0 5 0;
#X connect 6 1 4 1;
#X connect 7 0 9 1;
#X connect 7 0 13 1;
#X connect 8 0 9 0;
#X connect 8 1 6 0;
#X connect 8 2 7 0;
#X connect 9 0 14 0;
#X connect 10 0 27 0;
#X connect 11 0 4 0;
#X connect 11 1 13 0;
#X connect 13 0 7 0;
#X connect 14 0 15 0;
#X connect 15 0 18 0;
#X connect 18 0 22 0;
#X connect 18 1 19 0;
#X connect 18 2 21 0;
#X connect 19 0 23 0;
#X connect 19 1 20 0;
#X connect 20 0 19 0;
#X connect 21 0 22 1;
#X connect 21 0 23 1;
#X connect 22 0 10 0;
#X connect 23 0 21 0;
#X connect 28 0 30 0;
#X connect 29 0 28 0;
#X connect 30 0 1 0;
#X restore 196 381 pd decode_includes;
#X msg 177 232 symbol \$1.c \, symbol \$1.h;
#X obj 177 253 t b s;
#X msg 204 274 clear \, read -c \$1;
#X obj 177 428 list store;
#X obj 177 316 t b b b;
#X msg 196 402 append \$1;
#X obj 177 449 list split 1;
#X obj 211 469 t a;
#X text 204 210 (caution \, recursivity here! not sure that it's all safe...);
#X connect 0 0 1 0;
#X connect 1 0 2 0;
#X connect 3 0 5 0;
#X connect 4 0 8 0;
#X connect 5 0 7 0;
#X connect 7 0 9 0;
#X connect 8 0 3 0;
#X connect 8 1 7 1;
#X connect 9 0 17 0;
#X connect 9 1 6 0;
#X connect 13 0 15 0;
#X connect 15 0 16 0;
#X connect 16 0 22 0;
#X connect 17 0 18 0;
#X connect 18 0 21 0;
#X connect 18 1 19 0;
#X connect 19 0 14 0;
#X connect 20 0 23 0;
#X connect 21 0 20 0;
#X connect 21 1 13 0;
#X connect 21 2 20 1;
#X connect 22 0 20 0;
#X connect 23 0 12 0;
#X connect 23 1 24 0;
#X connect 24 0 23 0;
#X restore 235 138 pd add_if_module;
#X obj 74 92 text sequence \$0-main;
#X msg 74 71 line 0 \, auto;
#N canvas 189 120 574 628 decode_includes 0;
#X obj 33 17 inlet;
#X obj 33 104 list fromsymbol;
#X obj 33 126 list split 1;
#X text 115 126 remove " or <;
#X obj 114 197 list;
#X obj 86 225 sel 34 62;
#X obj 86 171 list split 1;
#X obj 106 300 t a;
#X obj 67 149 t b a b;
#X obj 67 320 list, f 7;
#X obj 67 530 list tosymbol;
#X obj 137 247 t b f;
#X text 168 211 remove all from next " or >;
#X obj 113 277 list append;
#X obj 67 354 route 104;
#X obj 67 373 route 46;
#X text 130 373 '.';
#X text 130 354 'h';
#X obj 67 403 t b a b;
#X obj 86 422 list split 1;
#X obj 120 442 t a;
#X obj 106 487 t a;
#X obj 67 509 list, f 7;
#X obj 86 462 list prepend;
#X text 188 277 (the list will be reversed);
#X text 167 365 route the list only if it starts with "h." (e.g the initial string ends with ".h");
#X text 173 440 reverse the list back to normal order;
#X obj 67 551 outlet;
#X obj 33 60 route #include;
#X obj 33 40 list trim;
#X obj 33 81 list split 1;
#X text 132 103 convert to ascii;
#X text 114 81 select first symbol after #include (should be "module.h" or <module.h>), f 71;
#X connect 0 0 29 0;
#X connect 1 0 2 0;
#X connect 2 1 8 0;
#X connect 4 0 6 0;
#X connect 5 2 11 0;
#X connect 6 0 5 0;
#X connect 6 1 4 1;
#X connect 7 0 9 1;
#X connect 7 0 13 1;
#X connect 8 0 9 0;
#X connect 8 1 6 0;
#X connect 8 2 7 0;
#X connect 9 0 14 0;
#X connect 10 0 27 0;
#X connect 11 0 4 0;
#X connect 11 1 13 0;
#X connect 13 0 7 0;
#X connect 14 0 15 0;
#X connect 15 0 18 0;
#X connect 18 0 22 0;
#X connect 18 1 19 0;
#X connect 18 2 21 0;
#X connect 19 0 23 0;
#X connect 19 1 20 0;
#X connect 20 0 19 0;
#X connect 21 0 22 1;
#X connect 21 0 23 1;
#X connect 22 0 10 0;
#X connect 23 0 21 0;
#X connect 28 0 30 0;
#X connect 29 0 28 0;
#X connect 30 0 1 0;
#X restore 74 114 pd decode_includes;
#X connect 0 0 1 0;
#X connect 1 0 3 0;
#X connect 1 1 7 0;
#X connect 4 0 5 0;
#X connect 6 0 8 0;
#X connect 7 0 6 0;
#X connect 8 0 2 0;
#X restore 75 333 pd get_modules;
#X obj 38 322 bng 15 250 50 0 empty empty empty 17 7 0 10 #fcfcfc #000000 #000000;
#X obj 429 235 print MAKE;
#X msg 429 212 Board: \$1;
#N canvas 267 253 383 272 get_board_config 0;
#X obj 51 18 inlet;
#X obj 78 64 symbol;
#X obj 78 180 outlet;
#X obj 51 227 outlet;
#X obj 111 40 r \$0-make-boarddir;
#X obj 51 41 t b b;
#X obj 78 133 list trim;
#X obj 78 156 route #define;
#X obj 78 107 catfile;
#X msg 78 84 symbol \$1/boardconfig.h;
#X connect 0 0 5 0;
#X connect 1 0 9 0;
#X connect 4 0 1 1;
#X connect 5 0 3 0;
#X connect 5 1 1 0;
#X connect 6 0 7 0;
#X connect 7 0 2 0;
#X connect 8 0 6 0;
#X connect 9 0 8 0;
#X restore 75 307 pd get_board_config;
#X f 27;
#X obj 234 350 symbol;
#X symbolatom 234 369 10 0 0 0 - - - 0;
#X obj 234 388 s \$0-make-familly;
#X obj 345 359 symbol;
#X symbolatom 345 378 10 0 0 0 - - - 0;
#X obj 345 444 s \$0-make-appstart;
#X floatatom 345 423 5 0 0 0 - - - 0;
#X obj 127 69 s \$0-make-init;
#X obj 450 8 r \$0-make-init;
#X obj 690 209 r \$0-make-init;
#X obj 415 400 r \$0-make-init;
#X msg 415 421 0;
#X obj 505 357 symbol;
#X symbolatom 505 376 10 0 0 0 - - - 0;
#X floatatom 505 466 5 0 0 0 - - - 0;
#X obj 570 465 r \$0-make-init;
#X msg 544 465 0;
#X obj 505 487 s \$0-make-memsize;
#X obj 234 330 route FAMILLY APP_START MEM_SIZE CHIP, f 91;
#X obj 641 351 symbol;
#X symbolatom 641 370 10 0 0 0 - - - 0;
#X obj 641 392 s \$0-make-chip;
#N canvas 1175 352 476 559 make_cflags 0;
#X obj 58 15 inlet;
#X obj 58 41 t b b;
#X obj 85 167 list append;
#X obj 163 277 r \$0-make-boarddir;
#X obj 161 150 r \$0-make-chip;
#X obj 85 287 list append;
#X obj 245 478 print MAKE;
#X obj 245 454 list prepend CFLAGS:;
#X obj 105 122 list append -DSDCC;
#X obj 85 447 s \$0-make-cflags;
#X obj 58 510 outlet;
#X msg 163 296 symbol -I"\$1";
#X obj 85 357 list append;
#X obj 85 407 list append;
#X msg 161 170 symbol -p\$1;
#X obj 170 190 r \$0-make-appstart;
#X obj 85 243 list append;
#X msg 197 251 symbol --ivt-loc=\$1;
#X obj 170 213 sel 0;
#X msg 170 237 list;
#X msg 163 366 symbol -I"\$1/share/non-free/include/pic16";
#X msg 163 416 symbol -I"\$1/share/include/pic16";
#X obj 85 64 list append -I. -mpic16 --vc --denable-peeps --optimize-cmp --optimize-df --obanksel=2 --opt-code-speed --fomit-frame-pointer --use-non-free --std-sdcc99;
#X obj 163 343 r \$0-bindir;
#X obj 163 393 r \$0-bindir;
#X connect 0 0 1 0;
#X connect 1 0 10 0;
#X connect 1 1 22 0;
#X connect 2 0 16 0;
#X connect 3 0 11 0;
#X connect 4 0 14 0;
#X connect 5 0 12 0;
#X connect 7 0 6 0;
#X connect 11 0 5 1;
#X connect 12 0 13 0;
#X connect 13 0 9 0;
#X connect 14 0 2 1;
#X connect 15 0 18 0;
#X connect 16 0 5 0;
#X connect 17 0 16 1;
#X connect 18 0 19 0;
#X connect 18 1 17 0;
#X connect 19 0 16 1;
#X connect 20 0 12 1;
#X connect 21 0 13 1;
#X connect 22 0 2 0;
#X connect 23 0 20 0;
#X connect 24 0 21 0;
#X restore 75 506 pd make_cflags;
#N canvas 613 75 264 259 print_modules 0;
#X obj 25 21 inlet;
#X obj 52 109 splitpath;
#X msg 103 138 add module \$1;
#X obj 103 161 print MAKE;
#X obj 25 187 outlet finished;
#X obj 52 87 text sequence \$0-modules;
#X msg 52 66 line 0 \, auto;
#X obj 25 44 t b b;
#X connect 0 0 7 0;
#X connect 1 1 2 0;
#X connect 2 0 3 0;
#X connect 5 0 1 0;
#X connect 6 0 5 0;
#X connect 7 0 4 0;
#X connect 7 1 6 0;
#X restore 75 357 pd print_modules;
#N canvas 305 269 453 328 make_modules_include 0;
#X obj 28 21 inlet;
#X obj 223 279 print MAKE;
#X obj 28 279 outlet finished;
#X obj 55 254 s \$0-make-modules-includes;
#X obj 223 255 list prepend MODULES_INCLUDES:;
#X obj 50 90 text sequence \$0-modules;
#X msg 50 69 line 0 \, auto;
#X obj 28 43 t b b b, f 8;
#X obj 50 111 splitpath;
#X obj 50 157 list prepend;
#X msg 50 133 symbol -I"\$1";
#X obj 50 184 t a;
#X obj 28 210 list;
#X obj 28 231 t b a;
#X connect 0 0 7 0;
#X connect 4 0 1 0;
#X connect 5 0 8 0;
#X connect 6 0 5 0;
#X connect 7 0 12 0;
#X connect 7 1 6 0;
#X connect 7 2 11 0;
#X connect 8 0 10 0;
#X connect 9 0 11 0;
#X connect 10 0 9 0;
#X connect 11 0 9 1;
#X connect 11 0 12 1;
#X connect 12 0 13 0;
#X connect 13 0 2 0;
#X connect 13 1 3 0;
#X restore 75 535 pd make_modules_include;
#N canvas 777 512 450 300 make_libs 0;
#X obj 73 24 inlet;
#X obj 100 71 symbol;
#X obj 148 43 r \$0-make-chip;
#X msg 100 104 list libsdcc.lib libc18f.lib libdev\$1.lib libm18f.lib;
#X obj 224 170 print MAKE;
#X obj 73 46 t b b;
#X obj 73 227 outlet;
#X obj 224 146 list prepend LIBS:;
#X obj 100 150 s \$0-make-libs;
#X connect 0 0 5 0;
#X connect 1 0 3 0;
#X connect 2 0 1 1;
#X connect 3 0 8 0;
#X connect 5 0 6 0;
#X connect 5 1 1 0;
#X connect 7 0 4 0;
#X restore 75 558 pd make_libs;
#X obj 75 441 spigot;
#X obj 108 380 r \$0-make-familly;
#X obj 936 675 spigot;
#X obj 969 611 r \$0-make-familly;
#X obj 75 384 t b;
#X obj 164 489 tgl 15 0 empty empty empty 17 7 0 10 #fcfcfc #000000 #000000 0 -1;
#X obj 211 355 bng 15 250 50 0 empty empty empty 17 7 0 10 #fcfcfc #000000 #000000;
#X text 98 597 -----make batch file:;
#X obj 459 578 r \$0-make-tobatch;
#X obj 75 70 t b a b;
#X obj 571 189 r \$0-make-init;
#X obj 571 210 operating_system;
#X symbolatom 571 234 10 0 0 0 - - - 0;
#X obj 429 190 r \$0-make-boardname;
#X msg 517 599 print;
#X msg 517 624 write test.sh cr;
#N canvas 504 568 450 300 clear_batch 0;
#X obj 117 35 inlet;
#X obj 117 59 t b b;
#X obj 117 110 outlet;
#X obj 170 108 s \$0-make-tobatch;
#X msg 170 87 clear;
#X connect 0 0 1 0;
#X connect 1 0 2 0;
#X connect 1 1 4 0;
#X connect 4 0 3 0;
#X restore 250 667 pd clear_batch;
#N canvas 741 453 402 414 compile_proj 0;
#X obj 152 152 r \$0-make-objsdir;
#X obj 95 252 list prepend;
#X obj 164 229 r \$0-make-cflags;
#X obj 95 297 list prepend;
#X obj 164 274 r \$0-make-modules-includes;
#X obj 68 24 inlet;
#X obj 68 46 t b b;
#X obj 95 174 pack s s s;
#X obj 68 354 outlet;
#X obj 123 128 r \$0-make-src;
#X obj 110 49 r \$0-make-src;
#X obj 95 106 symbol;
#X obj 110 72 splitpath;
#X obj 95 319 s \$0-make-addcompile;
#X msg 95 203 -c "\$2/main.c" -o "\$3/\$1.o";
#X connect 0 0 7 2;
#X connect 1 0 3 0;
#X connect 2 0 1 1;
#X connect 3 0 13 0;
#X connect 4 0 3 1;
#X connect 5 0 6 0;
#X connect 6 0 8 0;
#X connect 6 1 11 0;
#X connect 7 0 14 0;
#X connect 9 0 7 1;
#X connect 10 0 12 0;
#X connect 11 0 7 0;
#X connect 12 1 11 1;
#X connect 14 0 1 0;
#X restore 150 888 pd compile_proj;
#N canvas 769 518 447 431 compile_boardconfig 0;
#X obj 177 114 r \$0-make-objsdir;
#X obj 120 214 list prepend;
#X obj 189 191 r \$0-make-cflags;
#X obj 93 25 inlet;
#X obj 93 47 t b b;
#X obj 120 136 pack s s s;
#X obj 93 277 outlet;
#X obj 148 94 r \$0-make-boarddir;
#X msg 120 70 symbol boardconfig;
#X msg 120 165 -c "\$2/\$1.c" -o "\$3/\$1.o";
#X obj 120 240 s \$0-make-addcompile;
#X connect 0 0 5 2;
#X connect 1 0 10 0;
#X connect 2 0 1 1;
#X connect 3 0 4 0;
#X connect 4 0 6 0;
#X connect 4 1 8 0;
#X connect 5 0 9 0;
#X connect 7 0 5 1;
#X connect 8 0 5 0;
#X connect 9 0 1 0;
#X restore 250 829 pd compile_boardconfig;
#N canvas 962 273 656 778 link_proj 0;
#X obj 33 15 inlet;
#X obj 71 113 splitpath;
#X obj 144 114 r \$0-make-objsdir;
#X obj 71 141 pack s s s;
#X obj 33 36 t b b b b, f 10;
#X obj 71 189 list prepend;
#X obj 52 387 list prepend;
#X obj 121 364 r \$0-make-libs;
#X obj 52 433 list prepend;
#X obj 149 389 r \$0-make-src;
#X obj 149 411 splitpath;
#X obj 146 459 r \$0-make-boarddir;
#X msg 71 164 symbol "\$3/\$2/\$2.o";
#X obj 52 480 list prepend;
#X obj 52 532 list prepend;
#X obj 52 582 list prepend;
#X text 281 460 linker options : output map file \, linker script...;
#X obj 52 639 list prepend;
#X obj 33 743 outlet;
#X msg 149 433 -o "\$1.hex";
#X obj 52 338 list prepend;
#X obj 121 248 r \$0-make-objsdir;
#X obj 121 293 pack s s;
#X obj 184 273 r \$0-make-src;
#X obj 184 293 splitpath;
#X obj 52 712 s \$0-make-addcompile;
#X msg 147 541 list -L"\$1/share/non-free/lib/pic16";
#X msg 147 590 list -L"\$1/share/lib/pic16";
#X msg 121 316 list "\$1/boardconfig.o" "\$1/\$2.o";
#X obj 151 616 r \$0-make-objsdir;
#X msg 151 638 list --use-crt="\$1/crt.o";
#X obj 52 687 list prepend;
#X obj 121 666 r \$0-make-cflags;
#X obj 139 272 t b s;
#X text 271 499 added2017: -C=disable cinit warnings;
#X msg 393 531 list -Wl"-O 1 -C -m -w -s \$1/board.lkr";
#X msg 146 481 list -Wl"-O 1 -m -w -s \$1/board.lkr";
#X text 390 548 removed for now \, because older sdcc version on some platforms., f 28;
#X obj 71 90 text sequence \$0-modules;
#X msg 71 69 line 0 \, auto;
#X obj 90 215 list;
#X obj 52 237 list, f 6;
#X obj 147 518 r \$0-bindir;
#X obj 147 568 r \$0-bindir;
#X connect 0 0 4 0;
#X connect 1 0 3 0;
#X connect 1 1 3 1;
#X connect 2 0 3 2;
#X connect 3 0 12 0;
#X connect 4 0 18 0;
#X connect 4 1 41 0;
#X connect 4 2 39 0;
#X connect 4 3 40 0;
#X connect 5 0 40 0;
#X connect 6 0 8 0;
#X connect 7 0 6 1;
#X connect 8 0 13 0;
#X connect 9 0 10 0;
#X connect 10 1 19 0;
#X connect 11 0 36 0;
#X connect 12 0 5 0;
#X connect 13 0 14 0;
#X connect 14 0 15 0;
#X connect 15 0 17 0;
#X connect 17 0 31 0;
#X connect 19 0 8 1;
#X connect 20 0 6 0;
#X connect 21 0 22 0;
#X connect 22 0 28 0;
#X connect 23 0 24 0;
#X connect 24 1 33 0;
#X connect 26 0 14 1;
#X connect 27 0 15 1;
#X connect 28 0 20 1;
#X connect 29 0 30 0;
#X connect 30 0 17 1;
#X connect 31 0 25 0;
#X connect 32 0 31 1;
#X connect 33 0 22 0;
#X connect 33 1 22 1;
#X connect 36 0 13 1;
#X connect 38 0 1 0;
#X connect 39 0 38 0;
#X connect 40 0 5 1;
#X connect 40 0 41 1;
#X connect 41 0 20 0;
#X connect 42 0 26 0;
#X connect 43 0 27 0;
#X restore 250 854 pd link_proj;
#N canvas 771 518 450 300 cd_srcdir 0;
#X obj 110 19 inlet;
#X obj 110 42 t b b;
#X obj 137 63 symbol;
#X obj 170 39 r \$0-make-src;
#X obj 137 110 list prepend add;
#X obj 137 153 s \$0-make-tobatch;
#X obj 137 131 list trim;
#X msg 137 86 cd \$1;
#X obj 110 187 outlet;
#X connect 0 0 1 0;
#X connect 1 0 8 0;
#X connect 1 1 2 0;
#X connect 2 0 7 0;
#X connect 3 0 2 1;
#X connect 4 0 6 0;
#X connect 6 0 5 0;
#X connect 7 0 4 0;
#X restore 250 715 pd cd_srcdir;
#N canvas 712 579 349 293 prologue*OSDEP 0;
#X obj 47 14 inlet;
#X obj 47 40 t b b;
#X obj 74 164 list prepend add;
#X obj 74 207 s \$0-make-tobatch;
#X obj 47 247 outlet;
#X obj 74 185 list trim;
#X msg 74 135 #!/bin/bash;
#X obj 74 85 demux_os;
#X connect 0 0 1 0;
#X connect 1 0 4 0;
#X connect 1 1 7 0;
#X connect 2 0 5 0;
#X connect 5 0 3 0;
#X connect 6 0 2 0;
#X connect 7 0 6 0;
#X connect 7 2 6 0;
#X restore 250 691 pd prologue*OSDEP;
#N canvas 778 545 450 300 save_batch*OSDEP 0;
#X obj 104 29 inlet;
#X obj 131 240 s \$0-make-tobatch;
#X obj 164 49 r \$0-make-src;
#X obj 131 72 symbol;
#X msg 131 107 symbol \$1/make;
#X msg 131 174 symbol \$1.sh;
#X msg 216 173 symbol \$1.bat;
#X msg 131 211 write \$1 cr;
#X obj 104 50 t b b;
#X obj 104 271 outlet;
#X obj 131 135 demux_os;
#X connect 0 0 8 0;
#X connect 2 0 3 1;
#X connect 3 0 4 0;
#X connect 4 0 10 0;
#X connect 5 0 7 0;
#X connect 6 0 7 0;
#X connect 7 0 1 0;
#X connect 8 0 9 0;
#X connect 8 1 3 0;
#X connect 10 0 5 0;
#X connect 10 1 6 0;
#X connect 10 2 5 0;
#X restore 250 905 pd save_batch*OSDEP;
#X obj 158 286 bng 15 250 50 0 empty empty empty 17 7 0 10 #fcfcfc #000000 #000000;
#N canvas 1006 619 443 363 make_sdcc_path*OSDEP 0;
#X obj 57 24 inlet;
#X obj 84 72 symbol;
#X obj 57 50 t b b;
#X obj 57 304 outlet;
#X obj 200 269 s \$0-make-sdccpath;
#X obj 84 95 demux_os;
#X obj 84 130 demux_arch;
#X obj 200 246 symbol;
#X msg 84 171 \$1/linux;
#X msg 218 172 \$1/linuxarm;
#X msg 299 171 \$1/win32;
#X msg 367 170 \$1/macosx;
#X symbolatom 138 307 0 0 0 0 - - - 0;
#X msg 144 171 \$1/linux64;
#X obj 117 49 r \$0-bindir;
#X connect 0 0 2 0;
#X connect 1 0 5 0;
#X connect 2 0 3 0;
#X connect 2 1 1 0;
#X connect 5 0 6 0;
#X connect 5 1 10 0;
#X connect 5 2 11 0;
#X connect 6 0 8 0;
#X connect 6 1 13 0;
#X connect 6 2 9 0;
#X connect 7 0 4 0;
#X connect 7 0 12 0;
#X connect 8 0 7 0;
#X connect 9 0 7 0;
#X connect 10 0 7 0;
#X connect 11 0 7 0;
#X connect 13 0 7 0;
#X connect 14 0 1 1;
#X restore 75 579 pd make_sdcc_path*OSDEP;
#N canvas 762 162 450 300 make_objsdir 0;
#X obj 22 57 r \$0-make-src;
#X obj 22 78 splitpath;
#X obj 22 100 pack s s;
#X symbolatom 22 141 0 0 0 0 - - - 0;
#X obj 22 180 s \$0-make-objsdir;
#X msg 157 61 symbol \$1/\$2/\$2-objs;
#X msg 22 120 symbol \$2-objs;
#X connect 0 0 1 0;
#X connect 1 0 2 0;
#X connect 1 1 2 1;
#X connect 2 0 6 0;
#X connect 3 0 4 0;
#X connect 6 0 3 0;
#X restore 352 158 pd make_objsdir;
#X obj 419 23 bng 15 250 50 0 empty empty empty 17 7 0 10 #fcfcfc #000000 #000000;
#X obj 450 86 simplify_path;
#X symbolatom 552 118 0 0 0 0 - - - 0;
#N canvas 1179 366 560 372 tosystem*OSDEP 0;
#X msg 238 283 echo \$2/make.sh \$1 \$3 | at now;
#X obj 30 22 inlet tosystem;
#X obj 403 160 list prepend nohup;
#X obj 30 243 list trim;
#X obj 240 247 list prepend start -MIN bash -c;
#X obj 30 182 list append "| at now;
#X obj 30 159 list prepend echo ";
#X obj 177 183 list append ";
#X obj 176 161 list prepend start /MIN /B cmd /C ";
#X obj 30 90 demux_os;
#X obj 30 275 shell;
#X connect 1 0 9 0;
#X connect 2 0 3 0;
#X connect 3 0 10 0;
#X connect 5 0 3 0;
#X connect 6 0 5 0;
#X connect 7 0 3 0;
#X connect 8 0 7 0;
#X connect 9 0 2 0;
#X connect 9 1 8 0;
#X connect 9 2 2 0;
#X restore 458 674 pd tosystem*OSDEP;
#X obj 458 651 r \$0-make-launchbatch;
#N canvas 143 370 450 300 launch_batch*OSDEP 0;
#X obj 104 29 inlet;
#X obj 153 72 r \$0-make-src;
#X obj 104 73 symbol;
#X msg 104 108 symbol \$1/make;
#X obj 104 241 s \$0-make-launchbatch;
#X msg 104 175 list bash \$1.sh;
#X msg 126 204 list \$1.bat;
#X obj 63 55 bng 15 250 50 0 empty empty empty 17 7 0 10 #fcfcfc #000000 #000000;
#X obj 104 136 demux_os;
#X connect 0 0 2 0;
#X connect 1 0 2 1;
#X connect 2 0 3 0;
#X connect 3 0 8 0;
#X connect 5 0 4 0;
#X connect 6 0 4 0;
#X connect 7 0 2 0;
#X connect 8 0 5 0;
#X connect 8 1 6 0;
#X connect 8 2 5 0;
#X restore 250 926 pd launch_batch*OSDEP;
#N canvas 848 81 444 579 count_available_ram 0;
#X obj 24 12 inlet;
#X obj 76 61 r \$0-make-boarddir;
#X obj 43 84 symbol;
#X obj 43 165 list trim;
#X obj 53 61 bng 15 250 50 0 empty empty empty 17 7 0 10 #fcfcfc #000000 #000000;
#X obj 43 193 route DATABANK ACCESSBANK;
#X obj 43 252 unpack s s s s, f 22;
#X obj 70 385 spigot;
#X msg 235 312 1;
#X obj 206 291 sel PROTECTED;
#X msg 206 312 0;
#X obj 43 227 t a b, f 28;
#X obj 70 361 +;
#X obj 70 334 * -1;
#X obj 70 416 +;
#X obj 99 416 f;
#X obj 24 33 t b b b;
#X msg 298 291 0;
#X floatatom 80 444 5 0 0 0 - - - 0;
#X obj 51 505 s \$0-make-totalram;
#X obj 24 449 f;
#X obj 24 475 t b f;
#X obj 24 541 outlet;
#X obj 75 481 outlet;
#X obj 43 142 catfile;
#X msg 43 112 symbol \$1/board.lkr;
#N canvas 0 0 305 346 after= 0;
#X obj 27 11 inlet;
#X obj 27 319 outlet;
#X obj 27 32 list fromsymbol;
#X obj 46 85 list split 1;
#X obj 59 107 list;
#X obj 27 53 t b a b;
#X obj 118 161 sel 61;
#X obj 46 135 t b f f;
#X msg 118 182 1;
#X obj 85 204 spigot;
#X msg 144 182 0;
#X obj 85 229 list prepend;
#X obj 66 254 t a;
#X obj 27 278 list;
#X obj 27 299 list tosymbol;
#X text 163 162 '=';
#X connect 0 0 2 0;
#X connect 2 0 5 0;
#X connect 3 0 7 0;
#X connect 3 1 4 1;
#X connect 4 0 3 0;
#X connect 5 0 13 0;
#X connect 5 1 3 0;
#X connect 5 2 10 0;
#X connect 5 2 12 0;
#X connect 6 0 8 0;
#X connect 7 0 4 0;
#X connect 7 1 6 0;
#X connect 7 2 9 0;
#X connect 8 0 9 1;
#X connect 9 0 11 0;
#X connect 10 0 9 1;
#X connect 11 0 12 0;
#X connect 12 0 11 1;
#X connect 12 0 13 1;
#X connect 13 0 14 0;
#X connect 14 0 1 0;
#X restore 70 291 pd after=;
#X obj 70 311 hexsym2dec;
#N canvas 0 0 305 346 after= 0;
#X obj 27 11 inlet;
#X obj 27 319 outlet;
#X obj 27 32 list fromsymbol;
#X obj 46 85 list split 1;
#X obj 59 107 list;
#X obj 27 53 t b a b;
#X obj 118 161 sel 61;
#X obj 46 135 t b f f;
#X msg 118 182 1;
#X obj 85 204 spigot;
#X msg 144 182 0;
#X obj 85 229 list prepend;
#X obj 66 254 t a;
#X obj 27 278 list;
#X obj 27 299 list tosymbol;
#X text 163 162 '=';
#X connect 0 0 2 0;
#X connect 2 0 5 0;
#X connect 3 0 7 0;
#X connect 3 1 4 1;
#X connect 4 0 3 0;
#X connect 5 0 13 0;
#X connect 5 1 3 0;
#X connect 5 2 10 0;
#X connect 5 2 12 0;
#X connect 6 0 8 0;
#X connect 7 0 4 0;
#X connect 7 1 6 0;
#X connect 7 2 9 0;
#X connect 8 0 9 1;
#X connect 9 0 11 0;
#X connect 10 0 9 1;
#X connect 11 0 12 0;
#X connect 12 0 11 1;
#X connect 12 0 13 1;
#X connect 13 0 14 0;
#X connect 14 0 1 0;
#X restore 136 291 pd after=;
#X obj 136 311 hexsym2dec;
#X connect 0 0 16 0;
#X connect 1 0 2 1;
#X connect 2 0 25 0;
#X connect 3 0 5 0;
#X connect 4 0 2 0;
#X connect 5 0 11 0;
#X connect 5 1 11 0;
#X connect 6 1 26 0;
#X connect 6 2 28 0;
#X connect 6 3 9 0;
#X connect 7 0 14 0;
#X connect 8 0 7 1;
#X connect 9 0 10 0;
#X connect 10 0 7 1;
#X connect 11 0 6 0;
#X connect 11 1 8 0;
#X connect 12 0 7 0;
#X connect 13 0 12 0;
#X connect 14 0 15 0;
#X connect 14 0 18 0;
#X connect 14 0 20 1;
#X connect 15 0 14 1;
#X connect 16 0 20 0;
#X connect 16 1 2 0;
#X connect 16 2 17 0;
#X connect 17 0 15 0;
#X connect 20 0 21 0;
#X connect 21 0 22 0;
#X connect 21 1 19 0;
#X connect 21 1 23 0;
#X connect 24 0 3 0;
#X connect 25 0 24 0;
#X connect 26 0 27 0;
#X connect 27 0 13 0;
#X connect 28 0 29 0;
#X connect 29 0 12 1;
#X restore 75 466 pd count_available_ram;
#X floatatom 204 486 7 0 0 0 - - - 0;
#N canvas 1132 99 495 695 count_used_memory 0;
#X obj 50 6 inlet;
#X obj 69 70 symbol;
#X obj 30 4 bng 15 250 50 0 empty empty empty 17 7 0 10 #fcfcfc #000000 #000000;
#X obj 116 296 +;
#X obj 145 296 f;
#X obj 50 27 t b b b;
#X msg 230 194 0;
#X floatatom 242 340 5 0 0 0 - - - 0;
#X obj 101 340 f;
#X obj 49 363 outlet;
#X obj 137 7 r \$0-make-src;
#X obj 137 28 splitpath;
#X obj 137 49 pack s s;
#X msg 137 70 symbol \$1/\$2/\$2.map;
#X obj 228 288 +;
#X obj 257 288 f;
#X obj 213 341 f;
#X floatatom 129 342 5 0 0 0 - - - 0;
#X obj 101 363 s \$0-make-usedram;
#X obj 213 364 s \$0-make-usedrom;
#X obj 49 293 t b b b;
#X obj 98 399 r \$0-make-usedram;
#X obj 270 409 r \$0-make-usedrom;
#X obj 315 435 r \$0-make-memsize;
#X obj 143 432 r \$0-make-totalram;
#X obj 98 460 pack f f;
#X obj 98 482 t a a;
#X obj 98 570 pack f f f;
#X obj 125 504 /;
#X obj 125 525 * 100;
#X obj 125 546 i;
#X obj 270 457 pack f f;
#X obj 270 479 t a a;
#X obj 270 567 pack f f f;
#X obj 297 501 /;
#X obj 297 522 * 100;
#X obj 297 543 i;
#X obj 191 649 list prepend;
#X obj 98 592 list prepend RAM;
#X obj 270 593 list prepend ROM;
#X obj 260 626 r \$0-make-fruitname;
#X floatatom 195 553 5 0 0 0 - - - 0;
#X obj 323 674 outlet;
#X obj 191 675 s \$1-Bootloader-snd;
#X obj 69 144 list split 1;
#X obj 69 212 sel udata code;
#X obj 104 187 list split 1;
#X obj 69 234 symbol;
#X obj 116 234 symbol;
#X obj 69 118 list split 1;
#X obj 103 165 list split 2;
#X obj 69 95 catfile;
#X obj 116 272 hexsym2dec;
#X obj 228 264 hexsym2dec;
#X connect 0 0 5 0;
#X connect 1 0 51 0;
#X connect 2 0 5 0;
#X connect 3 0 4 0;
#X connect 3 0 8 1;
#X connect 4 0 3 1;
#X connect 5 0 20 0;
#X connect 5 1 1 0;
#X connect 5 2 6 0;
#X connect 6 0 4 0;
#X connect 6 0 15 0;
#X connect 8 0 17 0;
#X connect 8 0 18 0;
#X connect 10 0 11 0;
#X connect 11 0 12 0;
#X connect 11 1 12 1;
#X connect 12 0 13 0;
#X connect 13 0 1 1;
#X connect 14 0 15 0;
#X connect 14 0 16 1;
#X connect 15 0 14 1;
#X connect 16 0 7 0;
#X connect 16 0 19 0;
#X connect 20 0 9 0;
#X connect 20 1 8 0;
#X connect 20 2 16 0;
#X connect 21 0 25 0;
#X connect 22 0 31 0;
#X connect 23 0 31 1;
#X connect 24 0 25 1;
#X connect 25 0 26 0;
#X connect 26 0 27 0;
#X connect 26 1 28 0;
#X connect 27 0 38 0;
#X connect 28 0 29 0;
#X connect 29 0 30 0;
#X connect 30 0 27 2;
#X connect 30 0 41 0;
#X connect 31 0 32 0;
#X connect 32 0 33 0;
#X connect 32 1 34 0;
#X connect 33 0 39 0;
#X connect 34 0 35 0;
#X connect 35 0 36 0;
#X connect 36 0 33 2;
#X connect 37 0 42 0;
#X connect 37 0 43 0;
#X connect 38 0 37 0;
#X connect 39 0 37 0;
#X connect 40 0 37 1;
#X connect 44 0 45 0;
#X connect 44 1 50 0;
#X connect 45 0 47 0;
#X connect 45 1 48 0;
#X connect 46 0 47 1;
#X connect 46 0 48 1;
#X connect 47 0 52 0;
#X connect 48 0 53 0;
#X connect 49 1 44 0;
#X connect 50 1 46 0;
#X connect 51 0 49 0;
#X connect 52 0 3 0;
#X connect 53 0 14 0;
#X restore 489 833 pd count_used_memory;
#X obj 178 112 bng 15 250 50 0 empty empty empty 17 7 0 10 #fcfcfc #000000 #000000;
#N canvas 657 221 340 244 send_done_to_pd 0;
#X obj 33 15 inlet;
#X obj 60 105 list prepend add;
#X obj 60 148 s \$0-make-tobatch;
#X obj 60 126 list trim;
#X obj 33 178 outlet;
#X obj 33 39 t b b;
#X obj 60 61 f \$2;
#X msg 60 82 echo make_done | to_pd \$1;
#X connect 0 0 5 0;
#X connect 1 0 3 0;
#X connect 3 0 2 0;
#X connect 5 0 4 0;
#X connect 5 1 6 0;
#X connect 6 0 7 0;
#X connect 7 0 1 0;
#X restore 250 883 pd send_done_to_pd;
#X obj 427 772 bng 15 250 50 0 empty empty empty 17 7 0 10 #fcfcfc #000000 #000000;
#X obj 505 442 -;
#X msg 543 420 32;
#X obj 543 443 * 64;
#X obj 505 418 t f b;
#N canvas 34 668 380 204 mkdir_objs 0;
#X obj 47 14 inlet;
#X obj 95 101 symbol;
#X obj 184 33 r \$0-make-objsdir;
#X obj 47 121 outlet;
#X obj 95 124 s \$0-make-addmkdir;
#X obj 47 40 t b b b;
#X obj 216 98 symbol;
#X obj 216 126 s \$0-make-addrmdir;
#X connect 0 0 5 0;
#X connect 1 0 4 0;
#X connect 2 0 1 1;
#X connect 2 0 6 1;
#X connect 5 0 3 0;
#X connect 5 1 1 0;
#X connect 5 2 6 0;
#X connect 6 0 7 0;
#X restore 350 719 pd mkdir_objs;
#N canvas 631 447 468 415 compile_modules 0;
#X obj 23 22 inlet;
#X obj 23 348 outlet finished;
#X obj 50 112 splitpath;
#X obj 149 115 r \$0-make-objsdir;
#X obj 50 135 pack s s s, f 17;
#X obj 50 170 t a a, f 40;
#X text 306 175 mkdir;
#X obj 50 248 list prepend;
#X obj 119 225 r \$0-make-cflags;
#X obj 50 293 list prepend;
#X obj 119 270 r \$0-make-modules-includes;
#X msg 287 192 symbol \$3/\$2;
#X msg 50 199 -c "\$1/\$2.c" -o "\$3/\$2/\$2.o";
#X obj 50 319 s \$0-make-addcompile;
#X obj 287 213 s \$0-make-addmkdir;
#X obj 50 86 text sequence \$0-modules;
#X msg 50 65 line 0 \, auto;
#X obj 23 44 t b b;
#X connect 0 0 17 0;
#X connect 2 0 4 0;
#X connect 2 1 4 1;
#X connect 3 0 4 2;
#X connect 4 0 5 0;
#X connect 5 0 12 0;
#X connect 5 1 11 0;
#X connect 7 0 9 0;
#X connect 8 0 7 1;
#X connect 9 0 13 0;
#X connect 10 0 9 1;
#X connect 11 0 14 0;
#X connect 12 0 7 0;
#X connect 15 0 2 0;
#X connect 16 0 15 0;
#X connect 17 0 1 0;
#X connect 17 1 16 0;
#X restore 250 789 pd compile_modules;
#N canvas 399 383 831 443 shell-utils*OSDEP 0;
#X obj 21 140 list prepend add;
#X obj 21 183 s \$0-make-tobatch;
#X obj 21 161 list trim;
#X obj 21 82 list prepend sdcc;
#X obj 120 41 r \$0-make-sdccpath;
#X obj 21 21 r \$0-make-addcompile;
#X obj 312 135 list prepend add;
#X obj 312 178 s \$0-make-tobatch;
#X obj 312 156 list trim;
#X msg 283 90 mkdir -p "\$1";
#X msg 364 90 if not exist "\$1" md "\$1";
#X obj 21 115 list append;
#X obj 132 94 r \$0-make-src;
#X obj 283 18 r \$0-make-addmkdir;
#X obj 21 326 list prepend add;
#X obj 21 369 s \$0-make-tobatch;
#X obj 21 347 list trim;
#X obj 21 218 r \$0-make-addrm;
#X obj 296 340 list prepend add;
#X obj 296 383 s \$0-make-tobatch;
#X obj 296 361 list trim;
#X obj 267 225 r \$0-make-addrmdir;
#X msg 267 295 rm -fr "\$1";
#X msg 120 60 list \$1/sdcc --use-stdout;
#X msg 132 117 list >> make.err;
#X msg 348 295 rmdir /q /s "\$1";
#X msg 147 416 if exist "\$1" del "\$1";
#X obj 43 293 list prepend del;
#X obj 21 268 list prepend rm -f;
#X obj 561 23 r \$0-make-addpath;
#X obj 596 199 list prepend add;
#X obj 596 242 s \$0-make-tobatch;
#X obj 596 220 list trim;
#X obj 671 118 pack s s;
#X obj 716 56 loadbang;
#X msg 671 144 list PATH=%PATH%\$2\$1;
#X msg 715 77 59;
#X obj 716 97 makefilename %c;
#X obj 553 95 t b s;
#X obj 553 139 pack s s;
#X msg 553 117 symbol PATH=$PATH;
#X msg 553 160 symbol \$1:\$2;
#X obj 283 40 demux_os;
#X obj 561 62 demux_os;
#X obj 267 245 demux_os;
#X obj 21 238 demux_os;
#X connect 0 0 2 0;
#X connect 2 0 1 0;
#X connect 3 0 11 0;
#X connect 4 0 23 0;
#X connect 5 0 3 0;
#X connect 6 0 8 0;
#X connect 8 0 7 0;
#X connect 9 0 6 0;
#X connect 10 0 6 0;
#X connect 11 0 0 0;
#X connect 12 0 24 0;
#X connect 13 0 42 0;
#X connect 14 0 16 0;
#X connect 16 0 15 0;
#X connect 17 0 45 0;
#X connect 18 0 20 0;
#X connect 20 0 19 0;
#X connect 21 0 44 0;
#X connect 22 0 18 0;
#X connect 23 0 3 1;
#X connect 24 0 11 1;
#X connect 25 0 18 0;
#X connect 27 0 14 0;
#X connect 28 0 14 0;
#X connect 29 0 43 0;
#X connect 30 0 32 0;
#X connect 32 0 31 0;
#X connect 33 0 35 0;
#X connect 34 0 36 0;
#X connect 35 0 30 0;
#X connect 36 0 37 0;
#X connect 37 0 33 1;
#X connect 38 0 40 0;
#X connect 38 1 39 1;
#X connect 39 0 41 0;
#X connect 40 0 39 0;
#X connect 41 0 30 0;
#X connect 42 0 9 0;
#X connect 42 1 10 0;
#X connect 42 2 9 0;
#X connect 43 0 38 0;
#X connect 43 1 33 0;
#X connect 43 2 38 0;
#X connect 44 0 22 0;
#X connect 44 1 25 0;
#X connect 44 2 22 0;
#X connect 45 0 28 0;
#X connect 45 1 27 0;
#X connect 45 2 28 0;
#X restore 603 650 pd shell-utils*OSDEP;
#N canvas 808 423 281 257 test-if-worked 0;
#X obj 22 20 inlet;
#X obj 22 167 f;
#X obj 22 214 outlet ok;
#X obj 101 215 outlet failed;
#X obj 22 193 sel 1 0, f 27;
#X obj 61 40 splitpath;
#X obj 61 61 pack s s, f 9;
#X obj 22 101 symbol, f 7;
#X obj 22 123 file isfile;
#X floatatom 22 144 5 0 0 0 - - - 0;
#X obj 61 20 r \$0-make-src;
#X msg 62 145 0;
#X msg 61 80 symbol \$1/\$2/\$2.map;
#X obj 22 45 t b;
#X connect 0 0 13 0;
#X connect 1 0 4 0;
#X connect 4 0 2 0;
#X connect 4 1 3 0;
#X connect 5 0 6 0;
#X connect 5 1 6 1;
#X connect 6 0 12 0;
#X connect 7 0 8 0;
#X connect 8 0 9 0;
#X connect 8 1 11 0;
#X connect 9 0 1 0;
#X connect 10 0 5 0;
#X connect 11 0 9 0;
#X connect 12 0 7 1;
#X connect 13 0 7 0;
#X restore 462 770 pd test-if-worked;
#X obj 462 790 bng 15 250 50 0 empty empty empty 17 7 0 10 #00fc04 #000000 #000000;
#X obj 630 821 bng 15 250 50 0 empty empty empty 17 7 0 10 #fc0400 #000000 #000000;
#N canvas 749 410 450 300 rm_mapfile_errfile 0;
#X obj 65 28 inlet;
#X obj 65 49 t b b;
#X obj 169 21 r \$0-make-src;
#X obj 169 42 splitpath;
#X obj 169 63 pack s s;
#X msg 169 84 symbol \$1/\$2/\$2.map;
#X obj 92 117 s \$0-make-addrm;
#X obj 65 213 outlet;
#X obj 92 90 symbol;
#X obj 194 132 r \$0-make-src;
#X obj 121 176 s \$0-make-addrm;
#X obj 121 149 symbol;
#X msg 194 155 symbol \$1/make.err;
#X connect 0 0 1 0;
#X connect 1 0 7 0;
#X connect 1 1 8 0;
#X connect 1 1 11 0;
#X connect 2 0 3 0;
#X connect 3 0 4 0;
#X connect 3 1 4 1;
#X connect 4 0 5 0;
#X connect 5 0 8 1;
#X connect 8 0 6 0;
#X connect 9 0 12 0;
#X connect 11 0 10 0;
#X connect 12 0 11 1;
#X restore 250 760 pd rm_mapfile_errfile;
#N canvas 597 631 277 237 print_errfile 0;
#X obj 35 31 inlet;
#X obj 95 46 r \$0-make-src;
#X obj 62 90 symbol;
#X msg 95 69 symbol \$1/make.err;
#X obj 62 158 print MAKE;
#X obj 35 53 t b b;
#X obj 35 189 outlet;
#X obj 82 24 bng 15 250 50 0 empty empty empty 17 7 0 10 #fcfcfc #000000 #000000;
#X obj 62 137 list trim;
#X obj 62 115 catfile;
#X connect 0 0 5 0;
#X connect 1 0 3 0;
#X connect 2 0 9 0;
#X connect 3 0 2 1;
#X connect 5 0 6 0;
#X connect 5 1 2 0;
#X connect 7 0 2 0;
#X connect 8 0 4 0;
#X connect 9 0 8 0;
#X restore 462 747 pd print_errfile;
#X obj 630 869 print MAKE;
#X msg 630 846 ERROR : compilation failed !;
#X obj 433 742 bng 15 250 50 0 empty empty empty 17 7 0 10 #fcfcfc #000000 #000000;
#N canvas 801 351 450 300 make-clean 0;
#N canvas 495 623 358 189 clear_batch 0;
#X obj 117 35 inlet;
#X obj 117 59 t b b;
#X obj 117 110 outlet;
#X obj 170 108 s \$0-make-tobatch;
#X msg 170 87 clear;
#X connect 0 0 1 0;
#X connect 1 0 2 0;
#X connect 1 1 4 0;
#X connect 4 0 3 0;
#X restore 53 42 pd clear_batch;
#N canvas 763 537 450 300 cd_srcdir 0;
#X obj 110 19 inlet;
#X obj 110 42 t b b;
#X obj 137 63 symbol;
#X obj 170 39 r \$0-make-src;
#X obj 137 110 list prepend add;
#X obj 137 153 s \$0-make-tobatch;
#X obj 137 131 list trim;
#X msg 137 86 cd \$1;
#X obj 110 187 outlet;
#X connect 0 0 1 0;
#X connect 1 0 8 0;
#X connect 1 1 2 0;
#X connect 2 0 7 0;
#X connect 3 0 2 1;
#X connect 4 0 6 0;
#X connect 6 0 5 0;
#X connect 7 0 4 0;
#X restore 53 90 pd cd_srcdir;
#N canvas 699 579 349 293 prologue*OSDEP 0;
#X obj 47 14 inlet;
#X obj 47 40 t b b;
#X obj 74 164 list prepend add;
#X obj 74 207 s \$0-make-tobatch;
#X obj 47 247 outlet;
#X obj 74 185 list trim;
#X msg 74 135 #!/bin/bash;
#X obj 74 85 demux_os;
#X connect 0 0 1 0;
#X connect 1 0 4 0;
#X connect 1 1 7 0;
#X connect 2 0 5 0;
#X connect 5 0 3 0;
#X connect 6 0 2 0;
#X connect 7 0 6 0;
#X connect 7 2 6 0;
#X restore 53 66 pd prologue*OSDEP;
#N canvas 768 568 450 300 save_batch*OSDEP 0;
#X obj 104 29 inlet;
#X obj 131 240 s \$0-make-tobatch;
#X obj 180 71 r \$0-make-src;
#X obj 131 72 symbol;
#X msg 131 174 symbol \$1.sh;
#X msg 216 173 symbol \$1.bat;
#X msg 131 211 write \$1 cr;
#X obj 104 50 t b b;
#X obj 104 271 outlet;
#X msg 131 107 symbol \$1/clean;
#X obj 131 135 demux_os;
#X connect 0 0 7 0;
#X connect 2 0 3 1;
#X connect 3 0 9 0;
#X connect 4 0 6 0;
#X connect 5 0 6 0;
#X connect 6 0 1 0;
#X connect 7 0 8 0;
#X connect 7 1 3 0;
#X connect 9 0 10 0;
#X connect 10 0 4 0;
#X connect 10 1 5 0;
#X connect 10 2 4 0;
#X restore 53 218 pd save_batch*OSDEP;
#N canvas 138 382 450 300 launch_batch*OSDEP 0;
#X obj 104 29 inlet;
#X obj 153 72 r \$0-make-src;
#X obj 104 73 symbol;
#X obj 104 241 s \$0-make-launchbatch;
#X msg 104 175 list bash \$1.sh;
#X msg 126 204 list \$1.bat;
#X obj 63 55 bng 15 250 50 0 empty empty empty 17 7 0 10 #fcfcfc #000000 #000000;
#X msg 104 108 symbol \$1/clean;
#X obj 104 136 demux_os;
#X connect 0 0 2 0;
#X connect 1 0 2 1;
#X connect 2 0 7 0;
#X connect 4 0 3 0;
#X connect 5 0 3 0;
#X connect 6 0 2 0;
#X connect 7 0 8 0;
#X connect 8 0 4 0;
#X connect 8 1 5 0;
#X connect 8 2 4 0;
#X restore 53 245 pd launch_batch*OSDEP;
#X obj 53 17 inlet;
#N canvas 31 819 380 204 rmdir_objs 0;
#X obj 47 14 inlet;
#X obj 107 42 r \$0-make-objsdir;
#X obj 47 121 outlet;
#X obj 74 64 symbol;
#X obj 74 87 s \$0-make-addrmdir;
#X obj 47 40 t b b;
#X connect 0 0 5 0;
#X connect 1 0 3 1;
#X connect 3 0 4 0;
#X connect 5 0 2 0;
#X connect 5 1 3 0;
#X restore 53 143 pd rmdir_objs;
#N canvas 720 687 450 300 rm_mapfile_errfile_make_cod_lst_clean 0;
#X obj 65 28 inlet;
#X obj 65 49 t b b;
#X obj 169 21 r \$0-make-src;
#X obj 169 42 splitpath;
#X obj 169 63 pack s s;
#X obj 92 117 s \$0-make-addrm;
#X obj 65 213 outlet;
#X obj 92 90 list;
#X msg 174 145 list *.map *.err *.lst *.cod make* clean*;
#X msg 169 84 list *.map *.err *.lst *.cod make* clean*;
#X connect 0 0 1 0;
#X connect 1 0 6 0;
#X connect 1 1 7 0;
#X connect 2 0 3 0;
#X connect 3 0 4 0;
#X connect 3 1 4 1;
#X connect 4 0 9 0;
#X connect 7 0 5 0;
#X connect 9 0 7 1;
#X restore 53 168 pd rm_mapfile_errfile_make_cod_lst_clean;
#N canvas 649 268 340 244 send_cleaned_to_pd 0;
#X obj 33 15 inlet;
#X obj 60 105 list prepend add;
#X obj 60 148 s \$0-make-tobatch;
#X obj 60 126 list trim;
#X obj 33 178 outlet;
#X obj 33 39 t b b;
#X obj 60 61 f \$2;
#X msg 60 82 echo make_cleaned | to_pd \$1;
#X connect 0 0 5 0;
#X connect 1 0 3 0;
#X connect 3 0 2 0;
#X connect 5 0 4 0;
#X connect 5 1 6 0;
#X connect 6 0 7 0;
#X connect 7 0 1 0;
#X restore 53 192 pd send_cleaned_to_pd;
#N canvas 1520 589 286 183 add_bin_path 0;
#X obj 47 14 inlet;
#X obj 74 62 symbol;
#X obj 47 40 t b b;
#X obj 47 111 outlet;
#X obj 74 85 s \$0-make-addpath;
#X obj 107 30 r \$0-utilsdir;
#X connect 0 0 2 0;
#X connect 1 0 4 0;
#X connect 2 0 3 0;
#X connect 2 1 1 0;
#X connect 5 0 1 1;
#X restore 53 116 pd add_bin_path;
#X connect 0 0 2 0;
#X connect 1 0 9 0;
#X connect 2 0 1 0;
#X connect 3 0 4 0;
#X connect 5 0 0 0;
#X connect 6 0 7 0;
#X connect 7 0 8 0;
#X connect 8 0 3 0;
#X connect 9 0 6 0;
#X restore 462 953 pd make-clean;
#X obj 489 929 print MAKE;
#X obj 462 884 t b b;
#X msg 489 907 cleaning...;
#X obj 632 941 print MAKE;
#X msg 632 919 cleaned.;
#X obj 462 812 t b b;
#X msg 489 859 compilation done;
#X obj 504 882 print MAKE;
#X symbolatom 686 96 0 0 0 0 - - - 0;
#N canvas 86 606 240 264 add_bin_sdcc_path 0;
#X obj 32 36 inlet;
#X obj 51 152 symbol;
#X obj 32 199 outlet;
#X obj 84 132 r \$0-make-sdccpath;
#X obj 51 176 s \$0-make-addpath;
#X obj 32 62 t b b b;
#X obj 71 84 symbol;
#X obj 71 108 s \$0-make-addpath;
#X obj 104 64 r \$0-utilsdir;
#X connect 0 0 5 0;
#X connect 1 0 4 0;
#X connect 3 0 1 1;
#X connect 5 0 2 0;
#X connect 5 1 1 0;
#X connect 5 2 6 0;
#X connect 6 0 7 0;
#X connect 8 0 6 1;
#X restore 250 741 pd add_bin_sdcc_path;
#X obj 459 606 textfile;
#X text 574 433 minus bootloader_size=32*64;
#X obj 432 834 spigot 1;
#X obj 514 803 tgl 15 0 empty empty empty 17 7 0 10 #fcfcfc #000000 #000000 0 1;
#N canvas 82 466 359 319 compile_crt 0;
#X obj 157 94 r \$0-make-objsdir;
#X obj 100 194 list prepend;
#X obj 169 171 r \$0-make-cflags;
#X obj 73 5 inlet;
#X obj 73 27 t b b;
#X obj 100 116 pack s s s;
#X msg 100 50 symbol crt0iz-rloc;
#X obj 73 272 outlet;
#X obj 100 225 s \$0-make-addcompile;
#X msg 100 145 -c "\$2/core/\$1.c" -o "\$3/crt.o";
#X obj 128 74 r \$0-modulesdir;
#X connect 0 0 5 2;
#X connect 1 0 8 0;
#X connect 2 0 1 1;
#X connect 3 0 4 0;
#X connect 4 0 7 0;
#X connect 4 1 6 0;
#X connect 5 0 9 0;
#X connect 6 0 5 0;
#X connect 9 0 1 0;
#X connect 10 0 5 1;
#X restore 250 809 pd compile_crt;
#X obj 593 764 == 0;
#X obj 462 721 r \$1-make-done;
#X obj 593 742 r \$1-dontclean-snd;
#X obj 632 895 r \$1-make-cleaned;
#X msg 574 53 symbol \$1/bin;
#X msg 674 35 symbol \$1/bin/utils;
#X obj 574 34 r \$0-fraisedir;
#X obj 674 13 r \$0-fraisedir;
#X symbolatom 698 159 0 0 0 0 - - - 0;
#X obj 808 4 r \$0-fraisedir;
#X symbolatom 697 181 0 0 0 0 - - - 0;
#X obj 939 7 r \$0-fraisedir;
#X obj 262 175 pack s s;
#X obj 262 215 s \$0-make-srcmain;
#X msg 939 29 symbol \$1;
#X msg 808 26 symbol \$1/boards;
#X msg 262 195 symbol \$1/\$2/main.c;
#N canvas 502 572 450 300 clear_batch 0;
#X obj 117 35 inlet;
#X obj 117 59 t b b;
#X obj 117 110 outlet;
#X obj 170 108 s \$0-make-tobatch;
#X msg 170 87 clear;
#X connect 0 0 1 0;
#X connect 1 0 2 0;
#X connect 1 1 4 0;
#X connect 4 0 3 0;
#X restore 75 629 pd clear_batch;
#N canvas 769 522 450 300 cd_srcdir 0;
#X obj 110 19 inlet;
#X obj 110 42 t b b;
#X obj 137 63 symbol;
#X obj 170 39 r \$0-make-src;
#X obj 137 110 list prepend add;
#X obj 137 153 s \$0-make-tobatch;
#X obj 137 131 list trim;
#X msg 137 86 cd \$1;
#X obj 110 187 outlet;
#X connect 0 0 1 0;
#X connect 1 0 8 0;
#X connect 1 1 2 0;
#X connect 2 0 7 0;
#X connect 3 0 2 1;
#X connect 4 0 6 0;
#X connect 6 0 5 0;
#X connect 7 0 4 0;
#X restore 75 677 pd cd_srcdir;
#N canvas 709 579 349 293 prologue*OSDEP 0;
#X obj 47 14 inlet;
#X obj 47 40 t b b;
#X obj 74 164 list prepend add;
#X obj 74 207 s \$0-make-tobatch;
#X obj 47 247 outlet;
#X obj 74 185 list trim;
#X msg 74 135 #!/bin/bash;
#X obj 74 85 demux_os;
#X connect 0 0 1 0;
#X connect 1 0 4 0;
#X connect 1 1 7 0;
#X connect 2 0 5 0;
#X connect 5 0 3 0;
#X connect 6 0 2 0;
#X connect 7 0 6 0;
#X connect 7 2 6 0;
#X restore 75 653 pd prologue*OSDEP;
#N canvas 31 819 380 204 mkdir_objs 0;
#X obj 47 14 inlet;
#X obj 95 101 symbol;
#X obj 184 33 r \$0-make-objsdir;
#X obj 47 121 outlet;
#X obj 95 124 s \$0-make-addmkdir;
#X obj 47 40 t b b b;
#X obj 216 98 symbol;
#X obj 216 126 s \$0-make-addrmdir;
#X connect 0 0 5 0;
#X connect 1 0 4 0;
#X connect 2 0 1 1;
#X connect 2 0 6 1;
#X connect 5 0 3 0;
#X connect 5 1 1 0;
#X connect 5 2 6 0;
#X connect 6 0 7 0;
#X restore 75 701 pd mkdir_objs;
#N canvas 747 413 450 300 rm_mapfile_errfile 0;
#X obj 65 28 inlet;
#X obj 65 49 t b b;
#X obj 169 21 r \$0-make-src;
#X obj 169 42 splitpath;
#X obj 169 63 pack s s;
#X msg 169 84 symbol \$1/\$2/\$2.map;
#X obj 92 117 s \$0-make-addrm;
#X obj 65 213 outlet;
#X obj 92 90 symbol;
#X obj 194 132 r \$0-make-src;
#X obj 121 176 s \$0-make-addrm;
#X obj 121 149 symbol;
#X msg 194 155 symbol \$1/make.err;
#X connect 0 0 1 0;
#X connect 1 0 7 0;
#X connect 1 1 8 0;
#X connect 1 1 11 0;
#X connect 2 0 3 0;
#X connect 3 0 4 0;
#X connect 3 1 4 1;
#X connect 4 0 5 0;
#X connect 5 0 8 1;
#X connect 8 0 6 0;
#X connect 9 0 12 0;
#X connect 11 0 10 0;
#X connect 12 0 11 1;
#X restore 75 741 pd rm_mapfile_errfile;
#N canvas 350 640 240 264 add_bin_sdcc_path 0;
#X obj 29 25 inlet;
#X obj 48 141 symbol;
#X obj 29 188 outlet;
#X obj 81 121 r \$0-make-sdccpath;
#X obj 48 165 s \$0-make-addpath;
#X obj 29 51 t b b b;
#X obj 68 73 symbol;
#X obj 68 97 s \$0-make-addpath;
#X obj 101 53 r \$0-utilsdir;
#X connect 0 0 5 0;
#X connect 1 0 4 0;
#X connect 3 0 1 1;
#X connect 5 0 2 0;
#X connect 5 1 1 0;
#X connect 5 2 6 0;
#X connect 6 0 7 0;
#X connect 8 0 6 1;
#X restore 75 722 pd add_bin_sdcc_path;
#N canvas 777 547 450 300 save_batch*OSDEP 0;
#X obj 104 29 inlet;
#X obj 131 240 s \$0-make-tobatch;
#X obj 164 49 r \$0-make-src;
#X obj 131 72 symbol;
#X msg 131 107 symbol \$1/make;
#X msg 131 174 symbol \$1.sh;
#X msg 216 173 symbol \$1.bat;
#X msg 131 211 write \$1 cr;
#X obj 104 50 t b b;
#X obj 104 271 outlet;
#X obj 131 135 demux_os;
#X connect 0 0 8 0;
#X connect 2 0 3 1;
#X connect 3 0 4 0;
#X connect 4 0 10 0;
#X connect 5 0 7 0;
#X connect 6 0 7 0;
#X connect 7 0 1 0;
#X connect 8 0 9 0;
#X connect 8 1 3 0;
#X connect 10 0 5 0;
#X connect 10 1 6 0;
#X connect 10 2 5 0;
#X restore 75 809 pd save_batch*OSDEP;
#N canvas 143 370 450 300 launch_batch*OSDEP 0;
#X obj 104 29 inlet;
#X obj 153 72 r \$0-make-src;
#X obj 104 73 symbol;
#X msg 104 108 symbol \$1/make;
#X obj 104 241 s \$0-make-launchbatch;
#X msg 104 175 list bash \$1.sh;
#X msg 126 204 list \$1.bat;
#X obj 63 55 bng 15 250 50 0 empty empty empty 17 7 0 10 #fcfcfc #000000 #000000;
#X obj 104 136 demux_os;
#X connect 0 0 2 0;
#X connect 1 0 2 1;
#X connect 2 0 3 0;
#X connect 3 0 8 0;
#X connect 5 0 4 0;
#X connect 6 0 4 0;
#X connect 7 0 2 0;
#X connect 8 0 5 0;
#X connect 8 1 6 0;
#X connect 8 2 5 0;
#X restore 75 830 pd launch_batch*OSDEP;
#N canvas 658 247 340 244 send_done_to_pd 0;
#X obj 33 15 inlet;
#X obj 60 105 list prepend add;
#X obj 60 148 s \$0-make-tobatch;
#X obj 60 126 list trim;
#X obj 33 178 outlet;
#X obj 33 39 t b b;
#X obj 60 61 f \$2;
#X msg 60 82 echo make_main_done | to_pd \$1;
#X connect 0 0 5 0;
#X connect 1 0 3 0;
#X connect 3 0 2 0;
#X connect 5 0 4 0;
#X connect 5 1 6 0;
#X connect 6 0 7 0;
#X connect 7 0 1 0;
#X restore 75 787 pd send_done_to_pd;
#N canvas 743 447 402 414 compile_main 0;
#X obj 152 152 r \$0-make-objsdir;
#X obj 95 252 list prepend;
#X obj 164 229 r \$0-make-cflags;
#X obj 95 297 list prepend;
#X obj 164 274 r \$0-make-modules-includes;
#X obj 68 24 inlet;
#X obj 68 46 t b b;
#X obj 95 174 pack s s s;
#X obj 68 354 outlet;
#X obj 123 128 r \$0-make-src;
#X obj 110 49 r \$0-make-src;
#X obj 95 106 symbol;
#X obj 110 72 splitpath;
#X obj 95 319 s \$0-make-addcompile;
#X msg 95 203 -c "\$2/main.c" -o "\$3/\$1.o";
#X connect 0 0 7 2;
#X connect 1 0 3 0;
#X connect 2 0 1 1;
#X connect 3 0 13 0;
#X connect 4 0 3 1;
#X connect 5 0 6 0;
#X connect 6 0 8 0;
#X connect 6 1 11 0;
#X connect 7 0 14 0;
#X connect 9 0 7 1;
#X connect 10 0 12 0;
#X connect 11 0 7 0;
#X connect 12 1 11 1;
#X connect 14 0 1 0;
#X restore 75 763 pd compile_main;
#X obj 250 556 r \$1-make-main-done;
#X obj 391 615 bng 15 250 50 0 empty empty empty 17 7 0 10 #fcfcfc #000000 #000000;
#N canvas 10 75 1138 473 findUserDefFuncs 0;
#X obj 30 26 inlet;
#X obj 90 15 r \$0-make-src;
#X obj 90 36 splitpath;
#X obj 90 57 pack s s;
#X obj 57 100 symbol;
#X obj 76 196 bng 15 250 50 0 empty empty empty 17 7 0 10 #fcfcfc #000000 #000000;
#X obj 160 196 bng 15 250 50 0 empty empty empty 17 7 0 10 #fcfcfc #000000 #000000;
#X msg 90 78 symbol \$1/\$2/\$2-objs/\$2.asm;
#X obj 69 73 bng 15 250 50 0 empty empty empty 17 7 0 10 #fcfcfc #000000 #000000;
#X obj 57 145 list split 1;
#X obj 57 170 sel _EEdeclareMain: _lowInterrupts: _highInterrupts: _setup: _loop:, f 73;
#X obj 242 197 bng 15 250 50 0 empty empty empty 17 7 0 10 #fcfcfc #000000 #000000;
#X obj 331 199 bng 15 250 50 0 empty empty empty 17 7 0 10 #fcfcfc #000000 #000000;
#X obj 405 194 bng 15 250 50 0 empty empty empty 17 7 0 10 #fcfcfc #000000 #000000;
#X obj 535 196 bng 15 250 50 0 empty empty empty 17 7 0 10 #fcfcfc #000000 #000000;
#X obj 672 196 bng 15 250 50 0 empty empty empty 17 7 0 10 #fcfcfc #000000 #000000;
#X obj 813 193 bng 15 250 50 0 empty empty empty 17 7 0 10 #fcfcfc #000000 #000000;
#X obj 959 194 bng 15 250 50 0 empty empty empty 17 7 0 10 #fcfcfc #000000 #000000;
#X obj 525 173 sel _fraiseReceive: _fraiseReceiveBroadcast: _fraiseReceiveChar: _fraiseReceiveCharBroadcast:, f 95;
#X obj 55 391 s \$0-make-cflags;
#X obj 55 368 list append, f 14;
#X obj 136 345 r \$0-make-cflags;
#X msg 57 216 symbol UD_EE;
#X msg 144 217 symbol UD_LOW;
#X msg 231 218 symbol UD_HIGH;
#X msg 326 218 symbol UD_SETUP;
#X msg 427 218 symbol UD_LOOP;
#X msg 525 217 symbol UD_RCV;
#X msg 666 217 symbol UD_RCVB;
#X msg 808 216 symbol UD_RCVC;
#X msg 950 216 symbol UD_RCVCB;
#X obj 30 73 t b b;
#X obj 30 430 outlet;
#X obj 57 274 s \$0-userdefs_add_define;
#X obj 525 259 s \$0-userdefs_add_define;
#X obj 55 322 r \$0-userdefs_add_define;
#X msg 55 346 symbol -D\$1;
#X obj 57 121 catfile;
#X connect 0 0 31 0;
#X connect 1 0 2 0;
#X connect 2 0 3 0;
#X connect 2 1 3 1;
#X connect 3 0 7 0;
#X connect 4 0 37 0;
#X connect 7 0 4 1;
#X connect 8 0 4 0;
#X connect 9 0 10 0;
#X connect 10 0 5 0;
#X connect 10 0 22 0;
#X connect 10 1 6 0;
#X connect 10 1 23 0;
#X connect 10 2 11 0;
#X connect 10 2 24 0;
#X connect 10 3 12 0;
#X connect 10 3 25 0;
#X connect 10 4 13 0;
#X connect 10 4 26 0;
#X connect 10 5 18 0;
#X connect 18 0 14 0;
#X connect 18 0 27 0;
#X connect 18 1 15 0;
#X connect 18 1 28 0;
#X connect 18 2 16 0;
#X connect 18 2 29 0;
#X connect 18 3 17 0;
#X connect 18 3 30 0;
#X connect 20 0 19 0;
#X connect 21 0 20 1;
#X connect 22 0 33 0;
#X connect 23 0 33 0;
#X connect 24 0 33 0;
#X connect 25 0 33 0;
#X connect 26 0 33 0;
#X connect 27 0 34 0;
#X connect 28 0 34 0;
#X connect 29 0 34 0;
#X connect 30 0 34 0;
#X connect 31 0 32 0;
#X connect 31 1 4 0;
#X connect 35 0 36 0;
#X connect 36 0 20 0;
#X connect 37 0 9 0;
#X restore 250 642 pd findUserDefFuncs;
#N canvas 1221 415 262 278 test-if-worked 0;
#X obj 15 13 inlet;
#X obj 15 237 outlet ok;
#X obj 79 237 outlet failed;
#X obj 15 213 sel 1 0, f 22;
#X obj 48 33 r \$0-make-src;
#X obj 48 54 splitpath;
#X obj 48 76 pack s s, f 9;
#X msg 48 97 symbol \$1/\$2/\$2-objs/\$2.asm;
#X obj 15 118 symbol;
#X msg 78 159 0;
#X obj 15 189 f;
#X obj 15 138 file isfile;
#X connect 0 0 8 0;
#X connect 3 0 1 0;
#X connect 3 1 2 0;
#X connect 4 0 5 0;
#X connect 5 0 6 0;
#X connect 5 1 6 1;
#X connect 6 0 7 0;
#X connect 7 0 8 1;
#X connect 8 0 11 0;
#X connect 9 0 10 0;
#X connect 10 0 3 0;
#X connect 11 0 10 0;
#X connect 11 1 9 0;
#X restore 250 603 pd test-if-worked;
#N canvas 232 429 249 232 print_errfile 0;
#X obj 37 29 inlet;
#X obj 97 44 r \$0-make-src;
#X obj 64 88 symbol;
#X msg 97 67 symbol \$1/make.err;
#X obj 64 152 print MAKE;
#X obj 37 51 t b b;
#X obj 37 177 outlet;
#X obj 84 22 bng 15 250 50 0 empty empty empty 17 7 0 10 #fcfcfc #000000 #000000;
#X obj 64 131 list trim;
#X obj 64 109 catfile;
#X connect 0 0 5 0;
#X connect 1 0 3 0;
#X connect 2 0 9 0;
#X connect 3 0 2 1;
#X connect 5 0 6 0;
#X connect 5 1 2 0;
#X connect 7 0 2 0;
#X connect 8 0 4 0;
#X connect 9 0 8 0;
#X restore 250 580 pd print_errfile;
#X obj 250 624 bng 15 250 50 0 empty empty empty 17 7 0 10 #00fc04 #000000 #000000;
#X msg 450 67 symbol \$1/../..;
#X obj 94 91 list split 2;
#X obj 94 113 unpack s s;
#X obj 75 48 list;
#X obj 574 73 simplify_path;
#X obj 674 58 simplify_path;
#X obj 808 49 simplify_path;
#X obj 939 52 simplify_path;
#X obj 262 155 splitpath;
#X obj 550 188 bng 15 250 50 0 empty empty empty 17 7 0 10 #fcfcfc #000000 #000000;
#X obj 505 396 hexsym2dec;
#X obj 345 400 hexsym2dec;
#X msg 450 27 dir;
#X obj 450 48 pdcontrol;
#X obj 690 252 text define \$0-modules;
#X msg 690 231 clear;
#X obj 842 251 text define \$0-main;
#X msg 842 230 clear \, read -c \$1;
#X obj 842 210 r \$0-make-srcmain;
#X msg 108 423 1;
#X msg 147 423 0;
#X msg 969 651 1;
#X msg 1020 650 0;
#X obj 135 445 tgl 16 0 empty empty empty 0 -8 0 10 #fcfcfc #000000 #000000 0 1;
#X obj 190 414 print;
#X msg 249 423 zzd;
#X obj 108 402 sel 18f;
#X obj 969 630 sel pic32;
#X obj 571 256 s FRAISE-OS;
#X obj 574 92 s \$0-bindir;
#X obj 674 77 s \$0-utilsdir;
#X obj 808 68 s \$0-boardsdir;
#X obj 939 71 s \$0-modulesdir;
#X connect 0 0 149 0;
#X connect 1 0 2 0;
#X connect 4 0 3 0;
#X connect 4 0 154 0;
#X connect 7 0 10 0;
#X connect 7 1 8 0;
#X connect 8 0 9 0;
#X connect 10 0 17 0;
#X connect 10 1 11 0;
#X connect 11 0 12 0;
#X connect 13 0 41 0;
#X connect 14 0 13 0;
#X connect 16 0 15 0;
#X connect 17 0 13 0;
#X connect 17 1 36 0;
#X connect 18 0 19 0;
#X connect 19 0 20 0;
#X connect 21 0 22 0;
#X connect 22 0 157 0;
#X connect 24 0 23 0;
#X connect 26 0 158 0;
#X connect 27 0 161 0;
#X connect 28 0 29 0;
#X connect 29 0 24 0;
#X connect 30 0 31 0;
#X connect 31 0 156 0;
#X connect 32 0 35 0;
#X connect 33 0 34 0;
#X connect 34 0 32 0;
#X connect 36 0 18 0;
#X connect 36 1 21 0;
#X connect 36 2 30 0;
#X connect 36 3 37 0;
#X connect 37 0 38 0;
#X connect 38 0 39 0;
#X connect 40 0 42 0;
#X connect 41 0 48 0;
#X connect 42 0 43 0;
#X connect 43 0 68 0;
#X connect 44 0 76 0;
#X connect 45 0 172 0;
#X connect 47 0 173 0;
#X connect 48 0 44 0;
#X connect 48 0 46 0;
#X connect 50 0 19 0;
#X connect 52 0 108 0;
#X connect 53 0 7 0;
#X connect 53 1 147 0;
#X connect 53 2 25 0;
#X connect 54 0 55 0;
#X connect 55 0 56 0;
#X connect 56 0 174 0;
#X connect 57 0 16 0;
#X connect 58 0 108 0;
#X connect 59 0 108 0;
#X connect 60 0 65 0;
#X connect 62 0 63 0;
#X connect 63 0 80 0;
#X connect 64 0 107 0;
#X connect 65 0 64 0;
#X connect 66 0 75 0;
#X connect 67 0 11 0;
#X connect 68 0 130 0;
#X connect 71 0 6 0;
#X connect 71 0 5 0;
#X connect 74 0 73 0;
#X connect 76 0 40 0;
#X connect 76 1 77 0;
#X connect 78 0 104 0;
#X connect 78 1 105 0;
#X connect 79 0 4 0;
#X connect 80 0 66 0;
#X connect 81 0 89 0;
#X connect 82 0 32 0;
#X connect 83 0 84 0;
#X connect 84 0 82 1;
#X connect 85 0 82 0;
#X connect 85 1 83 0;
#X connect 87 0 112 0;
#X connect 89 0 90 0;
#X connect 89 1 91 0;
#X connect 90 0 103 0;
#X connect 91 0 95 0;
#X connect 92 0 87 0;
#X connect 93 0 89 0;
#X connect 95 0 94 0;
#X connect 99 0 97 0;
#X connect 99 1 100 0;
#X connect 100 0 98 0;
#X connect 102 0 101 0;
#X connect 103 0 110 0;
#X connect 103 1 78 0;
#X connect 104 0 105 0;
#X connect 107 0 92 0;
#X connect 110 0 99 0;
#X connect 111 0 110 1;
#X connect 112 0 62 0;
#X connect 113 0 111 0;
#X connect 114 0 93 0;
#X connect 114 0 96 0;
#X connect 115 0 113 0;
#X connect 116 0 102 0;
#X connect 117 0 150 0;
#X connect 118 0 151 0;
#X connect 119 0 117 0;
#X connect 120 0 118 0;
#X connect 122 0 128 0;
#X connect 124 0 127 0;
#X connect 125 0 129 0;
#X connect 127 0 153 0;
#X connect 128 0 152 0;
#X connect 129 0 126 0;
#X connect 130 0 132 0;
#X connect 131 0 133 0;
#X connect 132 0 131 0;
#X connect 133 0 135 0;
#X connect 134 0 139 0;
#X connect 135 0 134 0;
#X connect 136 0 137 0;
#X connect 138 0 136 0;
#X connect 139 0 138 0;
#X connect 140 0 144 0;
#X connect 142 0 60 0;
#X connect 143 0 145 0;
#X connect 143 1 91 0;
#X connect 144 0 143 0;
#X connect 145 0 142 0;
#X connect 146 0 71 0;
#X connect 147 0 148 0;
#X connect 148 0 1 0;
#X connect 148 1 4 0;
#X connect 149 0 53 0;
#X connect 150 0 72 0;
#X connect 150 0 175 0;
#X connect 151 0 106 0;
#X connect 151 0 176 0;
#X connect 152 0 121 0;
#X connect 152 0 177 0;
#X connect 153 0 123 0;
#X connect 153 0 178 0;
#X connect 154 0 125 0;
#X connect 154 1 125 1;
#X connect 155 0 55 0;
#X connect 156 0 85 0;
#X connect 157 0 24 0;
#X connect 158 0 159 0;
#X connect 159 0 146 0;
#X connect 161 0 160 0;
#X connect 163 0 162 0;
#X connect 164 0 163 0;
#X connect 165 0 44 1;
#X connect 165 0 169 0;
#X connect 166 0 44 1;
#X connect 166 0 169 0;
#X connect 167 0 46 1;
#X connect 168 0 46 1;
#X connect 171 0 170 0;
#X connect 172 0 165 0;
#X connect 172 1 166 0;
#X connect 172 1 170 0;
#X connect 173 0 167 0;
#X connect 173 1 168 0;
