#N canvas 278 135 1013 661 10;
#X declare -path command;
#X declare -path .;
#X obj 14 17 inlet;
#X symbolatom 33 224 10 0 0 0 - - - 0;
#X obj 33 245 s \$0-make-fruitname;
#X obj 107 223 s \$0-make-src;
#X symbolatom 107 196 0 0 0 0 - - - 0;
#X symbolatom 209 143 0 0 0 0 - - - 0;
#X obj 175 119 s \$0-fraisedir;
#N canvas 432 280 369 248 get_board 0;
#X obj 21 19 inlet;
#X obj 21 39 b;
#X obj 21 133 t b a, f 9;
#X obj 21 156 outlet;
#X obj 72 180 outlet;
#X msg 72 156 symbol \$3;
#X obj 157 185 print MAKE ERROR;
#X msg 157 162 no board found !;
#X obj 21 86 text search \$0-main 0 1;
#X msg 21 63 list #define BOARD;
#X obj 21 107 text get \$0-main;
#X connect 0 0 1 0;
#X connect 1 0 9 0;
#X connect 2 0 3 0;
#X connect 2 1 5 0;
#X connect 5 0 4 0;
#X connect 7 0 6 0;
#X connect 8 0 10 0;
#X connect 9 0 8 0;
#X connect 10 0 2 0;
#X restore 14 273 pd get_board;
#X symbolatom 100 278 10 0 0 0 - - - 0;
#X obj 100 297 s \$0-make-boardname;
#N canvas 1 356 479 402 get_boarddir 0;
#X obj 65 -1 inlet;
#X obj 65 76 symbol;
#X obj 65 55 b;
#X obj 110 79 r \$0-make-boardname;
#X obj 65 105 pack s s;
#X obj 116 273 outlet;
#X obj 65 129 t a a, f 14;
#X obj 116 253 symbol;
#X obj 65 229 t b b, f 9;
#X obj 65 272 outlet;
#X msg 65 153 symbol \$1/\$2/boardconfig.h;
#X msg 149 183 symbol \$1/\$2;
#X obj 293 51 r \$0-make-src;
#X obj 65 20 t b b, f 33;
#X obj 305 132 r \$0-make-boardname;
#X obj 260 72 symbol;
#X obj 260 50 b;
#X obj 260 152 pack s s;
#X msg 260 94 symbol \$1/boards;
#X obj 260 115 t s s;
#X msg 260 175 symbol \$1/\$2/boardconfig.h;
#X obj 260 239 symbol;
#X text 271 21 first try local "boards" dir:;
#X obj 260 197 file isfile;
#X obj 260 218 sel 1;
#X obj 65 175 file isfile;
#X obj 65 198 sel 1 0;
#X obj 192 361 print MAKE;
#X msg 192 338 ERROR: board \$1 not found;
#X obj 225 294 r \$0-make-boardname;
#X obj 192 316 symbol;
#X obj 192 295 b;
#X obj 98 52 r \$0-boardsdir;
#X obj 260 260 s \$0-boardsdir;
#X connect 0 0 13 0;
#X connect 1 0 4 0;
#X connect 2 0 1 0;
#X connect 3 0 4 1;
#X connect 4 0 6 0;
#X connect 6 0 10 0;
#X connect 6 1 11 0;
#X connect 7 0 5 0;
#X connect 8 0 9 0;
#X connect 8 1 7 0;
#X connect 10 0 25 0;
#X connect 11 0 7 1;
#X connect 12 0 15 1;
#X connect 13 0 2 0;
#X connect 13 1 16 0;
#X connect 14 0 17 1;
#X connect 15 0 18 0;
#X connect 16 0 15 0;
#X connect 17 0 20 0;
#X connect 18 0 19 0;
#X connect 19 0 17 0;
#X connect 19 1 21 1;
#X connect 20 0 23 0;
#X connect 21 0 33 0;
#X connect 23 0 24 0;
#X connect 24 0 21 0;
#X connect 25 0 26 0;
#X connect 25 1 31 0;
#X connect 26 0 8 0;
#X connect 26 1 31 0;
#X connect 28 0 27 0;
#X connect 29 0 30 1;
#X connect 30 0 28 0;
#X connect 31 0 30 0;
#X connect 32 0 1 1;
#X restore 14 325 pd get_boarddir;
#X symbolatom 127 327 0 0 0 0 - - - 0;
#X obj 127 347 s \$0-make-boarddir;
#X obj 368 297 print MAKE;
#X msg 368 274 Board: \$1;
#N canvas 267 253 383 272 get_board_config 0;
#X obj 51 18 inlet;
#X obj 78 64 symbol;
#X obj 78 180 outlet;
#X obj 51 227 outlet;
#X obj 111 40 r \$0-make-boarddir;
#X obj 51 41 t b b;
#X obj 78 133 list trim;
#X obj 78 156 route #define;
#X obj 78 107 catfile;
#X msg 78 84 symbol \$1/boardconfig.h;
#X connect 0 0 5 0;
#X connect 1 0 9 0;
#X connect 4 0 1 1;
#X connect 5 0 3 0;
#X connect 5 1 1 0;
#X connect 6 0 7 0;
#X connect 7 0 2 0;
#X connect 8 0 6 0;
#X connect 9 0 8 0;
#X restore 14 369 pd get_board_config;
#X f 27;
#X obj 173 415 symbol;
#X symbolatom 173 436 10 0 0 0 - - - 0;
#X obj 173 457 s \$0-make-familly;
#X obj 53 104 s \$0-make-init;
#X obj 175 0 r \$0-make-init;
#X obj 288 417 symbol;
#X symbolatom 288 438 10 0 0 0 - - - 0;
#X obj 288 460 s \$0-make-chip;
#X obj 14 463 spigot;
#X obj 47 395 r \$0-make-familly;
#X obj 150 417 bng 15 250 50 0 empty empty empty 17 7 0 10 #fcfcfc #000000 #000000;
#X obj 513 498 r \$0-make-tobatch;
#X obj 14 82 t b a b;
#X obj 368 252 r \$0-make-boardname;
#X msg 519 519 print;
#X msg 559 519 write test.sh cr;
#X obj 101 347 bng 15 250 50 0 empty empty empty 17 7 0 10 #fcfcfc #000000 #000000;
#X symbolatom 296 117 0 0 0 0 - - - 0;
#N canvas 402 25 708 317 tosystem*OSDEP 1;
#X obj 22 20 inlet tosystem;
#X obj 307 119 list prepend nohup;
#X obj 22 240 list trim;
#X obj 22 272 shell;
#X obj 22 88 demux_os \$0, f 48;
#X obj 307 139 list append &;
#X obj 164 137 list append ";
#X obj 164 114 list prepend cmd /c ";
#X obj 39 127 list prepend nohup;
#X obj 63 154 list append &;
#X obj 340 215 declare -path command;
#X obj 174 257 command;
#X listbox 117 289 94 0 0 0 - - - 0;
#X obj 174 207 list prepend exec;
#X obj 174 230 list trim;
#X connect 0 0 4 0;
#X connect 1 0 5 0;
#X connect 2 0 3 0;
#X connect 4 0 13 0;
#X connect 4 1 7 0;
#X connect 4 2 1 0;
#X connect 5 0 2 0;
#X connect 6 0 2 0;
#X connect 7 0 6 0;
#X connect 8 0 2 0;
#X connect 9 0 2 0;
#X connect 13 0 12 0;
#X connect 13 0 14 0;
#X connect 14 0 11 0;
#X restore 514 598 pd tosystem*OSDEP;
#X obj 514 575 r \$0-make-launchbatch;
#X obj 78 193 bng 15 250 50 0 empty empty empty 17 7 0 10 #fcfcfc #000000 #000000;
#N canvas 683 100 416 300 shell-utils*OSDEP 0;
#X obj 51 19 r \$0-make-addpath;
#X obj 51 190 list prepend add;
#X obj 51 233 s \$0-make-tobatch;
#X obj 51 211 list trim;
#X obj 169 121 pack s s;
#X obj 214 59 loadbang;
#X msg 169 147 list PATH=%PATH%\$2\$1;
#X msg 214 80 59;
#X obj 214 100 makefilename %c;
#X obj 51 98 t b s;
#X obj 51 142 pack s s;
#X msg 51 120 symbol PATH=$PATH;
#X msg 51 163 symbol \$1:\$2;
#X obj 51 78 symbol;
#X obj 169 98 symbol;
#X obj 51 48 demux_os \$0;
#X connect 0 0 15 0;
#X connect 1 0 3 0;
#X connect 3 0 2 0;
#X connect 4 0 6 0;
#X connect 5 0 7 0;
#X connect 6 0 1 0;
#X connect 7 0 8 0;
#X connect 8 0 4 1;
#X connect 9 0 11 0;
#X connect 9 1 10 1;
#X connect 10 0 12 0;
#X connect 11 0 10 0;
#X connect 12 0 1 0;
#X connect 13 0 9 0;
#X connect 14 0 4 0;
#X connect 15 0 13 0;
#X connect 15 1 14 0;
#X connect 15 2 13 0;
#X restore 513 473 pd shell-utils*OSDEP;
#X obj 513 544 textfile;
#X obj 317 7 r \$0-fraisedir;
#X symbolatom 485 139 0 0 0 0 - - - 0;
#X obj 504 23 r \$0-fraisedir;
#X obj 198 262 s \$0-make-srcmain;
#X msg 504 44 symbol \$1/boards;
#X msg 198 242 symbol \$1/\$2/main.c;
#X msg 175 64 symbol \$1/../..;
#X msg 175 21 dir;
#X obj 175 42 pdcontrol;
#X obj 513 417 text define \$0-main;
#X msg 513 396 clear \, read -c \$1;
#X obj 513 253 r \$0-make-srcmain;
#X msg 47 438 1;
#X msg 86 438 0;
#X obj 74 460 tgl 16 0 empty empty empty 0 -8 0 10 #fcfcfc #000000 #000000 0 1;
#X obj 47 417 sel 18f;
#X obj 504 86 s \$0-boardsdir;
#X obj 504 65 file normalize;
#X obj 317 53 file normalize;
#X obj 175 85 file normalize;
#X obj 198 219 file splitname;
#X obj 713 249 text define \$0-binconfig;
#X obj 686 291 text search \$0-binconfig;
#X obj 686 314 text get \$0-binconfig;
#X msg 686 271 symbol OS;
#X msg 686 335 symbol \$2;
#X obj 686 206 t b s;
#X symbolatom 755 337 10 0 0 0 - - - 0;
#X obj 686 356 s \$0-make-OS;
#X obj 176 600 spigot;
#X obj 209 532 r \$0-make-familly;
#X msg 209 575 1;
#X msg 266 575 0;
#X obj 236 597 tgl 16 0 empty empty empty 0 -8 0 10 #fcfcfc #000000 #000000 0 1;
#X obj 209 554 sel rp2040;
#X obj 513 450 declare -path .;
#X obj 176 623 ../../pico/sys/make \$0 \$1;
#X obj 552 276 file isfile;
#X msg 615 298 0;
#X obj 513 276 t s s;
#X obj 513 299 list prepend;
#X obj 513 322 route 1 0;
#X obj 513 366 symbol;
#X msg 556 366 symbol \$1pp;
#X obj 556 343 symbol;
#N canvas 101 421 450 300 is_clean 0;
#X obj 66 99 list;
#X obj 66 47 route clean;
#X obj 66 71 t a b;
#X obj 121 126 s \$0-make-is-clean;
#X obj 129 69 t a b;
#X obj 66 21 inlet;
#X obj 66 122 outlet;
#X msg 121 95 1;
#X msg 156 94 0;
#X connect 0 0 6 0;
#X connect 1 0 2 0;
#X connect 1 1 4 0;
#X connect 2 0 0 0;
#X connect 2 1 7 0;
#X connect 4 0 0 0;
#X connect 4 1 8 0;
#X connect 5 0 1 0;
#X connect 7 0 3 0;
#X connect 8 0 3 0;
#X restore 14 45 pd is_clean;
#X obj 33 125 list split 3;
#X obj 33 149 unpack s s f, f 19;
#X obj 144 171 s \$0-make-is_pied_fruit;
#X msg 317 29 symbol \$1/../Fraise-toolchain;
#X msg 713 228 clear \, read -c \$1/bin/bin_config.txt;
#X obj 14 621 ../../pic/sys/make \$0 \$1;
#X obj 315 100 s \$0-toolchain-path;
#X obj 686 185 r \$0-toolchain-path;
#X obj 198 370 s \$0-board_config;
#X obj 173 392 route FAMILLY CHIP, f 39;
#X msg 620 7 symbol /C/Users/Admin/Documents/Pd/externals/Fraise-toolchain;
#X connect 0 0 84 0;
#X connect 1 0 2 0;
#X connect 4 0 3 0;
#X connect 4 0 59 0;
#X connect 7 0 10 0;
#X connect 7 1 8 0;
#X connect 8 0 9 0;
#X connect 10 0 15 0;
#X connect 10 1 11 0;
#X connect 11 0 12 0;
#X connect 14 0 13 0;
#X connect 15 0 68 0;
#X connect 15 0 24 0;
#X connect 15 1 93 0;
#X connect 15 1 94 0;
#X connect 16 0 17 0;
#X connect 17 0 18 0;
#X connect 20 0 46 0;
#X connect 21 0 22 0;
#X connect 22 0 23 0;
#X connect 24 0 90 0;
#X connect 25 0 54 0;
#X connect 26 0 17 0;
#X connect 27 0 38 0;
#X connect 28 0 7 0;
#X connect 28 1 85 0;
#X connect 28 2 19 0;
#X connect 29 0 14 0;
#X connect 30 0 38 0;
#X connect 31 0 38 0;
#X connect 32 0 11 0;
#X connect 35 0 34 0;
#X connect 36 0 4 0;
#X connect 39 0 88 0;
#X connect 41 0 43 0;
#X connect 43 0 56 0;
#X connect 44 0 42 0;
#X connect 45 0 58 0;
#X connect 46 0 47 0;
#X connect 47 0 45 0;
#X connect 49 0 48 0;
#X connect 50 0 78 0;
#X connect 51 0 53 0;
#X connect 51 0 24 1;
#X connect 52 0 53 0;
#X connect 52 0 24 1;
#X connect 54 0 51 0;
#X connect 54 1 52 0;
#X connect 56 0 40 0;
#X connect 56 0 55 0;
#X connect 57 0 33 0;
#X connect 57 0 91 0;
#X connect 58 0 5 0;
#X connect 58 0 6 0;
#X connect 59 0 44 0;
#X connect 61 0 62 0;
#X connect 62 0 64 0;
#X connect 63 0 61 0;
#X connect 64 0 66 0;
#X connect 64 0 67 0;
#X connect 65 0 63 0;
#X connect 65 1 89 0;
#X connect 68 0 75 0;
#X connect 69 0 73 0;
#X connect 70 0 72 0;
#X connect 70 0 68 1;
#X connect 71 0 72 0;
#X connect 71 0 68 1;
#X connect 73 0 70 0;
#X connect 73 1 71 0;
#X connect 76 0 79 1;
#X connect 76 1 77 0;
#X connect 77 0 79 1;
#X connect 78 0 79 0;
#X connect 78 1 76 0;
#X connect 79 0 80 0;
#X connect 80 0 81 0;
#X connect 80 1 83 0;
#X connect 81 0 49 0;
#X connect 82 0 49 0;
#X connect 83 0 82 0;
#X connect 84 0 28 0;
#X connect 85 0 86 0;
#X connect 86 0 1 0;
#X connect 86 1 4 0;
#X connect 86 2 87 0;
#X connect 88 0 57 0;
#X connect 89 0 60 0;
#X connect 92 0 65 0;
#X connect 94 0 16 0;
#X connect 94 1 21 0;
#X connect 95 0 91 0;
