#N canvas 7 75 497 297 10;
#X obj 24 60 inlet;
#X obj 425 79 inlet n;
#X obj 24 183 spigot;
#X obj 24 205 outlet;
#X obj 57 162 == 0;
#X obj 99 183 spigot;
#X obj 99 205 outlet;
#X obj 172 183 spigot;
#X obj 172 205 outlet;
#X obj 247 183 spigot;
#X obj 247 205 outlet;
#X obj 132 162 == 1;
#X obj 205 162 == 2;
#X obj 280 162 == 3;
#X obj 317 186 spigot;
#X obj 317 208 outlet;
#X obj 392 186 spigot;
#X obj 392 208 outlet;
#X obj 350 165 == 4;
#X obj 425 165 == 5;
#X connect 0 0 2 0;
#X connect 0 0 5 0;
#X connect 0 0 7 0;
#X connect 0 0 9 0;
#X connect 0 0 14 0;
#X connect 0 0 16 0;
#X connect 1 0 4 0;
#X connect 1 0 11 0;
#X connect 1 0 12 0;
#X connect 1 0 13 0;
#X connect 1 0 18 0;
#X connect 1 0 19 0;
#X connect 2 0 3 0;
#X connect 4 0 2 1;
#X connect 5 0 6 0;
#X connect 7 0 8 0;
#X connect 9 0 10 0;
#X connect 11 0 5 1;
#X connect 12 0 7 1;
#X connect 13 0 9 1;
#X connect 14 0 15 0;
#X connect 16 0 17 0;
#X connect 18 0 14 1;
#X connect 19 0 16 1;
