#N canvas 638 99 509 417 10;
#X obj 237 21 cnv 18 135 18 empty \$0-c2 empty 4 10 0 12 #d47b18 #fcfcfc 0;
#X obj 30 22 bng 16 250 50 0 \$0-s \$0-s select 18 8 0 12 #fcfcfc #000000 #fcfcfc;
#X obj 245 22 bng 16 250 50 0 \$0-a \$0-a assign 18 8 0 12 #fcfcfc #000000 #fcfcfc;
#X obj 21 21 cnv 18 215 18 empty \$0-c ID\ 1:\ /dev/ttyACM0 4 10 0 12 #d47b18 #fcfcfc 0;
#X obj 21 287 r \$1-devname;
#X obj 21 308 symbol;
#X obj 21 329 sel __;
#X obj 76 328 t b s;
#X msg 21 350 1;
#X msg 54 350 0;
#X obj 21 371 s \$0-is_selected;
#X obj 76 308 r \$0-devname;
#X obj 169 308 route bang;
#X obj 319 290 r \$0-a;
#X obj 319 311 route bang;
#X obj 169 287 r \$0-s;
#X obj 169 329 symbol;
#X obj 169 350 s \$1-devname;
#X obj 216 329 r \$0-devname;
#X obj 319 355 s \$1-set_id_dialog_open;
#X obj 319 332 symbol;
#X obj 365 332 r \$0-devname;
#X obj 214 209 v \$1-wantedid;
#X obj 22 52 r \$1-update-piedsUI;
#X obj 22 73 b;
#X obj 22 94 f \$2;
#X obj 22 115 text get \$1-pieds;
#X listbox 132 136 20 0 0 0 - - - 0;
#X obj 68 88 bng 16 250 50 0 empty empty empty 0 -8 0 10 #fcfcfc #000000 #000000;
#X msg 93 165 label ID\\\ \$3:\\\ \$2;
#X obj 93 186 s \$0-c;
#X obj 22 136 route bang;
#X msg 79 208 symbol \$2;
#X obj 22 241 s \$0-devname;
#X msg 22 159 symbol;
#X obj 214 252 s \$0-is_settable;
#X msg 214 168 \$3;
#X obj 214 189 t b f, f 15;
#X obj 214 230 !=, f 15;
#N canvas 643 348 878 392 colors/pos 0;
#X obj 571 113 r \$1-manualselect;
#X obj 19 14 r \$1-update-piedsUI;
#X obj 19 38 text size \$1-pieds;
#X obj 19 62 > \$2;
#X msg 281 264 color 11 0 0;
#X obj 191 30 loadbang;
#X msg 191 51 0;
#X obj 275 164 t b f;
#X obj 263 189 +;
#X obj 275 139 * 2;
#X obj 340 23 tgl 16 0 empty empty empty 0 -8 0 10 #fcfcfc #000000 #000000 0 1;
#X obj 230 138 tgl 16 0 empty empty empty 0 -8 0 10 #fcfcfc #000000 #000000 0 1;
#X obj 263 210 sel 0 1 2 3, f 13;
#X obj 19 94 t f f f, f 82;
#X msg 263 241 color 22 22 22;
#X msg 508 225 pos \$1 22;
#X obj 263 313 s \$0-c2;
#X obj 326 318 r \$0-c2;
#X obj 326 339 s \$0-c;
#X obj 508 183 * 310;
#X obj 508 204 max 30;
#X obj 508 115 &&;
#X obj 533 115 t b f;
#X msg 19 204 pos \$1 22;
#X obj 19 183 max 30;
#X obj 57 141 t b f;
#X obj 19 162 * 245;
#X obj 19 141 && 1;
#X obj 57 118 r \$0-is_settable;
#X obj 275 115 r \$0-is_selected;
#X obj 344 48 s \$0-is_selected;
#X obj 19 226 s \$0-a;
#X obj 79 59 tgl 16 0 empty empty empty 0 -8 0 10 #fcfcfc #000000 #000000 0 1;
#X obj 508 246 s \$0-s;
#X msg 320 285 color #d47b18 0 0;
#X obj 572 137 r \$0-is_selected;
#X obj 508 159 &&;
#X obj 533 159 t b f;
#X obj 572 158 == 0;
#X connect 0 0 22 0;
#X connect 1 0 2 0;
#X connect 2 0 3 0;
#X connect 3 0 13 0;
#X connect 4 0 16 0;
#X connect 5 0 6 0;
#X connect 6 0 13 0;
#X connect 7 0 8 0;
#X connect 7 1 8 1;
#X connect 8 0 12 0;
#X connect 9 0 7 0;
#X connect 10 0 30 0;
#X connect 11 0 8 0;
#X connect 12 0 14 0;
#X connect 12 1 4 0;
#X connect 12 2 14 0;
#X connect 12 3 34 0;
#X connect 13 0 27 0;
#X connect 13 1 8 0;
#X connect 13 2 21 0;
#X connect 14 0 16 0;
#X connect 15 0 33 0;
#X connect 17 0 18 0;
#X connect 19 0 20 0;
#X connect 20 0 15 0;
#X connect 21 0 36 0;
#X connect 22 0 21 0;
#X connect 22 1 21 1;
#X connect 23 0 31 0;
#X connect 24 0 23 0;
#X connect 25 0 27 0;
#X connect 25 1 27 1;
#X connect 26 0 24 0;
#X connect 27 0 26 0;
#X connect 28 0 25 0;
#X connect 29 0 9 0;
#X connect 32 0 13 0;
#X connect 34 0 16 0;
#X connect 35 0 38 0;
#X connect 36 0 19 0;
#X connect 37 0 36 0;
#X connect 37 1 36 1;
#X connect 38 0 37 0;
#X restore 288 57 pd colors/pos;
#X connect 4 0 5 0;
#X connect 5 0 6 0;
#X connect 6 0 8 0;
#X connect 6 1 9 0;
#X connect 7 0 5 0;
#X connect 7 1 6 1;
#X connect 8 0 10 0;
#X connect 9 0 10 0;
#X connect 11 0 7 0;
#X connect 12 0 16 0;
#X connect 13 0 14 0;
#X connect 14 0 20 0;
#X connect 15 0 12 0;
#X connect 16 0 17 0;
#X connect 18 0 16 1;
#X connect 20 0 19 0;
#X connect 21 0 20 1;
#X connect 22 0 38 0;
#X connect 23 0 24 0;
#X connect 24 0 25 0;
#X connect 25 0 26 0;
#X connect 26 0 31 0;
#X connect 28 0 24 0;
#X connect 29 0 30 0;
#X connect 31 0 34 0;
#X connect 31 1 29 0;
#X connect 31 1 32 0;
#X connect 31 1 36 0;
#X connect 31 1 27 0;
#X connect 32 0 33 0;
#X connect 34 0 33 0;
#X connect 36 0 37 0;
#X connect 37 0 22 0;
#X connect 37 1 38 1;
#X connect 38 0 35 0;
#X coords 0 -1 1 1 352 20 1 20 20;
