#N canvas 162 40 479 392 10;
#X msg 129 323 list \$1.bat;
#X obj 129 302 symbol;
#X obj 38 301 symbol;
#X obj 38 14 inlet;
#X obj 107 164 select windows;
#X obj 107 140 r \$1-make-OS;
#X msg 107 186 1;
#X msg 188 186 0;
#X obj 38 211 list prepend;
#X obj 38 277 route 0 1, f 31;
#X obj 38 348 s \$1-make-launchbatch;
#X msg 38 322 list sh \$1.sh;
#X obj 38 98 pack s s;
#X msg 38 119 symbol \$2/\$1;
#X obj 83 74 r \$1-make-src;
#X obj 38 56 symbol \$2;
#X obj 38 35 b;
#X msg 257 315 symbol \$1.sh;
#X msg 342 316 symbol \$1.bat;
#X msg 257 338 write \$1 cr;
#X obj 257 295 symbol;
#X obj 342 296 symbol;
#X obj 38 233 t a a, f 37;
#X obj 257 275 route 0 1, f 29;
#X obj 257 360 s \$1-make-tobatch;
#X text 269 257 save batch...;
#X text 59 258 then run it.;
#X connect 0 0 10 0;
#X connect 1 0 0 0;
#X connect 2 0 11 0;
#X connect 3 0 16 0;
#X connect 4 0 6 0;
#X connect 4 1 7 0;
#X connect 5 0 4 0;
#X connect 6 0 8 1;
#X connect 7 0 8 1;
#X connect 8 0 22 0;
#X connect 9 0 2 0;
#X connect 9 1 1 0;
#X connect 11 0 10 0;
#X connect 12 0 13 0;
#X connect 13 0 8 0;
#X connect 14 0 12 1;
#X connect 15 0 12 0;
#X connect 16 0 15 0;
#X connect 17 0 19 0;
#X connect 18 0 19 0;
#X connect 19 0 24 0;
#X connect 20 0 17 0;
#X connect 21 0 18 0;
#X connect 22 0 9 0;
#X connect 22 1 23 0;
#X connect 23 0 20 0;
#X connect 23 1 21 0;
