#N canvas 228 506 466 224 10;
#X obj 34 16 inlet;
#X obj 34 58 t a b, f 12;
#X msg 34 84 symbol \$1;
#X text 179 127 SourcePath thisPath netPort;
#X text 69 15 (progboot) Fruitname SourcePath;
#X obj 34 171 outlet tosystem;
#X text 193 148 thisPath/progboot.sh SourcePath netPort;
#X msg 103 83 dir;
#X obj 103 104 pdcontrol;
#X obj 34 126 pack s s 41111, f 23;
#X obj 169 105 r \$1-port;
#X msg 34 148 bash \$2/progboot.sh \$1 \$3;
#X connect 0 0 1 0;
#X connect 1 0 2 0;
#X connect 1 1 7 0;
#X connect 2 0 9 0;
#X connect 7 0 8 0;
#X connect 8 0 9 1;
#X connect 9 0 11 0;
#X connect 10 0 9 2;
#X connect 11 0 5 0;
