#N canvas 834 146 915 582 10;
#X declare -path Fraise;
#X obj 22 207 fruit/receive fruit1;
#X obj 43 280 * 256;
#X obj 22 302 +;
#X obj 85 276 * 256;
#X obj 65 302 +;
#X obj 127 276 * 256;
#X obj 106 301 +;
#X obj 22 326 change;
#X obj 65 328 change;
#X obj 106 328 change;
#X floatatom 80 434 5 0 0 0 - - - 0;
#X obj 25 512 hsl 128 15 -1 1 0 0 empty empty empty -2 -8 0 10 #fcfcfc #000000 #000000 0 1;
#X obj 22 394 + 32768;
#X obj 22 416 mod 65536;
#X obj 22 438 - 32768;
#X obj 22 460 / 32768;
#X obj 169 514 hsl 128 15 -1 1 0 0 empty empty empty -2 -8 0 10 #fcfcfc #000000 #000000 0 1;
#X obj 166 396 + 32768;
#X obj 166 418 mod 65536;
#X obj 166 440 - 32768;
#X obj 166 462 / 32768;
#X obj 315 511 hsl 128 15 -1 1 0 0 empty empty empty -2 -8 0 10 #fcfcfc #000000 #000000 0 1;
#X obj 312 393 + 32768;
#X obj 312 415 mod 65536;
#X obj 312 437 - 32768;
#X obj 312 459 / 32768;
#X obj 312 481 * 130;
#X obj 166 484 * 116;
#X obj 22 482 * 116;
#X obj 22 255 unpack f f f f f f;
#X obj 479 278 * 256;
#X obj 458 300 +;
#X obj 521 274 * 256;
#X obj 501 300 +;
#X obj 563 274 * 256;
#X obj 542 299 +;
#X obj 501 326 change;
#X obj 542 326 change;
#X floatatom 516 432 5 0 0 0 - - - 0;
#X obj 461 510 hsl 128 15 -1 1 0 0 empty empty empty -2 -8 0 10 #fcfcfc #000000 #000000 0 1;
#X obj 458 392 + 32768;
#X obj 458 414 mod 65536;
#X obj 458 436 - 32768;
#X obj 458 458 / 32768;
#X obj 608 398 + 32768;
#X obj 608 420 mod 65536;
#X obj 608 442 - 32768;
#X obj 608 464 / 32768;
#X obj 751 509 hsl 128 15 -1 1 0 0 empty empty empty -2 -8 0 10 #fcfcfc #000000 #000000 0 1;
#X obj 748 398 + 32768;
#X obj 748 420 mod 65536;
#X obj 748 442 - 32768;
#X obj 748 464 / 32768;
#X obj 748 486 * 130;
#X obj 608 486 * 116;
#X obj 458 480 * 116;
#X obj 458 253 unpack f f f f f f;
#X obj 22 229 route 1 2, f 146;
#X obj 458 324 change;
#X obj 21 38 pied/pied 1;
#X obj 21 16 declare -path Fraise;
#X obj 611 509 hsl 128 15 -1 1 0 0 empty empty empty -2 -8 0 10 #fcfcfc #000000 #000000 0 1;
#N canvas 245 129 455 238 example-5V-translate-schematic 0;
#X text 124 142 +5V---150--;
#X text 124 162 GND---330--;
#X text 186 147 |;
#X text 186 157 |;
#X text 142 170 |;
#X text 199 96 |;
#X text 249 119 |;
#X text 249 129 |;
#X text 199 136 |;
#X text 199 146 |;
#X text 199 117 |;
#X text 199 127 |;
#X text 249 70 |;
#X text 249 99 |;
#X text 249 109 |;
#X text 249 80 |;
#X text 249 89 |;
#X text 249 49 |;
#X text 188 151 ---------------3.43V;
#X text 143 175 -----------------------GND;
#X text 249 137 |;
#X text 249 147 |;
#X text 28 111 5V side;
#X text 330 99 ADXL345;
#X text 330 115 3.3V side;
#X text 103 44 K5(SCL)---220---------------SCL;
#X text 102 90 K7(SDA)---220-------SDA;
#X text 28 95 Versa;
#X text 243 60 2.2K;
#X text 192 108 2.2K;
#X restore 21 551 pd example-5V-translate-schematic;
#X obj 19 141 fruit/fruit 1 fruit1 10 example1;
#X connect 0 0 57 0;
#X connect 1 0 2 1;
#X connect 2 0 7 0;
#X connect 3 0 4 1;
#X connect 4 0 8 0;
#X connect 5 0 6 1;
#X connect 6 0 9 0;
#X connect 7 0 12 0;
#X connect 8 0 17 0;
#X connect 9 0 22 0;
#X connect 12 0 13 0;
#X connect 13 0 14 0;
#X connect 14 0 15 0;
#X connect 15 0 28 0;
#X connect 17 0 18 0;
#X connect 18 0 19 0;
#X connect 19 0 20 0;
#X connect 20 0 27 0;
#X connect 22 0 23 0;
#X connect 23 0 24 0;
#X connect 24 0 25 0;
#X connect 25 0 26 0;
#X connect 26 0 21 0;
#X connect 27 0 16 0;
#X connect 28 0 11 0;
#X connect 29 0 2 0;
#X connect 29 1 1 0;
#X connect 29 2 4 0;
#X connect 29 3 3 0;
#X connect 29 4 6 0;
#X connect 29 5 5 0;
#X connect 30 0 31 1;
#X connect 31 0 58 0;
#X connect 32 0 33 1;
#X connect 33 0 36 0;
#X connect 34 0 35 1;
#X connect 35 0 37 0;
#X connect 36 0 44 0;
#X connect 37 0 49 0;
#X connect 40 0 41 0;
#X connect 41 0 42 0;
#X connect 42 0 43 0;
#X connect 43 0 55 0;
#X connect 44 0 45 0;
#X connect 45 0 46 0;
#X connect 46 0 47 0;
#X connect 47 0 54 0;
#X connect 49 0 50 0;
#X connect 50 0 51 0;
#X connect 51 0 52 0;
#X connect 52 0 53 0;
#X connect 53 0 48 0;
#X connect 54 0 61 0;
#X connect 55 0 39 0;
#X connect 56 0 31 0;
#X connect 56 1 30 0;
#X connect 56 2 33 0;
#X connect 56 3 32 0;
#X connect 56 4 35 0;
#X connect 56 5 34 0;
#X connect 57 0 29 0;
#X connect 57 1 56 0;
#X connect 58 0 40 0;
