#N canvas 738 317 526 579 10;
#X declare -path Fraise -path Fraise/pic;
#X obj 22 237 analog/parse;
#X obj 22 262 route 0 1 2 3;
#X floatatom 22 371 8 0 0 0 - - - 0;
#X floatatom 40 345 8 0 0 0 - - - 0;
#X floatatom 59 319 8 0 0 0 - - - 0;
#X floatatom 78 293 8 0 0 0 - - - 0;
#X obj 22 207 fruit/receive fruit1;
#X text 114 235 Analog capture on connector K1 \, K2 \, K3 and K5.;
#X text 109 250 (K4 \, K11 and K12 cannot be analog inputs on Versa1);
#X msg 127 522 L\$1;
#X obj 127 499 tgl 15 0 empty empty set_LED 18 7 0 10 #00fc04 #000000 #000000 0 1;
#X obj 218 463 tgl 15 0 empty empty empty 17 7 0 10 #fcfcfc #000000 #000000 0 1;
#X msg 269 438 20;
#X floatatom 269 460 5 2 1000 0 - - - 0;
#X msg 299 437 100;
#X obj 218 482 metro 100;
#X obj 22 548 fruit/send2 fruit1;
#X obj 22 399 spigot;
#X obj 80 384 tgl 15 0 empty empty empty 17 7 0 10 #f8fc00 #000000 #000000 0 1;
#X text 102 382 <- switch this on \, then touch the pins of connector K1 to drive the led on., f 30;
#X obj 22 474 > 500;
#X obj 19 141 fruit/fruit 1 fruit1 10 example1-8X2A;
#X obj 380 304 analog/normalize 3;
#X obj 380 323 route 0 1 2 3;
#X floatatom 380 432 8 0 0 0 - - - 0;
#X floatatom 398 406 8 0 0 0 - - - 0;
#X floatatom 417 380 8 0 0 0 - - - 0;
#X floatatom 436 354 8 0 0 0 - - - 0;
#X obj 21 38 pied/pied 1;
#X obj 21 16 declare -path Fraise -path Fraise/pic;
#X connect 0 0 1 0;
#X connect 0 0 22 0;
#X connect 1 0 2 0;
#X connect 1 1 3 0;
#X connect 1 2 4 0;
#X connect 1 3 5 0;
#X connect 2 0 17 0;
#X connect 6 0 0 0;
#X connect 9 0 16 1;
#X connect 10 0 9 0;
#X connect 11 0 15 0;
#X connect 12 0 13 0;
#X connect 13 0 15 1;
#X connect 14 0 13 0;
#X connect 15 0 10 0;
#X connect 17 0 20 0;
#X connect 18 0 17 1;
#X connect 20 0 10 0;
#X connect 22 0 23 0;
#X connect 23 0 24 0;
#X connect 23 1 25 0;
#X connect 23 2 26 0;
#X connect 23 3 27 0;
