#N canvas 385 174 603 677 10;
#X obj 11 40 route Fr2;
#X obj 11 61 s Fr2;
#X obj 13 91 r 2Fr2;
#X obj 13 113 list prepend 2Fr2;
#X obj 168 44 tgl 15 0 empty empty empty 17 7 0 10 -262144 -1 -1 1
1;
#X obj 239 94 del 100;
#X msg 239 116 refresh;
#X obj 239 139 s 2Fr2;
#X msg 167 94 1 \, 2 \, 3 \, 4;
#X msg 167 116 \$1 actif 0;
#X obj 168 68 sel 0 1;
#X obj 145 355 metro 2000;
#X obj 145 273 t f f;
#X msg 236 347 disconnect;
#X obj 236 325 sel 0;
#X obj 122 455 == 0;
#X obj 180 323 t b f;
#X obj 18 285 spigot;
#X obj 18 351 list prepend send;
#X obj 18 329 list prepend \$2;
#X obj 128 502 route _all_ \$2;
#X obj 323 254 r \$1-fromserver;
#X obj 323 277 route echo disconnect;
#X obj 323 337 s \$1-toserver;
#X obj 114 214 cnv 15 185 15 empty \$0-crcv empty 20 12 0 14 -241291
-241291 0;
#X obj 101 214 tgl 15 0 \$0-on \$0-on empty 17 7 0 10 -262144 -1 -1
1 1;
#X obj 312 481 route 0 1;
#X obj 322 553 s \$0-crcv;
#X msg 312 523 color 10 10 10;
#X obj 248 517 loadbang;
#X msg 410 115 0;
#X obj 364 67 inlet;
#X obj 145 323 && 1;
#X obj 18 375 list trim;
#X obj 323 303 list prepend echo;
#X obj 144 425 netsend;
#X obj 378 93 loadbang;
#X msg 378 116 1;
#X obj 56 484 != 0;
#X floatatom 60 446 5 0 0 0 - - -, f 5;
#X obj 128 529 s \$0-fromserver;
#X obj 18 261 r \$0-toserver;
#X obj 13 136 s \$0-toserver;
#X obj 9 20 r \$0-fromserver;
#X obj 168 12 r \$0-connected;
#X obj 145 377 list prepend \$1 \$2;
#X msg 145 397 disconnect \, connect \$1 \$2;
#X obj 56 555 s \$0-connected;
#X text 291 11 client host port(tcp);
#X obj 364 143 s \$0-on;
#X obj 145 252 r \$0-on;
#X msg 342 501 color 15 15 15;
#X connect 0 0 1 0;
#X connect 2 0 3 0;
#X connect 3 0 42 0;
#X connect 4 0 10 0;
#X connect 5 0 6 0;
#X connect 6 0 7 0;
#X connect 8 0 9 0;
#X connect 9 0 1 0;
#X connect 10 0 8 0;
#X connect 10 1 5 0;
#X connect 11 0 45 0;
#X connect 12 0 14 0;
#X connect 12 1 32 0;
#X connect 13 0 35 0;
#X connect 14 0 13 0;
#X connect 15 0 16 0;
#X connect 16 0 32 0;
#X connect 16 1 32 1;
#X connect 17 0 19 0;
#X connect 18 0 33 0;
#X connect 19 0 18 0;
#X connect 20 0 40 0;
#X connect 20 1 40 0;
#X connect 21 0 22 0;
#X connect 22 0 34 0;
#X connect 26 0 28 0;
#X connect 26 1 51 0;
#X connect 28 0 27 0;
#X connect 29 0 28 0;
#X connect 30 0 49 0;
#X connect 31 0 49 0;
#X connect 32 0 11 0;
#X connect 33 0 35 0;
#X connect 34 0 23 0;
#X connect 35 0 17 1;
#X connect 35 0 26 0;
#X connect 35 0 15 0;
#X connect 35 0 38 0;
#X connect 35 0 39 0;
#X connect 35 1 20 0;
#X connect 36 0 37 0;
#X connect 37 0 49 0;
#X connect 38 0 47 0;
#X connect 41 0 17 0;
#X connect 43 0 0 0;
#X connect 44 0 4 0;
#X connect 45 0 46 0;
#X connect 46 0 35 0;
#X connect 50 0 12 0;
#X connect 51 0 27 0;
#X coords 0 -1 1 1 200 30 1 100 200;
