#N canvas 439 171 535 623 10;
#X obj 50 205 r Fr2;
#X obj 50 227 list prepend _all_ Fr2;
#X obj 88 145 s 2Fr2;
#X obj 48 80 list split 1;
#X obj 88 123 route 2Fr2;
#X obj 217 123 route actif;
#X obj 199 146 f;
#X obj 256 144 route actif;
#X obj 239 165 f;
#X obj 295 170 route actif;
#X obj 278 193 f;
#X obj 340 191 route actif;
#X obj 325 213 f;
#X obj 237 90 route 1 2 3 4;
#X msg 199 168 1 \$1;
#X msg 238 189 2 $;
#X msg 277 214 3 \$1;
#X msg 325 237 4 $;
#X obj 199 93 b;
#X obj 199 53 route refresh;
#X obj 51 173 print;
#X obj 88 102 list trim;
#X msg 199 258 \$1 actif \$2;
#X obj 48 57 r \$0-fromclients;
#X obj 50 250 s \$0-toclients;
#X obj 116 344 a2l;
#X obj 116 320 spigot;
#X obj 191 439 > 0;
#X floatatom 266 393 5 0 0 0 - - -, f 5;
#X obj 192 589 print clients_echo;
#X obj 116 390 route list;
#X obj 11 24 cnv 15 100 15 empty \$0-crcv Connected:1 2 8 0 12 -241291
-1 0;
#X msg 306 426 label Connected:\$1;
#X obj 306 450 s \$0-crcv;
#X text 148 501 redirection;
#X obj 85 565 list trim;
#X msg 249 320 _all_ disconnect;
#X obj 116 366 list prepend send;
#X obj 306 386 f 0;
#X obj 306 363 loadbang;
#X obj 51 501 list split 1;
#X obj 85 544 route TALK echo;
#X obj 325 590 print;
#X obj 85 522 list trim;
#X text 127 9 server tcp_port;
#X obj 116 418 netreceive \$1;
#X obj 116 296 r \$0-toclients;
#X obj 85 589 s \$0-toclients;
#X obj 116 471 s \$0-fromclients;
#X msg 382 383 color 10 22 22;
#X msg 424 404 color 15 22 22;
#X obj 382 334 change;
#X obj 382 356 sel 0 1;
#X obj 440 357 loadbang;
#X connect 0 0 1 0;
#X connect 0 0 13 0;
#X connect 1 0 24 0;
#X connect 3 1 21 0;
#X connect 4 0 2 0;
#X connect 4 0 19 0;
#X connect 5 0 6 1;
#X connect 6 0 14 0;
#X connect 7 0 8 1;
#X connect 8 0 15 0;
#X connect 9 0 10 1;
#X connect 10 0 16 0;
#X connect 11 0 12 1;
#X connect 12 0 17 0;
#X connect 13 0 5 0;
#X connect 13 1 7 0;
#X connect 13 2 9 0;
#X connect 13 3 11 0;
#X connect 14 0 22 0;
#X connect 15 0 22 0;
#X connect 16 0 22 0;
#X connect 17 0 22 0;
#X connect 18 0 6 0;
#X connect 18 0 8 0;
#X connect 18 0 10 0;
#X connect 18 0 12 0;
#X connect 19 0 18 0;
#X connect 21 0 4 0;
#X connect 22 0 1 0;
#X connect 23 0 3 0;
#X connect 25 0 37 0;
#X connect 26 0 25 0;
#X connect 27 0 26 1;
#X connect 27 0 51 0;
#X connect 28 0 32 0;
#X connect 30 0 45 0;
#X connect 32 0 33 0;
#X connect 35 0 47 0;
#X connect 36 0 26 0;
#X connect 37 0 30 0;
#X connect 38 0 32 0;
#X connect 39 0 38 0;
#X connect 40 1 43 0;
#X connect 41 0 35 0;
#X connect 41 1 29 0;
#X connect 43 0 41 0;
#X connect 45 0 40 0;
#X connect 45 0 48 0;
#X connect 45 1 27 0;
#X connect 45 1 32 0;
#X connect 46 0 26 0;
#X connect 49 0 33 0;
#X connect 50 0 33 0;
#X connect 51 0 52 0;
#X connect 52 0 49 0;
#X connect 52 1 50 0;
#X connect 53 0 49 0;
#X coords 0 -1 1 1 102 30 1 10 10;
